g 1
v 3.480054 0 0
v 3.404007 0.7235439 0
v 3.179188 1.415466 0
v 2.815423 2.045525 0
v 2.328611 2.586184 0
v 1.740027 3.013815 0
v 1.075396 3.309728 0
v 0.3637646 3.46099 0
v -0.3637649 3.46099 0
v -1.075396 3.309728 0
v -1.740027 3.013815 0
v -2.328611 2.586184 0
v -2.815423 2.045524 0
v -3.179188 1.415465 0
v -3.404007 0.7235436 0
v -3.480054 -3.04236E-07 0
v -3.404006 -0.7235442 0
v -3.179188 -1.415466 0
v -2.815423 -2.045525 0
v -2.32861 -2.586185 0
v -1.740027 -3.013815 0
v -1.075396 -3.309728 0
v -0.3637659 -3.46099 0
v 0.3637627 -3.46099 0
v 1.075393 -3.309729 0
v 1.740024 -3.013817 0
v 2.328607 -2.586187 0
v 2.81542 -2.045529 0
v 3.179185 -1.415471 0
v 3.404005 -0.7235507 0
v 3.480054 0 0.2085827
v 3.404007 0.7235439 0.2085827
v 3.179188 1.415466 0.2085827
v 2.815423 2.045525 0.2085827
v 2.328611 2.586184 0.2085827
v 1.740027 3.013815 0.2085827
v 1.075396 3.309728 0.2085827
v 0.3637646 3.46099 0.2085827
v -0.3637649 3.46099 0.2085827
v -1.075396 3.309728 0.2085827
v -1.740027 3.013815 0.2085827
v -2.328611 2.586184 0.2085827
v -2.815423 2.045524 0.2085827
v -3.179188 1.415465 0.2085827
v -3.404007 0.7235436 0.2085827
v -3.480054 -3.04236E-07 0.2085827
v -3.404006 -0.7235442 0.2085827
v -3.179188 -1.415466 0.2085827
v -2.815423 -2.045525 0.2085827
v -2.32861 -2.586185 0.2085827
v -1.740027 -3.013815 0.2085827
v -1.075396 -3.309728 0.2085827
v -0.3637659 -3.46099 0.2085827
v 0.3637627 -3.46099 0.2085827
v 1.075393 -3.309729 0.2085827
v 1.740024 -3.013817 0.2085827
v 2.328607 -2.586187 0.2085827
v 2.81542 -2.045529 0.2085827
v 3.179185 -1.415471 0.2085827
v 3.404005 -0.7235507 0.2085827
v 0 0 0.2085827
v -0.3637649 3.46099 0
v -0.3637649 3.46099 0.2085827
v 0.3637627 -3.46099 0
v 0.3637627 -3.46099 0.2085827
v 3.480054 0 0.2085827
v 3.404007 0.7235439 0.2085827
v 3.179188 1.415466 0.2085827
v 2.815423 2.045525 0.2085827
v 2.328611 2.586184 0.2085827
v 1.740027 3.013815 0.2085827
v 1.075396 3.309728 0.2085827
v 0.3637646 3.46099 0.2085827
v -0.3637649 3.46099 0.2085827
v -1.075396 3.309728 0.2085827
v -1.740027 3.013815 0.2085827
v -2.328611 2.586184 0.2085827
v -2.815423 2.045524 0.2085827
v -3.179188 1.415465 0.2085827
v -3.404007 0.7235436 0.2085827
v -3.480054 -3.04236E-07 0.2085827
v -3.404006 -0.7235442 0.2085827
v -3.179188 -1.415466 0.2085827
v -2.815423 -2.045525 0.2085827
v -2.32861 -2.586185 0.2085827
v -1.740027 -3.013815 0.2085827
v -1.075396 -3.309728 0.2085827
v -0.3637659 -3.46099 0.2085827
v 0.3637627 -3.46099 0.2085827
v 1.075393 -3.309729 0.2085827
v 1.740024 -3.013817 0.2085827
v 2.328607 -2.586187 0.2085827
v 2.81542 -2.045529 0.2085827
v 3.179185 -1.415471 0.2085827
v 3.404005 -0.7235507 0.2085827
vt 0.4688827 0.9524865
vt 0.5352194 0.9524865
vt 0.6015559 0.9524865
vt 0.6678926 0.9524865
vt 0.7342292 0.9524865
vt 0.8005659 0.9524865
vt 0.8669025 0.9524865
vt 0.933239 0.9524865
vt 0.9995756 0.9524865
vt 0.07070307 0.9766958
vt 0.1370397 0.9766958
vt 0.2033763 0.9766958
vt 0.269713 0.9766958
vt 0.3360496 0.9766958
vt 0.4023863 0.9766958
vt 0.4687229 0.9766958
vt 0.5350595 0.9766958
vt 0.6013961 0.9766958
vt 0.6677328 0.9766958
vt 0.7340694 0.9766958
vt 0.800406 0.9766958
vt 0.8667425 0.9766958
vt 0.9330792 0.9766958
vt 0.9994157 0.9766958
vt 0.07086271 0.9524865
vt 0.1371993 0.9524865
vt 0.2035358 0.9524865
vt 0.2698723 0.9524865
vt 0.3362089 0.9524865
vt 0.4025454 0.9524865
vt 0.4688827 0.9721998
vt 0.5352194 0.9721998
vt 0.6015559 0.9721998
vt 0.6678926 0.9721998
vt 0.7342292 0.9721998
vt 0.8005659 0.9721998
vt 0.8669025 0.9721998
vt 0.933239 0.9721998
vt 0.9995756 0.9721998
vt 0.07070307 0.9964092
vt 0.1370397 0.9964092
vt 0.2033763 0.9964092
vt 0.269713 0.9964092
vt 0.3360496 0.9964092
vt 0.4023863 0.9964092
vt 0.4687229 0.9964092
vt 0.5350595 0.9964092
vt 0.6013961 0.9964092
vt 0.6677328 0.9964092
vt 0.7340694 0.9964092
vt 0.800406 0.9964092
vt 0.8667425 0.9964092
vt 0.9330792 0.9964092
vt 0.9994157 0.9964092
vt 0.07086271 0.9721998
vt 0.1371993 0.9721998
vt 0.2035358 0.9721998
vt 0.2698723 0.9721998
vt 0.3362089 0.9721998
vt 0.4025454 0.9721998
vt 0.3320412 0.6159897
vt 0.004366444 0.9766958
vt 0.004366444 0.9964092
vt 0.004526137 0.9524865
vt 0.004526137 0.9721998
vt 0.3320412 0.9385703
vt 0.2649729 0.9315212
vt 0.2008359 0.9106817
vt 0.142433 0.8769629
vt 0.0923171 0.8318383
vt 0.05267817 0.77728
vt 0.0252488 0.7156725
vt 0.01122771 0.6497085
vt 0.01122771 0.5822707
vt 0.0252488 0.5163068
vt 0.05267821 0.4546993
vt 0.0923171 0.400141
vt 0.1424331 0.3550164
vt 0.2008359 0.3212976
vt 0.264973 0.3004582
vt 0.3320413 0.293409
vt 0.3991095 0.3004582
vt 0.4632466 0.3212976
vt 0.5216495 0.3550164
vt 0.5717654 0.4001411
vt 0.6114043 0.4546994
vt 0.6388336 0.5163068
vt 0.6528547 0.5822707
vt 0.6528547 0.6497084
vt 0.6388338 0.7156723
vt 0.6114045 0.7772797
vt 0.5717657 0.8318379
vt 0.5216498 0.8769625
vt 0.4632471 0.9106815
vt 0.3991101 0.9315211
vn 1 0 0
vn 0.9781476 0.2079117 0
vn 0.9135454 0.4067367 0
vn 0.809017 0.5877853 0
vn 0.6691306 0.7431449 0
vn 0.5 0.8660254 0
vn 0.3090169 0.9510565 0
vn 0.1045284 0.9945219 0
vn -0.1045284 0.9945219 0
vn -0.3090171 0.9510565 0
vn -0.5000001 0.8660253 0
vn -0.6691306 0.7431448 0
vn -0.809017 0.5877853 0
vn -0.9135454 0.4067366 0
vn -0.9781477 0.2079116 0
vn -1 0 0
vn -0.9781476 -0.2079117 0
vn -0.9135454 -0.4067366 0
vn -0.8090169 -0.5877853 0
vn -0.6691304 -0.743145 0
vn -0.5 -0.8660254 0
vn -0.3090172 -0.9510565 0
vn -0.1045287 -0.9945219 0
vn 0.1045279 -0.994522 0
vn 0.3090162 -0.9510568 0
vn 0.4999992 -0.8660259 0
vn 0.6691296 -0.7431457 0
vn 0.8090161 -0.5877865 0
vn 0.9135447 -0.4067383 0
vn 0.9781473 -0.2079131 0
vn 1 0 0
vn 0.9781476 0.2079117 0
vn 0.9135454 0.4067367 0
vn 0.809017 0.5877853 0
vn 0.6691306 0.7431449 0
vn 0.5 0.8660254 0
vn 0.3090169 0.9510565 0
vn 0.1045284 0.9945219 0
vn -0.1045284 0.9945219 0
vn -0.3090171 0.9510565 0
vn -0.5000001 0.8660253 0
vn -0.6691306 0.7431448 0
vn -0.809017 0.5877853 0
vn -0.9135454 0.4067366 0
vn -0.9781477 0.2079116 0
vn -1 0 0
vn -0.9781476 -0.2079117 0
vn -0.9135454 -0.4067366 0
vn -0.8090169 -0.5877853 0
vn -0.6691304 -0.743145 0
vn -0.5 -0.8660254 0
vn -0.3090172 -0.9510565 0
vn -0.1045287 -0.9945219 0
vn 0.1045279 -0.994522 0
vn 0.3090162 -0.9510568 0
vn 0.4999992 -0.8660259 0
vn 0.6691296 -0.7431457 0
vn 0.8090161 -0.5877865 0
vn 0.9135447 -0.4067383 0
vn 0.9781473 -0.2079131 0
vn 0 0 1
vn -0.1045284 0.9945219 0
vn -0.1045284 0.9945219 0
vn 0.1045279 -0.994522 0
vn 0.1045279 -0.994522 0
vn 0 0 1
vn 0 0 1
vn 0 0 1
vn 0 0 1
vn 0 0 1
vn 0 0 1
vn 0 0 1
vn 0 0 1
vn 0 0 1
vn 0 0 1
vn 0 0 1
vn 0 0 1
vn 0 0 1
vn 0 0 1
vn 0 0 1
vn 0 0 1
vn 0 0 1
vn 0 0 1
vn 0 0 1
vn 0 0 1
vn 0 0 1
vn 0 0 1
vn 0 0 1
vn 0 0 1
vn 0 0 1
vn 0 0 1
vn 0 0 1
vn 0 0 1
vn 0 0 1
vn 0 0 1
g 1_0
f 55/55/55 65/65/65 64/64/64
f 25/25/25 55/55/55 64/64/64
f 56/56/56 55/55/55 25/25/25
f 26/26/26 56/56/56 25/25/25
f 57/57/57 56/56/56 26/26/26
f 27/27/27 57/57/57 26/26/26
f 58/58/58 57/57/57 27/27/27
f 28/28/28 58/58/58 27/27/27
f 59/59/59 58/58/58 28/28/28
f 29/29/29 59/59/59 28/28/28
f 60/60/60 59/59/59 29/29/29
f 30/30/30 60/60/60 29/29/29
f 31/31/31 60/60/60 30/30/30
f 1/1/1 31/31/31 30/30/30
f 32/32/32 31/31/31 1/1/1
f 2/2/2 32/32/32 1/1/1
f 33/33/33 32/32/32 2/2/2
f 3/3/3 33/33/33 2/2/2
f 34/34/34 33/33/33 3/3/3
f 4/4/4 34/34/34 3/3/3
f 35/35/35 34/34/34 4/4/4
f 5/5/5 35/35/35 4/4/4
f 36/36/36 35/35/35 5/5/5
f 6/6/6 36/36/36 5/5/5
f 37/37/37 36/36/36 6/6/6
f 7/7/7 37/37/37 6/6/6
f 38/38/38 37/37/37 7/7/7
f 8/8/8 38/38/38 7/7/7
f 39/39/39 38/38/38 8/8/8
f 9/9/9 39/39/39 8/8/8
f 23/23/23 24/24/24 54/54/54
f 53/53/53 23/23/23 54/54/54
f 22/22/22 23/23/23 53/53/53
f 52/52/52 22/22/22 53/53/53
f 21/21/21 22/22/22 52/52/52
f 51/51/51 21/21/21 52/52/52
f 20/20/20 21/21/21 51/51/51
f 50/50/50 20/20/20 51/51/51
f 19/19/19 20/20/20 50/50/50
f 49/49/49 19/19/19 50/50/50
f 18/18/18 19/19/19 49/49/49
f 48/48/48 18/18/18 49/49/49
f 17/17/17 18/18/18 48/48/48
f 47/47/47 17/17/17 48/48/48
f 16/16/16 17/17/17 47/47/47
f 46/46/46 16/16/16 47/47/47
f 15/15/15 16/16/16 46/46/46
f 45/45/45 15/15/15 46/46/46
f 14/14/14 15/15/15 45/45/45
f 44/44/44 14/14/14 45/45/45
f 13/13/13 14/14/14 44/44/44
f 43/43/43 13/13/13 44/44/44
f 12/12/12 13/13/13 43/43/43
f 42/42/42 12/12/12 43/43/43
f 11/11/11 12/12/12 42/42/42
f 41/41/41 11/11/11 42/42/42
f 10/10/10 11/11/11 41/41/41
f 40/40/40 10/10/10 41/41/41
f 62/62/62 10/10/10 40/40/40
f 63/63/63 62/62/62 40/40/40
f 61/61/61 67/67/67 68/68/68
f 66/66/66 67/67/67 61/61/61
f 95/95/95 66/66/66 61/61/61
f 61/61/61 70/70/70 71/71/71
f 69/69/69 70/70/70 61/61/61
f 68/68/68 69/69/69 61/61/61
f 61/61/61 73/73/73 74/74/74
f 72/72/72 73/73/73 61/61/61
f 71/71/71 72/72/72 61/61/61
f 61/61/61 76/76/76 77/77/77
f 75/75/75 76/76/76 61/61/61
f 74/74/74 75/75/75 61/61/61
f 61/61/61 79/79/79 80/80/80
f 78/78/78 79/79/79 61/61/61
f 77/77/77 78/78/78 61/61/61
f 61/61/61 82/82/82 83/83/83
f 81/81/81 82/82/82 61/61/61
f 80/80/80 81/81/81 61/61/61
f 61/61/61 85/85/85 86/86/86
f 84/84/84 85/85/85 61/61/61
f 83/83/83 84/84/84 61/61/61
f 61/61/61 88/88/88 89/89/89
f 87/87/87 88/88/88 61/61/61
f 86/86/86 87/87/87 61/61/61
f 61/61/61 91/91/91 92/92/92
f 90/90/90 91/91/91 61/61/61
f 89/89/89 90/90/90 61/61/61
f 61/61/61 94/94/94 95/95/95
f 93/93/93 94/94/94 61/61/61
f 92/92/92 93/93/93 61/61/61
