g araba_sag_arka2
v -1.674228 -0.1385775 -1.969298
v -1.238141 -0.1385205 -1.969265
v -1.238141 -0.1353878 -1.31698
v -1.674228 -0.1354447 -1.316947
v -1.238141 -0.2430204 -2.149301
v -1.674228 -0.2430335 -2.149332
v -1.674228 -0.4601145 -2.279353
v -1.238141 -0.4593161 -2.269696
v -1.674228 -0.2387522 -1.136922
v -1.238141 -0.2387434 -1.136955
v -1.238141 -0.4003938 -1.042898
v -1.674228 -0.4002402 -1.044306
v -1.238141 -0.675629 -2.329734
v -1.614735 -0.6758197 -2.33939
v -1.51743 -0.8100911 -2.33939
v -1.390555 -0.8745971 -2.336068
v -1.238141 -0.8740779 -2.329734
v -1.61234 -0.6155075 -0.9842789
v -1.238141 -0.615752 -0.9828713
v -1.238141 -0.8375378 -0.9828713
v -1.367314 -0.837514 -0.9837406
v -1.49504 -0.7732963 -0.9842789
v -1.238135 -0.2030687 -1.334849
v -1.238133 -0.206071 -1.950908
v -1.674222 -0.2061282 -1.950943
v -1.67422 -0.203126 -1.334814
v -1.675211 -0.4882002 -2.215243
v -1.67423 -0.2928734 -2.10018
v -1.238584 -0.292336 -2.099625
v -1.239525 -0.4859298 -2.204968
v -1.238001 -0.4275463 -1.107417
v -1.238143 -0.2883847 -1.186308
v -1.674156 -0.2882814 -1.186388
v -1.67403 -0.4280047 -1.108563
v -1.392604 -0.8750764 -2.266099
v -1.521325 -0.8122049 -2.269816
v -1.616493 -0.6885484 -2.27058
v -1.24006 -0.6853922 -2.260445
v -1.240752 -0.8740779 -2.259783
v -1.237824 -0.8374487 -1.052871
v -1.237886 -0.6252298 -1.052226
v -1.612076 -0.6276787 -1.053212
v -1.496417 -0.7744099 -1.053958
v -1.366895 -0.8373185 -1.053739
v -1.409918 -0.5882393 -2.389523
v -1.409917 0.1089944 -2.389516
v -1.409917 0.1089944 -2.042773
v -1.409917 -0.4865754 -2.16548
v -1.409918 -0.5911956 -2.229659
v -1.409917 0.1089943 -1.630942
v -1.409917 -0.3177211 -1.241652
v -1.409917 -0.2108118 -1.635817
v -1.409917 -0.2929555 -1.976069
v -1.409917 -0.8110874 -0.9890726
v -1.496125 -0.8319791 -0.9838169
v -1.496125 -0.9860006 -0.9610288
v -1.172871 -0.5930031 -2.190926
v -1.172871 -0.5880356 -2.458553
v -1.198946 -0.5880583 -2.451823
v -1.172871 0.1789946 -2.458549
v -1.198946 0.1712944 -2.451815
v -1.172871 0.1789944 -2.042773
v -1.198946 0.1712944 -2.042773
v -1.172871 0.1789946 -1.630942
v -1.198946 0.1712944 -1.630942
v -1.162339 -0.9860005 -1.024355
v -1.172871 -0.8111598 -1.046477
v -1.172871 -0.5511203 -1.099349
v -1.172696 -0.9921408 -1.576838
v -1.172871 -0.3101347 -1.282926
v -1.172871 -0.214146 -1.636828
v -1.172871 -0.2873607 -1.940094
v -1.172871 -0.4609733 -2.109932
v -1.172871 -0.9660893 -2.190926
v -1.409918 -0.5903792 -1.033947
v -1.122871 0.1789948 -2.509515
v -1.172871 -0.4609728 -2.109932
v -1.198946 -0.463789 -2.116042
v -1.172871 -0.5930026 -2.190925
v -1.198946 -0.5928038 -2.195186
v -1.122871 -0.5871108 -2.509515
v -1.192093E-07 -0.9860006 -2.192877
v 0 -0.5871108 -2.509515
v -1.496125 -0.9860004 -0.3042448
v -1.496125 -0.8448756 -0.3042448
v -1.409917 0.1089945 -0.3042443
v -1.409271 -0.8243206 -0.3042443
v -1.172871 0.1789947 -0.3042443
v -1.198946 0.1712945 -0.3042443
v -1.157927 -0.9860004 -0.3042448
v -1.192093E-07 -0.9860004 -0.3042448
v -1.192093E-07 -0.9860005 -1.024926
v -1.192093E-07 -0.9860006 -1.581464
v -1.192093E-07 -0.5930031 -2.190926
v 0 0.1789948 -2.509515
v -1.674228 -0.1385775 -1.969298
v -1.67422 -0.203126 -1.334814
v -1.674222 -0.2061282 -1.950943
v -1.674228 -0.1354447 -1.316947
v -1.674228 -0.4601145 -2.279353
v -1.67423 -0.2928734 -2.10018
v -1.675211 -0.4882002 -2.215243
v -1.674228 -0.2430335 -2.149332
v -1.674228 -0.2387522 -1.136922
v -1.67403 -0.4280047 -1.108563
v -1.674156 -0.2882814 -1.186388
v -1.674228 -0.4002402 -1.044306
v -1.51743 -0.8100911 -2.33939
v -1.616493 -0.6885484 -2.27058
v -1.521325 -0.8122049 -2.269816
v -1.614735 -0.6758197 -2.33939
v -1.238141 -0.8740779 -2.329734
v -1.392604 -0.8750764 -2.266099
v -1.240752 -0.8740779 -2.259783
v -1.390555 -0.8745971 -2.336068
v -1.367314 -0.837514 -0.9837406
v -1.237824 -0.8374487 -1.052871
v -1.366895 -0.8373185 -1.053739
v -1.238141 -0.8375378 -0.9828713
v -1.61234 -0.6155075 -0.9842789
v -1.496417 -0.7744099 -1.053958
v -1.612076 -0.6276787 -1.053212
v -1.49504 -0.7732963 -0.9842789
v -1.674228 -0.2430335 -2.149332
v -1.67423 -0.2928734 -2.10018
v -1.674156 -0.2882814 -1.186388
v -1.674228 -0.2387522 -1.136922
v -1.521325 -0.8122049 -2.269816
v -1.390555 -0.8745971 -2.336068
v -1.51743 -0.8100911 -2.33939
v -1.392604 -0.8750764 -2.266099
v -1.366895 -0.8373185 -1.053739
v -1.49504 -0.7732963 -0.9842789
v -1.367314 -0.837514 -0.9837406
v -1.496417 -0.7744099 -1.053958
v -1.496125 -0.8319791 -0.9838169
v -1.496125 -0.8448756 -0.3042448
v -1.172871 -0.5880356 -2.458553
v -1.198946 -0.5880583 -2.451823
v -1.172871 0.1789946 -2.458549
v -1.198946 0.1712944 -2.451815
v -1.496125 -0.8319791 -0.9838169
v -1.496125 -0.9860006 -0.9610288
v -1.409917 -0.8110874 -0.9890726
v -1.172871 -0.8111598 -1.046477
v -1.172871 -0.5930031 -2.190926
v -1.162339 -0.9860005 -1.024355
v -1.496125 -0.9860006 -0.9610288
v -1.162339 -0.9860005 -1.024355
v -1.496125 -0.9860004 -0.3042448
v -1.172696 -0.9921408 -1.576838
v -1.172871 -0.9660893 -2.190926
v -1.172871 -0.9660893 -2.190926
v -1.172871 -0.5930031 -2.190926
v -1.192093E-07 -0.9860006 -2.192877
v -1.192093E-07 -0.5930031 -2.190926
v -1.172871 -0.5511203 -1.099349
v -1.172871 -0.3101347 -1.282926
v -1.409917 -0.3177211 -1.241652
v -1.172871 -0.214146 -1.636828
v -1.409917 -0.2108118 -1.635817
v -1.172871 -0.2873607 -1.940094
v -1.409917 -0.2929555 -1.976069
v -1.172871 -0.4609733 -2.109932
v -1.409917 -0.4865754 -2.16548
v -1.172871 -0.5930031 -2.190926
v -1.409918 -0.5911956 -2.229659
v -1.409918 -0.5911956 -2.229659
v -1.409918 -0.5882393 -2.389523
v -1.409918 -0.5882393 -2.389523
v -1.409917 0.1089944 -2.389516
v -1.409917 0.1089944 -2.389516
v -1.409917 0.1089944 -2.042773
v -1.409917 0.1089943 -1.630942
v -1.409917 0.1089945 -0.3042443
v -1.409917 -0.8110874 -0.9890726
v -1.409918 -0.5903792 -1.033947
v -1.409271 -0.8243206 -0.3042443
v -1.192093E-07 -0.5930031 -2.190926
v 0 -0.5871108 -2.509515
v -1.172871 -0.5880356 -2.458553
v -1.172871 0.1789946 -2.458549
v 0 -0.5871108 -2.509515
v -1.122871 -0.5871108 -2.509515
vt 0.8171558 0.3220362
vt 0.8171599 0.2673647
vt 0.8989356 0.2673647
vt 0.8989397 0.3220362
vt 0.7950699 0.2680725
vt 0.7954342 0.3221537
vt 0.7641349 0.3223974
vt 0.7643944 0.2682981
vt 0.9205864 0.3219052
vt 0.9205318 0.2672977
vt 0.9438952 0.2672724
vt 0.9438518 0.3218803
vt 0.7370825 0.2684106
vt 0.7368404 0.315132
vt 0.7218832 0.3030647
vt 0.7148153 0.2873242
vt 0.7150975 0.2684106
vt 0.9713469 0.3141145
vt 0.9714078 0.2672563
vt 0.9963201 0.2672563
vt 0.9962846 0.2834318
vt 0.9890567 0.299426
vt 0.5938014 0.2679796
vt 0.647337 0.267982
vt 0.6473262 0.3056355
vt 0.5937983 0.3058085
vt 0.6742455 0.3058019
vt 0.6563092 0.3056818
vt 0.6562735 0.2680666
vt 0.6739603 0.2681801
vt 0.5722381 0.2682168
vt 0.5849565 0.2682316
vt 0.5849645 0.30583
vt 0.5722089 0.3058167
vt 0.7079458 0.2814162
vt 0.7025903 0.2925315
vt 0.691995 0.3007489
vt 0.6916333 0.2682433
vt 0.7078004 0.2683029
vt 0.5365833 0.2681998
vt 0.5547494 0.268205
vt 0.5545483 0.3004725
vt 0.5419915 0.2904989
vt 0.5366028 0.27933
vt 0.9586991 0.4741794
vt 0.9586982 0.5788921
vt 0.9066232 0.5788921
vt 0.9250517 0.4894476
vt 0.9346902 0.4737355
vt 0.8447731 0.5788921
vt 0.7863082 0.5148066
vt 0.8455052 0.5308626
vt 0.8966053 0.518526
vt 0.7483751 0.4407113
vt 0.7475857 0.4375738
vt 0.7441634 0.4144423
vt 0.2765199 0.9747313
vt 0.2921902 0.9747313
vt 0.2918518 0.9762636
vt 0.9596143 0.5786377
vt 0.9631616 0.5775901
vt 0.9359216 0.9598024
vt 0.9359216 0.9635473
vt 0.8767763 0.9598024
vt 0.8767763 0.9635473
vt 0.2079657 0.9741123
vt 0.2092658 0.9747313
vt 0.7838994 0.4817887
vt 0.8378199 0.4319864
vt 0.8046299 0.5090021
vt 0.8445942 0.5198416
vt 0.8788407 0.5115739
vt 0.8980197 0.4919686
vt 0.9071659 0.4349284
vt 0.2085294 0.9886614
vt 0.02550026 0.2778841
vt 0.9338343 0.3798864
vt 0.9338343 0.3798864
vt 0.9296875 0.2785837
vt 0.9296875 0.2785837
vt 0.02550026 0.143957
vt 0.2766347 0.9058067
vt 0.2887107 0.9058067
vt 0.6455254 0.4144423
vt 0.6455254 0.4356369
vt 0.6455254 0.5788921
vt 0.6455254 0.4387239
vt 0.6862414 0.9598024
vt 0.6862414 0.9635473
vt 0.1656479 0.9738529
vt 0.1656479 0.9058067
vt 0.2079993 0.9058067
vt 0.2407046 0.9058067
vt 0.27652 0.9058067
vt 0.2217955 0.2778841
vt 0.5247415 0.2999198
vt 0.4806516 0.2992973
vt 0.5230702 0.2953778
vt 0.4798289 0.3040666
vt 0.5150052 0.2897331
vt 0.5265681 0.2773452
vt 0.5130633 0.2853006
vt 0.530014 0.2807435
vt 0.53031 0.2732375
vt 0.5172251 0.2751982
vt 0.5268856 0.2698175
vt 0.5191448 0.279641
vt 0.4899778 0.293884
vt 0.4992114 0.2891265
vt 0.4899553 0.2890737
vt 0.5000914 0.293884
vt 0.4715278 0.2935347
vt 0.4818933 0.2888167
vt 0.4715947 0.2887968
vt 0.4818987 0.2936543
vt 0.4845727 0.2838284
vt 0.4746492 0.2790488
vt 0.4845749 0.2789888
vt 0.4746482 0.2838885
vt 0.5042614 0.2837912
vt 0.4932749 0.2789736
vt 0.5034198 0.2790252
vt 0.4933519 0.2837912
vt 0.5365122 0.2916404
vt 0.5328264 0.2885038
vt 0.4699154 0.2943265
vt 0.4668069 0.2980359
vt 0.4899553 0.2890737
vt 0.4818987 0.2936543
vt 0.4899778 0.293884
vt 0.4818933 0.2888167
vt 0.4845749 0.2789888
vt 0.4933519 0.2837912
vt 0.4845727 0.2838284
vt 0.4932749 0.2789736
vt 0.7475857 0.4375738
vt 0.6455254 0.4356369
vt 0.9596143 0.4742924
vt 0.9631616 0.4742894
vt 0.9954948 0.9598024
vt 0.9946666 0.9635473
vt 0.2055835 0.9937274
vt 0.2042443 0.9937274
vt 0.2058923 0.9886614
vt 0.7779288 0.4524238
vt 0.9071659 0.4770591
vt 0.7754307 0.4326798
vt 0.2042443 0.9937274
vt 0.2079657 0.9741123
vt 0.1656479 0.9937274
vt 0.2404328 0.974721
vt 0.2765199 0.9747313
vt 0.2765199 0.9747313
vt 0.2765199 0.9747313
vt 0.2766347 0.9058067
vt 0.27652 0.9058067
vt 0.2123727 0.9747313
vt 0.2231608 0.9747313
vt 0.2207353 0.9886614
vt 0.243958 0.9747313
vt 0.2438986 0.9886614
vt 0.2617796 0.9747313
vt 0.2638938 0.9886614
vt 0.2717604 0.9747313
vt 0.2750246 0.9886614
vt 0.2765199 0.9747313
vt 0.2787961 0.9886614
vt 0.2787961 0.9886614
vt 0.2881907 0.9886614
vt 0.9918616 0.4742647
vt 0.9918615 0.569115
vt 0.9857193 0.993846
vt 0.9359216 0.993846
vt 0.8767763 0.993846
vt 0.6862414 0.993846
vt 0.7483751 0.4407113
vt 0.7551145 0.473858
vt 0.6455254 0.4387239
vt 0.27652 0.9058067
vt 0.2217955 0.143957
vt 0.01675951 0.1437953
vt 0.01675954 0.277884
vt 0.2887107 0.9058067
vt 0.2921902 0.9747313
vn -0.7191826 0.6705101 -0.1821885
vn -8.444741E-05 0.9650106 -0.2622104
vn -8.182215E-05 0.9668679 0.2552769
vn -0.7195137 0.6714654 0.1772975
vn 0.004719061 0.7064427 -0.7077545
vn 0.004719061 0.7064427 -0.7077545
vn 0.01597199 0.3884794 -0.9213189
vn 0.01597199 0.3884794 -0.9213189
vn -0.0006776787 0.7080893 0.7061225
vn -0.0006776787 0.7080893 0.7061225
vn -0.002266426 0.387248 0.9219728
vn -0.002266426 0.387248 0.9219728
vn 0.02712663 0.1418621 -0.9895146
vn 0.02712663 0.1418621 -0.9895146
vn 0.03124109 0.01066631 -0.9994549
vn 0.03124109 0.01066631 -0.9994549
vn 0.03124109 0.01066631 -0.9994549
vn -0.004019261 0.1344792 0.9909083
vn -0.004019261 0.1344792 0.9909083
vn -0.00474818 -0.001662315 0.9999874
vn -0.00474818 -0.001662315 0.9999874
vn -0.00474818 -0.001662315 0.9999874
vn 5.758384E-05 -0.9668716 -0.2552633
vn 0.0001973047 -0.9649677 0.2623687
vn 0.0001973047 -0.9649677 0.2623687
vn 5.758384E-05 -0.9668716 -0.2552633
vn -0.01592231 -0.3843384 0.9230551
vn -0.004649125 -0.7033682 0.7108105
vn -0.004649125 -0.7033682 0.7108105
vn -0.01592231 -0.3843384 0.9230551
vn 0.002478373 -0.3814659 -0.9243796
vn 0.0007288902 -0.7038631 -0.7103354
vn 0.0007288902 -0.7038631 -0.7103354
vn 0.002478373 -0.3814659 -0.9243796
vn -0.03202184 -0.006689823 0.9994648
vn -0.03202184 -0.006689823 0.9994648
vn -0.02744826 -0.1396133 0.9898257
vn -0.02744826 -0.1396133 0.9898257
vn -0.03202184 -0.006689823 0.9994648
vn 0.003966636 0.005449242 -0.9999774
vn 0.003766796 -0.1322885 -0.9912041
vn 0.003766796 -0.1322885 -0.9912041
vn 0.003966636 0.005449242 -0.9999774
vn 0.003966636 0.005449242 -0.9999774
vn -1 0 0
vn -1 0 0
vn -1 0 0
vn -1 0 0
vn -1 0 0
vn -1 0 0
vn -1 0 0
vn -1 0 0
vn -1 0 0
vn -0.2323256 0.9724576 0.0187337
vn -0.2323256 0.9724576 0.0187337
vn -1 0 0
vn -0.002843874 -0.9998245 -0.01852313
vn -0.001964619 -0.9998263 -0.01853992
vn -0.0042617 -0.9998193 -0.01852359
vn -0.500173 0 -0.8659256
vn -0.2666317 0 -0.9637985
vn -0.283212 0.9590573 0
vn -0.2832115 0.9590575 0
vn -0.2832127 0.9590572 0
vn -0.283212 0.9590573 0
vn -0.2059954 -0.09511955 -0.9739189
vn -0.2187701 -0.1446843 -0.9649903
vn -1 -0.0001136186 -0.0002622002
vn -0.9999611 -0.008379952 0.002742041
vn -1 -0.0001969537 -0.0001389116
vn -1 -0.0002256981 0
vn -1 -0.0001920628 0.0001099235
vn -1 -0.000144324 0.0001852396
vn -1 0 0.0002853624
vn -0.1792895 -0.4084382 -0.8950048
vn -0.3870893 0 -0.9220423
vn -0.1418252 -0.517614 0.8437781
vn -0.1418252 -0.517614 0.8437781
vn -0.1418252 -0.517614 0.8437781
vn -0.1418252 -0.517614 0.8437781
vn -0.3870893 0 -0.9220423
vn -0.005929261 -0.9997565 -0.0212519
vn 0 -0.9998285 -0.01852208
vn -1 0 0
vn -0.2323256 0.9724576 0.0187337
vn -1 0 0
vn -0.2323256 0.9724576 0.0187337
vn -0.2832135 0.9590569 0
vn -0.2832124 0.9590572 0
vn 0 -1 0
vn 0 -1 0
vn 0.001320922 -0.9999954 0.002756176
vn -0.001643876 -0.9999677 -0.007870696
vn -0.0008099762 0.002546372 -0.9999964
vn 0 0 -1
vn -0.7191826 0.6705101 -0.1821885
vn -1 -0.0003427952 -7.094331E-05
vn -1 -5.164525E-05 1.523221E-05
vn -0.7195137 0.6714654 0.1772975
vn -0.9912082 -0.1221296 -0.05089732
vn -0.9999933 0.00267329 -0.002493102
vn -0.9912082 -0.1221296 -0.05089732
vn -0.9999933 0.00267329 -0.002493102
vn -0.9999993 -0.000930943 -0.0008243699
vn -0.9901592 -0.1347516 0.03777192
vn -0.9999993 -0.000930943 -0.0008243699
vn -0.9901592 -0.1347516 0.03777192
vn -0.7975746 -0.5954603 -0.09644534
vn -0.8977429 -0.429484 -0.09798493
vn -0.7975746 -0.5954603 -0.09644534
vn -0.8977429 -0.429484 -0.09798493
vn 0.005123511 -0.9999816 -0.003254762
vn 0.005123511 -0.9999816 -0.003254762
vn 0.005123511 -0.9999816 -0.003254762
vn 0.005123511 -0.9999816 -0.003254762
vn -0.000582702 -0.9999977 -0.002036012
vn -0.000582702 -0.9999977 -0.002036012
vn -0.000582702 -0.9999977 -0.002036012
vn -0.000582702 -0.9999977 -0.002036012
vn -0.8930873 -0.4441319 0.07170752
vn -0.7925137 -0.6064355 0.06448343
vn -0.8930873 -0.4441319 0.07170752
vn -0.7925137 -0.6064355 0.06448343
vn -0.9999933 0.00267329 -0.002493102
vn -0.9999933 0.00267329 -0.002493102
vn -0.9999993 -0.000930943 -0.0008243699
vn -0.9999993 -0.000930943 -0.0008243699
vn -0.4449693 -0.8948388 -0.03557977
vn -0.4449693 -0.8948388 -0.03557977
vn -0.4449693 -0.8948388 -0.03557977
vn -0.4449693 -0.8948388 -0.03557977
vn -0.4430363 -0.8964591 0.008931573
vn -0.4430363 -0.8964591 0.008931573
vn -0.4430363 -0.8964591 0.008931573
vn -0.4430363 -0.8964591 0.008931573
vn -1 0 0
vn -1 0 0
vn -0.500173 0 -0.8659256
vn -0.2666317 0 -0.9637985
vn -0.2832121 0.9590573 0
vn -0.2832114 0.9590575 0
vn -0.02483128 -0.1463158 -0.9889262
vn -0.1159314 -0.1212595 -0.9858276
vn -0.1547238 -0.1458491 -0.9771328
vn -0.9995373 -0.02888472 0.009526374
vn -1 -0.0001257472 0.0002040167
vn -0.9981476 -0.05767915 0.01935289
vn 0 -1 0
vn 0.0008806816 -0.999998 0.001837536
vn 0 -1 0
vn -0.001643876 -0.9999677 -0.007870696
vn -0.005929261 -0.9997565 -0.0212519
vn -0.0008099762 0.002546372 -0.9999964
vn -0.0008099762 0.002546372 -0.9999964
vn -0.0008099762 0.002546372 -0.9999964
vn -0.0008099762 0.002546372 -0.9999964
vn -0.1792895 -0.4084382 -0.8950048
vn -0.07029209 -0.8282462 -0.5559382
vn -0.07029209 -0.8282462 -0.5559382
vn -0.01412267 -0.9998025 -0.01397967
vn -0.01412267 -0.9998025 -0.01397967
vn -0.05427801 -0.8684961 0.4927154
vn -0.05427801 -0.8684961 0.4927154
vn -0.1174714 -0.6109604 0.7828971
vn -0.1174714 -0.6109604 0.7828971
vn -0.1418198 -0.5176159 0.8437778
vn -0.1418198 -0.5176159 0.8437778
vn -0.004602374 -0.9998185 -0.0184895
vn -0.004602374 -0.9998185 -0.0184895
vn -0.2832116 0 -0.9590575
vn -0.2832116 0 -0.9590575
vn -0.2832108 0.9590577 0
vn -0.2832111 0.9590576 0
vn -0.2832113 0.9590575 0
vn -0.2832113 0.9590575 0
vn -0.9999996 -0.0005321149 0.0007151945
vn -0.9999996 -0.0005321149 0.0007151945
vn -0.9999996 -0.0005321149 0.0007151945
vn 0 -0.9998285 -0.01852208
vn 0 0 -1
vn -0.500173 0 -0.8659256
vn -0.500173 0 -0.8659256
vn 0 -0.9998354 -0.01814181
vn 0 -0.9998354 -0.01814181
g araba_sag_arka2_0
f 94/94/94 153/153/153 154/154/154
f 155/155/155 153/153/153 156/156/156
f 184/184/184 183/183/183 58/58/58
f 13/13/13 14/14/14 7/7/7
f 16/16/16 14/14/14 13/13/13
f 17/17/17 16/16/16 13/13/13
f 15/15/15 14/14/14 16/16/16
f 18/18/18 20/20/20 19/19/19
f 21/21/21 20/20/20 18/18/18
f 22/22/22 21/21/21 18/18/18
f 37/37/37 39/39/39 38/38/38
f 35/35/35 39/39/39 37/37/37
f 36/36/36 35/35/35 37/37/37
f 31/31/31 34/34/34 33/33/33
f 42/42/42 34/34/34 31/31/31
f 41/41/41 42/42/42 31/31/31
f 44/44/44 42/42/42 41/41/41
f 40/40/40 44/44/44 41/41/41
f 43/43/43 42/42/42 44/44/44
f 109/109/109 108/108/108 110/110/110
f 111/111/111 108/108/108 109/109/109
f 102/102/102 111/111/111 109/109/109
f 100/100/100 111/111/111 102/102/102
f 101/101/101 100/100/100 102/102/102
f 103/103/103 100/100/100 101/101/101
f 120/120/120 121/121/121 123/123/123
f 122/122/122 121/121/121 120/120/120
f 107/107/107 122/122/122 120/120/120
f 105/105/105 122/122/122 107/107/107
f 104/104/104 105/105/105 107/107/107
f 106/106/106 105/105/105 104/104/104
f 113/113/113 112/112/112 114/114/114
f 115/115/115 112/112/112 113/113/113
f 117/117/117 116/116/116 118/118/118
f 119/119/119 116/116/116 117/117/117
f 99/99/99 126/126/126 127/127/127
f 97/97/97 126/126/126 99/99/99
f 96/96/96 97/97/97 99/99/99
f 98/98/98 97/97/97 96/96/96
f 124/124/124 98/98/98 96/96/96
f 125/125/125 98/98/98 124/124/124
f 129/129/129 128/128/128 130/130/130
f 131/131/131 128/128/128 129/129/129
f 133/133/133 132/132/132 134/134/134
f 135/135/135 132/132/132 133/133/133
f 48/48/48 45/45/45 49/49/49
f 46/46/46 45/45/45 48/48/48
f 47/47/47 46/46/46 48/48/48
f 85/85/85 54/54/54 55/55/55
f 87/87/87 54/54/54 85/85/85
f 136/136/136 84/84/84 137/137/137
f 56/56/56 84/84/84 136/136/136
f 61/61/61 139/139/139 170/170/170
f 138/138/138 139/139/139 61/61/61
f 60/60/60 138/138/138 61/61/61
f 63/63/63 140/140/140 141/141/141
f 62/62/62 140/140/140 63/63/63
f 65/65/65 62/62/62 63/63/63
f 64/64/64 62/62/62 65/65/65
f 89/89/89 64/64/64 65/65/65
f 88/88/88 64/64/64 89/89/89
f 144/144/144 143/143/143 142/142/142
f 66/66/66 143/143/143 144/144/144
f 67/67/67 66/66/66 144/144/144
f 69/69/69 146/146/146 74/74/74
f 73/73/73 146/146/146 69/69/69
f 72/72/72 73/73/73 69/69/69
f 69/69/69 68/68/68 70/70/70
f 145/145/145 68/68/68 69/69/69
f 147/147/147 145/145/145 69/69/69
f 149/149/149 92/92/92 91/91/91
f 90/90/90 149/149/149 91/91/91
f 148/148/148 149/149/149 90/90/90
f 150/150/150 148/148/148 90/90/90
f 93/93/93 92/92/92 149/149/149
f 151/151/151 93/93/93 149/149/149
f 82/82/82 93/93/93 151/151/151
f 152/152/152 82/82/82 151/151/151
f 157/157/157 67/67/67 144/144/144
f 75/75/75 157/157/157 144/144/144
f 158/158/158 157/157/157 75/75/75
f 159/159/159 158/158/158 75/75/75
f 160/160/160 158/158/158 159/159/159
f 161/161/161 160/160/160 159/159/159
f 162/162/162 160/160/160 161/161/161
f 163/163/163 162/162/162 161/161/161
f 164/164/164 162/162/162 163/163/163
f 165/165/165 164/164/164 163/163/163
f 166/166/166 164/164/164 165/165/165
f 167/167/167 166/166/166 165/165/165
f 59/59/59 168/168/168 169/169/169
f 57/57/57 168/168/168 59/59/59
f 58/58/58 57/57/57 59/59/59
f 179/179/179 57/57/57 58/58/58
f 83/83/83 179/179/179 58/58/58
f 171/171/171 61/61/61 170/170/170
f 63/63/63 141/141/141 172/172/172
f 173/173/173 63/63/63 172/172/172
f 65/65/65 63/63/63 173/173/173
f 174/174/174 65/65/65 173/173/173
f 89/89/89 65/65/65 174/174/174
f 175/175/175 89/89/89 174/174/174
f 86/86/86 176/176/176 178/178/178
f 177/177/177 176/176/176 86/86/86
f 51/51/51 177/177/177 86/86/86
f 76/76/76 81/81/81 181/181/181
f 180/180/180 81/81/81 76/76/76
f 95/95/95 180/180/180 76/76/76
f 76/76/76 181/181/181 182/182/182
f 80/80/80 77/77/77 78/78/78
f 79/79/79 77/77/77 80/80/80
f 3/3/3 4/4/4 9/9/9
f 1/1/1 4/4/4 3/3/3
f 2/2/2 1/1/1 3/3/3
f 5/5/5 1/1/1 2/2/2
f 7/7/7 8/8/8 13/13/13
f 5/5/5 8/8/8 7/7/7
f 6/6/6 5/5/5 7/7/7
f 1/1/1 5/5/5 6/6/6
f 11/11/11 12/12/12 18/18/18
f 9/9/9 12/12/12 11/11/11
f 10/10/10 9/9/9 11/11/11
f 3/3/3 9/9/9 10/10/10
f 19/19/19 11/11/11 18/18/18
f 23/23/23 33/33/33 26/26/26
f 25/25/25 23/23/23 26/26/26
f 24/24/24 23/23/23 25/25/25
f 29/29/29 24/24/24 25/25/25
f 27/27/27 38/38/38 30/30/30
f 29/29/29 27/27/27 30/30/30
f 28/28/28 27/27/27 29/29/29
f 25/25/25 28/28/28 29/29/29
f 32/32/32 33/33/33 23/23/23
f 31/31/31 33/33/33 32/32/32
f 37/37/37 38/38/38 27/27/27
f 50/50/50 51/51/51 86/86/86
f 52/52/52 51/51/51 50/50/50
f 47/47/47 52/52/52 50/50/50
f 53/53/53 52/52/52 47/47/47
f 48/48/48 53/53/53 47/47/47
f 71/71/71 69/69/69 70/70/70
f 72/72/72 69/69/69 71/71/71
