g araba_kaput
v 0.4796075 -1.160744 0.170665
v 0.4404259 -1.779298 0.1687391
v 0.3964713 -2.224013 0.1490922
v 0.4640341 -1.408166 0.1757833
v 0 -1.779298 0.1869309
v 0 -2.23037 0.1672843
v -0.3964713 -2.224013 0.1490922
v -0.4404259 -1.779298 0.1687391
v 0.9622637 -1.024339 0.09482557
v 0.8780125 -1.779298 0.09315723
v 0.731047 -2.501776 0.04140311
v 0.3668946 -2.52049 0.116985
v 0.7902471 -2.212785 0.07351065
v 0.92882 -1.326322 0.1000469
v 0 -1.429002 0.1940601
v -0.9622637 -1.024339 0.09482557
v -0.92882 -1.326322 0.1000469
v -0.8780125 -1.779298 0.09315723
v -0.7902471 -2.212785 0.07351065
v -0.731047 -2.501776 0.04140311
v -0.3668946 -2.52049 0.116985
v 0 -2.521492 0.1308174
v 0 -1.195472 0.1889985
v -0.4796075 -1.160744 0.170665
v -0.4640341 -1.408166 0.1757833
v 0.4774857 -1.160982 0.1507793
v 0.4382486 -1.778443 0.1488763
v 0.3940554 -2.222232 0.1293187
v 0.4620001 -1.408031 0.1558874
v 0 -1.778634 0.1669419
v -1.868071E-11 -2.228737 0.1473511
v -0.3940554 -2.222232 0.1293187
v -0.4382486 -1.778443 0.1488763
v 0.9591586 -1.024337 0.07506809
v 0.8746358 -1.778236 0.07347301
v 0.7270969 -2.499009 0.02199334
v 0.364491 -2.51806 0.09727924
v 0.7865545 -2.210713 0.053964
v 0.9256094 -1.326079 0.08030774
v 0 -1.428998 0.1740601
v -0.9591586 -1.024337 0.07506809
v -0.9256094 -1.326079 0.08030774
v -0.8746358 -1.778236 0.07347301
v -0.7865545 -2.210713 0.053964
v -0.7270969 -2.499009 0.02199334
v -0.364491 -2.51806 0.09727924
v 0 -2.519006 0.1109725
v 0 -1.195885 0.1690027
v -0.4774857 -1.160982 0.1507793
v -0.4620001 -1.408031 0.1558874
v 0.9622637 -1.024339 0.09482557
v 0.9256094 -1.326079 0.08030774
v 0.92882 -1.326322 0.1000469
v 0.9591586 -1.024337 0.07506809
v 0.9256094 -1.326079 0.08030774
v 0.4796075 -1.160744 0.170665
v 0.9591586 -1.024337 0.07506809
v 0.9622637 -1.024339 0.09482557
v 0.4796075 -1.160744 0.170665
v 0.4774857 -1.160982 0.1507793
v 0.9591586 -1.024337 0.07506809
v 0.7902471 -2.212785 0.07351065
v 0.7270969 -2.499009 0.02199334
v 0.731047 -2.501776 0.04140311
v 0.7865545 -2.210713 0.053964
v 0.731047 -2.501776 0.04140311
v 0.364491 -2.51806 0.09727924
v 0.3668946 -2.52049 0.116985
v 0.7270969 -2.499009 0.02199334
v 0.364491 -2.51806 0.09727924
v 0 -1.195472 0.1889985
v 0 -1.195472 0.1889985
v 0 -1.195885 0.1690027
v 0.8780125 -1.779298 0.09315723
v 0.8746358 -1.778236 0.07347301
v 0.7865545 -2.210713 0.053964
v 0 -2.519006 0.1109725
v 0 -2.521492 0.1308174
v 0 -2.519006 0.1109725
v 0.8746358 -1.778236 0.07347301
v -0.9622637 -1.024339 0.09482557
v -0.4774857 -1.160982 0.1507793
v -0.4796075 -1.160744 0.170665
v -0.9622637 -1.024339 0.09482557
v -0.9591586 -1.024337 0.07506809
v -0.4774857 -1.160982 0.1507793
v -0.92882 -1.326322 0.1000469
v -0.9591586 -1.024337 0.07506809
v -0.9622637 -1.024339 0.09482557
v -0.92882 -1.326322 0.1000469
v -0.9256094 -1.326079 0.08030774
v -0.3668946 -2.52049 0.116985
v -0.7270969 -2.499009 0.02199334
v -0.731047 -2.501776 0.04140311
v -0.3668946 -2.52049 0.116985
v -0.364491 -2.51806 0.09727924
v -0.731047 -2.501776 0.04140311
v -0.7865545 -2.210713 0.053964
v -0.7902471 -2.212785 0.07351065
v -0.7270969 -2.499009 0.02199334
v -0.7902471 -2.212785 0.07351065
v -0.8746358 -1.778236 0.07347301
v -0.8780125 -1.779298 0.09315723
v 0 -2.521492 0.1308174
v -0.8780125 -1.779298 0.09315723
v 0 -1.195885 0.1690027
vt 0.4144411 0.4251934
vt 0.3257335 0.4308458
vt 0.2619563 0.4371494
vt 0.378958 0.427454
vt 0.3257335 0.4944007
vt 0.2610446 0.4944007
vt 0.2619563 0.5516933
vt 0.3257335 0.5579969
vt 0.4340033 0.3550597
vt 0.3257335 0.3672534
vt 0.222122 0.388258
vt 0.2194381 0.4413519
vt 0.2635666 0.3798562
vt 0.3906953 0.3599374
vt 0.3759698 0.4944007
vt 0.4340033 0.633783
vt 0.3906953 0.6289053
vt 0.3257335 0.6215893
vt 0.2635666 0.6089865
vt 0.222122 0.6005846
vt 0.2194381 0.5474908
vt 0.222931 0.4944007
vt 0.4094608 0.4944007
vt 0.4144411 0.5636493
vt 0.378958 0.5613887
vt 0.4144411 0.4251934
vt 0.3257335 0.4308458
vt 0.2619563 0.4371494
vt 0.378958 0.427454
vt 0.3257335 0.4944007
vt 0.2610446 0.4944007
vt 0.2619563 0.5516933
vt 0.3257335 0.5579969
vt 0.4340033 0.3550597
vt 0.3257335 0.3672534
vt 0.222122 0.388258
vt 0.2194381 0.4413519
vt 0.2635666 0.3798562
vt 0.3906953 0.3599374
vt 0.3759698 0.4944007
vt 0.4340033 0.633783
vt 0.3906953 0.6289053
vt 0.3257335 0.6215893
vt 0.2635666 0.6089865
vt 0.222122 0.6005846
vt 0.2194381 0.5474908
vt 0.222931 0.4944007
vt 0.4094608 0.4944007
vt 0.4144411 0.5636493
vt 0.378958 0.5613887
vt 0.4340033 0.3550597
vt 0.3906953 0.3599374
vt 0.3906953 0.3599374
vt 0.4340033 0.3550597
vt 0.3906953 0.3599374
vt 0.4144411 0.4251934
vt 0.4340033 0.3550597
vt 0.4340033 0.3550597
vt 0.4144411 0.4251934
vt 0.4144411 0.4251934
vt 0.4340033 0.3550597
vt 0.2635666 0.3798562
vt 0.222122 0.388258
vt 0.222122 0.388258
vt 0.2635666 0.3798562
vt 0.222122 0.388258
vt 0.2194381 0.4413519
vt 0.2194381 0.4413519
vt 0.222122 0.388258
vt 0.2194381 0.4413519
vt 0.4094608 0.4944007
vt 0.4094608 0.4944007
vt 0.4094608 0.4944007
vt 0.3257335 0.3672534
vt 0.3257335 0.3672534
vt 0.2635666 0.3798562
vt 0.222931 0.4944007
vt 0.222931 0.4944007
vt 0.222931 0.4944007
vt 0.3257335 0.3672534
vt 0.4340033 0.633783
vt 0.4144411 0.5636493
vt 0.4144411 0.5636493
vt 0.4340033 0.633783
vt 0.4340033 0.633783
vt 0.4144411 0.5636493
vt 0.3906953 0.6289053
vt 0.4340033 0.633783
vt 0.4340033 0.633783
vt 0.3906953 0.6289053
vt 0.3906953 0.6289053
vt 0.2194381 0.5474908
vt 0.222122 0.6005846
vt 0.222122 0.6005846
vt 0.2194381 0.5474908
vt 0.2194381 0.5474908
vt 0.222122 0.6005846
vt 0.2635666 0.6089865
vt 0.2635666 0.6089865
vt 0.222122 0.6005846
vt 0.2635666 0.6089865
vt 0.3257335 0.6215893
vt 0.3257335 0.6215893
vt 0.222931 0.4944007
vt 0.3257335 0.6215893
vt 0.4094608 0.4944007
vn 0.105905 0.01119054 0.9943134
vn 0.1090194 -0.04272044 0.9931212
vn 0.1168014 -0.09299739 0.9887916
vn 0.1013676 -0.007738147 0.994819
vn 0 -0.03346308 0.9994399
vn 0 -0.08233605 0.9966047
vn -0.1168014 -0.09299739 0.9887916
vn -0.1090194 -0.04272044 0.9931212
vn 0.1569441 0.004583823 0.9875968
vn 0.1732271 -0.04944543 0.9836399
vn 0.1989448 -0.1366059 0.9704431
vn 0.1156408 -0.1270017 0.9851385
vn 0.1879665 -0.09938809 0.9771338
vn 0.1615531 -0.01036682 0.9868095
vn 0 -0.001100028 0.9999994
vn -0.1569441 0.004583822 0.9875968
vn -0.1615531 -0.01036682 0.9868095
vn -0.1732271 -0.04944542 0.9836399
vn -0.1879665 -0.09938809 0.9771338
vn -0.1989448 -0.1366059 0.9704431
vn -0.1156408 -0.1270017 0.9851385
vn 0 -0.1180405 0.9930087
vn 0 0.01994391 0.9998011
vn -0.105905 0.01119054 0.9943134
vn -0.1013677 -0.007738147 0.994819
vn -0.1059274 -0.0111987 -0.9943107
vn -0.1090382 0.04272059 -0.9931191
vn -0.116817 0.09301943 -0.9887877
vn -0.1013895 0.007738879 -0.9948167
vn 0 0.03343069 -0.999441
vn 0 0.08233483 -0.9966047
vn 0.116817 0.09301943 -0.9887877
vn 0.1090382 0.04272058 -0.9931191
vn -0.1569996 -0.004593509 -0.987588
vn -0.1733133 0.0494551 -0.9836243
vn -0.1991239 0.1366859 -0.970395
vn -0.1156337 0.1270533 -0.9851326
vn -0.1880856 0.09939621 -0.9771101
vn -0.1616178 0.01035792 -0.9867991
vn 0 0.001092856 -0.9999994
vn 0.1569996 -0.004593505 -0.987588
vn 0.1616178 0.01035792 -0.9867991
vn 0.1733133 0.0494551 -0.9836243
vn 0.1880855 0.09939618 -0.9771101
vn 0.1991239 0.1366859 -0.9703951
vn 0.1156337 0.1270533 -0.9851326
vn 0 0.1180719 -0.9930051
vn 0 -0.01995579 -0.9998009
vn 0.1059274 -0.0111987 -0.9943107
vn 0.1013895 0.007738879 -0.9948167
vn 0.9811778 -0.1116076 -0.1575879
vn 0.9806042 -0.1096314 -0.1624692
vn 0.9806077 -0.1096431 -0.1624402
vn 0.9811778 -0.1116076 -0.1575879
vn 0.9806042 -0.1096314 -0.1624692
vn -0.1721813 0.9850257 0.008827043
vn -0.2680085 0.9629612 0.02961764
vn -0.2680085 0.9629612 0.02961764
vn -0.1721813 0.9850257 0.008827043
vn -0.170666 0.9852923 0.008500575
vn -0.2680085 0.9629612 0.02961764
vn 0.9630686 -0.1808554 -0.1994744
vn 0.9619431 -0.1743689 -0.2103825
vn 0.9619431 -0.1743689 -0.2103825
vn 0.9630553 -0.1807725 -0.1996145
vn 0.0233615 -0.9905142 -0.1354107
vn 0.01070666 -0.9915418 -0.1293453
vn 0.01065834 -0.9915453 -0.1293221
vn 0.0233615 -0.9905142 -0.1354107
vn 0.01070666 -0.9915418 -0.1293453
vn 0 0.9999229 -0.01242359
vn 0 0.9999229 -0.01242359
vn 0 0.9999229 -0.01242359
vn 0.9728889 -0.1474984 -0.1781332
vn 0.9728581 -0.1476516 -0.1781743
vn 0.9630553 -0.1807725 -0.1996145
vn 0 -0.9923778 -0.1232324
vn 0 -0.9923778 -0.1232324
vn 0 -0.9923778 -0.1232324
vn 0.9728581 -0.1476516 -0.1781743
vn 0.2680085 0.9629612 0.02961764
vn 0.170666 0.9852923 0.008500575
vn 0.1721813 0.9850257 0.008827043
vn 0.2680085 0.9629612 0.02961764
vn 0.2680084 0.9629612 0.02961764
vn 0.170666 0.9852923 0.008500575
vn -0.9806077 -0.1096431 -0.1624402
vn -0.9811778 -0.1116076 -0.1575879
vn -0.9811778 -0.1116076 -0.1575879
vn -0.9806077 -0.1096431 -0.1624402
vn -0.9806042 -0.1096314 -0.1624692
vn -0.01065834 -0.9915453 -0.1293221
vn -0.0233615 -0.9905142 -0.1354107
vn -0.0233615 -0.9905142 -0.1354107
vn -0.01065834 -0.9915453 -0.1293221
vn -0.01070666 -0.9915418 -0.1293453
vn -0.9619431 -0.1743689 -0.2103824
vn -0.9630553 -0.1807725 -0.1996144
vn -0.9630686 -0.1808554 -0.1994744
vn -0.9619431 -0.1743689 -0.2103824
vn -0.9630686 -0.1808554 -0.1994744
vn -0.9728581 -0.1476516 -0.1781743
vn -0.9728889 -0.1474984 -0.1781332
vn 0 -0.9923778 -0.1232324
vn -0.9728889 -0.1474984 -0.1781332
vn 0 0.9999229 -0.01242359
g araba_kaput_0
f 54/54/54 51/51/51 55/55/55
f 57/57/57 56/56/56 58/58/58
f 69/69/69 66/66/66 70/70/70
f 85/85/85 84/84/84 86/86/86
f 88/88/88 87/87/87 89/89/89
f 93/93/93 92/92/92 94/94/94
f 3/3/3 12/12/12 11/11/11
f 13/13/13 3/3/3 11/11/11
f 2/2/2 3/3/3 13/13/13
f 10/10/10 2/2/2 13/13/13
f 4/4/4 2/2/2 10/10/10
f 14/14/14 4/4/4 10/10/10
f 1/1/1 4/4/4 14/14/14
f 9/9/9 1/1/1 14/14/14
f 7/7/7 20/20/20 21/21/21
f 19/19/19 20/20/20 7/7/7
f 8/8/8 19/19/19 7/7/7
f 18/18/18 19/19/19 8/8/8
f 25/25/25 18/18/18 8/8/8
f 17/17/17 18/18/18 25/25/25
f 24/24/24 17/17/17 25/25/25
f 16/16/16 17/17/17 24/24/24
f 33/33/33 44/44/44 43/43/43
f 50/50/50 33/33/33 43/43/43
f 40/40/40 33/33/33 50/50/50
f 48/48/48 40/40/40 50/50/50
f 29/29/29 40/40/40 48/48/48
f 26/26/26 29/29/29 48/48/48
f 39/39/39 29/29/29 26/26/26
f 34/34/34 39/39/39 26/26/26
f 42/42/42 50/50/50 43/43/43
f 49/49/49 50/50/50 42/42/42
f 41/41/41 49/49/49 42/42/42
f 52/52/52 53/53/53 80/80/80
f 51/51/51 53/53/53 52/52/52
f 60/60/60 59/59/59 61/61/61
f 71/71/71 59/59/59 60/60/60
f 62/62/62 65/65/65 74/74/74
f 63/63/63 65/65/65 62/62/62
f 64/64/64 63/63/63 62/62/62
f 67/67/67 68/68/68 79/79/79
f 66/66/66 68/68/68 67/67/67
f 73/73/73 72/72/72 60/60/60
f 83/83/83 72/72/72 73/73/73
f 75/75/75 74/74/74 76/76/76
f 53/53/53 74/74/74 75/75/75
f 77/77/77 78/78/78 96/96/96
f 68/68/68 78/78/78 77/77/77
f 82/82/82 83/83/83 106/106/106
f 81/81/81 83/83/83 82/82/82
f 91/91/91 90/90/90 88/88/88
f 105/105/105 90/90/90 91/91/91
f 96/96/96 95/95/95 93/93/93
f 104/104/104 95/95/95 96/96/96
f 98/98/98 99/99/99 102/102/102
f 97/97/97 99/99/99 98/98/98
f 100/100/100 97/97/97 98/98/98
f 102/102/102 103/103/103 91/91/91
f 101/101/101 103/103/103 102/102/102
f 6/6/6 22/22/22 12/12/12
f 3/3/3 6/6/6 12/12/12
f 5/5/5 6/6/6 3/3/3
f 2/2/2 5/5/5 3/3/3
f 15/15/15 5/5/5 2/2/2
f 4/4/4 15/15/15 2/2/2
f 23/23/23 15/15/15 4/4/4
f 1/1/1 23/23/23 4/4/4
f 25/25/25 23/23/23 24/24/24
f 15/15/15 23/23/23 25/25/25
f 8/8/8 15/15/15 25/25/25
f 5/5/5 15/15/15 8/8/8
f 7/7/7 5/5/5 8/8/8
f 6/6/6 5/5/5 7/7/7
f 21/21/21 6/6/6 7/7/7
f 22/22/22 6/6/6 21/21/21
f 28/28/28 36/36/36 37/37/37
f 38/38/38 36/36/36 28/28/28
f 27/27/27 38/38/38 28/28/28
f 35/35/35 38/38/38 27/27/27
f 29/29/29 35/35/35 27/27/27
f 39/39/39 35/35/35 29/29/29
f 27/27/27 40/40/40 29/29/29
f 30/30/30 40/40/40 27/27/27
f 28/28/28 30/30/30 27/27/27
f 31/31/31 30/30/30 28/28/28
f 37/37/37 31/31/31 28/28/28
f 47/47/47 31/31/31 37/37/37
f 32/32/32 45/45/45 44/44/44
f 46/46/46 45/45/45 32/32/32
f 31/31/31 46/46/46 32/32/32
f 47/47/47 46/46/46 31/31/31
f 48/48/48 50/50/50 49/49/49
f 30/30/30 33/33/33 40/40/40
f 32/32/32 33/33/33 30/30/30
f 31/31/31 32/32/32 30/30/30
f 44/44/44 33/33/33 32/32/32
