g araba_ust
v 0 -1.133952 0.2503642
v 0.4756761 -1.101651 0.2335416
v 0.8623967 0.4226054 0.5594962
v 0.4262775 0.4226117 0.6498867
v 0.413075 -0.6839073 0.6972164
v 0.9706076 -0.9822827 0.1599596
v 0.7866305 -0.6097484 0.6350354
v 0.8111841 0.4226117 0.5842987
v 0.876814 -0.1528223 0.5568548
v 0.8932561 0.4225993 0.5120734
v 0.8526825 -0.6285945 0.5780386
v 0.4260371 -0.7464957 0.6514677
v 0.8090626 -0.6560565 0.5973722
v 0.838003 -0.5287896 0.6228683
v 0.8675157 -0.5868235 0.569886
v -0.4756761 -1.101651 0.2335416
v -0.9706076 -0.9822827 0.1599596
v -0.838003 -0.5287896 0.6228683
v -0.7866305 -0.6097484 0.6350354
v -0.8450884 -0.1523598 0.6080968
v -0.876814 -0.1528223 0.5568548
v -0.8932561 0.4225993 0.5120734
v -0.8675157 -0.5868235 0.569886
v -0.8090626 -0.6560565 0.5973722
v -0.4260371 -0.7464957 0.6514677
v 0 -0.7814253 0.6696601
v -0.8526825 -0.6285945 0.5780386
v -0.413075 -0.6839073 0.6972164
v 0.4177829 -0.1523627 0.6955819
v 0.7950157 -0.1523603 0.6327481
v 0.4139686 -0.6049872 0.7079072
v 0.7883083 -0.5395129 0.6476883
v 0 -0.1523646 0.7134857
v 0 -0.6353858 0.7260993
v -0.7883083 -0.5395129 0.6476883
v -0.4177829 -0.1523627 0.6955819
v -0.7950157 -0.1523603 0.6327481
v -0.4139686 -0.6049872 0.7079072
v 0.8450884 -0.1523598 0.6080968
v 0.8261291 -0.5781661 0.6188608
v 0 0.4226117 0.6680621
v 0 -0.7188377 0.7154082
v -0.8261291 -0.5781661 0.6188608
v -0.4262775 0.4226117 0.6498867
v -0.8623966 0.4226054 0.5594962
v -0.811184 0.4226117 0.5842987
v 1.057007 -0.2564696 0.1124983
v 1.052769 0.4225289 0.04448444
v 1.030165 -0.9070293 0.1508586
v 1.007162 -0.9563292 0.1411852
v 0 0.4227563 -0.2490818
v 0.4267962 0.4227563 -0.2490821
v 1.015896 0.4225289 -0.2490758
v 1.015896 0.4225289 -0.005705804
v -1.052769 0.4225289 0.04448444
v -1.057007 -0.2564696 0.1124983
v -1.030165 -0.9070293 0.1508586
v -0.4267962 0.4227563 -0.2490821
v -1.015896 0.4225289 -0.2490758
v -1.007162 -0.9563292 0.1411852
v -1.015896 0.4225289 -0.005705804
v 0.9622637 -1.024339 0.09482557
v 0.4796075 -1.160744 0.170665
v 0 -1.195472 0.1889985
v -0.9622637 -1.024339 0.09482557
v -0.4796075 -1.160744 0.170665
v 0.8445187 1.397293 0.2090156
v -0.845791 1.374828 0.2184691
v -0.8455842 1.366636 0.2384916
v 0.8447256 1.3891 0.2290381
v -0.8452987 1.346685 0.2468551
v 0.8450109 1.36915 0.2374016
v -0.8451023 1.326663 0.2386604
v 0.8452075 1.349128 0.2292069
v -0.8451099 1.318299 0.2187079
v 0.8451998 1.340764 0.2092544
v -0.8453169 1.326492 0.1986853
v 0.8449929 1.348956 0.1892319
v -0.8456022 1.346442 0.1903219
v 0.8447075 1.368907 0.1808684
v -0.8457986 1.366464 0.1985165
v 0.8445111 1.388929 0.189063
v 0.8526825 -0.6285945 0.5780386
v 1.007162 -0.9563292 0.1411852
v 0.8261291 -0.5781661 0.6188608
v 1.052769 0.4225289 0.04448444
v 0.8932561 0.4225993 0.5120734
v 0.8623967 0.4226054 0.5594962
v -1.052769 0.4225289 0.04448444
v -0.8526825 -0.6285945 0.5780386
v -1.007162 -0.9563292 0.1411852
v 0 -0.7188377 0.7154082
v -0.8261291 -0.5781661 0.6188608
v -1.052769 0.4225289 0.04448444
v -0.8932561 0.4225993 0.5120734
v -0.8623966 0.4226054 0.5594962
v 0.8261291 -0.5781661 0.6188608
v 0.838003 -0.5287896 0.6228683
v 0.7866305 -0.6097484 0.6350354
v 0.4262775 0.4226117 0.6498867
v 0 0.4226117 0.6680621
v 0.8450884 -0.1523598 0.6080968
v 0.8111841 0.4226117 0.5842987
v 0.8623967 0.4226054 0.5594962
v 0.413075 -0.6839073 0.6972164
v 0 -0.7188377 0.7154082
v -0.8261291 -0.5781661 0.6188608
v -0.7866305 -0.6097484 0.6350354
v -0.838003 -0.5287896 0.6228683
v -0.4262775 0.4226117 0.6498867
v -0.8450884 -0.1523598 0.6080968
v -0.811184 0.4226117 0.5842987
v -0.8623966 0.4226054 0.5594962
v -0.413075 -0.6839073 0.6972164
v 0 -0.7188377 0.7154082
v 0.8445111 1.388929 0.189063
v -0.8457986 1.366464 0.1985165
vt 0.8619747 0.8773625
vt 0.8069694 0.8784361
vt 0.355476 0.7583379
vt 0.7765606 0.8227881
vt 0.8140904 0.9504163
vt 0.7490667 0.8823392
vt 0.7708135 0.9514951
vt 0.7208268 0.813291
vt 0.2226312 0.7512029
vt 0.3503922 0.7512997
vt 0.7631811 0.9453484
vt 0.8126472 0.9415084
vt 0.7682559 0.9445937
vt 0.1664324 0.756079
vt 0.1585712 0.7475316
vt 0.9169801 0.8784361
vt 0.9748828 0.8823392
vt 0.1664324 0.756079
vt 0.953136 0.9514951
vt 0.2220393 0.7587528
vt 0.2226312 0.7512029
vt 0.3503922 0.7512997
vt 0.1585712 0.7475316
vt 0.9556935 0.9445937
vt 0.9113023 0.9415084
vt 0.8619747 0.9402874
vt 0.9607684 0.9453484
vt 0.9098591 0.9504163
vt 0.5570409 0.4345269
vt 0.5570412 0.3804241
vt 0.4921294 0.4350745
vt 0.5015191 0.3813872
vt 0.5570407 0.4944007
vt 0.4877698 0.4944007
vt 0.5015191 0.6074555
vt 0.5570409 0.5543157
vt 0.5570412 0.6084186
vt 0.4921294 0.5537682
vt 0.2220393 0.7587528
vt 0.159215 0.754853
vt 0.8382848 0.8254198
vt 0.8619747 0.9491866
vt 0.159215 0.754853
vt 0.9000091 0.8227881
vt 0.355476 0.7583379
vt 0.9557428 0.813291
vt 0.2130958 0.6844514
vt 0.3151079 0.683287
vt 0.1168287 0.6817197
vt 0.7446976 0.8830152
vt 0.8382848 0.6881698
vt 0.7764855 0.6881698
vt 0.6911849 0.6881706
vt 0.6911849 0.7278594
vt 0.3151079 0.683287
vt 0.2130958 0.6844514
vt 0.1168287 0.6817197
vt 0.9000842 0.6881698
vt 0.9853848 0.6881706
vt 0.9792519 0.8830152
vt 0.9853848 0.7278594
vt 0.7497637 0.8736393
vt 0.8064517 0.8684716
vt 0.8619747 0.8673164
vt 0.9741858 0.8736393
vt 0.9174978 0.8684716
vt 0.1046192 0.006447405
vt 0.1046192 0.3394399
vt 0.1082353 0.3394399
vt 0.1082353 0.006447405
vt 0.1118515 0.3394399
vt 0.1118515 0.006447405
vt 0.1154676 0.3394399
vt 0.1154676 0.006447405
vt 0.1190838 0.3394399
vt 0.1190838 0.006447405
vt 0.1227 0.3394399
vt 0.1227 0.006447405
vt 0.1263161 0.3394399
vt 0.1263161 0.006447405
vt 0.1299323 0.3394399
vt 0.1299323 0.006447405
vt 0.1523168 0.7481938
vt 0.1096954 0.6796606
vt 0.7662141 0.9528502
vt 0.6858458 0.7351269
vt 0.7089429 0.8028329
vt 0.7134114 0.8096997
vt 0.3151079 0.683287
vt 0.1523168 0.7481938
vt 0.1096954 0.6796606
vt 0.8619747 0.9491866
vt 0.9577354 0.9528502
vt 0.9907238 0.7351269
vt 0.9676268 0.8028329
vt 0.9631583 0.8096997
vt 0.4959759 0.3759601
vt 0.503057 0.3742577
vt 0.4914466 0.381627
vt 0.6860066 0.4332315
vt 0.6860066 0.4944007
vt 0.5570412 0.3732391
vt 0.6860066 0.3779433
vt 0.6860066 0.3705737
vt 0.4808113 0.4352025
vt 0.4758021 0.4944007
vt 0.4959759 0.6128826
vt 0.4914466 0.6072158
vt 0.503057 0.6145849
vt 0.6860066 0.5556111
vt 0.5570412 0.6156036
vt 0.6860066 0.6108994
vt 0.6860066 0.618269
vt 0.4808113 0.5536401
vt 0.4758021 0.4944007
vt 0.101003 0.006447405
vt 0.101003 0.3394399
vn 0 -0.7389352 0.6737764
vn 0.1802161 -0.741532 0.6462603
vn 0.6763766 0.0413307 0.7353954
vn 0 1 0.0001592103
vn 0.140374 -0.3667372 0.9196732
vn 0.4888353 -0.6724074 0.5557954
vn 0.3549437 -0.3288618 0.8751371
vn 0.0002378162 1 6.378524E-05
vn 0.8962368 0.007974613 0.4435042
vn 0.8984105 0.02057957 0.4386741
vn 0.6832507 -0.3589165 0.6358832
vn 0.1706463 -0.659005 0.7325245
vn 0.4314429 -0.5436991 0.7198946
vn 0.6721085 -0.05476112 0.7384249
vn 0.8414671 -0.1328903 0.5237111
vn -0.1802161 -0.741532 0.6462603
vn -0.4888353 -0.6724074 0.5557954
vn -0.6721086 -0.05476113 0.7384249
vn -0.3549437 -0.3288618 0.8751371
vn -0.6712463 0.02859674 0.7406825
vn -0.8962368 0.007974631 0.4435042
vn -0.8984104 0.02057962 0.4386743
vn -0.8414671 -0.1328903 0.523711
vn -0.4314429 -0.5436991 0.7198946
vn -0.1706463 -0.659005 0.7325245
vn 0 -0.6795396 0.7336389
vn -0.6832507 -0.3589165 0.6358832
vn -0.140374 -0.3667372 0.9196732
vn 0.1023666 0.05308553 0.9933293
vn 0.3033813 0.04975454 0.9515693
vn 0.111723 -0.06068041 0.9918851
vn 0.3194116 -0.06949356 0.9450645
vn 0 0.05255478 0.998618
vn 0 -0.05588906 0.998437
vn -0.3194116 -0.06949358 0.9450644
vn -0.1023666 0.05308554 0.9933293
vn -0.3033813 0.04975455 0.9515693
vn -0.111723 -0.06068042 0.9918851
vn 0.6712464 0.02859671 0.7406824
vn 0.5999534 -0.2213723 0.7687979
vn 0 1 0.0001592103
vn 0 -0.3775766 0.9259784
vn -0.5999534 -0.2213723 0.7687979
vn 0 1 0.0001592103
vn -0.6763763 0.04133077 0.7353956
vn -0.0002378162 1 6.378526E-05
vn 0.9321921 0.002982148 0.3619516
vn 0.9376853 0.02205977 0.3467846
vn 0.8385114 -0.231777 0.4931308
vn 0.6882884 -0.5088784 0.5170124
vn 0 1 0.0001592103
vn 0 1 0.0001592103
vn 0.0002378162 1 6.378524E-05
vn 0.0002280146 1 -6.319802E-05
vn -0.9376853 0.02205977 0.3467846
vn -0.9321921 0.002982145 0.3619516
vn -0.8385114 -0.231777 0.4931308
vn 0 1 0.0001592104
vn -0.0002378162 1 6.378526E-05
vn -0.6882885 -0.5088784 0.5170122
vn -0.0002280145 1 -6.319805E-05
vn 0.3841744 -0.7492015 0.5395436
vn 0.1827625 -0.7406181 0.6465931
vn 0 -0.7163049 0.6977875
vn -0.3841744 -0.7492015 0.5395435
vn -0.1827625 -0.7406182 0.6465931
vn -0.01331271 0.9999024 -0.004259739
vn -0.01331224 0.9999027 -0.004176465
vn -0.005495875 0.7099016 0.7042794
vn -0.00550246 0.7102495 0.7039285
vn 0.005539668 0.003985776 0.9999768
vn 0.005531515 0.004598232 0.9999741
vn 0.01332872 -0.7041406 0.7099354
vn 0.01332665 -0.7038728 0.710201
vn 0.01331278 -0.9999024 0.004259863
vn 0.01331233 -0.9999027 0.004179105
vn 0.005502499 -0.71025 -0.7039281
vn 0.005495919 -0.7099023 -0.7042786
vn -0.005531464 -0.004599343 -0.9999741
vn -0.005539651 -0.003984426 -0.9999768
vn -0.01332656 0.7038704 -0.7102035
vn -0.01332863 0.7041385 -0.7099376
vn 0.6832507 -0.3589165 0.6358832
vn 0.6882884 -0.5088784 0.5170124
vn 0.5999534 -0.2213723 0.7687979
vn 0.0002280145 1 -6.319802E-05
vn 0.0002280146 1 -6.319802E-05
vn 0.0002280146 1 -6.319802E-05
vn -0.9376853 0.02205977 0.3467846
vn -0.6832507 -0.3589165 0.6358832
vn -0.6882885 -0.5088784 0.5170122
vn 0 -0.3775766 0.9259784
vn -0.5999534 -0.2213723 0.7687979
vn -0.0002280145 1 -6.319805E-05
vn -0.0002280145 1 -6.319804E-05
vn -0.0002280145 1 -6.319804E-05
vn 0.5999534 -0.2213723 0.7687979
vn 0.6721085 -0.05476112 0.7384249
vn 0.3549437 -0.3288618 0.8751371
vn 0.1052184 0.07790903 0.9913926
vn 0 0.0786768 0.9969002
vn 0.6712464 0.02859671 0.7406824
vn 0.3094064 0.07043315 0.9483179
vn 0.6763766 0.0413307 0.7353954
vn 0.140374 -0.3667372 0.9196732
vn 0 -0.3775766 0.9259784
vn -0.5999534 -0.2213723 0.7687979
vn -0.3549437 -0.3288618 0.8751371
vn -0.6721086 -0.05476113 0.7384249
vn -0.1052184 0.07790904 0.9913926
vn -0.6712463 0.02859674 0.7406825
vn -0.3094064 0.07043318 0.9483179
vn -0.6763763 0.04133077 0.7353956
vn -0.140374 -0.3667372 0.9196732
vn 0 -0.3775766 0.9259784
vn -0.01332863 0.7041385 -0.7099376
vn -0.01332656 0.7038704 -0.7102035
g araba_ust_0
f 49/49/49 83/83/83 84/84/84
f 15/15/15 83/83/83 49/49/49
f 9/9/9 15/15/15 49/49/49
f 39/39/39 15/15/15 9/9/9
f 3/3/3 39/39/39 9/9/9
f 14/14/14 15/15/15 39/39/39
f 83/83/83 15/15/15 14/14/14
f 40/40/40 83/83/83 14/14/14
f 2/2/2 64/64/64 63/63/63
f 6/6/6 2/2/2 63/63/63
f 13/13/13 2/2/2 6/6/6
f 11/11/11 13/13/13 6/6/6
f 7/7/7 13/13/13 11/11/11
f 85/85/85 7/7/7 11/11/11
f 8/8/8 86/86/86 54/54/54
f 87/87/87 86/86/86 8/8/8
f 88/88/88 87/87/87 8/8/8
f 21/21/21 22/22/22 55/55/55
f 45/45/45 22/22/22 21/21/21
f 20/20/20 45/45/45 21/21/21
f 90/90/90 43/43/43 18/18/18
f 23/23/23 90/90/90 18/18/18
f 57/57/57 90/90/90 23/23/23
f 21/21/21 57/57/57 23/23/23
f 56/56/56 57/57/57 21/21/21
f 89/89/89 56/56/56 21/21/21
f 91/91/91 90/90/90 57/57/57
f 25/25/25 26/26/26 92/92/92
f 28/28/28 25/25/25 92/92/92
f 24/24/24 25/25/25 28/28/28
f 19/19/19 24/24/24 28/28/28
f 27/27/27 24/24/24 19/19/19
f 93/93/93 27/27/27 19/19/19
f 46/46/46 95/95/95 96/96/96
f 94/94/94 95/95/95 46/46/46
f 61/61/61 94/94/94 46/46/46
f 6/6/6 50/50/50 11/11/11
f 62/62/62 50/50/50 6/6/6
f 63/63/63 62/62/62 6/6/6
f 9/9/9 10/10/10 3/3/3
f 48/48/48 10/10/10 9/9/9
f 47/47/47 48/48/48 9/9/9
f 17/17/17 60/60/60 65/65/65
f 66/66/66 17/17/17 65/65/65
f 16/16/16 17/17/17 66/66/66
f 64/64/64 16/16/16 66/66/66
f 1/1/1 16/16/16 64/64/64
f 2/2/2 1/1/1 64/64/64
f 12/12/12 1/1/1 2/2/2
f 13/13/13 12/12/12 2/2/2
f 5/5/5 12/12/12 13/13/13
f 7/7/7 5/5/5 13/13/13
f 17/17/17 27/27/27 60/60/60
f 24/24/24 27/27/27 17/17/17
f 16/16/16 24/24/24 17/17/17
f 25/25/25 24/24/24 16/16/16
f 1/1/1 25/25/25 16/16/16
f 26/26/26 25/25/25 1/1/1
f 12/12/12 26/26/26 1/1/1
f 42/42/42 26/26/26 12/12/12
f 5/5/5 42/42/42 12/12/12
f 9/9/9 49/49/49 47/47/47
f 53/53/53 8/8/8 54/54/54
f 4/4/4 8/8/8 53/53/53
f 52/52/52 4/4/4 53/53/53
f 41/41/41 4/4/4 52/52/52
f 51/51/51 41/41/41 52/52/52
f 58/58/58 41/41/41 51/51/51
f 20/20/20 23/23/23 18/18/18
f 21/21/21 23/23/23 20/20/20
f 59/59/59 61/61/61 46/46/46
f 44/44/44 59/59/59 46/46/46
f 58/58/58 59/59/59 44/44/44
f 41/41/41 58/58/58 44/44/44
g araba_ust_1
f 103/103/103 102/102/102 104/104/104
f 30/30/30 102/102/102 103/103/103
f 29/29/29 30/30/30 103/103/103
f 31/31/31 30/30/30 29/29/29
f 33/33/33 31/31/31 29/29/29
f 34/34/34 31/31/31 33/33/33
f 38/38/38 34/34/34 33/33/33
f 114/114/114 34/34/34 38/38/38
f 108/108/108 114/114/114 38/38/38
f 32/32/32 97/97/97 98/98/98
f 99/99/99 97/97/97 32/32/32
f 31/31/31 99/99/99 32/32/32
f 105/105/105 99/99/99 31/31/31
f 34/34/34 105/105/105 31/31/31
f 106/106/106 105/105/105 34/34/34
f 35/35/35 107/107/107 108/108/108
f 109/109/109 107/107/107 35/35/35
f 37/37/37 109/109/109 35/35/35
f 111/111/111 109/109/109 37/37/37
f 112/112/112 111/111/111 37/37/37
f 113/113/113 111/111/111 112/112/112
f 115/115/115 34/34/34 114/114/114
f 36/36/36 112/112/112 37/37/37
f 110/110/110 112/112/112 36/36/36
f 33/33/33 110/110/110 36/36/36
f 101/101/101 110/110/110 33/33/33
f 100/100/100 101/101/101 33/33/33
f 29/29/29 100/100/100 33/33/33
f 103/103/103 100/100/100 29/29/29
f 30/30/30 98/98/98 102/102/102
f 32/32/32 98/98/98 30/30/30
f 31/31/31 32/32/32 30/30/30
f 38/38/38 37/37/37 35/35/35
f 36/36/36 37/37/37 38/38/38
f 33/33/33 36/36/36 38/38/38
f 108/108/108 38/38/38 35/35/35
g araba_ust_2
f 68/68/68 116/116/116 117/117/117
f 67/67/67 116/116/116 68/68/68
f 69/69/69 67/67/67 68/68/68
f 70/70/70 67/67/67 69/69/69
f 71/71/71 70/70/70 69/69/69
f 72/72/72 70/70/70 71/71/71
f 73/73/73 72/72/72 71/71/71
f 74/74/74 72/72/72 73/73/73
f 75/75/75 74/74/74 73/73/73
f 76/76/76 74/74/74 75/75/75
f 77/77/77 76/76/76 75/75/75
f 78/78/78 76/76/76 77/77/77
f 79/79/79 78/78/78 77/77/77
f 80/80/80 78/78/78 79/79/79
f 81/81/81 80/80/80 79/79/79
f 82/82/82 80/80/80 81/81/81
