g araba_sol3
v 0.5960128 -0.587717 1.229506
v 0.7060485 -0.1908109 1.273717
v 0.4828652 -0.587717 1.593217
v 0.560437 -0.2036327 1.592498
v 0.7540318 -0.2936221 1.285674
v 0.6408842 -0.2936221 1.649385
v 0.2847179 -0.2091922 1.717982
v 0.2298029 -0.587717 1.748355
v 0.3088124 -0.2936221 1.804523
v 0.3995776 -0.06861741 1.287255
v 0.005991891 -0.587717 1.748355
v 0.005991876 -0.2091922 1.717982
v 0.005991876 -0.06861741 1.287255
v 0.005991906 -0.2936221 1.804523
v 0.9012361 -0.587717 -0.2352848
v 1.03418 -0.05246193 -0.2947878
v 1.059255 -0.1773582 -0.2817906
v 0.5955477 0.1560493 -0.1582983
v 0.005991876 0.1560493 -0.1582983
v 0.8701142 -0.1216364 0.4894646
v 0.7486244 -0.587717 0.4971105
v 0.9066435 -0.2354901 0.5019416
v 0.4975627 0.04371589 0.5644785
v 0.005991876 0.04371589 0.5644785
v 0.7540318 -0.2936221 1.285674
v 0.5960128 -0.587717 1.229506
v 0.6408842 -0.2936221 1.649385
v 0.7540318 -0.2936221 1.285674
v 0.560437 -0.2036327 1.592498
v 0.6408842 -0.2936221 1.649385
v 0.9066435 -0.2354901 0.5019416
v 0.7060485 -0.1908109 1.273717
v 0.8701142 -0.1216364 0.4894646
v 0.2847179 -0.2091922 1.717982
v 0.7060485 -0.1908109 1.273717
v 0.560437 -0.2036327 1.592498
v 0.3995776 -0.06861741 1.287255
v 0.6408842 -0.2936221 1.649385
v 0.4828652 -0.587717 1.593217
v 0.3088124 -0.2936221 1.804523
v 0.2847179 -0.2091922 1.717982
v 0.2298029 -0.587717 1.748355
v 0.3088124 -0.2936221 1.804523
v 0.005991906 -0.2936221 1.804523
v 0.005991876 -0.2091922 1.717982
v 1.059255 -0.1773582 -0.2817906
v 1.03418 -0.05246193 -0.2947878
vt 0.3896757 0.7109289
vt 0.3807766 0.7908202
vt 0.316466 0.7109289
vt 0.534785 0.4982882
vt 0.3783699 0.7701259
vt 0.3051602 0.7701259
vt 0.4783375 0.4971499
vt 0.467095 0.4196554
vt 0.4832703 0.4798647
vt 0.2160221 0.3706393
vt 0.4212745 0.4196554
vt 0.1586287 0.3078299
vt 0.1586287 0.3706393
vt 0.4212746 0.4798647
vt 0.6845165 0.7109289
vt 0.6964935 0.8186678
vt 0.6938773 0.793528
vt 0.2445989 0.5814331
vt 0.1586287 0.5814331
vt 0.5386351 0.804744
vt 0.5370961 0.7109289
vt 0.5361236 0.781827
vt 0.2303105 0.4760362
vt 0.1586287 0.4760362
vt 0.3783699 0.7701259
vt 0.3896757 0.7109289
vt 0.5512547 0.4798647
vt 0.3783699 0.7701259
vt 0.3166108 0.7882394
vt 0.3051602 0.7701259
vt 0.5361236 0.781827
vt 0.2607124 0.3726135
vt 0.2846368 0.4869749
vt 0.1992731 0.3078299
vt 0.2607124 0.3726135
vt 0.239479 0.3261282
vt 0.2160221 0.3706393
vt 0.5512547 0.4798647
vt 0.5189039 0.4196554
vt 0.4832703 0.4798647
vt 0.1992731 0.3078299
vt 0.467095 0.4196554
vt 0.4832703 0.4798647
vt 0.4212746 0.4798647
vt 0.4212745 0.4971499
vt 0.6938773 0.793528
vt 0.3085612 0.6013362
vn 0.8806976 -0.4457632 0.1602084
vn 0.8315342 0.4931488 0.2556463
vn 0.8296388 -0.4950624 0.2580941
vn 0.5413279 0.682687 0.4908182
vn 0.8806976 -0.4457632 0.1602084
vn 0.8296388 -0.4950624 0.2580941
vn 0.1474546 0.7187064 0.6794984
vn 0.4411329 -0.3366503 0.8319065
vn 0.1474546 0.7187064 0.6794984
vn 0.1373748 0.9660751 0.2186937
vn 0 -0.1875956 0.9822464
vn 0 0.9506514 0.3102608
vn 0 0.9725548 0.2326742
vn 0 -0.1875956 0.9822464
vn 0.9136456 -0.3693639 0.1697707
vn 0.9406797 0.2652919 0.2115232
vn 0.9406797 0.2652919 0.2115232
vn 0.2316359 0.9572349 0.1733387
vn 0 0.9881369 0.1535754
vn 0.9229053 0.3210993 0.2124645
vn 0.8979593 -0.4079214 0.1651344
vn 0.8979593 -0.4079214 0.1651344
vn 0.2188631 0.9605715 0.171468
vn 0 0.9881369 0.1535754
vn 0.8296388 -0.4950624 0.2580941
vn 0.8296388 -0.4950624 0.2580941
vn 0.5413279 0.682687 0.4908182
vn 0.8315342 0.4931488 0.2556463
vn 0.5413279 0.682687 0.4908182
vn 0.5413279 0.682687 0.4908182
vn 0.9229053 0.3210993 0.2124645
vn 0.4033218 0.8975328 0.1782314
vn 0.4270776 0.8859215 0.1809637
vn 0.2519634 0.9271515 0.2773167
vn 0.2519634 0.9271515 0.2773167
vn 0.2519634 0.9271515 0.2773167
vn 0.2519634 0.9271515 0.2773167
vn 0.4411329 -0.3366503 0.8319065
vn 0.4411329 -0.3366503 0.8319065
vn 0.4411329 -0.3366503 0.8319065
vn 0 0.9506514 0.3102608
vn 0 -0.1875956 0.9822464
vn 0 -0.1875956 0.9822464
vn 0 0.7157851 0.6983206
vn 0 0.7157851 0.6983206
vn 0.9136456 -0.3693639 0.1697707
vn 0.4505316 0.8736842 0.1835682
g araba_sol3_0
f 21/21/21 15/15/15 46/46/46
f 22/22/22 21/21/21 46/46/46
f 1/1/1 21/21/21 22/22/22
f 5/5/5 1/1/1 22/22/22
f 25/25/25 3/3/3 26/26/26
f 6/6/6 3/3/3 25/25/25
f 7/7/7 27/27/27 4/4/4
f 9/9/9 27/27/27 7/7/7
f 44/44/44 9/9/9 7/7/7
f 28/28/28 29/29/29 30/30/30
f 2/2/2 29/29/29 28/28/28
f 20/20/20 2/2/2 28/28/28
f 20/20/20 17/17/17 16/16/16
f 31/31/31 17/17/17 20/20/20
f 28/28/28 31/31/31 20/20/20
f 35/35/35 34/34/34 36/36/36
f 37/37/37 34/34/34 35/35/35
f 38/38/38 8/8/8 39/39/39
f 40/40/40 8/8/8 38/38/38
f 23/23/23 32/32/32 33/33/33
f 10/10/10 32/32/32 23/23/23
f 13/13/13 10/10/10 23/23/23
f 41/41/41 10/10/10 13/13/13
f 12/12/12 41/41/41 13/13/13
f 14/14/14 42/42/42 43/43/43
f 11/11/11 42/42/42 14/14/14
f 45/45/45 44/44/44 7/7/7
f 23/23/23 19/19/19 24/24/24
f 18/18/18 19/19/19 23/23/23
f 33/33/33 18/18/18 23/23/23
f 47/47/47 18/18/18 33/33/33
f 24/24/24 13/13/13 23/23/23
