g araba_kaput
v 0.4796075 0.03923714 1.425595
v 0.4404259 0.0373112 2.044148
v 0.3964713 0.01766419 2.488864
v 0.4640341 0.04435539 1.673016
v 0 0.05550301 2.044148
v 0 0.03585625 2.495221
v -0.3964713 0.01766419 2.488864
v -0.4404259 0.0373112 2.044148
v 0.9622637 -0.03660232 1.289189
v 0.8780125 -0.03827071 2.044148
v 0.731047 -0.09002471 2.766626
v 0.3668946 -0.01444292 2.785341
v 0.7902471 -0.05791736 2.477635
v 0.92882 -0.03138101 1.591173
v 0 0.0626322 1.693852
v -0.9622637 -0.03660232 1.289189
v -0.92882 -0.03138101 1.591173
v -0.8780125 -0.03827071 2.044148
v -0.7902471 -0.05791736 2.477635
v -0.731047 -0.09002471 2.766626
v -0.3668946 -0.01444292 2.785341
v 0 -0.0006103516 2.786342
v 0 0.05757058 1.460322
v -0.4796075 0.03923714 1.425595
v -0.4640341 0.04435539 1.673016
v 0.4774857 0.01935136 1.425832
v 0.4382486 0.01744843 2.043293
v 0.3940554 -0.002109051 2.487082
v 0.4620001 0.02445948 1.672882
v 0 0.035514 2.043485
v -1.868071E-11 0.01592326 2.493587
v -0.3940554 -0.002109051 2.487082
v -0.4382486 0.01744843 2.043293
v 0.9591586 -0.05635983 1.289187
v 0.8746358 -0.05795491 2.043086
v 0.7270969 -0.1094346 2.76386
v 0.364491 -0.03414869 2.782911
v 0.7865545 -0.07746387 2.475563
v 0.9256094 -0.05112016 1.59093
v 0 0.04263222 1.693848
v -0.9591586 -0.05635983 1.289187
v -0.9256094 -0.05112016 1.59093
v -0.8746358 -0.05795491 2.043086
v -0.7865545 -0.07746387 2.475563
v -0.7270969 -0.1094346 2.76386
v -0.364491 -0.03414869 2.782911
v 0 -0.02045536 2.783856
v 0 0.03757477 1.460735
v -0.4774857 0.01935136 1.425832
v -0.4620001 0.02445948 1.672882
v 0.9622637 -0.03660232 1.289189
v 0.9256094 -0.05112016 1.59093
v 0.92882 -0.03138101 1.591173
v 0.9591586 -0.05635983 1.289187
v 0.4796075 0.03923714 1.425595
v 0.9591586 -0.05635983 1.289187
v 0.9622637 -0.03660232 1.289189
v 0.4796075 0.03923714 1.425595
v 0.4774857 0.01935136 1.425832
v 0.9591586 -0.05635983 1.289187
v 0.7902471 -0.05791736 2.477635
v 0.7270969 -0.1094346 2.76386
v 0.731047 -0.09002471 2.766626
v 0.7865545 -0.07746387 2.475563
v 0.731047 -0.09002471 2.766626
v 0.364491 -0.03414869 2.782911
v 0.3668946 -0.01444292 2.785341
v 0.7270969 -0.1094346 2.76386
v 0.364491 -0.03414869 2.782911
v 0 0.05757058 1.460322
v 0 0.05757058 1.460322
v 0 0.03757477 1.460735
v 0.8780125 -0.03827071 2.044148
v 0.8746358 -0.05795491 2.043086
v 0 -0.02045536 2.783856
v 0 -0.0006103516 2.786342
v 0 -0.02045536 2.783856
v -0.9622637 -0.03660232 1.289189
v -0.4774857 0.01935136 1.425832
v -0.4796075 0.03923714 1.425595
v -0.9622637 -0.03660232 1.289189
v -0.9591586 -0.05635983 1.289187
v -0.4774857 0.01935136 1.425832
v -0.92882 -0.03138101 1.591173
v -0.9591586 -0.05635983 1.289187
v -0.9622637 -0.03660232 1.289189
v -0.92882 -0.03138101 1.591173
v -0.9256094 -0.05112016 1.59093
v -0.3668946 -0.01444292 2.785341
v -0.7270969 -0.1094346 2.76386
v -0.731047 -0.09002471 2.766626
v -0.3668946 -0.01444292 2.785341
v -0.364491 -0.03414869 2.782911
v -0.731047 -0.09002471 2.766626
v -0.7865545 -0.07746387 2.475563
v -0.7902471 -0.05791736 2.477635
v -0.7270969 -0.1094346 2.76386
v -0.7902471 -0.05791736 2.477635
v -0.8746358 -0.05795491 2.043086
v -0.8780125 -0.03827071 2.044148
v 0 -0.0006103516 2.786342
v -0.8780125 -0.03827071 2.044148
v 0 0.03757477 1.460735
vt 0.4144411 0.4251934
vt 0.3257335 0.4308458
vt 0.2619563 0.4371494
vt 0.378958 0.427454
vt 0.3257335 0.4944007
vt 0.2610446 0.4944007
vt 0.2619563 0.5516933
vt 0.3257335 0.5579969
vt 0.4340033 0.3550597
vt 0.3257335 0.3672534
vt 0.222122 0.388258
vt 0.2194381 0.4413519
vt 0.2635666 0.3798562
vt 0.3906953 0.3599374
vt 0.3759698 0.4944007
vt 0.4340033 0.633783
vt 0.3906953 0.6289053
vt 0.3257335 0.6215893
vt 0.2635666 0.6089865
vt 0.222122 0.6005846
vt 0.2194381 0.5474908
vt 0.222931 0.4944007
vt 0.4094608 0.4944007
vt 0.4144411 0.5636493
vt 0.378958 0.5613887
vt 0.4144411 0.4251934
vt 0.3257335 0.4308458
vt 0.2619563 0.4371494
vt 0.378958 0.427454
vt 0.3257335 0.4944007
vt 0.2610446 0.4944007
vt 0.2619563 0.5516933
vt 0.3257335 0.5579969
vt 0.4340033 0.3550597
vt 0.3257335 0.3672534
vt 0.222122 0.388258
vt 0.2194381 0.4413519
vt 0.2635666 0.3798562
vt 0.3906953 0.3599374
vt 0.3759698 0.4944007
vt 0.4340033 0.633783
vt 0.3906953 0.6289053
vt 0.3257335 0.6215893
vt 0.2635666 0.6089865
vt 0.222122 0.6005846
vt 0.2194381 0.5474908
vt 0.222931 0.4944007
vt 0.4094608 0.4944007
vt 0.4144411 0.5636493
vt 0.378958 0.5613887
vt 0.4340033 0.3550597
vt 0.3906953 0.3599374
vt 0.3906953 0.3599374
vt 0.4340033 0.3550597
vt 0.4144411 0.4251934
vt 0.4340033 0.3550597
vt 0.4340033 0.3550597
vt 0.4144411 0.4251934
vt 0.4144411 0.4251934
vt 0.4340033 0.3550597
vt 0.2635666 0.3798562
vt 0.222122 0.388258
vt 0.222122 0.388258
vt 0.2635666 0.3798562
vt 0.222122 0.388258
vt 0.2194381 0.4413519
vt 0.2194381 0.4413519
vt 0.222122 0.388258
vt 0.2194381 0.4413519
vt 0.4094608 0.4944007
vt 0.4094608 0.4944007
vt 0.4094608 0.4944007
vt 0.3257335 0.3672534
vt 0.3257335 0.3672534
vt 0.222931 0.4944007
vt 0.222931 0.4944007
vt 0.222931 0.4944007
vt 0.4340033 0.633783
vt 0.4144411 0.5636493
vt 0.4144411 0.5636493
vt 0.4340033 0.633783
vt 0.4340033 0.633783
vt 0.4144411 0.5636493
vt 0.3906953 0.6289053
vt 0.4340033 0.633783
vt 0.4340033 0.633783
vt 0.3906953 0.6289053
vt 0.3906953 0.6289053
vt 0.2194381 0.5474908
vt 0.222122 0.6005846
vt 0.222122 0.6005846
vt 0.2194381 0.5474908
vt 0.2194381 0.5474908
vt 0.222122 0.6005846
vt 0.2635666 0.6089865
vt 0.2635666 0.6089865
vt 0.222122 0.6005846
vt 0.2635666 0.6089865
vt 0.3257335 0.6215893
vt 0.3257335 0.6215893
vt 0.222931 0.4944007
vt 0.3257335 0.6215893
vt 0.4094608 0.4944007
vn 0.09744425 0.9951652 -0.01227926
vn 0.1082501 0.9932156 0.04248277
vn 0.1165984 0.9888027 0.09313346
vn 0.1010659 0.9948545 0.007086186
vn 0 0.9994395 0.0334737
vn 0 0.9966276 0.0820578
vn -0.1165984 0.9888027 0.09313346
vn -0.1082501 0.9932156 0.04248278
vn 0.156944 0.9875968 -0.004583821
vn 0.1737732 0.9834468 0.05133314
vn 0.1989446 0.9704432 0.1366054
vn 0.1212337 0.9843792 0.1276717
vn 0.1892715 0.9764263 0.1037688
vn 0.1625538 0.9866056 0.01362964
vn 0 0.9999999 0.0005153671
vn -0.156944 0.9875968 -0.004583822
vn -0.1625538 0.9866056 0.01362964
vn -0.1737731 0.9834468 0.05133314
vn -0.1892714 0.9764263 0.1037688
vn -0.1989446 0.9704432 0.1366054
vn -0.1212337 0.9843792 0.1276717
vn 0 0.9930089 0.11804
vn 0 0.9998011 -0.0199439
vn -0.09744424 0.9951652 -0.01227927
vn -0.1010659 0.9948545 0.007086186
vn -0.09743811 -0.9951657 0.01229027
vn -0.1082614 -0.9932145 -0.04247852
vn -0.1166215 -0.988798 -0.09315585
vn -0.1010706 -0.994854 -0.007083301
vn 0 -0.9994407 -0.03343756
vn 0 -0.9966286 -0.08204534
vn 0.1166215 -0.988798 -0.09315584
vn 0.1082614 -0.9932145 -0.04247852
vn -0.1569996 -0.987588 0.004593559
vn -0.1738648 -0.9834293 -0.05136019
vn -0.1991239 -0.970395 -0.1366861
vn -0.1212725 -0.9843667 -0.1277301
vn -0.1894092 -0.9763938 -0.1038238
vn -0.1626255 -0.9865936 -0.01363728
vn 0 -0.9999999 -0.000501896
vn 0.1569996 -0.987588 0.004593558
vn 0.1626255 -0.9865936 -0.01363728
vn 0.1738648 -0.9834293 -0.05136018
vn 0.1894091 -0.9763938 -0.1038238
vn 0.1991237 -0.970395 -0.1366861
vn 0.1212724 -0.9843667 -0.1277301
vn 0 -0.9930051 -0.1180722
vn 0 -0.9998009 0.01995601
vn 0.09743812 -0.9951657 0.01229027
vn 0.1010706 -0.994854 -0.007083299
vn 0.9811779 -0.1575869 0.1116076
vn 0.9806059 -0.1624553 0.1096372
vn 0.9806059 -0.1624553 0.1096372
vn 0.9811779 -0.1575869 0.1116076
vn -0.1713967 0.008657908 -0.985164
vn -0.2680079 0.02961724 -0.9629614
vn -0.2680079 0.02961724 -0.9629614
vn -0.1713967 0.008657908 -0.985164
vn -0.1713967 0.008657908 -0.985164
vn -0.2680079 0.02961724 -0.9629614
vn 0.963062 -0.1995451 0.1808132
vn 0.9619434 -0.2103817 0.1743691
vn 0.9619434 -0.2103817 0.1743691
vn 0.963062 -0.1995451 0.1808132
vn 0.02336312 -0.1353986 0.9905157
vn 0.01068422 -0.1293221 0.9915451
vn 0.01068422 -0.1293221 0.9915451
vn 0.02336312 -0.1353986 0.9905157
vn 0.01068422 -0.1293221 0.9915451
vn 0 -0.01242349 -0.9999229
vn 0 -0.01242349 -0.9999229
vn 0 -0.01242349 -0.9999229
vn 0.9728731 -0.1781547 0.147576
vn 0.9728731 -0.1781547 0.147576
vn 0 -0.1232202 0.9923793
vn 0 -0.1232202 0.9923793
vn 0 -0.1232202 0.9923794
vn 0.2680074 0.02961762 -0.9629615
vn 0.1713964 0.008658078 -0.985164
vn 0.1713964 0.008658078 -0.985164
vn 0.2680074 0.02961762 -0.9629615
vn 0.2680074 0.02961762 -0.9629615
vn 0.1713964 0.008658078 -0.9851641
vn -0.9806058 -0.1624564 0.1096372
vn -0.9811777 -0.1575886 0.1116076
vn -0.9811777 -0.1575886 0.1116076
vn -0.9806058 -0.1624564 0.1096372
vn -0.9806058 -0.1624564 0.1096372
vn -0.01068372 -0.1293221 0.9915451
vn -0.02336162 -0.1353986 0.9905158
vn -0.02336162 -0.1353986 0.9905158
vn -0.01068372 -0.1293221 0.9915451
vn -0.01068372 -0.1293221 0.9915451
vn -0.9619434 -0.2103817 0.174369
vn -0.963062 -0.1995449 0.1808132
vn -0.963062 -0.1995449 0.1808132
vn -0.9619434 -0.2103817 0.174369
vn -0.963062 -0.1995449 0.1808132
vn -0.9728731 -0.1781548 0.1475761
vn -0.9728731 -0.1781548 0.1475761
vn 0 -0.1232202 0.9923794
vn -0.9728732 -0.1781548 0.1475761
vn 0 -0.01242349 -0.9999229
g araba_kaput_0
f 56/56/56 55/55/55 57/57/57
f 68/68/68 65/65/65 69/69/69
f 82/82/82 81/81/81 83/83/83
f 85/85/85 84/84/84 86/86/86
f 90/90/90 89/89/89 91/91/91
f 3/3/3 12/12/12 11/11/11
f 13/13/13 3/3/3 11/11/11
f 2/2/2 3/3/3 13/13/13
f 10/10/10 2/2/2 13/13/13
f 4/4/4 2/2/2 10/10/10
f 14/14/14 4/4/4 10/10/10
f 1/1/1 4/4/4 14/14/14
f 9/9/9 1/1/1 14/14/14
f 7/7/7 20/20/20 21/21/21
f 19/19/19 20/20/20 7/7/7
f 8/8/8 19/19/19 7/7/7
f 18/18/18 19/19/19 8/8/8
f 25/25/25 18/18/18 8/8/8
f 17/17/17 18/18/18 25/25/25
f 24/24/24 17/17/17 25/25/25
f 16/16/16 17/17/17 24/24/24
f 33/33/33 44/44/44 43/43/43
f 50/50/50 33/33/33 43/43/43
f 40/40/40 33/33/33 50/50/50
f 48/48/48 40/40/40 50/50/50
f 29/29/29 40/40/40 48/48/48
f 26/26/26 29/29/29 48/48/48
f 39/39/39 29/29/29 26/26/26
f 34/34/34 39/39/39 26/26/26
f 42/42/42 50/50/50 43/43/43
f 49/49/49 50/50/50 42/42/42
f 41/41/41 49/49/49 42/42/42
f 61/61/61 63/63/63 62/62/62
f 64/64/64 61/61/61 62/62/62
f 73/73/73 61/61/61 64/64/64
f 74/74/74 73/73/73 64/64/64
f 53/53/53 73/73/73 74/74/74
f 52/52/52 53/53/53 74/74/74
f 51/51/51 53/53/53 52/52/52
f 54/54/54 51/51/51 52/52/52
f 59/59/59 58/58/58 60/60/60
f 70/70/70 58/58/58 59/59/59
f 66/66/66 67/67/67 77/77/77
f 65/65/65 67/67/67 66/66/66
f 72/72/72 71/71/71 59/59/59
f 80/80/80 71/71/71 72/72/72
f 75/75/75 76/76/76 93/93/93
f 67/67/67 76/76/76 75/75/75
f 79/79/79 80/80/80 103/103/103
f 78/78/78 80/80/80 79/79/79
f 88/88/88 87/87/87 85/85/85
f 102/102/102 87/87/87 88/88/88
f 93/93/93 92/92/92 90/90/90
f 101/101/101 92/92/92 93/93/93
f 95/95/95 96/96/96 99/99/99
f 94/94/94 96/96/96 95/95/95
f 97/97/97 94/94/94 95/95/95
f 99/99/99 100/100/100 88/88/88
f 98/98/98 100/100/100 99/99/99
f 6/6/6 22/22/22 12/12/12
f 3/3/3 6/6/6 12/12/12
f 5/5/5 6/6/6 3/3/3
f 2/2/2 5/5/5 3/3/3
f 15/15/15 5/5/5 2/2/2
f 4/4/4 15/15/15 2/2/2
f 23/23/23 15/15/15 4/4/4
f 1/1/1 23/23/23 4/4/4
f 25/25/25 23/23/23 24/24/24
f 15/15/15 23/23/23 25/25/25
f 8/8/8 15/15/15 25/25/25
f 5/5/5 15/15/15 8/8/8
f 7/7/7 5/5/5 8/8/8
f 6/6/6 5/5/5 7/7/7
f 21/21/21 6/6/6 7/7/7
f 22/22/22 6/6/6 21/21/21
f 28/28/28 36/36/36 37/37/37
f 38/38/38 36/36/36 28/28/28
f 27/27/27 38/38/38 28/28/28
f 35/35/35 38/38/38 27/27/27
f 29/29/29 35/35/35 27/27/27
f 39/39/39 35/35/35 29/29/29
f 27/27/27 40/40/40 29/29/29
f 30/30/30 40/40/40 27/27/27
f 28/28/28 30/30/30 27/27/27
f 31/31/31 30/30/30 28/28/28
f 37/37/37 31/31/31 28/28/28
f 47/47/47 31/31/31 37/37/37
f 32/32/32 45/45/45 44/44/44
f 46/46/46 45/45/45 32/32/32
f 31/31/31 46/46/46 32/32/32
f 47/47/47 46/46/46 31/31/31
f 48/48/48 50/50/50 49/49/49
f 30/30/30 33/33/33 40/40/40
f 32/32/32 33/33/33 30/30/30
f 31/31/31 32/32/32 30/30/30
f 44/44/44 33/33/33 32/32/32
