g araba_kaput_def4
v 0.3574615 0.5331979 0.5913411
v 0.4737227 0.1800484 0.2379013
v 0.3110962 0.5601512 0.8033506
v -2.980232E-08 0.4448715 0.869907
v -0.4737227 0.1331487 0.2649789
v -0.3574616 0.4687579 0.6285456
v -0.3110962 0.4957111 0.8405551
v -2.980232E-08 0.1069423 0.2801092
v -2.980232E-08 0.4243652 0.6541758
v 0.5428162 0.4315574 0.8416865
v 0.6254951 0.4266074 0.6528813
v 0.8107847 0.08653801 0.2918895
v 0.3110962 0.5370082 0.8482161
v 0.5428162 0.4084143 0.8865521
v 0.8954538 -0.04670066 0.02732264
v 0.5188526 0.01121979 0.02001689
v -2.980232E-08 0.4217286 0.9147727
v -2.980232E-08 0.03311162 0.02075325
v -0.8107847 0.08653801 0.2918895
v -0.6602366 0.4266074 0.6528813
v -0.6140425 0.4079809 0.8858011
v -0.8954538 -0.04670066 0.02732264
v -0.6140425 0.4311238 0.8409356
v -0.3110962 0.472568 0.8854206
v -0.5188526 0.01121979 0.02001689
v 0.3563761 0.5234805 0.5934364
v 0.4727287 0.1708397 0.2416712
v 0.3102455 0.5503502 0.8015558
v -2.980232E-08 0.4350418 0.868068
v -0.4727288 0.1239399 0.2687489
v -0.3563762 0.4590405 0.6306409
v -0.3102455 0.4859102 0.8387603
v -2.979298E-08 0.09775668 0.284062
v -2.980232E-08 0.4146164 0.6564034
v 0.5415354 0.4218466 0.8396716
v 0.6239879 0.4169282 0.6548915
v 0.8092594 0.07736259 0.2955618
v 0.3104558 0.5281391 0.843641
v 0.5418457 0.3995692 0.8819895
v 0.8939884 -0.0557161 0.03139387
v 0.517831 0.002226287 0.02426814
v -2.980232E-08 0.4128413 0.9101884
v -2.979312E-08 0.02413278 0.02515541
v -0.8092594 0.07736259 0.2955618
v -0.6587294 0.4169282 0.6548915
v -0.6130722 0.3991355 0.8812385
v -0.8939884 -0.0557161 0.03139387
v -0.6127617 0.421413 0.8389207
v -0.3104558 0.463699 0.8808455
v -0.5178311 0.002226287 0.02426814
v 0.3110962 0.5601512 0.8033506
v 0.5428162 0.4315574 0.8416865
v -2.980232E-08 0.4448715 0.869907
v -0.3110962 0.4957111 0.8405551
v -0.6140425 0.4311238 0.8409356
v -2.980232E-08 0.4448715 0.869907
v 0.3102455 0.5503502 0.8015558
v 0.5415354 0.4218466 0.8396716
v -2.980232E-08 0.4350418 0.868068
v -0.3102455 0.4859102 0.8387603
v -0.6127617 0.421413 0.8389207
v -2.980232E-08 0.4350418 0.868068
v 0.8107847 0.08653801 0.2918895
v 0.6239879 0.4169282 0.6548915
v 0.6254951 0.4266074 0.6528813
v 0.8092594 0.07736259 0.2955618
v 0.6254951 0.4266074 0.6528813
v 0.5415354 0.4218466 0.8396716
v 0.5428162 0.4315574 0.8416865
v 0.5428162 0.4084143 0.8865521
v 0.3104558 0.5281391 0.843641
v 0.3110962 0.5370082 0.8482161
v 0.5418457 0.3995692 0.8819895
v 0.5428162 0.4315574 0.8416865
v 0.5418457 0.3995692 0.8819895
v 0.5428162 0.4084143 0.8865521
v 0.5415354 0.4218466 0.8396716
v 0.8954538 -0.04670066 0.02732264
v 0.8954538 -0.04670066 0.02732264
v 0.8939884 -0.0557161 0.03139387
v 0.8092594 0.07736259 0.2955618
v 0.5188526 0.01121979 0.02001689
v 0.8939884 -0.0557161 0.03139387
v 0.8954538 -0.04670066 0.02732264
v 0.5188526 0.01121979 0.02001689
v 0.517831 0.002226287 0.02426814
v 0.8939884 -0.0557161 0.03139387
v -2.980232E-08 0.4128413 0.9101884
v -2.980232E-08 0.4217286 0.9147727
v -2.980232E-08 0.03311162 0.02075325
v -2.980232E-08 0.03311162 0.02075325
v -2.979312E-08 0.02413278 0.02515541
v 0.517831 0.002226287 0.02426814
v -0.6602366 0.4266074 0.6528813
v -0.8092594 0.07736259 0.2955618
v -0.8107847 0.08653801 0.2918895
v -0.6587294 0.4169282 0.6548915
v -0.6140425 0.4311238 0.8409356
v -0.6140425 0.4311238 0.8409356
v -0.6127617 0.421413 0.8389207
v -0.6587294 0.4169282 0.6548915
v -0.6140425 0.4079809 0.8858011
v -0.6127617 0.421413 0.8389207
v -0.6140425 0.4311238 0.8409356
v -0.6130722 0.3991355 0.8812385
v -0.3110962 0.472568 0.8854206
v -0.6130722 0.3991355 0.8812385
v -0.6140425 0.4079809 0.8858011
v -0.3104558 0.463699 0.8808455
v -0.8954538 -0.04670066 0.02732264
v -0.5178311 0.002226287 0.02426814
v -0.5188526 0.01121979 0.02001689
v -0.8954538 -0.04670066 0.02732264
v -0.8939884 -0.0557161 0.03139387
v -0.5178311 0.002226287 0.02426814
v -0.8107847 0.08653801 0.2918895
v -0.8939884 -0.0557161 0.03139387
v -0.8954538 -0.04670066 0.02732264
v -0.8939884 -0.0557161 0.03139387
v -2.980232E-08 0.4217286 0.9147727
v -2.980232E-08 0.4128413 0.9101884
v -2.979312E-08 0.02413278 0.02515541
v -2.980232E-08 0.03311162 0.02075325
v -2.979312E-08 0.02413278 0.02515541
vt 0.3322305 0.7400226
vt 0.4116192 0.7233256
vt 0.3039264 0.7466813
vt 0.3039264 0.7913597
vt 0.4116192 0.8593937
vt 0.3322305 0.8426968
vt 0.3039264 0.8360379
vt 0.4116192 0.7913597
vt 0.3322305 0.7913597
vt 0.3039264 0.7020031
vt 0.3322305 0.6965392
vt 0.4116192 0.6749181
vt 0.8335069 0.400516
vt 0.8738669 0.3932347
vt 0.4540924 0.6627583
vt 0.4508419 0.7168441
vt 0.793147 0.4025194
vt 0.4491783 0.7913597
vt 0.4116192 0.9078011
vt 0.3322305 0.88618
vt 0.7124271 0.3932347
vt 0.4540923 0.919961
vt 0.3039264 0.8807161
vt 0.7527871 0.400516
vt 0.4508419 0.8658751
vt 0.3322305 0.7400226
vt 0.4116192 0.7233256
vt 0.3039264 0.7466813
vt 0.3039264 0.7913597
vt 0.4116192 0.8593937
vt 0.3322305 0.8426968
vt 0.3039264 0.8360379
vt 0.4116192 0.7913597
vt 0.3322305 0.7913597
vt 0.3039264 0.7020031
vt 0.3322305 0.6965392
vt 0.4116192 0.6749181
vt 0.8335069 0.400516
vt 0.8738669 0.3932347
vt 0.4540924 0.6627583
vt 0.4508419 0.7168441
vt 0.793147 0.4025194
vt 0.4491783 0.7913597
vt 0.4116192 0.9078011
vt 0.3322305 0.88618
vt 0.7124271 0.3932347
vt 0.4540923 0.919961
vt 0.3039264 0.8807161
vt 0.7527871 0.400516
vt 0.4508419 0.8658751
vt 0.8335069 0.4060265
vt 0.8738669 0.3987452
vt 0.793147 0.4080299
vt 0.7527871 0.4060265
vt 0.7124271 0.3987452
vt 0.793147 0.4080299
vt 0.8335069 0.4060265
vt 0.8738669 0.3987452
vt 0.793147 0.4080299
vt 0.7527871 0.4060265
vt 0.7124271 0.3987452
vt 0.793147 0.4080299
vt 0.4116192 0.6749181
vt 0.3322305 0.6965392
vt 0.3322305 0.6965392
vt 0.4116192 0.6749181
vt 0.3322305 0.6965392
vt 0.3039264 0.7020031
vt 0.3039264 0.7020031
vt 0.8738669 0.3932347
vt 0.8335069 0.400516
vt 0.8335069 0.400516
vt 0.8738669 0.3932347
vt 0.8738669 0.3987452
vt 0.8738669 0.3932347
vt 0.8738669 0.3932347
vt 0.8738669 0.3987452
vt 0.4540924 0.6627583
vt 0.4540924 0.6627583
vt 0.4540924 0.6627583
vt 0.4116192 0.6749181
vt 0.4508419 0.7168441
vt 0.4540924 0.6627583
vt 0.4540924 0.6627583
vt 0.4508419 0.7168441
vt 0.4508419 0.7168441
vt 0.4540924 0.6627583
vt 0.793147 0.4025194
vt 0.793147 0.4025194
vt 0.4491783 0.7913597
vt 0.4491783 0.7913597
vt 0.4491783 0.7913597
vt 0.4508419 0.7168441
vt 0.3322305 0.88618
vt 0.4116192 0.9078011
vt 0.4116192 0.9078011
vt 0.3322305 0.88618
vt 0.3039264 0.8807161
vt 0.3039264 0.8807161
vt 0.3039264 0.8807161
vt 0.3322305 0.88618
vt 0.7124271 0.3932347
vt 0.7124271 0.3987452
vt 0.7124271 0.3987452
vt 0.7124271 0.3932347
vt 0.7527871 0.400516
vt 0.7124271 0.3932347
vt 0.7124271 0.3932347
vt 0.7527871 0.400516
vt 0.4540923 0.919961
vt 0.4508419 0.8658751
vt 0.4508419 0.8658751
vt 0.4540923 0.919961
vt 0.4540923 0.919961
vt 0.4508419 0.8658751
vt 0.4116192 0.9078011
vt 0.4540923 0.919961
vt 0.4540923 0.919961
vt 0.4540923 0.919961
vt 0.793147 0.4025194
vt 0.793147 0.4025194
vt 0.4491783 0.7913597
vt 0.4491783 0.7913597
vt 0.4491783 0.7913597
vn 0.05429994 0.9254007 -0.3750803
vn 0.07047965 0.8224107 -0.5645116
vn 0.06515956 0.973646 0.2185583
vn -0.0838778 0.9816964 0.1709869
vn -0.05137899 0.8456653 -0.5312347
vn -0.02264099 0.9195904 -0.3922256
vn -0.0287186 0.9801704 0.1960643
vn -0.05064352 0.8311166 -0.5537873
vn -0.08892362 0.8972381 -0.4325002
vn 0.4072112 0.8794314 0.2465351
vn 0.4069785 0.8728633 -0.269218
vn 0.2891954 0.8007514 -0.52456
vn 0.08396528 0.885591 0.4568132
vn 0.3851619 0.8201627 0.4230642
vn 0.2215377 0.8522134 -0.4739762
vn 0.07882761 0.8788503 -0.4705404
vn -0.06276969 0.8869766 0.4575285
vn -0.0279069 0.91132 -0.4107517
vn -0.1549269 0.8324323 -0.5320284
vn -0.1746793 0.9167866 -0.3591512
vn -0.1856155 0.873284 0.4504686
vn -0.1513702 0.8987419 -0.4115216
vn -0.1861596 0.959032 0.2135464
vn -0.04251987 0.8879245 0.4580198
vn -0.07102372 0.9187074 -0.3885001
vn -0.05389437 -0.9250127 0.3760943
vn -0.07032144 -0.8219867 0.5651485
vn -0.06523371 -0.9727585 -0.2224532
vn 0.08379114 -0.9810436 -0.1747354
vn 0.05122978 -0.8452819 0.531859
vn 0.0223363 -0.9190367 0.3935385
vn 0.02875623 -0.9794438 -0.1996572
vn 0.05075512 -0.8306573 0.5544659
vn 0.08915754 -0.8963768 0.4342344
vn -0.4067252 -0.8786442 -0.2501179
vn -0.4073509 -0.8727088 0.2691551
vn -0.2893622 -0.8003801 0.5250345
vn -0.08445505 -0.8818044 -0.4639919
vn -0.3835989 -0.8179331 -0.4287626
vn -0.2216337 -0.8521281 0.4740846
vn -0.07874968 -0.8787961 0.4706547
vn 0.061997 -0.8826453 -0.4659331
vn 0.02798187 -0.9113145 0.4107589
vn 0.1549189 -0.8320447 0.5326366
vn 0.1746828 -0.9164086 0.3601129
vn 0.1850926 -0.869818 -0.4573373
vn 0.1514012 -0.8987259 0.4115451
vn 0.1861123 -0.9582672 -0.2169932
vn 0.04281734 -0.8839484 -0.4656198
vn 0.07098696 -0.918723 0.38847
vn 0.06515956 0.973646 0.2185583
vn 0.4072112 0.8794314 0.2465351
vn -0.0838778 0.9816964 0.1709869
vn -0.0287186 0.9801704 0.1960643
vn -0.1861596 0.959032 0.2135464
vn -0.0838778 0.9816964 0.1709869
vn -0.06523371 -0.9727585 -0.2224532
vn -0.4067252 -0.8786442 -0.2501179
vn 0.08379114 -0.9810436 -0.1747354
vn 0.02875623 -0.9794438 -0.1996572
vn 0.1861123 -0.9582672 -0.2169932
vn 0.08379114 -0.9810436 -0.1747354
vn 0.9211645 -0.01298993 0.3889567
vn 0.8988131 -0.06731339 0.4331327
vn 0.8988131 -0.06731339 0.4331327
vn 0.9211645 -0.01298993 0.3889567
vn 0.8988131 -0.06731339 0.4331327
vn 0.9766777 -0.1187984 0.1788513
vn 0.9766777 -0.1187984 0.1788513
vn -0.3620723 -0.4011165 0.8414328
vn -0.01111707 -0.4496852 0.8931179
vn -0.01111707 -0.4496852 0.8931179
vn -0.3620723 -0.4011165 0.8414328
vn 0.9766777 -0.1187984 0.1788513
vn 0.9933432 -0.1006734 -0.05598352
vn 0.9933431 -0.1006734 -0.05598351
vn 0.9766777 -0.1187984 0.1788513
vn 0.9488323 -0.02189945 0.3150205
vn 0.9488323 -0.02189945 0.3150205
vn 0.9488323 -0.02189945 0.3150205
vn 0.9211645 -0.01298993 0.3889567
vn -0.03298125 -0.4233623 -0.9053599
vn -0.04625607 -0.4137812 -0.9092005
vn -0.04625607 -0.4137812 -0.9092005
vn -0.03298125 -0.4233623 -0.9053599
vn -0.03298125 -0.4233623 -0.9053599
vn -0.04625607 -0.4137811 -0.9092004
vn 0.09492607 -0.4636879 0.8808987
vn 0.09492607 -0.4636879 0.8808987
vn 0 -0.4329079 -0.9014381
vn 0 -0.4329079 -0.9014381
vn 0 -0.4329079 -0.9014381
vn -0.03298125 -0.4233623 -0.9053599
vn -0.9421512 -0.0819165 0.3250245
vn -0.9324219 -0.02337817 0.3606148
vn -0.9324219 -0.02337817 0.3606148
vn -0.9421512 -0.0819165 0.3250245
vn -0.9882441 -0.1207948 0.09371357
vn -0.9882441 -0.1207948 0.09371357
vn -0.9882441 -0.1207948 0.09371357
vn -0.9421512 -0.0819165 0.3250245
vn -0.9933445 -0.1006616 -0.05598115
vn -0.9882441 -0.1207948 0.09371357
vn -0.9882441 -0.1207948 0.09371357
vn -0.9933445 -0.1006616 -0.05598115
vn -0.03050369 -0.4569759 0.8889559
vn 0.09695512 -0.4493008 0.888104
vn 0.09695512 -0.4493008 0.888104
vn -0.03050369 -0.4569759 0.8889559
vn 0.04625631 -0.413781 -0.9092005
vn 0.03298155 -0.4233623 -0.9053599
vn 0.03298155 -0.4233623 -0.9053599
vn 0.04625631 -0.413781 -0.9092005
vn 0.04625631 -0.413781 -0.9092005
vn 0.03298156 -0.4233623 -0.9053599
vn -0.9324219 -0.02337817 0.3606148
vn -0.9488324 -0.02189908 0.3150199
vn -0.9488324 -0.02189908 0.3150199
vn -0.9488324 -0.02189908 0.3150199
vn 0.09492607 -0.4636879 0.8808987
vn 0.09492607 -0.4636879 0.8808987
vn 0 -0.4329079 -0.9014381
vn 0 -0.4329079 -0.9014381
vn 0 -0.4329079 -0.9014381
g araba_kaput_def4_0
f 68/68/68 67/67/67 69/69/69
f 80/80/80 79/79/79 81/81/81
f 83/83/83 82/82/82 84/84/84
f 92/92/92 91/91/91 93/93/93
f 100/100/100 99/99/99 101/101/101
f 114/114/114 113/113/113 115/115/115
f 117/117/117 116/116/116 118/118/118
f 122/122/122 112/112/112 123/123/123
f 51/51/51 14/14/14 52/52/52
f 13/13/13 14/14/14 51/51/51
f 17/17/17 13/13/13 51/51/51
f 16/16/16 12/12/12 15/15/15
f 2/2/2 12/12/12 16/16/16
f 18/18/18 2/2/2 16/16/16
f 8/8/8 2/2/2 18/18/18
f 5/5/5 8/8/8 18/18/18
f 9/9/9 8/8/8 5/5/5
f 6/6/6 9/9/9 5/5/5
f 7/7/7 9/9/9 6/6/6
f 23/23/23 7/7/7 6/6/6
f 53/53/53 17/17/17 51/51/51
f 54/54/54 24/24/24 17/17/17
f 21/21/21 24/24/24 54/54/54
f 55/55/55 21/21/21 54/54/54
f 19/19/19 25/25/25 22/22/22
f 5/5/5 25/25/25 19/19/19
f 20/20/20 5/5/5 19/19/19
f 6/6/6 5/5/5 20/20/20
f 23/23/23 6/6/6 20/20/20
f 54/54/54 17/17/17 56/56/56
f 57/57/57 38/38/38 42/42/42
f 39/39/39 38/38/38 57/57/57
f 58/58/58 39/39/39 57/57/57
f 31/31/31 32/32/32 48/48/48
f 34/34/34 32/32/32 31/31/31
f 30/30/30 34/34/34 31/31/31
f 33/33/33 34/34/34 30/30/30
f 43/43/43 33/33/33 30/30/30
f 27/27/27 33/33/33 43/43/43
f 41/41/41 27/27/27 43/43/43
f 37/37/37 27/27/27 41/41/41
f 40/40/40 37/37/37 41/41/41
f 59/59/59 57/57/57 42/42/42
f 60/60/60 46/46/46 61/61/61
f 49/49/49 46/46/46 60/60/60
f 42/42/42 49/49/49 60/60/60
f 45/45/45 31/31/31 48/48/48
f 30/30/30 31/31/31 45/45/45
f 44/44/44 30/30/30 45/45/45
f 50/50/50 30/30/30 44/44/44
f 47/47/47 50/50/50 44/44/44
f 42/42/42 60/60/60 62/62/62
f 63/63/63 66/66/66 78/78/78
f 64/64/64 66/66/66 63/63/63
f 65/65/65 64/64/64 63/63/63
f 68/68/68 64/64/64 65/65/65
f 72/72/72 89/89/89 88/88/88
f 71/71/71 72/72/72 88/88/88
f 70/70/70 72/72/72 71/71/71
f 73/73/73 70/70/70 71/71/71
f 75/75/75 74/74/74 76/76/76
f 77/77/77 74/74/74 75/75/75
f 86/86/86 85/85/85 87/87/87
f 90/90/90 85/85/85 86/86/86
f 95/95/95 96/96/96 119/119/119
f 94/94/94 96/96/96 95/95/95
f 97/97/97 94/94/94 95/95/95
f 98/98/98 94/94/94 97/97/97
f 103/103/103 102/102/102 104/104/104
f 105/105/105 102/102/102 103/103/103
f 109/109/109 121/121/121 120/120/120
f 106/106/106 109/109/109 120/120/120
f 107/107/107 109/109/109 106/106/106
f 108/108/108 107/107/107 106/106/106
f 111/111/111 112/112/112 124/124/124
f 110/110/110 112/112/112 111/111/111
f 2/2/2 11/11/11 12/12/12
f 1/1/1 11/11/11 2/2/2
f 9/9/9 1/1/1 2/2/2
f 3/3/3 1/1/1 9/9/9
f 4/4/4 3/3/3 9/9/9
f 1/1/1 10/10/10 11/11/11
f 3/3/3 10/10/10 1/1/1
f 9/9/9 7/7/7 4/4/4
f 25/25/25 5/5/5 18/18/18
f 34/34/34 28/28/28 29/29/29
f 26/26/26 28/28/28 34/34/34
f 27/27/27 26/26/26 34/34/34
f 36/36/36 26/26/26 27/27/27
f 37/37/37 36/36/36 27/27/27
f 35/35/35 26/26/26 36/36/36
f 28/28/28 26/26/26 35/35/35
f 32/32/32 34/34/34 29/29/29
f 50/50/50 43/43/43 30/30/30
f 9/9/9 2/2/2 8/8/8
f 27/27/27 34/34/34 33/33/33
