g araba_sol_arka4
v 1.674228 -0.2103236 -1.342913
v 1.674228 -0.3179124 -2.175298
v 1.23814 -0.2133995 -1.995231
v 1.23814 -0.3136223 -1.162921
v 1.614735 -0.7506986 -2.365356
v 1.23814 -0.534195 -2.295663
v 1.674228 -0.4751192 -1.070272
v 1.23814 -0.690631 -1.008837
v 1.51743 -0.88497 -2.365356
v 1.23814 -0.9489568 -2.3557
v 1.367313 -0.9123929 -1.009707
v 1.23814 -0.9124168 -1.008837
v 1.674228 -0.3136311 -1.162888
v 1.674228 -0.2134565 -1.995264
v 1.23814 -0.3178993 -2.175267
v 1.23814 -0.2102668 -1.342946
v 1.674228 -0.5349935 -2.30532
v 1.23814 -0.7505079 -2.3557
v 1.61234 -0.6903865 -1.010245
v 1.23814 -0.4752727 -1.068864
v 1.67422 -0.2780048 -1.36078
v 1.67423 -0.3677524 -2.126146
v 1.238133 -0.2809499 -1.976875
v 1.238143 -0.3632637 -1.212274
v 1.616493 -0.7634273 -2.296546
v 1.239525 -0.5608087 -2.230934
v 1.67403 -0.5028836 -1.134529
v 1.237885 -0.7001087 -1.078192
v 1.521325 -0.8870838 -2.295782
v 1.240752 -0.9489568 -2.285749
v 1.366895 -0.9121974 -1.079705
v 1.237824 -0.9123276 -1.078837
v 1.674156 -0.3631603 -1.212354
v 1.674222 -0.2810071 -1.976909
v 1.238584 -0.367215 -2.125591
v 1.238135 -0.2779476 -1.360815
v 1.675211 -0.5630792 -2.241209
v 1.24006 -0.7602711 -2.286411
v 1.612076 -0.7025576 -1.079178
v 1.238001 -0.5024253 -1.133383
v 1.390555 -0.9494761 -2.362035
v 1.49504 -0.8481752 -1.010245
v 1.392604 -0.9499553 -2.292065
v 1.496416 -0.8492889 -1.079924
v 1.172871 0.1041154 -1.656908
v 1.172871 -0.2890249 -1.662794
v 1.172871 0.1041154 -2.06874
v 1.496125 -1.060879 -0.986995
v 1.496125 -0.906858 -1.009783
v 1.172871 -0.5358523 -2.135898
v 1.172871 -0.3850136 -1.308892
v 1.172871 -0.3622397 -1.96606
v 1.172871 -0.6259993 -1.125315
v 1.172871 0.1041154 -2.483549
v 1.409917 -0.6652581 -1.059913
v 1.409917 -0.3926 -1.267618
v 1.409917 -0.2856907 -1.661783
v 1.409917 -0.3678344 -2.002035
v 1.409917 -0.5614544 -2.191446
v 1.409917 -0.6660746 -2.255625
v 1.409917 -0.6631182 -2.415489
v 1.409917 0.03411549 -2.415482
v 1.409917 0.03411549 -2.068739
v 1.409917 0.03411537 -1.656908
v 1.409917 -0.8859664 -1.015039
v 1.172871 -0.667882 -2.216892
v 1.172696 -1.06702 -1.602804
v 1.172871 -1.040968 -2.216892
v 1.172871 -0.8860387 -1.072443
v 1.198946 -0.6629372 -2.47779
v 1.198946 0.09641545 -2.477782
v 1.198946 0.09641545 -2.06874
v 1.198946 0.09641545 -1.656908
v 1.162338 -1.060879 -1.050321
v -1.192093E-07 -1.06088 -2.218843
v -1.192093E-07 -0.6213089 -2.06874
v -1.192093E-07 -0.6213087 -1.279738
v -1.192093E-07 -0.6213086 -1.656908
v 1.112871 0.1041155 -0.3902104
v 1.112871 0.1041154 -1.279738
v 1.112871 0.1041154 -1.656908
v 1.112871 0.1041154 -2.06874
v -1.192093E-07 0.1041155 -0.3902104
v 1.112871 -0.6213086 -0.3902104
v 1.112871 -0.6213087 -1.279738
v 1.112871 -0.6213086 -1.656908
v 1.112871 -0.6213089 -2.06874
v -1.192093E-07 -0.6213089 -2.424337
v -1.192093E-07 -0.6213086 -0.3902104
v 1.112871 0.1041154 -2.424339
v 1.112871 -0.6213089 -2.424339
v -1.192093E-07 -0.6637633 -2.424337
v 1.172871 -0.6640325 -2.424339
v 1.172871 -0.6629148 -2.483549
v -1.192093E-07 -1.060879 -1.050893
v -1.192093E-07 -1.06088 -1.60743
v -1.192093E-07 -0.667882 -2.216892
v -1.192093E-07 0.1041155 -0.3302104
v 1.172871 0.1041155 -0.3302104
v 1.496125 -0.9197546 -0.3302109
v 1.409271 -0.8991995 -0.3302104
v 1.409917 0.03411555 -0.3302104
v 1.496125 -1.060879 -0.3302109
v 1.157926 -1.060879 -0.3302109
v 1.198946 0.09641557 -0.3302104
v -1.192093E-07 -1.060879 -0.3302109
v 1.674228 -0.2134565 -1.995264
v 1.67422 -0.2780048 -1.36078
v 1.674228 -0.2103236 -1.342913
v 1.674222 -0.2810071 -1.976909
v 1.674228 -0.5349935 -2.30532
v 1.67423 -0.3677524 -2.126146
v 1.674228 -0.3179124 -2.175298
v 1.675211 -0.5630792 -2.241209
v 1.674228 -0.3136311 -1.162888
v 1.67403 -0.5028836 -1.134529
v 1.674228 -0.4751192 -1.070272
v 1.674156 -0.3631603 -1.212354
v 1.51743 -0.88497 -2.365356
v 1.616493 -0.7634273 -2.296546
v 1.614735 -0.7506986 -2.365356
v 1.521325 -0.8870838 -2.295782
v 1.23814 -0.9489568 -2.3557
v 1.392604 -0.9499553 -2.292065
v 1.390555 -0.9494761 -2.362035
v 1.240752 -0.9489568 -2.285749
v 1.367313 -0.9123929 -1.009707
v 1.237824 -0.9123276 -1.078837
v 1.23814 -0.9124168 -1.008837
v 1.366895 -0.9121974 -1.079705
v 1.61234 -0.6903865 -1.010245
v 1.496416 -0.8492889 -1.079924
v 1.49504 -0.8481752 -1.010245
v 1.612076 -0.7025576 -1.079178
v 1.674228 -0.3179124 -2.175298
v 1.67423 -0.3677524 -2.126146
v 1.674156 -0.3631603 -1.212354
v 1.674228 -0.3136311 -1.162888
v 1.521325 -0.8870838 -2.295782
v 1.390555 -0.9494761 -2.362035
v 1.392604 -0.9499553 -2.292065
v 1.51743 -0.88497 -2.365356
v 1.366895 -0.9121974 -1.079705
v 1.49504 -0.8481752 -1.010245
v 1.496416 -0.8492889 -1.079924
v 1.367313 -0.9123929 -1.009707
v 1.496125 -0.906858 -1.009783
v 1.496125 -0.9197546 -0.3302109
v 1.172871 -0.667882 -2.216892
v 1.172871 -0.6629148 -2.483549
v 1.172871 -0.6629148 -2.483549
v 1.198946 -0.6629372 -2.47779
v 1.172871 0.1041154 -2.483549
v 1.198946 0.09641545 -2.477782
v 1.496125 -0.906858 -1.009783
v 1.409917 -0.8859664 -1.015039
v 1.496125 -1.060879 -0.986995
v 1.172871 -0.8860387 -1.072443
v 1.172871 -0.667882 -2.216892
v 1.162338 -1.060879 -1.050321
v 1.496125 -1.060879 -0.986995
v 1.496125 -1.060879 -0.3302109
v 1.162338 -1.060879 -1.050321
v 1.172696 -1.06702 -1.602804
v 1.172871 -1.040968 -2.216892
v 1.172871 -1.040968 -2.216892
v -1.192093E-07 -1.06088 -2.218843
v 1.172871 -1.040968 -2.216892
v 1.172871 -0.667882 -2.216892
v -1.192093E-07 -0.667882 -2.216892
v 1.172871 -0.6259993 -1.125315
v 1.172871 -0.3850136 -1.308892
v 1.409917 -0.3926 -1.267618
v 1.172871 -0.2890249 -1.662794
v 1.409917 -0.2856907 -1.661783
v 1.172871 -0.3622397 -1.96606
v 1.409917 -0.3678344 -2.002035
v 1.172871 -0.5358523 -2.135898
v 1.409917 -0.5614544 -2.191446
v 1.172871 -0.667882 -2.216892
v 1.409917 -0.6660746 -2.255625
v 1.409917 -0.6660746 -2.255625
v 1.409917 -0.6631182 -2.415489
v 1.409917 -0.6631182 -2.415489
v 1.409917 0.03411549 -2.415482
v 1.409917 0.03411549 -2.415482
v 1.409917 0.03411549 -2.068739
v 1.409917 0.03411537 -1.656908
v 1.409917 0.03411555 -0.3302104
v 1.172871 0.1041154 -1.656908
v 1.172871 0.1041155 -0.3302104
v 1.172871 0.1041154 -2.06874
v 1.172871 0.1041154 -2.483549
v 1.112871 0.1041155 -0.3902104
v 1.112871 -0.6213087 -1.279738
v 1.112871 0.1041154 -1.279738
v 1.112871 -0.6213086 -0.3902104
v 1.112871 -0.6213086 -1.656908
v 1.112871 0.1041154 -1.656908
v 1.112871 -0.6213089 -2.06874
v 1.112871 0.1041154 -2.06874
v 1.112871 -0.6213089 -2.424339
v 1.112871 0.1041154 -2.424339
v -1.192093E-07 0.1041155 -0.3902104
v 1.112871 -0.6213086 -0.3902104
v 1.112871 0.1041155 -0.3902104
v -1.192093E-07 -0.6213086 -0.3902104
v 1.409917 -0.8859664 -1.015039
v 1.409271 -0.8991995 -0.3302104
v 1.409917 -0.6652581 -1.059913
v 1.172871 -0.6640325 -2.424339
v -1.192093E-07 -0.667882 -2.216892
v 1.172871 0.1041154 -2.483549
v 1.112871 -0.6213089 -2.424339
v 1.172871 -0.6629148 -2.483549
v 1.112871 0.1041154 -2.424339
v -1.192093E-07 -0.6213089 -2.424337
v 1.172871 -0.6640325 -2.424339
v 1.112871 -0.6213089 -2.424339
v -1.192093E-07 -0.6637633 -2.424337
v 1.172871 -0.6640325 -2.424339
v 1.172871 -0.6629148 -2.483549
v 1.112871 -0.6213089 -2.424339
vt 0.8989397 0.3220362
vt 0.7954342 0.3221537
vt 0.8171599 0.2673647
vt 0.9205318 0.2672977
vt 0.7368404 0.315132
vt 0.7643944 0.2682981
vt 0.9438518 0.3218803
vt 0.9714078 0.2672563
vt 0.7218832 0.3030647
vt 0.7150975 0.2684106
vt 0.9962846 0.2834318
vt 0.9963201 0.2672563
vt 0.9205864 0.3219052
vt 0.8171558 0.3220362
vt 0.7950699 0.2680725
vt 0.8989356 0.2673647
vt 0.7641349 0.3223974
vt 0.7370825 0.2684106
vt 0.9713469 0.3141145
vt 0.9438952 0.2672724
vt 0.5937983 0.3058085
vt 0.6563092 0.3056818
vt 0.647337 0.267982
vt 0.5849565 0.2682316
vt 0.691995 0.3007489
vt 0.6739603 0.2681801
vt 0.5722089 0.3058167
vt 0.5547494 0.268205
vt 0.7025903 0.2925315
vt 0.7078004 0.2683029
vt 0.5366028 0.27933
vt 0.5365833 0.2681998
vt 0.5849645 0.30583
vt 0.6473262 0.3056355
vt 0.6562735 0.2680666
vt 0.5938014 0.2679796
vt 0.6742455 0.3058019
vt 0.6916333 0.2682433
vt 0.5545483 0.3004725
vt 0.5722381 0.2682168
vt 0.7148153 0.2873242
vt 0.9890567 0.299426
vt 0.7079458 0.2814162
vt 0.5419915 0.2904989
vt 0.8767763 0.6229169
vt 0.8445942 0.5198416
vt 0.9359216 0.6229169
vt 0.7441634 0.4144423
vt 0.7475857 0.4375738
vt 0.8980197 0.4919686
vt 0.8046299 0.5090021
vt 0.8788407 0.5115739
vt 0.7838994 0.4817887
vt 0.9595785 0.5786377
vt 0.2085294 0.822952
vt 0.7863082 0.5148066
vt 0.8455052 0.5308626
vt 0.8966053 0.518526
vt 0.9250517 0.4894476
vt 0.9346902 0.4737355
vt 0.9586991 0.4741794
vt 0.9586982 0.5788921
vt 0.9066232 0.5788921
vt 0.8447731 0.5788921
vt 0.7483751 0.4407113
vt 0.27652 0.8368821
vt 0.8378199 0.4319864
vt 0.9071659 0.4349284
vt 0.2092658 0.8368821
vt 0.2918518 0.8353497
vt 0.9631256 0.5775901
vt 0.9359216 0.6191722
vt 0.8767763 0.6191722
vt 0.2079658 0.837501
vt 0.2766347 0.9058067
vt 0.9324698 0.7913597
vt 0.8245525 0.7913597
vt 0.8761409 0.7913597
vt 0.6948584 0.6315339
vt 0.8226085 0.6315339
vt 0.8767763 0.6315339
vt 0.9359216 0.6315339
vt 0.6948584 0.7913597
vt 0.7028857 0.6391446
vt 0.8245525 0.6391446
vt 0.8761409 0.6391446
vt 0.9324698 0.6391446
vt 0.9811074 0.7913597
vt 0.7028857 0.7913597
vt 0.9869914 0.6315339
vt 0.9811077 0.6391446
vt 0.2887107 0.9058067
vt 0.2887108 0.8368821
vt 0.2921902 0.8368821
vt 0.2079993 0.9058067
vt 0.2407046 0.9058067
vt 0.27652 0.9058067
vt 0.6862414 0.7913597
vt 0.6862414 0.6229169
vt 0.6455254 0.4356369
vt 0.6455254 0.4387239
vt 0.6455254 0.5788921
vt 0.6455254 0.4144423
vt 0.1656479 0.8377604
vt 0.6862414 0.6191722
vt 0.1656479 0.9058067
vt 0.5247415 0.2999198
vt 0.4806516 0.2992973
vt 0.4798289 0.3040666
vt 0.5230702 0.2953778
vt 0.5150052 0.2897331
vt 0.5265681 0.2773452
vt 0.530014 0.2807435
vt 0.5130633 0.2853006
vt 0.53031 0.2732375
vt 0.5172251 0.2751982
vt 0.5191448 0.279641
vt 0.5268856 0.2698175
vt 0.4899778 0.293884
vt 0.4992114 0.2891265
vt 0.5000914 0.293884
vt 0.4899553 0.2890737
vt 0.4715278 0.2935347
vt 0.4818933 0.2888167
vt 0.4818987 0.2936543
vt 0.4715947 0.2887968
vt 0.4845727 0.2838284
vt 0.4746492 0.2790488
vt 0.4746482 0.2838885
vt 0.4845749 0.2789888
vt 0.5042614 0.2837912
vt 0.4932749 0.2789736
vt 0.4933519 0.2837912
vt 0.5034198 0.2790252
vt 0.5365122 0.2916404
vt 0.5328264 0.2885038
vt 0.4699154 0.2943265
vt 0.4668069 0.2980359
vt 0.4899553 0.2890737
vt 0.4818987 0.2936543
vt 0.4818933 0.2888167
vt 0.4899778 0.293884
vt 0.4845749 0.2789888
vt 0.4933519 0.2837912
vt 0.4932749 0.2789736
vt 0.4845727 0.2838284
vt 0.7475857 0.4375738
vt 0.6455254 0.4356369
vt 0.27652 0.8368821
vt 0.2921902 0.8368821
vt 0.9595785 0.4742924
vt 0.9631256 0.4742894
vt 0.9954948 0.6229169
vt 0.9946666 0.6191722
vt 0.2055835 0.8178858
vt 0.2058923 0.822952
vt 0.2042443 0.8178858
vt 0.7779288 0.4524238
vt 0.9071659 0.4770591
vt 0.7754307 0.4326798
vt 0.2042443 0.8178858
vt 0.1656479 0.8178858
vt 0.2079658 0.837501
vt 0.2404328 0.8368924
vt 0.27652 0.8368821
vt 0.27652 0.8368821
vt 0.2766347 0.9058067
vt 0.27652 0.8368821
vt 0.27652 0.8368821
vt 0.27652 0.9058067
vt 0.2123727 0.8368821
vt 0.2231608 0.8368821
vt 0.2207353 0.822952
vt 0.2439581 0.8368821
vt 0.2438987 0.822952
vt 0.2617797 0.8368821
vt 0.2638938 0.822952
vt 0.2717604 0.8368821
vt 0.2750247 0.822952
vt 0.27652 0.8368821
vt 0.2787961 0.822952
vt 0.2787961 0.822952
vt 0.2881907 0.822952
vt 0.9918259 0.4742647
vt 0.9918258 0.569115
vt 0.9857193 0.5888734
vt 0.9359216 0.5888734
vt 0.8767763 0.5888734
vt 0.6862414 0.5888734
vt 0.8767763 0.6229169
vt 0.6862414 0.6229169
vt 0.9359216 0.6229169
vt 0.9954948 0.6229169
vt 0.3297814 0.1229084
vt 0.1926112 0.01090983
vt 0.1926112 0.1227745
vt 0.3297814 0.01083721
vt 0.1344492 0.01090983
vt 0.1344492 0.1227745
vt 0.07094245 0.01090983
vt 0.07094245 0.1227745
vt 0.01610667 0.01090983
vt 0.01610667 0.1227745
vt 0.5020261 0.1230421
vt 0.3297814 0.01083721
vt 0.3297814 0.1229084
vt 0.5020261 0.01076441
vt 0.7483751 0.4407113
vt 0.6455254 0.4387239
vt 0.7551145 0.473858
vt 0.2887108 0.8368821
vt 0.27652 0.9058067
vt 0.006976411 0.1227745
vt 0.01610667 0.01090983
vt 0.006976411 0.004493952
vt 0.01610667 0.1227745
vt 0.993811 2.451691
vt 0.993811 2.451691
vt 0.993811 2.451691
vt 0.993811 2.451691
vt 0.2887108 0.8368821
vt 0.2921902 0.8368821
vt 0.2887108 0.840408
vn 8.180079E-05 0.9668679 0.255277
vn -0.004718912 0.7064428 -0.7077544
vn 8.446742E-05 0.9650106 -0.2622103
vn 0.0006776893 0.7080893 0.7061226
vn -0.02712665 0.1418621 -0.9895147
vn -0.01597198 0.3884795 -0.9213189
vn 0.002266385 0.387248 0.9219728
vn 0.004019118 0.1344792 0.9909083
vn -0.03124091 0.0106663 -0.9994549
vn -0.03124091 0.0106663 -0.9994549
vn 0.004748038 -0.001662315 0.9999874
vn 0.004748038 -0.001662315 0.9999874
vn 0.0006776893 0.7080893 0.7061226
vn 8.446742E-05 0.9650106 -0.2622103
vn -0.004718912 0.7064428 -0.7077544
vn 8.180079E-05 0.9668679 0.255277
vn -0.01597198 0.3884795 -0.9213189
vn -0.02712665 0.1418621 -0.9895147
vn 0.004019118 0.1344792 0.9909083
vn 0.002266385 0.387248 0.9219728
vn -5.740205E-05 -0.9668716 -0.2552635
vn 0.004649234 -0.7033682 0.7108104
vn -0.0001971914 -0.9649677 0.2623689
vn -0.0007287675 -0.7038629 -0.7103355
vn 0.02744825 -0.1396133 0.9898257
vn 0.01592242 -0.3843384 0.9230549
vn -0.002478359 -0.3814659 -0.9243796
vn -0.003766734 -0.1322884 -0.9912041
vn 0.0320217 -0.006689799 0.9994648
vn 0.0320217 -0.006689799 0.9994648
vn -0.003966521 0.005449246 -0.9999774
vn -0.003966521 0.005449246 -0.9999774
vn -0.0007287675 -0.7038629 -0.7103355
vn -0.0001971914 -0.9649677 0.2623689
vn 0.004649234 -0.7033682 0.7108104
vn -5.740205E-05 -0.9668716 -0.2552635
vn 0.01592242 -0.3843384 0.9230549
vn 0.02744825 -0.1396133 0.9898257
vn -0.003766734 -0.1322884 -0.9912041
vn -0.002478359 -0.3814659 -0.9243796
vn -0.03124091 0.0106663 -0.9994549
vn 0.004748038 -0.001662315 0.9999874
vn 0.0320217 -0.006689799 0.9994648
vn -0.003966521 0.005449246 -0.9999774
vn 0.2832108 0.9590577 0
vn 1 -0.0002255465 0
vn 0.2832105 0.9590578 0
vn 1 0 0
vn 0.2323259 0.9724576 0.01873356
vn 1 -0.0001435516 0.0001855189
vn 1 -0.0001966981 -0.000139119
vn 1 -0.0001920205 0.0001099236
vn 1 -0.0001135675 -0.0002623344
vn 0.2158273 0 -0.9764315
vn 0.1792895 -0.4084381 -0.8950048
vn 1 0 0
vn 1 0 0
vn 1 0 0
vn 1 0 0
vn 1 0 0
vn 1 0 0
vn 1 0 0
vn 1 0 0
vn 1 0 0
vn 0.2323259 0.9724576 0.01873356
vn 0.002769459 -0.9998199 -0.01877197
vn 0.9999611 -0.008379574 0.002742081
vn 1 0 0.0002855565
vn 0.2187701 -0.1446843 -0.9649903
vn 0.004211553 -0.999819 -0.01855694
vn 0.2496706 0 -0.9683308
vn 0.2832108 0.9590577 0
vn 0.2832111 0.9590576 0
vn 0.2059953 -0.0951196 -0.973919
vn 0.005929359 -0.9997565 -0.02125177
vn 0 1 0
vn 0 1 0
vn 0 1 0
vn 0 1 0
vn 0 1 0
vn 0 1 0
vn 0 1 0
vn 0 1 0
vn 0 1 0
vn 0 1 0
vn 0 1 0
vn 0 1 0
vn 0 1 0
vn 0 1 0
vn 0 1 0
vn 0 1 0
vn -0.0001147453 -0.9998156 -0.01920189
vn 0.001853001 -0.9998195 -0.01891311
vn 0.003820739 -0.9998193 -0.01862426
vn -0.001320922 -0.9999954 0.002756198
vn 0.001643926 -0.9999677 -0.007870622
vn 0.0008099676 0.002546371 -0.9999964
vn 0 1 0
vn 0.2832109 0.9590576 0
vn 0.2323259 0.9724576 0.01873356
vn 0.2323259 0.9724576 0.01873356
vn 1 0 0
vn 1 0 0
vn 0 -1 0
vn 0.2832112 0.9590576 0
vn 0 -1 0
vn 1 -5.319386E-05 1.541578E-05
vn 1 -0.0003448556 -7.172303E-05
vn 1 -0.0003448556 -7.172303E-05
vn 1 -5.319386E-05 1.541578E-05
vn 0.9912082 -0.12213 -0.05089586
vn 0.9999933 0.002672774 -0.002492268
vn 0.9999933 0.002672774 -0.002492268
vn 0.9912082 -0.12213 -0.05089586
vn 0.9999993 -0.000933 -0.0008267616
vn 0.9901591 -0.1347532 0.03777054
vn 0.9901591 -0.1347532 0.03777054
vn 0.9999993 -0.000933 -0.0008267616
vn 0.7975742 -0.5954607 -0.0964471
vn 0.8977427 -0.4294843 -0.09798513
vn 0.8977427 -0.4294843 -0.09798513
vn 0.7975742 -0.5954607 -0.0964471
vn -0.005123504 -0.9999816 -0.003253316
vn -0.005123504 -0.9999816 -0.003253316
vn -0.005123504 -0.9999816 -0.003253316
vn -0.005123504 -0.9999816 -0.003253316
vn 0.0005826998 -0.9999977 -0.002036207
vn 0.0005826998 -0.9999977 -0.002036207
vn 0.0005826998 -0.9999977 -0.002036207
vn 0.0005826998 -0.9999977 -0.002036207
vn 0.8930871 -0.4441321 0.07170922
vn 0.7925137 -0.6064352 0.06448646
vn 0.7925137 -0.6064352 0.06448646
vn 0.8930871 -0.4441321 0.07170922
vn 0.9999933 0.002672774 -0.002492268
vn 0.9999933 0.002672774 -0.002492268
vn 0.9999993 -0.000933 -0.0008267616
vn 0.9999993 -0.000933 -0.0008267616
vn 0.4449691 -0.8948388 -0.03558163
vn 0.4449691 -0.8948388 -0.03558163
vn 0.4449691 -0.8948388 -0.03558163
vn 0.4449691 -0.8948388 -0.03558163
vn 0.443036 -0.8964594 0.008931
vn 0.443036 -0.8964594 0.008931
vn 0.443036 -0.8964594 0.008931
vn 0.443036 -0.8964594 0.008931
vn 1 0 0
vn 1 0 0
vn 0.00276946 -0.9998201 -0.01877197
vn 0.003820739 -0.9998193 -0.01862426
vn 0.2158273 0 -0.9764315
vn 0.2496706 0 -0.9683308
vn 0.2832103 0.9590578 0
vn 0.2832107 0.9590577 0
vn 0.02483328 -0.1463152 -0.9889262
vn 0.1547245 -0.1458489 -0.9771328
vn 0.1159323 -0.1212592 -0.9858274
vn 0.9995373 -0.02888455 0.009526444
vn 1 -0.0001240391 0.0002045753
vn 0.9981476 -0.05767846 0.01935288
vn 0 -1 0
vn 0 -1 0
vn -0.0008806197 -0.999998 0.001837507
vn 0.001643926 -0.9999677 -0.007870622
vn 0.005929359 -0.9997565 -0.02125177
vn 0.0008099676 0.002546371 -0.9999964
vn 0.0008099676 0.002546371 -0.9999964
vn 0.0008099676 0.002546371 -0.9999964
vn 0.0008099676 0.002546371 -0.9999964
vn 0.0008099676 0.002546371 -0.9999964
vn 0.1792895 -0.4084381 -0.8950048
vn 0.07029203 -0.8282462 -0.5559382
vn 0.07029203 -0.8282462 -0.5559382
vn 0.01412269 -0.9998025 -0.01397965
vn 0.01412269 -0.9998025 -0.01397965
vn 0.05427802 -0.8684961 0.4927154
vn 0.05427802 -0.8684961 0.4927154
vn 0.1174714 -0.6109605 0.782897
vn 0.1174714 -0.6109605 0.782897
vn 0.1418198 -0.517616 0.8437777
vn 0.1418198 -0.517616 0.8437777
vn 0.004602367 -0.9998185 -0.01848962
vn 0.004602367 -0.9998185 -0.01848962
vn 0.2832114 0 -0.9590575
vn 0.2832114 0 -0.9590575
vn 0.2832111 0.9590576 0
vn 0.2832113 0.9590576 0
vn 0.2832114 0.9590575 0
vn 0.2832114 0.9590575 0
vn 0 1 0
vn 0 1 0
vn 0 1 0
vn 0 1 0
vn -1 0 0
vn -1 0 0
vn -1 0 0
vn -1 0 0
vn -1 0 0
vn -1 0 0
vn -1 0 0
vn -1 0 0
vn -1 0 0
vn -1 0 0
vn 0 0 -1
vn 0 0 -1
vn 0 0 -1
vn 0 0 -1
vn 0.9999996 -0.0005315415 0.0007149978
vn 0.9999996 -0.0005315415 0.0007149978
vn 0.9999996 -0.0005315415 0.0007149978
vn 0.001853001 -0.9998195 -0.01891311
vn -0.0001147453 -0.9998156 -0.01920189
vn -0.7024062 0 -0.7117763
vn -0.7024062 0 -0.7117763
vn -0.7024062 0 -0.7117763
vn -0.7024062 0 -0.7117763
vn 0 0 -1
vn 0 0 -1
vn 0 0 -1
vn 0 0 -1
vn -0.579968 -0.8144941 -0.01537532
vn -0.579968 -0.8144941 -0.01537532
vn -0.579968 -0.8144941 -0.01537532
g araba_sol_arka4_0
f 94/94/94 66/66/66 93/93/93
f 97/97/97 166/166/166 167/167/167
f 169/169/169 168/168/168 170/170/170
f 222/222/222 221/221/221 223/223/223
f 18/18/18 41/41/41 10/10/10
f 9/9/9 41/41/41 18/18/18
f 5/5/5 9/9/9 18/18/18
f 8/8/8 42/42/42 19/19/19
f 11/11/11 42/42/42 8/8/8
f 12/12/12 11/11/11 8/8/8
f 38/38/38 29/29/29 25/25/25
f 43/43/43 29/29/29 38/38/38
f 30/30/30 43/43/43 38/38/38
f 28/28/28 31/31/31 32/32/32
f 44/44/44 31/31/31 28/28/28
f 39/39/39 44/44/44 28/28/28
f 120/120/120 122/122/122 119/119/119
f 121/121/121 120/120/120 119/119/119
f 114/114/114 120/120/120 121/121/121
f 111/111/111 114/114/114 121/121/121
f 112/112/112 114/114/114 111/111/111
f 113/113/113 112/112/112 111/111/111
f 131/131/131 133/133/133 132/132/132
f 134/134/134 131/131/131 132/132/132
f 117/117/117 131/131/131 134/134/134
f 116/116/116 117/117/117 134/134/134
f 115/115/115 117/117/117 116/116/116
f 118/118/118 115/115/115 116/116/116
f 124/124/124 123/123/123 125/125/125
f 126/126/126 123/123/123 124/124/124
f 128/128/128 127/127/127 129/129/129
f 130/130/130 127/127/127 128/128/128
f 109/109/109 138/138/138 137/137/137
f 108/108/108 109/109/109 137/137/137
f 107/107/107 109/109/109 108/108/108
f 110/110/110 107/107/107 108/108/108
f 135/135/135 107/107/107 110/110/110
f 136/136/136 135/135/135 110/110/110
f 140/140/140 139/139/139 141/141/141
f 142/142/142 139/139/139 140/140/140
f 144/144/144 143/143/143 145/145/145
f 146/146/146 143/143/143 144/144/144
f 59/59/59 62/62/62 63/63/63
f 61/61/61 62/62/62 59/59/59
f 60/60/60 61/61/61 59/59/59
f 100/100/100 65/65/65 101/101/101
f 49/49/49 65/65/65 100/100/100
f 147/147/147 103/103/103 48/48/48
f 148/148/148 103/103/103 147/147/147
f 70/70/70 149/149/149 150/150/150
f 182/182/182 149/149/149 70/70/70
f 183/183/183 182/182/182 70/70/70
f 71/71/71 151/151/151 54/54/54
f 152/152/152 151/151/151 71/71/71
f 184/184/184 152/152/152 71/71/71
f 72/72/72 154/154/154 153/153/153
f 47/47/47 72/72/72 153/153/153
f 73/73/73 72/72/72 47/47/47
f 45/45/45 73/73/73 47/47/47
f 105/105/105 73/73/73 45/45/45
f 99/99/99 105/105/105 45/45/45
f 156/156/156 74/74/74 69/69/69
f 157/157/157 74/74/74 156/156/156
f 155/155/155 157/157/157 156/156/156
f 67/67/67 50/50/50 52/52/52
f 159/159/159 50/50/50 67/67/67
f 68/68/68 159/159/159 67/67/67
f 67/67/67 158/158/158 160/160/160
f 53/53/53 158/158/158 67/67/67
f 51/51/51 53/53/53 67/67/67
f 163/163/163 106/106/106 95/95/95
f 104/104/104 106/106/106 163/163/163
f 161/161/161 104/104/104 163/163/163
f 162/162/162 104/104/104 161/161/161
f 96/96/96 163/163/163 95/95/95
f 164/164/164 163/163/163 96/96/96
f 75/75/75 164/164/164 96/96/96
f 165/165/165 164/164/164 75/75/75
f 171/171/171 156/156/156 69/69/69
f 55/55/55 156/156/156 171/171/171
f 172/172/172 55/55/55 171/171/171
f 173/173/173 55/55/55 172/172/172
f 174/174/174 173/173/173 172/172/172
f 175/175/175 173/173/173 174/174/174
f 176/176/176 175/175/175 174/174/174
f 177/177/177 175/175/175 176/176/176
f 178/178/178 177/177/177 176/176/176
f 179/179/179 177/177/177 178/178/178
f 180/180/180 179/179/179 178/178/178
f 181/181/181 179/179/179 180/180/180
f 184/184/184 71/71/71 185/185/185
f 72/72/72 186/186/186 154/154/154
f 187/187/187 186/186/186 72/72/72
f 73/73/73 187/187/187 72/72/72
f 188/188/188 187/187/187 73/73/73
f 105/105/105 188/188/188 73/73/73
f 189/189/189 188/188/188 105/105/105
f 87/87/87 91/91/91 88/88/88
f 76/76/76 87/87/87 88/88/88
f 86/86/86 87/87/87 76/76/76
f 78/78/78 86/86/86 76/76/76
f 85/85/85 86/86/86 78/78/78
f 77/77/77 85/85/85 78/78/78
f 84/84/84 85/85/85 77/77/77
f 89/89/89 84/84/84 77/77/77
f 190/190/190 81/81/81 80/80/80
f 82/82/82 81/81/81 190/190/190
f 192/192/192 82/82/82 190/190/190
f 90/90/90 82/82/82 192/192/192
f 193/193/193 90/90/90 192/192/192
f 191/191/191 190/190/190 80/80/80
f 79/79/79 191/191/191 80/80/80
f 98/98/98 191/191/191 79/79/79
f 83/83/83 98/98/98 79/79/79
f 201/201/201 203/203/203 202/202/202
f 200/200/200 201/201/201 202/202/202
f 199/199/199 201/201/201 200/200/200
f 198/198/198 199/199/199 200/200/200
f 196/196/196 199/199/199 198/198/198
f 195/195/195 196/196/196 198/198/198
f 194/194/194 196/196/196 195/195/195
f 197/197/197 194/194/194 195/195/195
f 205/205/205 204/204/204 206/206/206
f 207/207/207 204/204/204 205/205/205
f 102/102/102 210/210/210 56/56/56
f 208/208/208 210/210/210 102/102/102
f 209/209/209 208/208/208 102/102/102
f 212/212/212 211/211/211 149/149/149
f 92/92/92 211/211/211 212/212/212
f 214/214/214 213/213/213 215/215/215
f 216/216/216 213/213/213 214/214/214
f 218/218/218 217/217/217 219/219/219
f 220/220/220 217/217/217 218/218/218
f 14/14/14 15/15/15 3/3/3
f 16/16/16 14/14/14 3/3/3
f 1/1/1 14/14/14 16/16/16
f 13/13/13 1/1/1 16/16/16
f 15/15/15 14/14/14 2/2/2
f 17/17/17 15/15/15 2/2/2
f 6/6/6 15/15/15 17/17/17
f 18/18/18 6/6/6 17/17/17
f 13/13/13 16/16/16 4/4/4
f 20/20/20 13/13/13 4/4/4
f 7/7/7 13/13/13 20/20/20
f 19/19/19 7/7/7 20/20/20
f 18/18/18 17/17/17 5/5/5
f 19/19/19 20/20/20 8/8/8
f 34/34/34 23/23/23 35/35/35
f 36/36/36 23/23/23 34/34/34
f 21/21/21 36/36/36 34/34/34
f 33/33/33 36/36/36 21/21/21
f 35/35/35 22/22/22 34/34/34
f 37/37/37 22/22/22 35/35/35
f 26/26/26 37/37/37 35/35/35
f 38/38/38 37/37/37 26/26/26
f 33/33/33 24/24/24 36/36/36
f 40/40/40 24/24/24 33/33/33
f 27/27/27 40/40/40 33/33/33
f 39/39/39 40/40/40 27/27/27
f 37/37/37 38/38/38 25/25/25
f 40/40/40 39/39/39 28/28/28
f 63/63/63 58/58/58 59/59/59
f 57/57/57 58/58/58 63/63/63
f 64/64/64 57/57/57 63/63/63
f 56/56/56 57/57/57 64/64/64
f 102/102/102 56/56/56 64/64/64
f 67/67/67 46/46/46 51/51/51
f 52/52/52 46/46/46 67/67/67
