g araba_kaput01
v 0.3574615 -0.8488396 -0.1155227
v 0.4737227 -0.2960528 -0.01717919
v 0.3110962 -1.045922 -0.1981854
v -2.980232E-08 -1.045921 -0.1827431
v -0.4737227 -0.2960528 -0.01717919
v -0.3574616 -0.8488396 -0.1155227
v -0.3110962 -1.045922 -0.1981854
v -2.980232E-08 -0.2960528 0.0005739927
v -2.980232E-08 -0.8488396 -0.09263641
v 0.6221923 -1.045922 -0.2543098
v 0.6602366 -0.8488396 -0.164194
v 0.8107847 -0.2960528 -0.07100058
v 0.3110962 -1.073205 -0.2406605
v 0.6221923 -1.073205 -0.2967851
v 0.8954538 -0.0003117323 -0.05410516
v 0.5188526 -0.02294505 -0.0002917051
v -2.980232E-08 -1.073205 -0.2252184
v -2.980232E-08 -0.03452861 0.01829898
v -0.8107847 -0.2960528 -0.07100058
v -0.6602366 -0.8488396 -0.164194
v -0.6221923 -1.073205 -0.2967851
v -0.8954538 -0.0003117323 -0.05410516
v -0.6221923 -1.045922 -0.2543098
v -0.3110962 -1.073205 -0.2406605
v -0.5188526 -0.02294505 -0.0002917051
v 0.3563761 -0.8457953 -0.1249861
v 0.4727287 -0.2947133 -0.0270391
v 0.3102455 -1.039467 -0.2057757
v -2.980232E-08 -1.039414 -0.1903361
v -0.4727288 -0.2947133 -0.0270391
v -0.3563762 -0.8457953 -0.1249861
v -0.3102455 -1.039467 -0.2057757
v -2.979298E-08 -0.2948833 -0.009357378
v -2.983536E-08 -0.8458945 -0.1021929
v 0.6209115 -1.039321 -0.2617122
v 0.6587294 -0.8457409 -0.1735816
v 0.8092594 -0.2946453 -0.08078282
v 0.3104558 -1.064808 -0.2460539
v 0.6212219 -1.064831 -0.302164
v 0.8939884 0.0006701946 -0.06394833
v 0.517831 -0.02213001 -0.01020594
v -2.98046E-08 -1.064791 -0.2306228
v -2.979312E-08 -0.03385162 0.008321926
v -0.8092594 -0.2946453 -0.08078282
v -0.6587294 -0.8457409 -0.1735816
v -0.6212219 -1.064831 -0.302164
v -0.8939884 0.0006701946 -0.06394833
v -0.6209115 -1.039321 -0.2617122
v -0.3104558 -1.064808 -0.2460539
v -0.5178311 -0.02213001 -0.01020594
v 0.3110962 -1.045922 -0.1981854
v 0.6221923 -1.045922 -0.2543098
v -2.980232E-08 -1.045921 -0.1827431
v -0.3110962 -1.045922 -0.1981854
v -0.6221923 -1.045922 -0.2543098
v -2.980232E-08 -1.045921 -0.1827431
v 0.3102455 -1.039467 -0.2057757
v 0.6209115 -1.039321 -0.2617122
v -2.980232E-08 -1.039414 -0.1903361
v -0.3102455 -1.039467 -0.2057757
v -0.6209115 -1.039321 -0.2617122
v -2.980232E-08 -1.039414 -0.1903361
v 0.8107847 -0.2960528 -0.07100058
v 0.6587294 -0.8457409 -0.1735816
v 0.6602366 -0.8488396 -0.164194
v 0.6587294 -0.8457409 -0.1735816
v 0.8092594 -0.2946453 -0.08078282
v 0.6602366 -0.8488396 -0.164194
v 0.6209115 -1.039321 -0.2617122
v 0.6221923 -1.045922 -0.2543098
v 0.6209115 -1.039321 -0.2617122
v 0.6221923 -1.073205 -0.2967851
v 0.3104558 -1.064808 -0.2460539
v 0.3110962 -1.073205 -0.2406605
v 0.3104558 -1.064808 -0.2460539
v 0.6221923 -1.073205 -0.2967851
v 0.6212219 -1.064831 -0.302164
v 0.6221923 -1.045922 -0.2543098
v 0.6212219 -1.064831 -0.302164
v 0.6221923 -1.073205 -0.2967851
v 0.6212219 -1.064831 -0.302164
v 0.6221923 -1.045922 -0.2543098
v 0.6209115 -1.039321 -0.2617122
v 0.8954538 -0.0003117323 -0.05410516
v 0.8092594 -0.2946453 -0.08078282
v 0.8954538 -0.0003117323 -0.05410516
v 0.8939884 0.0006701946 -0.06394833
v 0.5188526 -0.02294505 -0.0002917051
v 0.8939884 0.0006701946 -0.06394833
v 0.8954538 -0.0003117323 -0.05410516
v 0.8939884 0.0006701946 -0.06394833
v 0.5188526 -0.02294505 -0.0002917051
v 0.517831 -0.02213001 -0.01020594
v -2.98046E-08 -1.064791 -0.2306228
v -2.980232E-08 -1.073205 -0.2252184
v -2.98046E-08 -1.064791 -0.2306228
v -2.980232E-08 -0.03452861 0.01829898
v -2.980232E-08 -0.03452861 0.01829898
v -2.979312E-08 -0.03385162 0.008321926
v -0.6602366 -0.8488396 -0.164194
v -0.8092594 -0.2946453 -0.08078282
v -0.8107847 -0.2960528 -0.07100058
v -0.6602366 -0.8488396 -0.164194
v -0.6587294 -0.8457409 -0.1735816
v -0.6221923 -1.045922 -0.2543098
v -0.6587294 -0.8457409 -0.1735816
v -0.6221923 -1.045922 -0.2543098
v -0.6209115 -1.039321 -0.2617122
v -0.6221923 -1.073205 -0.2967851
v -0.6209115 -1.039321 -0.2617122
v -0.6221923 -1.045922 -0.2543098
v -0.6209115 -1.039321 -0.2617122
v -0.6221923 -1.073205 -0.2967851
v -0.6212219 -1.064831 -0.302164
v -0.3110962 -1.073205 -0.2406605
v -0.6212219 -1.064831 -0.302164
v -0.6221923 -1.073205 -0.2967851
v -0.6212219 -1.064831 -0.302164
v -0.3110962 -1.073205 -0.2406605
v -0.3104558 -1.064808 -0.2460539
v -0.8954538 -0.0003117323 -0.05410516
v -0.5178311 -0.02213001 -0.01020594
v -0.5188526 -0.02294505 -0.0002917051
v -0.5178311 -0.02213001 -0.01020594
v -0.8954538 -0.0003117323 -0.05410516
v -0.8939884 0.0006701946 -0.06394833
v -0.8107847 -0.2960528 -0.07100058
v -0.8939884 0.0006701946 -0.06394833
v -0.8954538 -0.0003117323 -0.05410516
v -0.8939884 0.0006701946 -0.06394833
v -2.980232E-08 -1.073205 -0.2252184
v -2.980232E-08 -1.073205 -0.2252184
v -2.98046E-08 -1.064791 -0.2306228
v -2.979312E-08 -0.03385162 0.008321926
vt 0.3322305 0.7400226
vt 0.4116192 0.7233256
vt 0.3039264 0.7466813
vt 0.3039264 0.7913597
vt 0.4116192 0.8593937
vt 0.3322305 0.8426968
vt 0.3039264 0.8360379
vt 0.4116192 0.7913597
vt 0.3322305 0.7913597
vt 0.3039264 0.7020031
vt 0.3322305 0.6965392
vt 0.4116192 0.6749181
vt 0.8335069 0.400516
vt 0.8738669 0.3932347
vt 0.4540924 0.6627583
vt 0.4508419 0.7168441
vt 0.793147 0.4025194
vt 0.4491783 0.7913597
vt 0.4116192 0.9078011
vt 0.3322305 0.88618
vt 0.7124271 0.3932347
vt 0.4540923 0.919961
vt 0.3039264 0.8807161
vt 0.7527871 0.400516
vt 0.4508419 0.8658751
vt 0.3322305 0.7400226
vt 0.4116192 0.7233256
vt 0.3039264 0.7466813
vt 0.3039264 0.7913597
vt 0.4116192 0.8593937
vt 0.3322305 0.8426968
vt 0.3039264 0.8360379
vt 0.4116192 0.7913597
vt 0.3322305 0.7913597
vt 0.3039264 0.7020031
vt 0.3322305 0.6965392
vt 0.4116192 0.6749181
vt 0.8335069 0.400516
vt 0.8738669 0.3932347
vt 0.4540924 0.6627583
vt 0.4508419 0.7168441
vt 0.793147 0.4025194
vt 0.4491783 0.7913597
vt 0.4116192 0.9078011
vt 0.3322305 0.88618
vt 0.7124271 0.3932347
vt 0.4540923 0.919961
vt 0.3039264 0.8807161
vt 0.7527871 0.400516
vt 0.4508419 0.8658751
vt 0.8335069 0.4060265
vt 0.8738669 0.3987452
vt 0.793147 0.4080299
vt 0.7527871 0.4060265
vt 0.7124271 0.3987452
vt 0.793147 0.4080299
vt 0.8335069 0.4060265
vt 0.8738669 0.3987452
vt 0.793147 0.4080299
vt 0.7527871 0.4060265
vt 0.7124271 0.3987452
vt 0.793147 0.4080299
vt 0.4116192 0.6749181
vt 0.3322305 0.6965392
vt 0.3322305 0.6965392
vt 0.3322305 0.6965392
vt 0.4116192 0.6749181
vt 0.3322305 0.6965392
vt 0.3039264 0.7020031
vt 0.3039264 0.7020031
vt 0.3039264 0.7020031
vt 0.8738669 0.3932347
vt 0.8335069 0.400516
vt 0.8335069 0.400516
vt 0.8335069 0.400516
vt 0.8738669 0.3932347
vt 0.8738669 0.3932347
vt 0.8738669 0.3987452
vt 0.8738669 0.3932347
vt 0.8738669 0.3932347
vt 0.8738669 0.3932347
vt 0.8738669 0.3987452
vt 0.8738669 0.3987452
vt 0.4540924 0.6627583
vt 0.4116192 0.6749181
vt 0.4540924 0.6627583
vt 0.4540924 0.6627583
vt 0.4508419 0.7168441
vt 0.4540924 0.6627583
vt 0.4540924 0.6627583
vt 0.4540924 0.6627583
vt 0.4508419 0.7168441
vt 0.4508419 0.7168441
vt 0.793147 0.4025194
vt 0.793147 0.4025194
vt 0.793147 0.4025194
vt 0.4491783 0.7913597
vt 0.4491783 0.7913597
vt 0.4491783 0.7913597
vt 0.3322305 0.88618
vt 0.4116192 0.9078011
vt 0.4116192 0.9078011
vt 0.3322305 0.88618
vt 0.3322305 0.88618
vt 0.3039264 0.8807161
vt 0.3322305 0.88618
vt 0.3039264 0.8807161
vt 0.3039264 0.8807161
vt 0.7124271 0.3932347
vt 0.7124271 0.3987452
vt 0.7124271 0.3987452
vt 0.7124271 0.3987452
vt 0.7124271 0.3932347
vt 0.7124271 0.3932347
vt 0.7527871 0.400516
vt 0.7124271 0.3932347
vt 0.7124271 0.3932347
vt 0.7124271 0.3932347
vt 0.7527871 0.400516
vt 0.7527871 0.400516
vt 0.4540923 0.919961
vt 0.4508419 0.8658751
vt 0.4508419 0.8658751
vt 0.4508419 0.8658751
vt 0.4540923 0.919961
vt 0.4540923 0.919961
vt 0.4116192 0.9078011
vt 0.4540923 0.919961
vt 0.4540923 0.919961
vt 0.4540923 0.919961
vt 0.793147 0.4025194
vt 0.793147 0.4025194
vt 0.793147 0.4025194
vt 0.4491783 0.7913597
vn 0.1085403 -0.3044253 0.946332
vn 0.09939367 -0.1339552 0.9859903
vn 0.08506704 -0.6454744 0.7590299
vn 0 -0.6507414 0.7592993
vn -0.09939367 -0.1339552 0.9859903
vn -0.1085403 -0.3044253 0.946332
vn -0.08506705 -0.6454745 0.7590297
vn 0 -0.1169533 0.9931375
vn 0 -0.294516 0.9556465
vn 0.1280805 -0.6600322 0.7402383
vn 0.150719 -0.3098653 0.9387584
vn 0.1525304 -0.1407518 0.9782246
vn 0.06403932 -0.8396521 0.5393361
vn 0.09704082 -0.8374085 0.5378942
vn 0.1465527 -0.0981904 0.9843175
vn 0.1021546 -0.08150654 0.9914238
vn 0 -0.8413776 0.5404479
vn 0 -0.06769641 0.9977059
vn -0.1525304 -0.1407517 0.9782246
vn -0.1507191 -0.3098653 0.9387584
vn -0.09704084 -0.8374084 0.5378942
vn -0.1465527 -0.0981904 0.9843175
vn -0.1280806 -0.6600322 0.7402384
vn -0.06403933 -0.8396521 0.5393361
vn -0.1021546 -0.08150651 0.9914238
vn -0.108625 0.3036313 -0.9465773
vn -0.09941249 0.1338887 -0.9859974
vn -0.08470966 0.6482422 -0.7567076
vn 0 0.6534284 -0.7569883
vn 0.09941249 0.1338887 -0.9859974
vn 0.108625 0.3036313 -0.9465773
vn 0.08470967 0.6482421 -0.7567076
vn 0 0.1168755 -0.9931466
vn 0 0.2937838 -0.9558719
vn -0.1277029 0.6627554 -0.7378668
vn -0.1507937 0.3091677 -0.9389763
vn -0.1525732 0.140683 -0.9782279
vn -0.0632545 0.8445699 -0.5316961
vn -0.09604944 0.84168 -0.5313655
vn -0.1465814 0.09816669 -0.9843156
vn -0.1021829 0.08145954 -0.9914247
vn 0 0.8461469 -0.5329497
vn 0 0.06763966 -0.9977099
vn 0.1525733 0.140683 -0.9782279
vn 0.1507938 0.3091677 -0.9389763
vn 0.09604945 0.84168 -0.5313655
vn 0.1465815 0.0981667 -0.9843156
vn 0.127703 0.6627554 -0.7378668
vn 0.06325449 0.8445697 -0.5316961
vn 0.1021829 0.08145954 -0.9914247
vn 0.08506704 -0.6454744 0.7590299
vn 0.1280805 -0.6600322 0.7402383
vn 0 -0.6507414 0.7592993
vn -0.08506705 -0.6454745 0.7590297
vn -0.1280806 -0.6600322 0.7402384
vn 0 -0.6507414 0.7592993
vn -0.08470966 0.6482422 -0.7567076
vn -0.1277029 0.6627554 -0.7378668
vn 0 0.6534284 -0.7569883
vn 0.08470967 0.6482421 -0.7567076
vn 0.127703 0.6627554 -0.7378668
vn 0 0.6534284 -0.7569883
vn 0.9517388 -0.2456378 -0.1839984
vn 0.9645901 -0.1620387 -0.2081089
vn 0.9642246 -0.1626237 -0.2093429
vn 0.9645901 -0.1620387 -0.2081089
vn 0.951861 -0.2454945 -0.1835568
vn 0.9642246 -0.1626237 -0.2093429
vn 0.9880982 0.01965058 -0.1525645
vn 0.9882013 0.01706604 -0.1522068
vn 0.9880982 0.01965058 -0.1525645
vn -0.1488364 -0.5464977 -0.8241286
vn -0.09550984 -0.5431573 -0.8341811
vn -0.09566665 -0.543093 -0.8342049
vn -0.09550984 -0.5431573 -0.8341811
vn -0.1488364 -0.5464977 -0.8241286
vn -0.1488298 -0.5465813 -0.8240743
vn 0.9882013 0.01706604 -0.1522068
vn 0.9948246 0.08597822 -0.05414624
vn 0.9952807 0.08164522 -0.05244333
vn 0.9948246 0.08597822 -0.05414624
vn 0.9882013 0.01706604 -0.1522068
vn 0.9880982 0.01965058 -0.1525645
vn 0.9500507 -0.2629866 -0.1680529
vn 0.951861 -0.2454945 -0.1835568
vn 0.9500507 -0.2629866 -0.1680529
vn 0.9501017 -0.2630345 -0.1676896
vn -0.03365316 0.9957699 0.08549702
vn -0.04464852 0.9934249 0.1054205
vn -0.04459283 0.9933937 0.1057371
vn -0.04464852 0.9934249 0.1054205
vn -0.03365316 0.9957699 0.08549702
vn -0.03349612 0.9957991 0.08521757
vn 4.275178E-05 -0.5404693 -0.8413638
vn 4.128201E-05 -0.54047 -0.8413633
vn 4.275178E-05 -0.5404693 -0.8413638
vn -0.0001508612 0.9976988 0.06780065
vn -0.0001508612 0.9976988 0.06780065
vn -0.0001583396 0.9976992 0.06779609
vn -0.9645341 -0.1623158 -0.2081527
vn -0.9518261 -0.2453337 -0.1839526
vn -0.9518277 -0.2456222 -0.1835582
vn -0.9645341 -0.1623158 -0.2081527
vn -0.9646369 -0.1609422 -0.2087422
vn -0.9876609 0.01551949 -0.1558366
vn -0.9646369 -0.1609422 -0.2087422
vn -0.9876609 0.01551949 -0.1558366
vn -0.9877912 0.01459642 -0.1550982
vn -0.9948072 0.08889848 -0.04955586
vn -0.9877912 0.01459642 -0.1550982
vn -0.9876609 0.01551949 -0.1558366
vn -0.9877912 0.01459642 -0.1550982
vn -0.9948072 0.08889848 -0.04955586
vn -0.9952544 0.08557181 -0.04632565
vn 0.09569584 -0.5431594 -0.8341583
vn 0.1486882 -0.5464977 -0.8241553
vn 0.1486754 -0.5465813 -0.8241022
vn 0.1486882 -0.5464977 -0.8241553
vn 0.09569584 -0.5431594 -0.8341583
vn 0.09554978 -0.5430938 -0.8342178
vn 0.04513306 0.9933956 0.1054897
vn 0.03337822 0.9957825 0.08545842
vn 0.03358439 0.9957961 0.08521931
vn 0.03337822 0.9957825 0.08545842
vn 0.04513306 0.9933956 0.1054897
vn 0.04509412 0.9933635 0.1058087
vn -0.9518277 -0.2456222 -0.1835582
vn -0.9502039 -0.2624519 -0.1680224
vn -0.9502615 -0.2624767 -0.1676578
vn -0.9502039 -0.2624519 -0.1680224
vn 4.128201E-05 -0.54047 -0.8413633
vn 4.128201E-05 -0.54047 -0.8413633
vn 4.275178E-05 -0.5404693 -0.8413638
vn -0.0001583396 0.9976992 0.06779609
g araba_kaput01_0
f 69/69/69 68/68/68 70/70/70
f 76/76/76 75/75/75 77/77/77
f 79/79/79 78/78/78 80/80/80
f 82/82/82 81/81/81 83/83/83
f 86/86/86 85/85/85 87/87/87
f 89/89/89 88/88/88 90/90/90
f 94/94/94 74/74/74 95/95/95
f 107/107/107 106/106/106 108/108/108
f 110/110/110 109/109/109 111/111/111
f 113/113/113 112/112/112 114/114/114
f 116/116/116 115/115/115 117/117/117
f 125/125/125 124/124/124 126/126/126
f 128/128/128 127/127/127 129/129/129
f 132/132/132 120/120/120 133/133/133
f 51/51/51 14/14/14 52/52/52
f 13/13/13 14/14/14 51/51/51
f 17/17/17 13/13/13 51/51/51
f 16/16/16 12/12/12 15/15/15
f 2/2/2 12/12/12 16/16/16
f 18/18/18 2/2/2 16/16/16
f 8/8/8 2/2/2 18/18/18
f 5/5/5 8/8/8 18/18/18
f 9/9/9 8/8/8 5/5/5
f 6/6/6 9/9/9 5/5/5
f 7/7/7 9/9/9 6/6/6
f 23/23/23 7/7/7 6/6/6
f 17/17/17 51/51/51 53/53/53
f 54/54/54 24/24/24 17/17/17
f 21/21/21 24/24/24 54/54/54
f 55/55/55 21/21/21 54/54/54
f 19/19/19 25/25/25 22/22/22
f 5/5/5 25/25/25 19/19/19
f 20/20/20 5/5/5 19/19/19
f 6/6/6 5/5/5 20/20/20
f 23/23/23 6/6/6 20/20/20
f 54/54/54 17/17/17 56/56/56
f 57/57/57 38/38/38 42/42/42
f 39/39/39 38/38/38 57/57/57
f 58/58/58 39/39/39 57/57/57
f 31/31/31 32/32/32 48/48/48
f 34/34/34 32/32/32 31/31/31
f 30/30/30 34/34/34 31/31/31
f 33/33/33 34/34/34 30/30/30
f 43/43/43 33/33/33 30/30/30
f 27/27/27 33/33/33 43/43/43
f 41/41/41 27/27/27 43/43/43
f 37/37/37 27/27/27 41/41/41
f 40/40/40 37/37/37 41/41/41
f 57/57/57 42/42/42 59/59/59
f 60/60/60 46/46/46 61/61/61
f 49/49/49 46/46/46 60/60/60
f 42/42/42 49/49/49 60/60/60
f 45/45/45 31/31/31 48/48/48
f 30/30/30 31/31/31 45/45/45
f 44/44/44 30/30/30 45/45/45
f 50/50/50 30/30/30 44/44/44
f 47/47/47 50/50/50 44/44/44
f 42/42/42 60/60/60 62/62/62
f 64/64/64 65/65/65 71/71/71
f 63/63/63 65/65/65 64/64/64
f 63/63/63 67/67/67 84/84/84
f 66/66/66 67/67/67 63/63/63
f 73/73/73 74/74/74 96/96/96
f 72/72/72 74/74/74 73/73/73
f 92/92/92 93/93/93 97/97/97
f 91/91/91 93/93/93 92/92/92
f 98/98/98 99/99/99 123/123/123
f 93/93/93 99/99/99 98/98/98
f 101/101/101 102/102/102 130/130/130
f 100/100/100 102/102/102 101/101/101
f 103/103/103 104/104/104 105/105/105
f 101/101/101 104/104/104 103/103/103
f 119/119/119 120/120/120 131/131/131
f 118/118/118 120/120/120 119/119/119
f 122/122/122 123/123/123 134/134/134
f 121/121/121 123/123/123 122/122/122
f 2/2/2 11/11/11 12/12/12
f 1/1/1 11/11/11 2/2/2
f 9/9/9 1/1/1 2/2/2
f 3/3/3 1/1/1 9/9/9
f 4/4/4 3/3/3 9/9/9
f 1/1/1 10/10/10 11/11/11
f 3/3/3 10/10/10 1/1/1
f 9/9/9 7/7/7 4/4/4
f 5/5/5 18/18/18 25/25/25
f 34/34/34 28/28/28 29/29/29
f 26/26/26 28/28/28 34/34/34
f 27/27/27 26/26/26 34/34/34
f 36/36/36 26/26/26 27/27/27
f 37/37/37 36/36/36 27/27/27
f 35/35/35 26/26/26 36/36/36
f 28/28/28 26/26/26 35/35/35
f 32/32/32 34/34/34 29/29/29
f 43/43/43 30/30/30 50/50/50
f 9/9/9 2/2/2 8/8/8
f 27/27/27 34/34/34 33/33/33
