g araba_sag_arka
v -1.674228 1.995264 -0.2134564
v -1.238141 1.995231 -0.2133996
v -1.238141 1.342946 -0.2102668
v -1.674228 1.342913 -0.2103236
v -1.238141 2.175267 -0.3178992
v -1.674228 2.175298 -0.3179123
v -1.674228 2.30532 -0.5349935
v -1.238141 2.295663 -0.5341949
v -1.674228 1.162888 -0.3136311
v -1.238141 1.162921 -0.3136224
v -1.238141 1.068864 -0.4752727
v -1.674228 1.070272 -0.4751192
v -1.238141 2.3557 -0.7505078
v -1.614735 2.365356 -0.7506986
v -1.51743 2.365356 -0.8849701
v -1.390555 2.362035 -0.949476
v -1.238141 2.3557 -0.9489567
v -1.61234 1.010245 -0.6903865
v -1.238141 1.008837 -0.690631
v -1.238141 1.008837 -0.9124168
v -1.367314 1.009707 -0.912393
v -1.49504 1.010245 -0.8481753
v -1.238135 1.360815 -0.2779476
v -1.238133 1.976875 -0.2809499
v -1.674222 1.976909 -0.2810071
v -1.67422 1.36078 -0.2780049
v -1.675211 2.241209 -0.5630792
v -1.67423 2.126146 -0.3677524
v -1.238584 2.125591 -0.367215
v -1.239525 2.230934 -0.5608087
v -1.238001 1.133383 -0.5024253
v -1.238143 1.212274 -0.3632637
v -1.674156 1.212354 -0.3631603
v -1.67403 1.134529 -0.5028836
v -1.392604 2.292065 -0.9499554
v -1.521325 2.295782 -0.8870838
v -1.616493 2.296546 -0.7634273
v -1.24006 2.286411 -0.7602712
v -1.240752 2.285749 -0.9489567
v -1.237824 1.078837 -0.9123276
v -1.237886 1.078192 -0.7001088
v -1.612076 1.079178 -0.7025576
v -1.496417 1.079924 -0.8492889
v -1.366895 1.079705 -0.9121974
v -1.409918 2.415489 -0.6631182
v -1.409917 2.415482 0.03411537
v -1.409917 2.068739 0.03411543
v -1.409917 2.191446 -0.5614544
v -1.409918 2.255625 -0.6660745
v -1.409917 1.656908 0.03411537
v -1.409917 1.267618 -0.3926
v -1.409917 1.661783 -0.2856907
v -1.409917 2.002035 -0.3678345
v -1.409917 1.015039 -0.8859664
v -1.496125 1.009783 -0.906858
v -1.496125 0.986995 -1.060879
v -1.172871 2.216892 -0.667882
v -1.172871 2.424339 -0.6640325
v -1.172871 2.483549 -0.6629149
v -1.198946 2.47779 -0.6629372
v -1.172871 2.483549 0.1041154
v -1.198946 2.477782 0.0964154
v -1.172871 2.06874 0.1041154
v -1.198946 2.06874 0.09641546
v -1.172871 1.656908 0.1041154
v -1.198946 1.656908 0.0964154
v -1.162339 1.050321 -1.060879
v -1.172871 1.072443 -0.8860388
v -1.172871 1.125315 -0.6259993
v -1.172696 1.602804 -1.06702
v -1.172871 1.308892 -0.3850136
v -1.172871 1.662794 -0.2890249
v -1.172871 1.96606 -0.3622396
v -1.172871 2.135898 -0.5358523
v -1.172871 2.216892 -1.040968
v -1.409918 1.059913 -0.6652582
v -1.112871 0.3902104 -0.6213086
v -1.112871 1.279738 -0.6213087
v -1.112871 1.656908 -0.6213087
v -1.112871 2.06874 -0.6213088
v -1.112871 2.424339 -0.6213089
v -1.112871 1.656908 0.1041154
v -1.112871 1.279738 0.1041154
v -1.112871 0.3902104 0.1041155
v -1.112871 2.06874 0.1041154
v -1.112871 2.424339 0.1041154
v -1.192093E-07 2.218843 -1.06088
v -1.192093E-07 2.06874 -0.6213088
v -1.192093E-07 1.279738 -0.6213087
v -1.192093E-07 1.656908 -0.6213087
v -1.192093E-07 0.3902104 0.1041155
v -1.192093E-07 2.424337 -0.6213089
v -1.192093E-07 0.3902104 -0.6213086
v -1.192093E-07 2.424337 -0.6637633
v -1.496125 0.3302109 -1.060879
v -1.496125 0.3302109 -0.9197546
v -1.409917 0.3302104 0.03411555
v -1.409271 0.3302104 -0.8991996
v -1.172871 0.3302104 0.1041155
v -1.198946 0.3302104 0.09641558
v -1.157927 0.3302109 -1.060879
v -1.192093E-07 0.3302109 -1.060879
v -1.192093E-07 1.050893 -1.060879
v -1.192093E-07 1.60743 -1.06088
v -1.192093E-07 2.216892 -0.667882
v -1.192093E-07 0.3302104 0.1041155
v -1.674228 1.995264 -0.2134564
v -1.67422 1.36078 -0.2780049
v -1.674222 1.976909 -0.2810071
v -1.674228 1.342913 -0.2103236
v -1.674228 2.30532 -0.5349935
v -1.67423 2.126146 -0.3677524
v -1.675211 2.241209 -0.5630792
v -1.674228 2.175298 -0.3179123
v -1.674228 1.162888 -0.3136311
v -1.67403 1.134529 -0.5028836
v -1.674156 1.212354 -0.3631603
v -1.674228 1.070272 -0.4751192
v -1.51743 2.365356 -0.8849701
v -1.616493 2.296546 -0.7634273
v -1.521325 2.295782 -0.8870838
v -1.614735 2.365356 -0.7506986
v -1.238141 2.3557 -0.9489567
v -1.392604 2.292065 -0.9499554
v -1.240752 2.285749 -0.9489567
v -1.390555 2.362035 -0.949476
v -1.367314 1.009707 -0.912393
v -1.237824 1.078837 -0.9123276
v -1.366895 1.079705 -0.9121974
v -1.238141 1.008837 -0.9124168
v -1.61234 1.010245 -0.6903865
v -1.496417 1.079924 -0.8492889
v -1.612076 1.079178 -0.7025576
v -1.49504 1.010245 -0.8481753
v -1.674228 2.175298 -0.3179123
v -1.67423 2.126146 -0.3677524
v -1.674156 1.212354 -0.3631603
v -1.674228 1.162888 -0.3136311
v -1.521325 2.295782 -0.8870838
v -1.390555 2.362035 -0.949476
v -1.51743 2.365356 -0.8849701
v -1.392604 2.292065 -0.9499554
v -1.366895 1.079705 -0.9121974
v -1.49504 1.010245 -0.8481753
v -1.367314 1.009707 -0.912393
v -1.496417 1.079924 -0.8492889
v -1.496125 1.009783 -0.906858
v -1.496125 0.3302109 -0.9197546
v -1.172871 2.216892 -0.667882
v -1.172871 2.483549 -0.6629149
v -1.172871 2.483549 -0.6629149
v -1.198946 2.47779 -0.6629372
v -1.172871 2.483549 0.1041154
v -1.198946 2.477782 0.0964154
v -1.496125 1.009783 -0.906858
v -1.496125 0.986995 -1.060879
v -1.409917 1.015039 -0.8859664
v -1.172871 1.072443 -0.8860388
v -1.172871 2.216892 -0.667882
v -1.162339 1.050321 -1.060879
v -1.496125 0.986995 -1.060879
v -1.162339 1.050321 -1.060879
v -1.496125 0.3302109 -1.060879
v -1.172696 1.602804 -1.06702
v -1.172871 2.216892 -1.040968
v -1.172871 2.216892 -1.040968
v -1.172871 2.216892 -0.667882
v -1.172871 2.216892 -1.040968
v -1.192093E-07 2.218843 -1.06088
v -1.192093E-07 2.216892 -0.667882
v -1.172871 1.125315 -0.6259993
v -1.172871 1.308892 -0.3850136
v -1.409917 1.267618 -0.3926
v -1.172871 1.662794 -0.2890249
v -1.409917 1.661783 -0.2856907
v -1.172871 1.96606 -0.3622396
v -1.409917 2.002035 -0.3678345
v -1.172871 2.135898 -0.5358523
v -1.409917 2.191446 -0.5614544
v -1.172871 2.216892 -0.667882
v -1.409918 2.255625 -0.6660745
v -1.409918 2.255625 -0.6660745
v -1.409918 2.415489 -0.6631182
v -1.409918 2.415489 -0.6631182
v -1.409917 2.415482 0.03411537
v -1.409917 2.415482 0.03411537
v -1.409917 2.068739 0.03411543
v -1.409917 1.656908 0.03411537
v -1.409917 0.3302104 0.03411555
v -1.172871 1.656908 0.1041154
v -1.172871 0.3302104 0.1041155
v -1.172871 2.06874 0.1041154
v -1.172871 2.483549 0.1041154
v -1.112871 0.3902104 0.1041155
v -1.112871 1.279738 -0.6213087
v -1.112871 0.3902104 -0.6213086
v -1.112871 1.279738 0.1041154
v -1.112871 1.656908 -0.6213087
v -1.112871 1.656908 0.1041154
v -1.112871 2.06874 -0.6213088
v -1.112871 2.06874 0.1041154
v -1.112871 2.424339 -0.6213089
v -1.112871 2.424339 0.1041154
v -1.192093E-07 0.3902104 0.1041155
v -1.112871 0.3902104 -0.6213086
v -1.192093E-07 0.3902104 -0.6213086
v -1.112871 0.3902104 0.1041155
v -1.409917 1.015039 -0.8859664
v -1.409918 1.059913 -0.6652582
v -1.409271 0.3302104 -0.8991996
v -1.172871 2.424339 -0.6640325
v -1.192093E-07 2.216892 -0.667882
v -1.172871 2.483549 0.1041154
v -1.112871 2.424339 -0.6213089
v -1.112871 2.424339 0.1041154
v -1.172871 2.483549 -0.6629149
v -1.192093E-07 2.424337 -0.6213089
v -1.172871 2.424339 -0.6640325
v -1.192093E-07 2.424337 -0.6637633
v -1.112871 2.424339 -0.6213089
v -1.172871 2.424339 -0.6640325
v -1.112871 2.424339 -0.6213089
v -1.172871 2.483549 -0.6629149
vt 0.8171558 0.3220362
vt 0.8171599 0.2673647
vt 0.8989356 0.2673647
vt 0.8989397 0.3220362
vt 0.7950699 0.2680725
vt 0.7954342 0.3221537
vt 0.7641349 0.3223974
vt 0.7643944 0.2682981
vt 0.9205864 0.3219052
vt 0.9205318 0.2672977
vt 0.9438952 0.2672724
vt 0.9438518 0.3218803
vt 0.7370825 0.2684106
vt 0.7368404 0.315132
vt 0.7218832 0.3030647
vt 0.7148153 0.2873242
vt 0.7150975 0.2684106
vt 0.9713469 0.3141145
vt 0.9714078 0.2672563
vt 0.9963201 0.2672563
vt 0.9962846 0.2834318
vt 0.9890567 0.299426
vt 0.5938014 0.2679796
vt 0.647337 0.267982
vt 0.6473262 0.3056355
vt 0.5937983 0.3058085
vt 0.6742455 0.3058019
vt 0.6563092 0.3056818
vt 0.6562735 0.2680666
vt 0.6739603 0.2681801
vt 0.5722381 0.2682168
vt 0.5849565 0.2682316
vt 0.5849645 0.30583
vt 0.5722089 0.3058167
vt 0.7079458 0.2814162
vt 0.7025903 0.2925315
vt 0.691995 0.3007489
vt 0.6916333 0.2682433
vt 0.7078004 0.2683029
vt 0.5365833 0.2681998
vt 0.5547494 0.268205
vt 0.5545483 0.3004725
vt 0.5419915 0.2904989
vt 0.5366028 0.27933
vt 0.9586991 0.4741794
vt 0.9586982 0.5788921
vt 0.9066232 0.5788921
vt 0.9250517 0.4894476
vt 0.9346902 0.4737355
vt 0.8447731 0.5788921
vt 0.7863082 0.5148066
vt 0.8455052 0.5308626
vt 0.8966053 0.518526
vt 0.7483751 0.4407113
vt 0.7475857 0.4375738
vt 0.7441634 0.4144423
vt 0.2765199 0.9747313
vt 0.2887108 0.9747313
vt 0.2921902 0.9747313
vt 0.2918518 0.9762636
vt 0.9596143 0.5786377
vt 0.9631616 0.5775901
vt 0.9359216 0.9598024
vt 0.9359216 0.9635473
vt 0.8767763 0.9598024
vt 0.8767763 0.9635473
vt 0.2079657 0.9741123
vt 0.2092658 0.9747313
vt 0.7838994 0.4817887
vt 0.8378199 0.4319864
vt 0.8046299 0.5090021
vt 0.8445942 0.5198416
vt 0.8788407 0.5115739
vt 0.8980197 0.4919686
vt 0.9071659 0.4349284
vt 0.2085294 0.9886614
vt 0.7028857 0.9435747
vt 0.8245525 0.9435747
vt 0.8761409 0.9435747
vt 0.9324698 0.9435747
vt 0.9811077 0.9435747
vt 0.8767763 0.9511855
vt 0.8226085 0.9511855
vt 0.6948584 0.9511855
vt 0.9359216 0.9511855
vt 0.9869914 0.9511855
vt 0.2766347 0.9058067
vt 0.9324698 0.7913597
vt 0.8245525 0.7913597
vt 0.8761409 0.7913597
vt 0.6948584 0.7913597
vt 0.9811074 0.7913597
vt 0.7028857 0.7913597
vt 0.2887107 0.9058067
vt 0.6455254 0.4144423
vt 0.6455254 0.4356369
vt 0.6455254 0.5788921
vt 0.6455254 0.4387239
vt 0.6862414 0.9598024
vt 0.6862414 0.9635473
vt 0.1656479 0.9738529
vt 0.1656479 0.9058067
vt 0.2079993 0.9058067
vt 0.2407046 0.9058067
vt 0.27652 0.9058067
vt 0.6862414 0.7913597
vt 0.5247415 0.2999198
vt 0.4806516 0.2992973
vt 0.5230702 0.2953778
vt 0.4798289 0.3040666
vt 0.5150052 0.2897331
vt 0.5265681 0.2773452
vt 0.5130633 0.2853006
vt 0.530014 0.2807435
vt 0.53031 0.2732375
vt 0.5172251 0.2751982
vt 0.5268856 0.2698175
vt 0.5191448 0.279641
vt 0.4899778 0.293884
vt 0.4992114 0.2891265
vt 0.4899553 0.2890737
vt 0.5000914 0.293884
vt 0.4715278 0.2935347
vt 0.4818933 0.2888167
vt 0.4715947 0.2887968
vt 0.4818987 0.2936543
vt 0.4845727 0.2838284
vt 0.4746492 0.2790488
vt 0.4845749 0.2789888
vt 0.4746482 0.2838885
vt 0.5042614 0.2837912
vt 0.4932749 0.2789736
vt 0.5034198 0.2790252
vt 0.4933519 0.2837912
vt 0.5365122 0.2916404
vt 0.5328264 0.2885038
vt 0.4699154 0.2943265
vt 0.4668069 0.2980359
vt 0.4899553 0.2890737
vt 0.4818987 0.2936543
vt 0.4899778 0.293884
vt 0.4818933 0.2888167
vt 0.4845749 0.2789888
vt 0.4933519 0.2837912
vt 0.4845727 0.2838284
vt 0.4932749 0.2789736
vt 0.7475857 0.4375738
vt 0.6455254 0.4356369
vt 0.2765199 0.9747313
vt 0.2921902 0.9747313
vt 0.9596143 0.4742924
vt 0.9631616 0.4742894
vt 0.9954948 0.9598024
vt 0.9946666 0.9635473
vt 0.2055835 0.9937274
vt 0.2042443 0.9937274
vt 0.2058923 0.9886614
vt 0.7779288 0.4524238
vt 0.9071659 0.4770591
vt 0.7754307 0.4326798
vt 0.2042443 0.9937274
vt 0.2079657 0.9741123
vt 0.1656479 0.9937274
vt 0.2404328 0.974721
vt 0.2765199 0.9747313
vt 0.2765199 0.9747313
vt 0.2765199 0.9747313
vt 0.2765199 0.9747313
vt 0.2766347 0.9058067
vt 0.27652 0.9058067
vt 0.2123727 0.9747313
vt 0.2231608 0.9747313
vt 0.2207353 0.9886614
vt 0.243958 0.9747313
vt 0.2438986 0.9886614
vt 0.2617796 0.9747313
vt 0.2638938 0.9886614
vt 0.2717604 0.9747313
vt 0.2750246 0.9886614
vt 0.2765199 0.9747313
vt 0.2787961 0.9886614
vt 0.2787961 0.9886614
vt 0.2881907 0.9886614
vt 0.9918616 0.4742647
vt 0.9918615 0.569115
vt 0.9857193 0.993846
vt 0.9359216 0.993846
vt 0.8767763 0.993846
vt 0.6862414 0.993846
vt 0.8767763 0.9598024
vt 0.6862414 0.9598024
vt 0.9359216 0.9598024
vt 0.9954948 0.9598024
vt 0.6742724 0.1229202
vt 0.8114442 0.01093377
vt 0.6742724 0.01084909
vt 0.8114442 0.1227984
vt 0.8696061 0.01093377
vt 0.8696061 0.1227984
vt 0.9331129 0.01093377
vt 0.9331129 0.1227984
vt 0.9879484 0.01093377
vt 0.9879484 0.1227984
vt 0.5020261 0.1230421
vt 0.6742724 0.01084909
vt 0.5020261 0.01076441
vt 0.6742724 0.1229202
vt 0.7483751 0.4407113
vt 0.7551145 0.473858
vt 0.6455254 0.4387239
vt 0.2887108 0.9747313
vt 0.27652 0.9058067
vt 0.9970788 0.1227984
vt 0.9879484 0.01093377
vt 0.9879484 0.1227984
vt 0.9970788 0.004517838
vt 0.2887107 0.9058067
vt 0.2887108 0.9747313
vt 0.2887107 0.9058067
vt 0.2887108 0.9712054
vt 0.2887108 0.9747313
vt 0.2887108 0.9712054
vt 0.2921902 0.9747313
vn -8.423182E-05 0.2622272 0.9650061
vn -8.423845E-05 0.2621934 0.9650154
vn -8.158643E-05 -0.2552601 0.9668724
vn -8.157947E-05 -0.2552941 0.9668635
vn 0.004718581 0.7077461 0.7064511
vn 0.004719 0.7077628 0.7064345
vn 0.01541017 0.9172238 0.3980742
vn 0.01592863 0.9210083 0.389217
vn -0.000677654 -0.7061306 0.7080813
vn -0.0006775996 -0.7061146 0.7080973
vn -0.002267398 -0.9220218 0.3871314
vn -0.002173517 -0.9172313 0.3983494
vn 0.02711578 0.989468 0.1421889
vn 0.02571099 0.9827166 0.1833223
vn 0.03124134 0.9994549 0.01066631
vn 0.03124134 0.9994549 0.01066631
vn 0.03124134 0.9994549 0.01066631
vn -0.003761043 -0.983832 0.1790546
vn -0.004019696 -0.9909218 0.1343798
vn -0.004747976 -0.9999874 -0.001662318
vn -0.004747977 -0.9999874 -0.001662318
vn -0.004747977 -0.9999874 -0.001662318
vn 5.747809E-05 0.2552414 -0.9668774
vn 0.0001973309 -0.2621364 -0.9650307
vn 0.0001973916 -0.2623904 -0.9649617
vn 5.747553E-05 0.2552499 -0.9668751
vn -0.01535706 -0.9190356 -0.3938756
vn -0.004661162 -0.711283 -0.7028904
vn -0.004632874 -0.7101846 -0.7040002
vn -0.01585051 -0.9225499 -0.3855521
vn 0.002478837 0.924402 -0.3814116
vn 0.0007290876 0.7104227 -0.7037749
vn 0.0007283356 0.7102282 -0.7039711
vn 0.002371664 0.9195881 -0.3928767
vn -0.03202193 -0.9994648 -0.006689811
vn -0.03202192 -0.9994648 -0.006689811
vn -0.02582137 -0.9827346 -0.1832101
vn -0.02740214 -0.9896485 -0.140872
vn -0.03202192 -0.9994648 -0.006689811
vn 0.003966574 0.9999774 0.005449243
vn 0.003765927 0.9911378 -0.132784
vn 0.003681246 0.9838033 -0.1792139
vn 0.003966574 0.9999774 0.005449243
vn 0.003966573 0.9999774 0.005449244
vn -1 0 0
vn -1 0 0
vn -1 0 0
vn -1 0 0
vn -1 0 0
vn -1 0 0
vn -1 0 0
vn -1 0 0
vn -1 0 0
vn -0.2323253 -0.01873366 0.9724577
vn -0.2323253 -0.01873366 0.9724577
vn -1 0 0
vn -0.002089449 0.01886965 -0.9998198
vn -0.002508878 0.01881676 -0.9998198
vn -0.003820684 0.01862414 -0.9998193
vn -0.004172747 0.01856354 -0.999819
vn -0.2158175 0.9764338 0
vn -0.2436956 0.9698518 0
vn -0.2832092 0 0.9590581
vn -0.2832102 0 0.9590579
vn -0.2832092 0 0.9590581
vn -0.2832102 0 0.9590579
vn -0.2059955 0.9739189 -0.09511971
vn -0.2188393 0.9649334 -0.1449584
vn -1 0.0002510794 -0.0001255045
vn -0.9999703 -0.00235934 -0.007333053
vn -1 0.0001275004 -0.000201998
vn -1 0 -0.0002252827
vn -1 -0.0001081398 -0.0001929045
vn -1 -0.0001836787 -0.0001455654
vn -1 -0.0002853624 0
vn -0.1885433 0.9079851 -0.3741852
vn 0 0 1
vn 0 0 1
vn 0 0 1
vn 0 0 1
vn 0 0 1
vn 0 0 1
vn 0 0 1
vn 0 0 1
vn 0 0 1
vn 0 0 1
vn -0.005929413 0.02125174 -0.9997565
vn 0 0 1
vn 0 0 1
vn 0 0 1
vn 0 0 1
vn 0 0 1
vn 0 0 1
vn 0.0001147447 0.0192019 -0.9998156
vn -1 0 0
vn -0.2323253 -0.01873366 0.9724577
vn -0.9999999 -0.000367206 -0.0002729274
vn -0.2323253 -0.01873366 0.9724577
vn -0.2832092 0 0.9590581
vn -0.2832102 0 0.9590579
vn 0 0 -1
vn 0 0 -1
vn 0.001321309 -0.002756937 -0.9999954
vn -0.001654743 0.007904279 -0.9999675
vn -0.0008099918 0.9999964 0.002546371
vn 0 0 1
vn -1 -1.523261E-05 -5.17735E-05
vn -1 7.093943E-05 -0.0003429944
vn -1 -1.523501E-05 -5.176588E-05
vn -1 7.094433E-05 -0.0003430111
vn -0.9912477 0.05079747 -0.1218509
vn -0.9999933 0.002498672 0.002680609
vn -0.9911298 0.05109613 -0.1226819
vn -0.9999933 0.002493124 0.002674701
vn -0.9999993 0.0008239723 -0.000930383
vn -0.9899712 -0.0381458 -0.1360219
vn -0.9999993 0.0008269472 -0.000931861
vn -0.9902867 -0.03751625 -0.1338833
vn -0.7975748 0.09644468 -0.5954602
vn -0.8966338 0.09798826 -0.431794
vn -0.7975748 0.09644469 -0.5954603
vn -0.8989296 0.0979799 -0.426996
vn 0.005124147 0.003255504 -0.9999816
vn 0.005124148 0.003255505 -0.9999816
vn 0.005124147 0.003255505 -0.9999816
vn 0.005124148 0.003255505 -0.9999816
vn -0.0005829312 0.002036886 -0.9999977
vn -0.0005829312 0.002036886 -0.9999977
vn -0.0005829312 0.002036886 -0.9999977
vn -0.0005829312 0.002036886 -0.9999977
vn -0.8945482 -0.07181002 -0.4411652
vn -0.7925137 -0.06448346 -0.6064353
vn -0.8917418 -0.07161304 -0.4468425
vn -0.7925138 -0.06448347 -0.6064353
vn -0.9999933 0.002493124 0.002674701
vn -0.9999933 0.002498672 0.002680609
vn -0.9999993 0.0008269472 -0.000931861
vn -0.9999993 0.0008239723 -0.000930383
vn -0.4449681 0.03558095 -0.8948393
vn -0.4449681 0.03558096 -0.8948393
vn -0.4449681 0.03558095 -0.8948393
vn -0.4449682 0.03558095 -0.8948393
vn -0.4430363 -0.00893092 -0.8964592
vn -0.4430363 -0.00893092 -0.8964592
vn -0.4430363 -0.008930919 -0.8964592
vn -0.4430363 -0.008930919 -0.8964592
vn -1 0 0
vn -1 0 0
vn -0.002089449 0.01886965 -0.9998198
vn -0.003820684 0.01862414 -0.9998193
vn -0.2158175 0.9764338 0
vn -0.2496838 0.9683275 0
vn -0.2832092 0 0.9590581
vn -0.28321 0 0.9590579
vn -0.02483226 0.9889263 -0.1463153
vn -0.1536052 0.9819351 -0.1104937
vn -0.179654 0.9737738 -0.1396023
vn -0.9996319 -0.008465208 -0.02577502
vn -1 -0.0002040164 -0.0001251539
vn -0.9981475 -0.01935287 -0.05767963
vn 0 0 -1
vn 0.0009239193 -0.001927817 -0.9999977
vn 0 0 -1
vn -0.001659046 0.007917715 -0.9999673
vn -0.005929414 0.02125174 -0.9997565
vn -0.0008099918 0.9999964 0.002546371
vn -0.0008099918 0.9999964 0.002546371
vn -0.0008099918 0.9999964 0.002546371
vn -0.0008099918 0.9999964 0.002546372
vn -0.0008099918 0.9999964 0.002546371
vn -0.1702583 0.8814866 -0.4404471
vn -0.06503455 0.5290272 -0.8461092
vn -0.07562439 0.583014 -0.8089349
vn -0.01411996 0.01333868 -0.9998114
vn -0.01412518 0.01462336 -0.9997934
vn -0.05071591 -0.4711278 -0.8806058
vn -0.05787372 -0.5144019 -0.8555942
vn -0.1139068 -0.7734702 -0.6235135
vn -0.1210655 -0.7922747 -0.5980333
vn -0.1418201 -0.8437776 -0.517616
vn -0.1418201 -0.8437776 -0.5176161
vn -0.004602504 0.01848956 -0.9998185
vn -0.004602505 0.01848956 -0.9998185
vn -0.2832122 0.9590573 0
vn -0.2832122 0.9590573 0
vn -0.2832112 0 0.9590576
vn -0.2832112 0 0.9590576
vn -0.2832112 0 0.9590576
vn -0.2832112 0 0.9590576
vn 0 0 1
vn 0 0 1
vn 0 0 1
vn 0 0 1
vn 1 0 0
vn 1 0 0
vn 1 0 0
vn 1 0 0
vn 1 0 0
vn 1 0 0
vn 1 0 0
vn 1 0 0
vn 1 0 0
vn 1 0 0
vn 0 1 0
vn 0 1 0
vn 0 1 0
vn 0 1 0
vn -0.9999996 -0.0007151946 -0.0005320689
vn -0.9999999 -0.0004249293 -0.0003158365
vn -0.9999996 -0.0007151946 -0.0005320689
vn -0.002508878 0.01881676 -0.9998198
vn 0.0001147447 0.0192019 -0.9998156
vn 0.7024047 0.7117779 0
vn 0.7024047 0.7117778 0
vn 0.7024047 0.7117779 0
vn 0.7024047 0.7117779 0
vn 0 1 0
vn 0 1 0
vn 0 1 0
vn 0 1 0
vn 0.5799693 0.0153744 -0.8144932
vn 0.5799693 0.0153744 -0.8144932
vn 0.5799693 0.0153744 -0.8144932
g araba_sag_arka_0
f 58/58/58 149/149/149 150/150/150
f 105/105/105 166/166/166 167/167/167
f 169/169/169 168/168/168 170/170/170
f 222/222/222 221/221/221 223/223/223
f 13/13/13 14/14/14 7/7/7
f 15/15/15 14/14/14 13/13/13
f 17/17/17 15/15/15 13/13/13
f 16/16/16 15/15/15 17/17/17
f 19/19/19 21/21/21 20/20/20
f 22/22/22 21/21/21 19/19/19
f 18/18/18 22/22/22 19/19/19
f 38/38/38 27/27/27 37/37/37
f 36/36/36 38/38/38 37/37/37
f 39/39/39 38/38/38 36/36/36
f 35/35/35 39/39/39 36/36/36
f 41/41/41 43/43/43 42/42/42
f 44/44/44 43/43/43 41/41/41
f 40/40/40 44/44/44 41/41/41
f 120/120/120 119/119/119 121/121/121
f 122/122/122 119/119/119 120/120/120
f 113/113/113 122/122/122 120/120/120
f 111/111/111 122/122/122 113/113/113
f 112/112/112 111/111/111 113/113/113
f 114/114/114 111/111/111 112/112/112
f 131/131/131 132/132/132 134/134/134
f 133/133/133 132/132/132 131/131/131
f 118/118/118 133/133/133 131/131/131
f 116/116/116 133/133/133 118/118/118
f 115/115/115 116/116/116 118/118/118
f 117/117/117 116/116/116 115/115/115
f 124/124/124 123/123/123 125/125/125
f 126/126/126 123/123/123 124/124/124
f 128/128/128 127/127/127 129/129/129
f 130/130/130 127/127/127 128/128/128
f 110/110/110 137/137/137 138/138/138
f 108/108/108 137/137/137 110/110/110
f 107/107/107 108/108/108 110/110/110
f 109/109/109 108/108/108 107/107/107
f 135/135/135 109/109/109 107/107/107
f 136/136/136 109/109/109 135/135/135
f 140/140/140 139/139/139 141/141/141
f 142/142/142 139/139/139 140/140/140
f 144/144/144 143/143/143 145/145/145
f 146/146/146 143/143/143 144/144/144
f 47/47/47 53/53/53 52/52/52
f 48/48/48 53/53/53 47/47/47
f 46/46/46 48/48/48 47/47/47
f 49/49/49 48/48/48 46/46/46
f 45/45/45 49/49/49 46/46/46
f 96/96/96 54/54/54 55/55/55
f 98/98/98 54/54/54 96/96/96
f 147/147/147 95/95/95 148/148/148
f 56/56/56 95/95/95 147/147/147
f 60/60/60 182/182/182 183/183/183
f 57/57/57 182/182/182 60/60/60
f 59/59/59 57/57/57 60/60/60
f 62/62/62 152/152/152 184/184/184
f 151/151/151 152/152/152 62/62/62
f 61/61/61 151/151/151 62/62/62
f 64/64/64 153/153/153 154/154/154
f 63/63/63 153/153/153 64/64/64
f 66/66/66 63/63/63 64/64/64
f 65/65/65 63/63/63 66/66/66
f 100/100/100 65/65/65 66/66/66
f 99/99/99 65/65/65 100/100/100
f 157/157/157 156/156/156 155/155/155
f 67/67/67 156/156/156 157/157/157
f 68/68/68 67/67/67 157/157/157
f 70/70/70 159/159/159 75/75/75
f 74/74/74 159/159/159 70/70/70
f 73/73/73 74/74/74 70/70/70
f 70/70/70 69/69/69 71/71/71
f 158/158/158 69/69/69 70/70/70
f 160/160/160 158/158/158 70/70/70
f 162/162/162 103/103/103 102/102/102
f 101/101/101 162/162/162 102/102/102
f 161/161/161 162/162/162 101/101/101
f 163/163/163 161/161/161 101/101/101
f 104/104/104 103/103/103 162/162/162
f 164/164/164 104/104/104 162/162/162
f 87/87/87 104/104/104 164/164/164
f 165/165/165 87/87/87 164/164/164
f 171/171/171 68/68/68 157/157/157
f 76/76/76 171/171/171 157/157/157
f 172/172/172 171/171/171 76/76/76
f 173/173/173 172/172/172 76/76/76
f 174/174/174 172/172/172 173/173/173
f 175/175/175 174/174/174 173/173/173
f 176/176/176 174/174/174 175/175/175
f 177/177/177 176/176/176 175/175/175
f 178/178/178 176/176/176 177/177/177
f 179/179/179 178/178/178 177/177/177
f 180/180/180 178/178/178 179/179/179
f 181/181/181 180/180/180 179/179/179
f 185/185/185 62/62/62 184/184/184
f 64/64/64 154/154/154 186/186/186
f 187/187/187 64/64/64 186/186/186
f 66/66/66 64/64/64 187/187/187
f 188/188/188 66/66/66 187/187/187
f 100/100/100 66/66/66 188/188/188
f 189/189/189 100/100/100 188/188/188
f 80/80/80 92/92/92 81/81/81
f 88/88/88 92/92/92 80/80/80
f 79/79/79 88/88/88 80/80/80
f 90/90/90 88/88/88 79/79/79
f 78/78/78 90/90/90 79/79/79
f 89/89/89 90/90/90 78/78/78
f 77/77/77 89/89/89 78/78/78
f 93/93/93 89/89/89 77/77/77
f 192/192/192 86/86/86 193/193/193
f 85/85/85 86/86/86 192/192/192
f 190/190/190 85/85/85 192/192/192
f 82/82/82 85/85/85 190/190/190
f 83/83/83 82/82/82 190/190/190
f 84/84/84 106/106/106 91/91/91
f 191/191/191 106/106/106 84/84/84
f 190/190/190 191/191/191 84/84/84
f 201/201/201 202/202/202 203/203/203
f 200/200/200 202/202/202 201/201/201
f 199/199/199 200/200/200 201/201/201
f 198/198/198 200/200/200 199/199/199
f 197/197/197 198/198/198 199/199/199
f 195/195/195 198/198/198 197/197/197
f 194/194/194 195/195/195 197/197/197
f 196/196/196 195/195/195 194/194/194
f 205/205/205 204/204/204 206/206/206
f 207/207/207 204/204/204 205/205/205
f 97/97/97 208/208/208 210/210/210
f 209/209/209 208/208/208 97/97/97
f 51/51/51 209/209/209 97/97/97
f 212/212/212 211/211/211 94/94/94
f 57/57/57 211/211/211 212/212/212
f 214/214/214 213/213/213 215/215/215
f 216/216/216 213/213/213 214/214/214
f 218/218/218 217/217/217 219/219/219
f 220/220/220 217/217/217 218/218/218
f 3/3/3 4/4/4 9/9/9
f 1/1/1 4/4/4 3/3/3
f 2/2/2 1/1/1 3/3/3
f 5/5/5 1/1/1 2/2/2
f 7/7/7 8/8/8 13/13/13
f 5/5/5 8/8/8 7/7/7
f 6/6/6 5/5/5 7/7/7
f 1/1/1 5/5/5 6/6/6
f 11/11/11 12/12/12 18/18/18
f 9/9/9 12/12/12 11/11/11
f 10/10/10 9/9/9 11/11/11
f 3/3/3 9/9/9 10/10/10
f 19/19/19 11/11/11 18/18/18
f 23/23/23 33/33/33 26/26/26
f 25/25/25 23/23/23 26/26/26
f 24/24/24 23/23/23 25/25/25
f 29/29/29 24/24/24 25/25/25
f 27/27/27 38/38/38 30/30/30
f 29/29/29 27/27/27 30/30/30
f 28/28/28 27/27/27 29/29/29
f 25/25/25 28/28/28 29/29/29
f 31/31/31 42/42/42 34/34/34
f 33/33/33 31/31/31 34/34/34
f 32/32/32 31/31/31 33/33/33
f 23/23/23 32/32/32 33/33/33
f 41/41/41 42/42/42 31/31/31
f 50/50/50 51/51/51 97/97/97
f 52/52/52 51/51/51 50/50/50
f 47/47/47 52/52/52 50/50/50
f 72/72/72 70/70/70 71/71/71
f 73/73/73 70/70/70 72/72/72
f 84/84/84 83/83/83 190/190/190
