g araba_sag01
v -0.584029 -1.229506 -0.587717
v -0.4708815 -1.593217 -0.587717
v -0.2178192 -1.748355 -0.587717
v -0.2727341 -1.717982 -0.2091923
v -0.3875939 -1.287255 -0.06861746
v -0.2968286 -1.804523 -0.2936221
v -0.742048 -1.285674 -0.2936221
v -0.6289005 -1.649385 -0.2936221
v -0.5484533 -1.592498 -0.2036327
v -0.6940648 -1.273717 -0.1908109
v -0.8892523 0.2352848 -0.587717
v -1.047271 0.2817906 -0.1773582
v -0.583564 0.1582983 0.1560493
v -1.022196 0.2947878 -0.05246192
v 0.5960128 -1.229506 -0.587717
v 0.4828652 -1.593217 -0.587717
v 0.2298029 -1.748355 -0.587717
v 0.005991891 -1.748355 -0.587717
v 0.005991876 -1.717982 -0.2091923
v 0.005991876 -1.287255 -0.06861746
v 0.005991906 -1.804523 -0.2936221
v 0.9012361 0.2352848 -0.587717
v 0.005991876 0.1582983 0.1560493
v -0.7366407 -0.4971105 -0.587717
v -0.8946596 -0.5019416 -0.2354901
v -0.8581305 -0.4894646 -0.1216364
v -0.4855789 -0.5644785 0.04371589
v 0.7486244 -0.4971105 -0.587717
v 0.005991876 -0.5644785 0.04371589
v -0.584029 -1.229506 -0.587717
v -0.7366407 -0.4971105 -0.587717
v -0.4708815 -1.593217 -0.587717
v -0.6289005 -1.649385 -0.2936221
v -0.742048 -1.285674 -0.2936221
v -0.5484533 -1.592498 -0.2036327
v -0.6289005 -1.649385 -0.2936221
v -0.8946596 -0.5019416 -0.2354901
v -0.6940648 -1.273717 -0.1908109
v -0.8581305 -0.4894646 -0.1216364
v -0.2727341 -1.717982 -0.2091923
v -0.5484533 -1.592498 -0.2036327
v -0.2178192 -1.748355 -0.587717
v -0.6289005 -1.649385 -0.2936221
v -0.2968286 -1.804523 -0.2936221
v -0.4708815 -1.593217 -0.587717
v 0.005991876 -1.717982 -0.2091923
v 0.005991906 -1.804523 -0.2936221
v 0.005991891 -1.748355 -0.587717
v -0.8892523 0.2352848 -0.587717
v -1.047271 0.2817906 -0.1773582
v -1.022196 0.2947878 -0.05246192
vt 0.8468659 0.2904174
vt 0.851941 0.2741032
vt 0.8632922 0.2671445
vt 0.3642116 0.4971499
vt 0.1012352 0.3706393
vt 0.3592788 0.4798647
vt 0.3783699 0.7701259
vt 0.3051602 0.7701259
vt 0.3077642 0.4982882
vt 0.3807766 0.7908202
vt 0.8331752 0.35612
vt 0.6938773 0.793528
vt 0.07265841 0.5814331
vt 0.6964935 0.8186678
vt 0.8997963 0.2904174
vt 0.8947211 0.2741032
vt 0.88337 0.2671445
vt 0.8733311 0.2671445
vt 0.4212745 0.4971499
vt 0.1586287 0.3706393
vt 0.4212746 0.4798647
vt 0.913487 0.35612
vt 0.1586287 0.5814331
vt 0.8400205 0.3232687
vt 0.5361236 0.781827
vt 0.5386351 0.804744
vt 0.08694682 0.4760362
vt 0.9066417 0.3232687
vt 0.1586287 0.4760362
vt 0.3896757 0.7109289
vt 0.5370961 0.7109289
vt 0.316466 0.7109289
vt 0.2912944 0.4798647
vt 0.3783699 0.7701259
vt 0.3166108 0.7882394
vt 0.3051602 0.7701259
vt 0.5361236 0.781827
vt 0.05654499 0.3726135
vt 0.03262057 0.4869749
vt 0.1179843 0.3078299
vt 0.07777832 0.3261282
vt 0.3754542 0.4196554
vt 0.2912944 0.4798647
vt 0.3592788 0.4798647
vt 0.3236453 0.4196554
vt 0.1586287 0.3078299
vt 0.4212746 0.4798647
vt 0.4212745 0.4196554
vt 0.6845165 0.7109289
vt 0.6938773 0.793528
vt 0.008696147 0.6013362
vn 0 0 -1
vn 0 0 -1
vn 0 0 -1
vn -0.1444345 -0.6800403 0.7188073
vn -0.167806 -0.231046 0.9583627
vn -0.1514398 -0.6787728 0.7185635
vn -0.8564906 -0.2100033 -0.4715109
vn -0.7046313 -0.5446085 -0.4548585
vn -0.5280278 -0.501044 0.6856688
vn -0.8326902 -0.2550543 0.4915021
vn 0 0 -1
vn -0.9406797 -0.2115232 0.2652916
vn -0.2632177 -0.1753563 0.9486657
vn -0.9406797 -0.2115232 0.2652917
vn 0 0 -1
vn 0 0 -1
vn 0 0 -1
vn 0 0 -1
vn 0 -0.6983203 0.7157855
vn 0 -0.2326742 0.9725548
vn 0 -0.6983203 0.7157854
vn 0 0 -1
vn 0 -0.1535754 0.9881369
vn 0 0 -1
vn -0.8993436 -0.1655367 -0.404696
vn -0.9243892 -0.2124178 0.3168329
vn -0.2169298 -0.1711827 0.9610608
vn 0 0 -1
vn 0 -0.1535754 0.9881369
vn -0.8574321 -0.2081961 -0.4706002
vn -0.8972092 -0.1649168 -0.409656
vn -0.6616924 -0.6089368 -0.4374463
vn -0.5547051 -0.4802619 0.6794488
vn -0.8298674 -0.2564944 0.4955105
vn -0.5280278 -0.501044 0.6856688
vn -0.5547051 -0.4802619 0.6794488
vn -0.921506 -0.2125041 0.325067
vn -0.345111 -0.2181231 0.912864
vn -0.432056 -0.1815244 0.8833892
vn -0.08486319 -0.3014382 0.9497017
vn -0.2519632 -0.2773168 0.9271516
vn -0.2009388 -0.9441148 -0.2612872
vn -0.7046313 -0.5446085 -0.4548585
vn -0.2582468 -0.9244245 -0.2806205
vn -0.6616924 -0.6089368 -0.4374463
vn 0 -0.3102608 0.9506514
vn 0 -0.9822464 -0.1875955
vn 0 -0.9822464 -0.1875955
vn -0.9136456 -0.1697707 -0.3693637
vn -0.9136456 -0.1697707 -0.3693638
vn -0.4505317 -0.1835682 0.8736841
g araba_sag01_0
f 24/24/24 2/2/2 1/1/1
f 3/3/3 2/2/2 24/24/24
f 18/18/18 3/3/3 24/24/24
f 7/7/7 32/32/32 8/8/8
f 30/30/30 32/32/32 7/7/7
f 25/25/25 30/30/30 7/7/7
f 31/31/31 30/30/30 25/25/25
f 49/49/49 31/31/31 25/25/25
f 4/4/4 6/6/6 21/21/21
f 33/33/33 6/6/6 4/4/4
f 9/9/9 33/33/33 4/4/4
f 26/26/26 14/14/14 12/12/12
f 37/37/37 26/26/26 12/12/12
f 10/10/10 26/26/26 37/37/37
f 34/34/34 10/10/10 37/37/37
f 35/35/35 10/10/10 34/34/34
f 36/36/36 35/35/35 34/34/34
f 40/40/40 38/38/38 41/41/41
f 5/5/5 38/38/38 40/40/40
f 20/20/20 5/5/5 40/40/40
f 27/27/27 5/5/5 20/20/20
f 29/29/29 27/27/27 20/20/20
f 13/13/13 27/27/27 29/29/29
f 23/23/23 13/13/13 29/29/29
f 42/42/42 43/43/43 45/45/45
f 44/44/44 43/43/43 42/42/42
f 47/47/47 44/44/44 42/42/42
f 19/19/19 4/4/4 21/21/21
f 46/46/46 20/20/20 40/40/40
f 48/48/48 47/47/47 42/42/42
f 24/24/24 28/28/28 15/15/15
f 22/22/22 28/28/28 24/24/24
f 11/11/11 22/22/22 24/24/24
f 49/49/49 25/25/25 50/50/50
f 24/24/24 17/17/17 18/18/18
f 16/16/16 17/17/17 24/24/24
f 15/15/15 16/16/16 24/24/24
f 27/27/27 39/39/39 38/38/38
f 51/51/51 39/39/39 27/27/27
f 13/13/13 51/51/51 27/27/27
f 27/27/27 38/38/38 5/5/5
