g arka_tampon
v 1.209725 0.3179455 0.179907
v 1.481242 0.1768007 -0.1989824
v 1.481242 0.217752 0.1792627
v 1.209725 0.276998 -0.1989824
v 1.481242 -0.1386266 -0.1989823
v 1.481242 -0.148478 0.1740153
v 1.172871 0.1292291 0.1989825
v -1.209725 0.276998 -0.1989824
v -1.209725 0.3179455 0.179907
v -1.172871 0.1292291 0.1989825
v -1.481242 0.217752 0.1792627
v -1.481242 -0.148478 0.1740153
v -1.481242 -0.1386266 -0.1989823
v -1.481242 0.1768007 -0.1989824
v -0.9678552 -0.2296553 0.123777
v -1.017817 -0.2458138 0.1253344
v -1.048695 -0.2881179 0.1294119
v -1.048695 -0.3404083 0.1344519
v -1.017817 -0.3827124 0.1385293
v -0.9678552 -0.3988709 0.1400868
v -0.9178936 -0.3827124 0.1385293
v -0.8870156 -0.3404083 0.1344519
v -0.8870156 -0.2881179 0.1294119
v -0.9178936 -0.2458138 0.1253344
v -0.9678552 0.009747505 0.03458667
v -1.017817 -0.007452011 0.02534562
v -1.048695 -0.05248117 0.001152217
v -1.048695 -0.1081395 -0.02875245
v -1.017817 -0.1531687 -0.05294579
v -0.9678552 -0.1703682 -0.06218684
v -0.9178936 -0.1531687 -0.05294579
v -0.8870156 -0.1081395 -0.02875245
v -0.8870156 -0.05248117 0.001152217
v -0.9178936 -0.007452011 0.02534562
v -0.9678552 0.1719356 0.01875043
v -1.017817 0.173162 0.004252434
v -1.048695 0.176374 -0.0346548
v -1.048695 0.1803441 -0.08401608
v -1.017817 0.1835551 -0.1246022
v -0.9678552 0.1847825 -0.1402152
v -0.9178936 0.1835551 -0.1246022
v -0.8870156 0.1803436 -0.08401603
v -0.8870156 0.176374 -0.0346548
v -0.9178936 0.173162 0.004252493
v -0.9678552 0.3723235 0.03268075
v -1.017817 0.3748584 0.01703125
v -1.048695 0.3814955 -0.0241794
v -1.048695 0.3896995 -0.07543713
v -1.017817 0.3963361 -0.1170678
v -0.9678552 0.3988709 -0.1329964
v -0.9178936 0.3963361 -0.1170678
v -0.8870156 0.3896995 -0.07543713
v -0.8870156 0.3814955 -0.0241794
v -0.9178936 0.3748584 0.01703131
v -1.209725 0.3179455 0.179907
v 1.209725 0.3179455 0.179907
v 1.481242 0.217752 0.1792627
v 1.481242 -0.1386266 -0.1989823
v 1.481242 -0.148478 0.1740153
v 1.481242 0.1768007 -0.1989824
v 1.481242 0.217752 0.1792627
v 1.481242 0.1768007 -0.1989824
v 1.209725 0.276998 -0.1989824
v 1.481242 -0.1386266 -0.1989823
v 1.481242 -0.1386266 -0.1989823
v 1.481242 -0.148478 0.1740153
v -1.481242 -0.148478 0.1740153
v -1.481242 -0.1386266 -0.1989823
v -1.481242 0.217752 0.1792627
v -1.481242 -0.148478 0.1740153
v -1.481242 0.1768007 -0.1989824
v -1.481242 0.217752 0.1792627
v -1.481242 0.1768007 -0.1989824
v -1.481242 -0.1386266 -0.1989823
v -1.209725 0.276998 -0.1989824
v 1.481242 -0.148478 0.1740153
v -1.172871 0.1292291 0.1989825
v 1.172871 0.1292291 0.1989825
v -1.481242 -0.148478 0.1740153
v -0.9678552 -0.3988709 0.1400868
v -0.9678552 -0.1703682 -0.06218684
v -0.9678552 0.009747505 0.03458667
v -1.017817 -0.007452011 0.02534562
v -1.048695 -0.05248117 0.001152217
v -1.048695 -0.1081395 -0.02875245
v -1.017817 -0.1531687 -0.05294579
v -0.9678552 -0.1703682 -0.06218684
v -0.9678552 -0.1703682 -0.06218684
v -0.9678552 0.1847825 -0.1402152
v -0.9178936 -0.1531687 -0.05294579
v -0.8870156 -0.1081395 -0.02875245
v -0.8870156 -0.05248117 0.001152217
v -0.9178936 -0.007452011 0.02534562
v -0.9678552 0.3988709 -0.1329964
v -1.017817 0.3963361 -0.1170678
v -0.9678552 0.3988709 -0.1329964
v -0.9178936 0.3963361 -0.1170678
v -1.048695 0.3896995 -0.07543713
v -0.8870156 0.3896995 -0.07543713
v -1.048695 0.3814955 -0.0241794
v -0.8870156 0.3814955 -0.0241794
v -1.017817 0.3748584 0.01703125
v -0.9178936 0.3748584 0.01703131
v -0.9678552 0.3723235 0.03268075
vt 0.2018283 0.5075392
vt 0.219934 0.5328049
vt 0.2779498 0.63163
vt 0.2018283 0.5328049
vt 0.2372656 0.5328049
vt 0.2779498 0.6172577
vt 0.2658481 0.6281561
vt 0.04049069 0.5328049
vt 0.04049069 0.5075392
vt 0.1737915 0.6281561
vt 0.1616898 0.63163
vt 0.1523176 0.6928853
vt 0.1523176 0.6753693
vt 0.02238496 0.5328049
vt 0.4693852 0.3246628
vt 0.4623996 0.3244432
vt 0.4553567 0.3238684
vt 0.4482377 0.3231578
vt 0.4410312 0.322583
vt 0.4337837 0.3223635
vt 0.4972223 0.322583
vt 0.4901661 0.3231578
vt 0.4832236 0.3238684
vt 0.4763185 0.3244432
vt 0.4693791 0.3372367
vt 0.4626019 0.3385395
vt 0.455361 0.3419503
vt 0.4478135 0.3461663
vt 0.4405727 0.349577
vt 0.4337955 0.3508798
vt 0.4976872 0.349577
vt 0.4905812 0.3461663
vt 0.4832194 0.3419503
vt 0.4761134 0.3385395
vt 0.5476238 0.3493055
vt 0.5558729 0.3491527
vt 0.5632994 0.3487529
vt 0.5702437 0.3482588
vt 0.5771632 0.3478589
vt 0.5840786 0.3477063
vt 0.5201839 0.3478589
vt 0.5266336 0.3482588
vt 0.5329652 0.3487529
vt 0.5397375 0.3491527
vt 0.5477259 0.3243598
vt 0.5547935 0.3240443
vt 0.5618983 0.323218
vt 0.5691264 0.3221968
vt 0.5765849 0.3213706
vt 0.5841247 0.3210551
vt 0.5207906 0.3213706
vt 0.5276659 0.3221968
vt 0.5342538 0.323218
vt 0.5408574 0.3240443
vt 0.1723452 0.6355621
vt 0.2672944 0.6355621
vt 0.219934 0.5075821
vt 0.2372656 0.5328049
vt 0.2372656 0.5079321
vt 0.219934 0.5328049
vt 0.219934 0.5075821
vt 0.2771517 0.6497697
vt 0.2668539 0.65357
vt 0.2771517 0.6378065
vt 0.2915856 0.6753693
vt 0.2914366 0.6928853
vt 0.1616898 0.6172577
vt 0.004778291 0.5328049
vt 0.02238496 0.5075821
vt 0.004778291 0.5079321
vt 0.02238496 0.5328049
vt 0.02238496 0.5075821
vt 0.164793 0.6497697
vt 0.164793 0.6378065
vt 0.175091 0.65357
vt 0.2779498 0.6172577
vt 0.1737915 0.6281561
vt 0.2658481 0.6281561
vt 0.1616898 0.6172577
vt 0.5044098 0.3223635
vt 0.5044214 0.3508798
vt 0.5477374 0.3694957
vt 0.5542266 0.3716369
vt 0.5590255 0.3772424
vt 0.5624968 0.3841712
vt 0.5659401 0.3897766
vt 0.5880988 0.3919177
vt 0.517473 0.3919177
vt 0.5134526 0.3477063
vt 0.5305676 0.3897766
vt 0.5337014 0.3841712
vt 0.5369632 0.3772423
vt 0.5414593 0.3716369
vt 0.5134988 0.3210551
vt 0.4861593 0.3498167
vt 0.4684165 0.3440875
vt 0.4506733 0.3498146
vt 0.4971242 0.3647884
vt 0.4397064 0.3647849
vt 0.4971231 0.3832234
vt 0.4397053 0.3832199
vt 0.4861563 0.3980466
vt 0.4506703 0.3980443
vt 0.4684128 0.4036755
vn 0.1726342 0.9792789 -0.1058783
vn 1 0 0
vn 0.05773601 0.02121852 0.9981064
vn 0.1769029 0.9785256 -0.105798
vn 1 0 0
vn 0.06789725 -0.01429342 0.9975899
vn 0.02820669 0.06863565 0.997243
vn -0.176903 0.9785255 -0.105798
vn -0.1726343 0.9792789 -0.1058783
vn -0.02820669 0.06863564 0.997243
vn -0.05773601 0.02121851 0.9981064
vn 0 -0.9996514 -0.02640237
vn 0 -0.9996514 -0.02640237
vn -1 0 0
vn 0 0.3681561 0.929764
vn -0.5252834 0.3466374 0.7771228
vn -0.9862368 0.07173331 0.148967
vn -0.8231122 -0.3458979 -0.4503785
vn -0.4321349 -0.5787433 -0.6916037
vn 0 -0.6518763 -0.7583253
vn 0.4321363 -0.5787428 -0.6916032
vn 0.8231122 -0.3458979 -0.4503785
vn 0.9862368 0.07173333 0.148967
vn 0.5252841 0.3466373 0.7771224
vn 0 0.3681561 0.929764
vn -0.5037621 0.2168754 0.8361751
vn -0.9362209 0.1260467 0.3280283
vn -0.9227772 -0.1340549 -0.3612637
vn -0.5184551 -0.3806709 -0.7656983
vn 0 -0.6518763 -0.7583253
vn 0.5184562 -0.3806705 -0.7656978
vn 0.9227772 -0.1340549 -0.3612638
vn 0.9362209 0.1260467 0.3280283
vn 0.503763 0.2168753 0.8361746
vn 0 0.02254931 0.9997457
vn -0.5513978 0.02681989 0.8338112
vn -0.9481458 0.01218826 0.3176021
vn -0.9357711 -0.03339425 -0.3510232
vn -0.5500879 -0.07246363 -0.8319569
vn 0 -0.08575673 -0.9963161
vn 0.5500895 -0.07246377 -0.8319558
vn 0.9357715 -0.03339481 -0.3510224
vn 0.9481459 0.01218824 0.3176018
vn 0.5513986 0.0268198 0.8338107
vn 0 -0.06628063 0.997801
vn -0.5781598 -0.05103815 0.8143257
vn -0.9535061 -0.01719882 0.3008825
vn -0.9414701 0.01285848 -0.3368511
vn -0.5674136 0.0295258 -0.8229034
vn 0 0.03454085 -0.9994032
vn 0.5674161 0.02952506 -0.8229018
vn 0.9414707 0.01285784 -0.3368492
vn 0.9535062 -0.0171988 0.3008822
vn 0.5781607 -0.05103811 0.814325
vn -0.01862586 0.09694875 0.995115
vn 0.01862583 0.09694876 0.995115
vn 1 0 0
vn 1 0 0
vn 1 0 0
vn 0.3443256 0.9334055 -0.1009658
vn 0.3443255 0.9334055 -0.1009658
vn 0 0 -1
vn 0 0 -1
vn 0 0 -1
vn 0 -0.9996514 -0.02640237
vn 0 -0.9996514 -0.02640237
vn -0.06789725 -0.01429342 0.9975899
vn -1 0 0
vn -1 0 0
vn -1 0 0
vn -0.3443258 0.9334053 -0.1009658
vn -0.3443258 0.9334053 -0.1009658
vn 0 0 -1
vn 0 0 -1
vn 0 0 -1
vn 0 -0.08954334 0.9959829
vn 0 -0.08954334 0.9959829
vn 0 -0.08954334 0.9959829
vn 0 -0.08954334 0.9959829
vn 0 -0.6518763 -0.7583253
vn 0 -0.6518763 -0.7583253
vn 0 0.1071083 0.9942473
vn -0.5037621 0.2168754 0.8361751
vn -0.9362209 0.1260467 0.3280283
vn -0.9227772 -0.1340549 -0.3612637
vn -0.5184551 -0.3806709 -0.7656983
vn 0 -0.2114546 -0.9773878
vn 0 -0.2114546 -0.9773878
vn 0 -0.08575673 -0.9963161
vn 0.5184562 -0.3806705 -0.7656978
vn 0.9227772 -0.1340549 -0.3612638
vn 0.9362209 0.1260467 0.3280283
vn 0.503763 0.2168753 0.8361746
vn 0 0.03454085 -0.9994032
vn 0 0.9874123 0.1581674
vn 0 0.9874123 0.1581674
vn 0 0.9874123 0.1581674
vn 0 0.9874123 0.1581674
vn 0 0.9874123 0.1581674
vn 0 0.9874123 0.1581674
vn 0 0.9874123 0.1581674
vn 0 0.9874123 0.1581674
vn 0 0.9874123 0.1581674
vn 0 0.9874123 0.1581674
g arka_tampon_0
f 57/57/57 5/5/5 2/2/2
f 59/59/59 58/58/58 57/57/57
f 7/7/7 56/56/56 55/55/55
f 3/3/3 56/56/56 7/7/7
f 6/6/6 3/3/3 7/7/7
f 9/9/9 8/8/8 71/71/71
f 4/4/4 8/8/8 9/9/9
f 1/1/1 4/4/4 9/9/9
f 60/60/60 4/4/4 1/1/1
f 61/61/61 60/60/60 1/1/1
f 75/75/75 74/74/74 73/73/73
f 64/64/64 74/74/74 75/75/75
f 63/63/63 64/64/64 75/75/75
f 62/62/62 64/64/64 63/63/63
f 12/12/12 65/65/65 66/66/66
f 13/13/13 65/65/65 12/12/12
f 10/10/10 11/11/11 67/67/67
f 55/55/55 11/11/11 10/10/10
f 7/7/7 55/55/55 10/10/10
f 69/69/69 68/68/68 70/70/70
f 14/14/14 68/68/68 69/69/69
f 9/9/9 71/71/71 72/72/72
f 77/77/77 76/76/76 78/78/78
f 79/79/79 76/76/76 77/77/77
f 31/31/31 80/80/80 81/81/81
f 21/21/21 80/80/80 31/31/31
f 32/32/32 21/21/21 31/31/31
f 22/22/22 21/21/21 32/32/32
f 33/33/33 22/22/22 32/32/32
f 23/23/23 22/22/22 33/33/33
f 34/34/34 23/23/23 33/33/33
f 24/24/24 23/23/23 34/34/34
f 25/25/25 24/24/24 34/34/34
f 15/15/15 24/24/24 25/25/25
f 26/26/26 15/15/15 25/25/25
f 16/16/16 15/15/15 26/26/26
f 27/27/27 16/16/16 26/26/26
f 17/17/17 16/16/16 27/27/27
f 28/28/28 17/17/17 27/27/27
f 18/18/18 17/17/17 28/28/28
f 29/29/29 18/18/18 28/28/28
f 19/19/19 18/18/18 29/29/29
f 30/30/30 19/19/19 29/29/29
f 20/20/20 19/19/19 30/30/30
f 41/41/41 88/88/88 89/89/89
f 90/90/90 88/88/88 41/41/41
f 42/42/42 90/90/90 41/41/41
f 91/91/91 90/90/90 42/42/42
f 43/43/43 91/91/91 42/42/42
f 92/92/92 91/91/91 43/43/43
f 44/44/44 92/92/92 43/43/43
f 93/93/93 92/92/92 44/44/44
f 35/35/35 93/93/93 44/44/44
f 82/82/82 93/93/93 35/35/35
f 36/36/36 82/82/82 35/35/35
f 83/83/83 82/82/82 36/36/36
f 37/37/37 83/83/83 36/36/36
f 84/84/84 83/83/83 37/37/37
f 38/38/38 84/84/84 37/37/37
f 85/85/85 84/84/84 38/38/38
f 39/39/39 85/85/85 38/38/38
f 86/86/86 85/85/85 39/39/39
f 40/40/40 86/86/86 39/39/39
f 87/87/87 86/86/86 40/40/40
f 39/39/39 50/50/50 40/40/40
f 49/49/49 50/50/50 39/39/39
f 38/38/38 49/49/49 39/39/39
f 48/48/48 49/49/49 38/38/38
f 37/37/37 48/48/48 38/38/38
f 47/47/47 48/48/48 37/37/37
f 36/36/36 47/47/47 37/37/37
f 46/46/46 47/47/47 36/36/36
f 35/35/35 46/46/46 36/36/36
f 45/45/45 46/46/46 35/35/35
f 44/44/44 45/45/45 35/35/35
f 54/54/54 45/45/45 44/44/44
f 43/43/43 54/54/54 44/44/44
f 53/53/53 54/54/54 43/43/43
f 42/42/42 53/53/53 43/43/43
f 52/52/52 53/53/53 42/42/42
f 41/41/41 52/52/52 42/42/42
f 51/51/51 52/52/52 41/41/41
f 89/89/89 51/51/51 41/41/41
f 94/94/94 51/51/51 89/89/89
f 102/102/102 104/104/104 103/103/103
f 101/101/101 102/102/102 103/103/103
f 100/100/100 102/102/102 101/101/101
f 99/99/99 100/100/100 101/101/101
f 98/98/98 100/100/100 99/99/99
f 97/97/97 98/98/98 99/99/99
f 95/95/95 98/98/98 97/97/97
f 96/96/96 95/95/95 97/97/97
