g arka_tampon01
v 1.209725 0.1116695 0.179907
v 1.481242 -0.02947521 -0.1989824
v 1.481242 0.01147604 0.1792627
v 1.209725 0.0707221 -0.1989824
v 1.481242 -0.3449025 -0.1989823
v 1.481242 -0.354754 0.1740153
v 1.172871 -0.07704687 0.1989825
v -1.209725 0.0707221 -0.1989824
v -1.209725 0.1116695 0.179907
v -1.172871 -0.07704687 0.1989825
v -1.481242 0.01147604 0.1792627
v -1.481242 -0.354754 0.1740153
v -1.481242 -0.3449025 -0.1989823
v -1.481242 -0.02947521 -0.1989824
v 1.429666 -0.06620407 -0.004683912
v 1.407699 -0.06620407 0.04834914
v 1.354666 -0.06620407 0.07031611
v 1.301633 -0.06620407 0.04834914
v 1.279666 -0.06620407 -0.004683912
v 1.301633 -0.06620407 -0.05771691
v 1.354666 -0.06620407 -0.0796839
v 1.407699 -0.06620407 -0.05771691
v 1.429667 0.08972931 -0.004683912
v 1.4077 0.08680773 0.04834911
v 1.354666 0.07975388 0.07031611
v 1.301633 0.0727005 0.04834911
v 1.279666 0.06977892 -0.004683912
v 1.301633 0.0727005 -0.05771697
v 1.354666 0.07975388 -0.0796839
v 1.4077 0.08680773 -0.05771691
v 1.394505 0.219552 -0.004683912
v 1.374832 0.208159 0.04834908
v 1.327338 0.1806536 0.07031608
v 1.279844 0.1531482 0.04834908
v 1.260171 0.1417546 -0.004683912
v 1.279844 0.1531482 -0.05771697
v 1.327338 0.1806536 -0.0796839
v 1.374832 0.208159 -0.05771691
v 1.294465 0.3195925 -0.004683912
v 1.283072 0.2999201 0.04834908
v 1.255566 0.2524261 0.07031608
v 1.22806 0.2049317 0.04834908
v 1.216667 0.1852593 -0.004683912
v 1.22806 0.2049317 -0.05771697
v 1.255566 0.2524261 -0.0796839
v 1.283072 0.2999201 -0.05771697
v 1.164644 0.354754 -0.004683912
v 1.161721 0.332787 0.04834908
v 1.154666 0.2797542 0.07031608
v 1.147611 0.2267208 0.04834908
v 1.144689 0.2047539 -0.004683912
v 1.147611 0.2267213 -0.05771697
v 1.154666 0.2797542 -0.0796839
v 1.161721 0.332787 -0.05771697
v -1.129569 0.354754 -0.004683912
v -1.126647 0.332787 0.04834908
v -1.119591 0.2797542 0.07031608
v -1.112536 0.2267208 0.04834908
v -1.109614 0.2047539 -0.004683912
v -1.112537 0.2267208 -0.05771697
v -1.119591 0.2797542 -0.0796839
v -1.126647 0.332787 -0.05771697
v -1.25939 0.3195925 -0.004683912
v -1.247997 0.2999201 0.04834908
v -1.220491 0.2524261 0.07031608
v -1.192985 0.2049317 0.04834908
v -1.181592 0.1852593 -0.004683912
v -1.192985 0.2049317 -0.05771697
v -1.220491 0.2524261 -0.0796839
v -1.247997 0.2999201 -0.05771697
v -1.359431 0.219552 -0.004683912
v -1.339758 0.208159 0.04834908
v -1.292264 0.1806536 0.07031608
v -1.244769 0.1531482 0.04834908
v -1.225096 0.1417551 -0.004683912
v -1.244769 0.1531482 -0.05771697
v -1.292264 0.1806536 -0.0796839
v -1.339758 0.208159 -0.05771691
v -1.394592 0.08972931 -0.004683912
v -1.372625 0.08680773 0.04834911
v -1.319592 0.07975388 0.07031611
v -1.266558 0.0727005 0.04834911
v -1.244591 0.06977892 -0.004683912
v -1.266558 0.0727005 -0.05771697
v -1.319592 0.07975388 -0.0796839
v -1.372625 0.08680773 -0.05771691
v -1.394592 -0.06620407 -0.004683912
v -1.372624 -0.06620407 0.04834914
v -1.319592 -0.06620407 0.07031611
v -1.266559 -0.06620407 0.04834914
v -1.244592 -0.06620407 -0.004683912
v -1.266559 -0.06620407 -0.05771691
v -1.319592 -0.06620407 -0.0796839
v -1.372624 -0.06620407 -0.05771691
v -1.209725 0.1116695 0.179907
v 1.209725 0.1116695 0.179907
v 1.481242 0.01147604 0.1792627
v 1.481242 -0.3449025 -0.1989823
v 1.481242 -0.354754 0.1740153
v 1.481242 -0.02947521 -0.1989824
v 1.481242 0.01147604 0.1792627
v 1.481242 -0.02947521 -0.1989824
v 1.209725 0.0707221 -0.1989824
v 1.481242 -0.3449025 -0.1989823
v 1.481242 -0.3449025 -0.1989823
v 1.481242 -0.354754 0.1740153
v -1.481242 -0.354754 0.1740153
v -1.481242 -0.3449025 -0.1989823
v -1.481242 0.01147604 0.1792627
v -1.481242 -0.354754 0.1740153
v -1.481242 -0.02947521 -0.1989824
v -1.481242 0.01147604 0.1792627
v -1.481242 -0.02947521 -0.1989824
v -1.481242 -0.3449025 -0.1989823
v -1.209725 0.0707221 -0.1989824
v 1.481242 -0.354754 0.1740153
v -1.172871 -0.07704687 0.1989825
v 1.172871 -0.07704687 0.1989825
v -1.481242 -0.354754 0.1740153
v 1.407699 -0.06620407 0.04834914
v 1.4077 0.08680773 0.04834911
v 1.354666 -0.06620407 0.07031611
v 1.354666 0.07975388 0.07031611
v 1.301633 -0.06620407 0.04834914
v 1.301633 0.0727005 0.04834911
v 1.279666 -0.06620407 -0.004683912
v 1.279666 0.06977892 -0.004683912
v 1.301633 -0.06620407 -0.05771691
v 1.301633 0.0727005 -0.05771697
v 1.354666 -0.06620407 -0.0796839
v 1.354666 0.07975388 -0.0796839
v 1.407699 -0.06620407 -0.05771691
v 1.429667 0.08972931 -0.004683912
v 1.4077 0.08680773 -0.05771691
v 1.429666 -0.06620407 -0.004683912
v 1.374832 0.208159 0.04834908
v 1.327338 0.1806536 0.07031608
v 1.301633 0.0727005 0.04834911
v 1.279844 0.1531482 0.04834908
v 1.279666 0.06977892 -0.004683912
v 1.260171 0.1417546 -0.004683912
v 1.279844 0.1531482 -0.05771697
v 1.327338 0.1806536 -0.0796839
v 1.394505 0.219552 -0.004683912
v 1.374832 0.208159 -0.05771691
v 1.283072 0.2999201 0.04834908
v 1.255566 0.2524261 0.07031608
v 1.22806 0.2049317 0.04834908
v 1.216667 0.1852593 -0.004683912
v 1.22806 0.2049317 -0.05771697
v 1.255566 0.2524261 -0.0796839
v 1.294465 0.3195925 -0.004683912
v 1.283072 0.2999201 -0.05771697
v 1.294465 0.3195925 -0.004683912
v 1.161721 0.332787 0.04834908
v 1.154666 0.2797542 0.07031608
v 1.147611 0.2267208 0.04834908
v 1.144689 0.2047539 -0.004683912
v 1.147611 0.2267213 -0.05771697
v 1.154666 0.2797542 -0.0796839
v 1.164644 0.354754 -0.004683912
v 1.161721 0.332787 -0.05771697
v 1.294465 0.3195925 -0.004683912
v -1.126647 0.332787 0.04834908
v -1.119591 0.2797542 0.07031608
v 1.147611 0.2267208 0.04834908
v -1.112536 0.2267208 0.04834908
v 1.144689 0.2047539 -0.004683912
v -1.109614 0.2047539 -0.004683912
v -1.112537 0.2267208 -0.05771697
v -1.119591 0.2797542 -0.0796839
v -1.129569 0.354754 -0.004683912
v -1.126647 0.332787 -0.05771697
v -1.247997 0.2999201 0.04834908
v -1.220491 0.2524261 0.07031608
v -1.112536 0.2267208 0.04834908
v -1.192985 0.2049317 0.04834908
v -1.109614 0.2047539 -0.004683912
v -1.181592 0.1852593 -0.004683912
v -1.192985 0.2049317 -0.05771697
v -1.220491 0.2524261 -0.0796839
v -1.25939 0.3195925 -0.004683912
v -1.247997 0.2999201 -0.05771697
v -1.25939 0.3195925 -0.004683912
v -1.339758 0.208159 0.04834908
v -1.292264 0.1806536 0.07031608
v -1.244769 0.1531482 0.04834908
v -1.225096 0.1417551 -0.004683912
v -1.244769 0.1531482 -0.05771697
v -1.292264 0.1806536 -0.0796839
v -1.359431 0.219552 -0.004683912
v -1.339758 0.208159 -0.05771691
v -1.25939 0.3195925 -0.004683912
v -1.372625 0.08680773 0.04834911
v -1.319592 0.07975388 0.07031611
v -1.266558 0.0727005 0.04834911
v -1.244591 0.06977892 -0.004683912
v -1.266558 0.0727005 -0.05771697
v -1.319592 0.07975388 -0.0796839
v -1.394592 0.08972931 -0.004683912
v -1.372625 0.08680773 -0.05771691
v -1.372624 -0.06620407 0.04834914
v -1.319592 -0.06620407 0.07031611
v -1.266558 0.0727005 0.04834911
v -1.266559 -0.06620407 0.04834914
v -1.244591 0.06977892 -0.004683912
v -1.244592 -0.06620407 -0.004683912
v -1.266559 -0.06620407 -0.05771691
v -1.319592 -0.06620407 -0.0796839
v -1.394592 -0.06620407 -0.004683912
v -1.372624 -0.06620407 -0.05771691
vt 0.2018283 0.5075392
vt 0.219934 0.5328049
vt 0.2779498 0.63163
vt 0.2018283 0.5328049
vt 0.2372656 0.5328049
vt 0.2779498 0.6172577
vt 0.2658481 0.6281561
vt 0.04049069 0.5328049
vt 0.04049069 0.5075392
vt 0.1737915 0.6281561
vt 0.1616898 0.63163
vt 0.1523176 0.6928853
vt 0.1523176 0.6753693
vt 0.02238496 0.5328049
vt 0.4251064 0.3155571
vt 0.4237592 0.3155571
vt 0.4205065 0.3155571
vt 0.4172539 0.3155571
vt 0.4159066 0.3155571
vt 0.4172539 0.3155571
vt 0.4205065 0.3155571
vt 0.4237592 0.3155571
vt 0.4251064 0.3251208
vt 0.4237592 0.3249417
vt 0.4205065 0.324509
vt 0.4172539 0.3240764
vt 0.4159066 0.3238972
vt 0.4172539 0.3240764
vt 0.4205065 0.324509
vt 0.4237592 0.3249417
vt 0.4229499 0.3330831
vt 0.4217433 0.3323844
vt 0.4188305 0.3306974
vt 0.4159175 0.3290105
vt 0.4147109 0.3283117
vt 0.4159175 0.3290105
vt 0.4188305 0.3306974
vt 0.4217433 0.3323844
vt 0.4168142 0.3392189
vt 0.4161155 0.3380123
vt 0.4144285 0.3350994
vt 0.4127415 0.3321865
vt 0.4120427 0.3309799
vt 0.4127415 0.3321865
vt 0.4144285 0.3350994
vt 0.4161155 0.3380123
vt 0.408852 0.3413754
vt 0.4086728 0.3400281
vt 0.4082401 0.3367755
vt 0.4078074 0.3335228
vt 0.4076282 0.3321755
vt 0.4078074 0.3335228
vt 0.4082401 0.3367755
vt 0.4086728 0.3400281
vt 0.2681431 0.3413754
vt 0.2683223 0.3400281
vt 0.268755 0.3367755
vt 0.2691877 0.3335228
vt 0.269367 0.3321755
vt 0.2691877 0.3335228
vt 0.268755 0.3367755
vt 0.2683223 0.3400281
vt 0.2601809 0.3392189
vt 0.2608797 0.3380123
vt 0.2625666 0.3350994
vt 0.2642537 0.3321865
vt 0.2649524 0.3309799
vt 0.2642537 0.3321865
vt 0.2625666 0.3350994
vt 0.2608797 0.3380123
vt 0.2540452 0.3330831
vt 0.2552518 0.3323844
vt 0.2581647 0.3306974
vt 0.2610776 0.3290105
vt 0.2622842 0.3283117
vt 0.2610776 0.3290105
vt 0.2581647 0.3306974
vt 0.2552518 0.3323844
vt 0.2518887 0.3251208
vt 0.253236 0.3249417
vt 0.2564886 0.324509
vt 0.2597412 0.3240764
vt 0.2610886 0.3238972
vt 0.2597412 0.3240764
vt 0.2564886 0.324509
vt 0.253236 0.3249417
vt 0.2518887 0.3155571
vt 0.253236 0.3155571
vt 0.2564886 0.3155571
vt 0.2597412 0.3155571
vt 0.2610886 0.3155571
vt 0.2597412 0.3155571
vt 0.2564886 0.3155571
vt 0.253236 0.3155571
vt 0.1723452 0.6355621
vt 0.2672944 0.6355621
vt 0.219934 0.5075821
vt 0.2372656 0.5328049
vt 0.2372656 0.5079321
vt 0.219934 0.5328049
vt 0.219934 0.5075821
vt 0.2771517 0.6497697
vt 0.2668539 0.65357
vt 0.2771517 0.6378065
vt 0.2915856 0.6753693
vt 0.2914366 0.6928853
vt 0.1616898 0.6172577
vt 0.004778291 0.5328049
vt 0.02238496 0.5075821
vt 0.004778291 0.5079321
vt 0.02238496 0.5328049
vt 0.02238496 0.5075821
vt 0.164793 0.6497697
vt 0.164793 0.6378065
vt 0.175091 0.65357
vt 0.2779498 0.6172577
vt 0.1737915 0.6281561
vt 0.2658481 0.6281561
vt 0.1616898 0.6172577
vt 0.4237592 0.3155571
vt 0.4237592 0.3249417
vt 0.4205065 0.3155571
vt 0.4205065 0.324509
vt 0.4172539 0.3155571
vt 0.4172539 0.3240764
vt 0.4159066 0.3155571
vt 0.4159066 0.3238972
vt 0.4172539 0.3155571
vt 0.4172539 0.3240764
vt 0.4205065 0.3155571
vt 0.4205065 0.324509
vt 0.4237592 0.3155571
vt 0.4251064 0.3251208
vt 0.4237592 0.3249417
vt 0.4251064 0.3155571
vt 0.4217433 0.3323844
vt 0.4188305 0.3306974
vt 0.4172539 0.3240764
vt 0.4159175 0.3290105
vt 0.4159066 0.3238972
vt 0.4147109 0.3283117
vt 0.4159175 0.3290105
vt 0.4188305 0.3306974
vt 0.4229499 0.3330831
vt 0.4217433 0.3323844
vt 0.4161155 0.3380123
vt 0.4144285 0.3350994
vt 0.4127415 0.3321865
vt 0.4120427 0.3309799
vt 0.4127415 0.3321865
vt 0.4144285 0.3350994
vt 0.4168142 0.3392189
vt 0.4161155 0.3380123
vt 0.4168142 0.3392189
vt 0.4086728 0.3400281
vt 0.4082401 0.3367755
vt 0.4078074 0.3335228
vt 0.4076282 0.3321755
vt 0.4078074 0.3335228
vt 0.4082401 0.3367755
vt 0.408852 0.3413754
vt 0.4086728 0.3400281
vt 0.4168142 0.3392189
vt 0.2683223 0.3400281
vt 0.268755 0.3367755
vt 0.4078074 0.3335228
vt 0.2691877 0.3335228
vt 0.4076282 0.3321755
vt 0.269367 0.3321755
vt 0.2691877 0.3335228
vt 0.268755 0.3367755
vt 0.2681431 0.3413754
vt 0.2683223 0.3400281
vt 0.2608797 0.3380123
vt 0.2625666 0.3350994
vt 0.2691877 0.3335228
vt 0.2642537 0.3321865
vt 0.269367 0.3321755
vt 0.2649524 0.3309799
vt 0.2642537 0.3321865
vt 0.2625666 0.3350994
vt 0.2601809 0.3392189
vt 0.2608797 0.3380123
vt 0.2601809 0.3392189
vt 0.2552518 0.3323844
vt 0.2581647 0.3306974
vt 0.2610776 0.3290105
vt 0.2622842 0.3283117
vt 0.2610776 0.3290105
vt 0.2581647 0.3306974
vt 0.2540452 0.3330831
vt 0.2552518 0.3323844
vt 0.2601809 0.3392189
vt 0.253236 0.3249417
vt 0.2564886 0.324509
vt 0.2597412 0.3240764
vt 0.2610886 0.3238972
vt 0.2597412 0.3240764
vt 0.2564886 0.324509
vt 0.2518887 0.3251208
vt 0.253236 0.3249417
vt 0.253236 0.3155571
vt 0.2564886 0.3155571
vt 0.2597412 0.3240764
vt 0.2597412 0.3155571
vt 0.2610886 0.3238972
vt 0.2610886 0.3155571
vt 0.2597412 0.3155571
vt 0.2564886 0.3155571
vt 0.2518887 0.3155571
vt 0.253236 0.3155571
vn 0.1726342 0.9792789 -0.1058783
vn 1 0 0
vn 0.05773601 0.02121852 0.9981064
vn 0.1769029 0.9785256 -0.105798
vn 1 0 0
vn 0.06789725 -0.01429342 0.9975899
vn 0.02820669 0.06863565 0.997243
vn -0.176903 0.9785255 -0.105798
vn -0.1726343 0.9792789 -0.1058783
vn -0.02820669 0.06863564 0.997243
vn -0.05773601 0.02121851 0.9981064
vn 0 -0.9996514 -0.02640237
vn 0 -0.9996514 -0.02640237
vn -1 0 0
vn 0.9238796 0 0.3826832
vn 0.9238796 0 0.3826833
vn 0.3826823 0 0.92388
vn -0.3826829 0 0.9238797
vn -0.9238788 0 0.382685
vn -0.9238788 0 -0.3826852
vn -0.3826827 0 -0.9238798
vn 0.3826825 0 -0.9238799
vn 0.9146283 0.1216667 0.3855546
vn 0.914628 0.1216681 0.3855546
vn 0.3765078 0.05008562 0.9250585
vn -0.3765086 -0.05008661 0.9250582
vn -0.9146262 -0.1216738 0.385557
vn -0.9146267 -0.121672 -0.3855569
vn -0.3765082 -0.05008515 -0.9250584
vn 0.3765081 0.05008446 -0.9250585
vn 0.7953553 0.4606284 0.3939943
vn 0.7953544 0.4606299 0.3939942
vn 0.3215516 0.1862278 0.9283985
vn -0.3215512 -0.1862284 0.9283985
vn -0.7953515 -0.4606328 0.3939966
vn -0.7953517 -0.4606328 -0.3939962
vn -0.3215514 -0.1862264 -0.9283988
vn 0.3215524 0.186226 -0.9283986
vn 0.4606306 0.7953541 0.3939938
vn 0.4606312 0.7953538 0.3939938
vn 0.1862279 0.321552 0.9283983
vn -0.186227 -0.3215504 0.928399
vn -0.4606299 -0.795354 0.3939951
vn -0.4606304 -0.795353 -0.3939963
vn -0.1862264 -0.3215508 -0.9283991
vn 0.1862271 0.3215516 -0.9283986
vn 0.1216693 0.9146282 0.3855539
vn 0.121669 0.9146283 0.3855539
vn 0.05008522 0.3765096 0.9250579
vn -0.05008501 -0.3765067 0.925059
vn -0.1216685 -0.9146283 0.3855539
vn -0.1216699 -0.9146268 -0.3855571
vn -0.05008569 -0.3765071 -0.9250588
vn 0.05008532 0.3765087 -0.9250582
vn -0.1216691 0.9146283 0.3855535
vn -0.1216694 0.9146283 0.3855535
vn -0.05008518 0.3765095 0.9250579
vn 0.05008492 -0.3765067 0.9250591
vn 0.1216688 -0.9146284 0.3855535
vn 0.1216691 -0.9146277 -0.3855551
vn 0.05008503 -0.3765066 -0.9250591
vn -0.05008541 0.3765087 -0.9250582
vn -0.46063 0.795355 0.3939928
vn -0.4606309 0.7953546 0.3939928
vn -0.1862276 0.3215521 0.9283984
vn 0.1862267 -0.3215509 0.928399
vn 0.4606284 -0.7953558 0.3939933
vn 0.460628 -0.7953561 -0.393993
vn 0.1862256 -0.3215506 -0.9283993
vn -0.1862269 0.3215517 -0.9283986
vn -0.7953549 0.4606292 0.3939941
vn -0.7953541 0.4606305 0.3939941
vn -0.3215514 0.1862281 0.9283985
vn 0.3215508 -0.1862287 0.9283986
vn 0.7953508 -0.460635 0.3939957
vn 0.7953522 -0.4606327 -0.3939953
vn 0.3215511 -0.1862267 -0.9283989
vn -0.3215522 0.186226 -0.9283986
vn -0.9146273 0.1216662 0.3855572
vn -0.914627 0.1216677 0.3855572
vn -0.376509 0.0500855 0.9250581
vn 0.3765079 -0.05008652 0.9250585
vn 0.9146267 -0.121673 0.3855565
vn 0.914627 -0.1216713 -0.3855564
vn 0.3765075 -0.05008503 -0.9250587
vn -0.3765092 0.0500844 -0.925058
vn -0.9238778 0 0.3826876
vn -0.9238778 0 0.3826877
vn -0.3826841 0 0.9238792
vn 0.3826818 0 0.9238801
vn 0.9238792 0 0.3826842
vn 0.9238792 0 -0.3826843
vn 0.3826816 0 -0.9238803
vn -0.3826843 0 -0.9238791
vn -0.01862586 0.09694875 0.995115
vn 0.01862583 0.09694876 0.995115
vn 1 0 0
vn 1 0 0
vn 1 0 0
vn 0.3443256 0.9334055 -0.1009658
vn 0.3443255 0.9334055 -0.1009658
vn 0 0 -1
vn 0 0 -1
vn 0 0 -1
vn 0 -0.9996514 -0.02640237
vn 0 -0.9996514 -0.02640237
vn -0.06789725 -0.01429342 0.9975899
vn -1 0 0
vn -1 0 0
vn -1 0 0
vn -0.3443258 0.9334053 -0.1009658
vn -0.3443258 0.9334053 -0.1009658
vn 0 0 -1
vn 0 0 -1
vn 0 0 -1
vn 0 -0.08954334 0.9959829
vn 0 -0.08954334 0.9959829
vn 0 -0.08954334 0.9959829
vn 0 -0.08954334 0.9959829
vn 0.3826822 0 0.92388
vn 0.3765079 0.05008462 0.9250585
vn -0.3826829 0 0.9238797
vn -0.3765088 -0.05008498 0.9250582
vn -0.9238788 0 0.382685
vn -0.9146265 -0.1216718 0.385557
vn -0.9238788 0 -0.3826851
vn -0.9146264 -0.1216739 -0.385557
vn -0.3826827 0 -0.9238798
vn -0.376508 -0.05008677 -0.9250584
vn 0.3826825 0 -0.9238799
vn 0.376508 0.05008546 -0.9250585
vn 0.9238795 0 -0.3826835
vn 0.9146282 0.1216667 -0.3855548
vn 0.914628 0.1216681 -0.3855548
vn 0.9238795 0 -0.3826835
vn 0.3215525 0.1862263 0.9283985
vn -0.3215522 -0.1862267 0.9283985
vn -0.9146265 -0.1216718 0.385557
vn -0.7953516 -0.4606326 0.3939966
vn -0.9146262 -0.1216738 0.385557
vn -0.7953516 -0.460633 -0.3939963
vn -0.3215504 -0.1862282 -0.9283988
vn 0.3215515 0.1862274 -0.9283986
vn 0.7953553 0.4606284 -0.3939942
vn 0.7953544 0.46063 -0.3939942
vn 0.1862274 0.3215523 0.9283983
vn -0.1862261 -0.321551 0.928399
vn -0.4606296 -0.7953541 0.3939951
vn -0.460631 -0.7953527 -0.3939964
vn -0.1862274 -0.3215501 -0.9283991
vn 0.1862277 0.3215513 -0.9283986
vn 0.4606308 0.7953542 -0.3939935
vn 0.4606312 0.795354 -0.3939936
vn 0.4606306 0.7953541 0.3939938
vn 0.05008546 0.3765096 0.9250579
vn -0.05008515 -0.3765067 0.925059
vn -0.1216689 -0.9146283 0.3855539
vn -0.1216697 -0.9146268 -0.3855571
vn -0.05008555 -0.3765071 -0.9250588
vn 0.0500851 0.3765087 -0.9250582
vn 0.1216694 0.9146283 -0.3855535
vn 0.121669 0.9146283 -0.3855535
vn 0.4606308 0.7953542 -0.3939935
vn -0.05008553 0.3765095 0.9250579
vn 0.05008518 -0.3765067 0.925059
vn -0.1216689 -0.9146283 0.3855539
vn 0.1216685 -0.9146284 0.3855535
vn -0.1216685 -0.9146283 0.3855539
vn 0.1216687 -0.9146277 -0.3855551
vn 0.05008504 -0.3765066 -0.9250591
vn -0.05008506 0.3765087 -0.9250582
vn -0.1216691 0.9146286 -0.3855532
vn -0.1216694 0.9146286 -0.3855532
vn -0.1862271 0.3215524 0.9283984
vn 0.1862259 -0.3215513 0.928399
vn 0.1216685 -0.9146284 0.3855535
vn 0.4606279 -0.7953561 0.3939933
vn 0.1216688 -0.9146284 0.3855535
vn 0.4606286 -0.7953557 -0.3939931
vn 0.1862263 -0.3215501 -0.9283993
vn -0.1862273 0.3215514 -0.9283986
vn -0.4606302 0.7953551 -0.3939925
vn -0.460631 0.7953547 -0.3939925
vn -0.46063 0.795355 0.3939928
vn -0.3215523 0.1862264 0.9283985
vn 0.3215518 -0.1862269 0.9283986
vn 0.7953522 -0.4606325 0.3939956
vn 0.7953509 -0.4606352 -0.3939953
vn 0.32155 -0.1862284 -0.9283989
vn -0.3215513 0.1862276 -0.9283986
vn -0.7953549 0.4606291 -0.3939941
vn -0.7953541 0.4606305 -0.3939941
vn -0.4606302 0.7953551 -0.3939925
vn -0.3765091 0.05008457 0.9250581
vn 0.3765081 -0.05008486 0.9250585
vn 0.914627 -0.1216711 0.3855565
vn 0.9146267 -0.1216731 -0.3855564
vn 0.3765073 -0.05008668 -0.9250587
vn -0.3765091 0.05008534 -0.925058
vn -0.9146271 0.1216662 -0.3855574
vn -0.914627 0.1216677 -0.3855574
vn -0.3826841 0 0.9238793
vn 0.3826818 0 0.9238801
vn 0.914627 -0.1216711 0.3855565
vn 0.9238792 0 0.3826842
vn 0.9146267 -0.121673 0.3855565
vn 0.9238792 0 -0.3826843
vn 0.3826816 0 -0.9238803
vn -0.3826843 0 -0.9238791
vn -0.9238777 0 -0.3826879
vn -0.9238777 0 -0.3826879
g arka_tampon01_0
f 97/97/97 5/5/5 2/2/2
f 99/99/99 98/98/98 97/97/97
f 7/7/7 96/96/96 95/95/95
f 3/3/3 96/96/96 7/7/7
f 6/6/6 3/3/3 7/7/7
f 9/9/9 8/8/8 111/111/111
f 4/4/4 8/8/8 9/9/9
f 1/1/1 4/4/4 9/9/9
f 100/100/100 4/4/4 1/1/1
f 101/101/101 100/100/100 1/1/1
f 115/115/115 114/114/114 113/113/113
f 104/104/104 114/114/114 115/115/115
f 103/103/103 104/104/104 115/115/115
f 102/102/102 104/104/104 103/103/103
f 12/12/12 105/105/105 106/106/106
f 13/13/13 105/105/105 12/12/12
f 10/10/10 11/11/11 107/107/107
f 95/95/95 11/11/11 10/10/10
f 7/7/7 95/95/95 10/10/10
f 109/109/109 108/108/108 110/110/110
f 14/14/14 108/108/108 109/109/109
f 9/9/9 111/111/111 112/112/112
f 117/117/117 116/116/116 118/118/118
f 119/119/119 116/116/116 117/117/117
f 31/31/31 39/39/39 40/40/40
f 32/32/32 31/31/31 40/40/40
f 23/23/23 31/31/31 32/32/32
f 24/24/24 23/23/23 32/32/32
f 15/15/15 23/23/23 24/24/24
f 16/16/16 15/15/15 24/24/24
f 194/194/194 202/202/202 89/89/89
f 81/81/81 194/194/194 89/89/89
f 185/185/185 194/194/194 81/81/81
f 73/73/73 185/185/185 81/81/81
f 174/174/174 185/185/185 73/73/73
f 65/65/65 174/174/174 73/73/73
f 164/164/164 174/174/174 65/65/65
f 57/57/57 164/164/164 65/65/65
f 155/155/155 164/164/164 57/57/57
f 49/49/49 155/155/155 57/57/57
f 146/146/146 155/155/155 49/49/49
f 41/41/41 146/146/146 49/49/49
f 136/136/136 146/146/146 41/41/41
f 33/33/33 136/136/136 41/41/41
f 121/121/121 136/136/136 33/33/33
f 25/25/25 121/121/121 33/33/33
f 120/120/120 121/121/121 25/25/25
f 17/17/17 120/120/120 25/25/25
f 195/195/195 203/203/203 90/90/90
f 82/82/82 195/195/195 90/90/90
f 186/186/186 195/195/195 82/82/82
f 74/74/74 186/186/186 82/82/82
f 175/175/175 186/186/186 74/74/74
f 66/66/66 175/175/175 74/74/74
f 165/165/165 175/175/175 66/66/66
f 58/58/58 165/165/165 66/66/66
f 156/156/156 165/165/165 58/58/58
f 50/50/50 156/156/156 58/58/58
f 147/147/147 156/156/156 50/50/50
f 42/42/42 147/147/147 50/50/50
f 137/137/137 147/147/147 42/42/42
f 34/34/34 137/137/137 42/42/42
f 123/123/123 137/137/137 34/34/34
f 26/26/26 123/123/123 34/34/34
f 122/122/122 123/123/123 26/26/26
f 18/18/18 122/122/122 26/26/26
f 27/27/27 124/124/124 125/125/125
f 19/19/19 124/124/124 27/27/27
f 197/197/197 207/207/207 92/92/92
f 84/84/84 197/197/197 92/92/92
f 188/188/188 197/197/197 84/84/84
f 76/76/76 188/188/188 84/84/84
f 179/179/179 188/188/188 76/76/76
f 68/68/68 179/179/179 76/76/76
f 169/169/169 179/179/179 68/68/68
f 60/60/60 169/169/169 68/68/68
f 158/158/158 169/169/169 60/60/60
f 52/52/52 158/158/158 60/60/60
f 149/149/149 158/158/158 52/52/52
f 44/44/44 149/149/149 52/52/52
f 141/141/141 149/149/149 44/44/44
f 36/36/36 141/141/141 44/44/44
f 127/127/127 141/141/141 36/36/36
f 28/28/28 127/127/127 36/36/36
f 126/126/126 127/127/127 28/28/28
f 20/20/20 126/126/126 28/28/28
f 198/198/198 208/208/208 93/93/93
f 85/85/85 198/198/198 93/93/93
f 189/189/189 198/198/198 85/85/85
f 77/77/77 189/189/189 85/85/85
f 180/180/180 189/189/189 77/77/77
f 69/69/69 180/180/180 77/77/77
f 170/170/170 180/180/180 69/69/69
f 61/61/61 170/170/170 69/69/69
f 159/159/159 170/170/170 61/61/61
f 53/53/53 159/159/159 61/61/61
f 150/150/150 159/159/159 53/53/53
f 45/45/45 150/150/150 53/53/53
f 142/142/142 150/150/150 45/45/45
f 37/37/37 142/142/142 45/45/45
f 129/129/129 142/142/142 37/37/37
f 29/29/29 129/129/129 37/37/37
f 128/128/128 129/129/129 29/29/29
f 21/21/21 128/128/128 29/29/29
f 199/199/199 209/209/209 94/94/94
f 86/86/86 199/199/199 94/94/94
f 190/190/190 199/199/199 86/86/86
f 78/78/78 190/190/190 86/86/86
f 181/181/181 190/190/190 78/78/78
f 70/70/70 181/181/181 78/78/78
f 171/171/171 181/181/181 70/70/70
f 62/62/62 171/171/171 70/70/70
f 160/160/160 171/171/171 62/62/62
f 54/54/54 160/160/160 62/62/62
f 151/151/151 160/160/160 54/54/54
f 46/46/46 151/151/151 54/54/54
f 143/143/143 151/151/151 46/46/46
f 38/38/38 143/143/143 46/46/46
f 131/131/131 143/143/143 38/38/38
f 30/30/30 131/131/131 38/38/38
f 130/130/130 131/131/131 30/30/30
f 22/22/22 130/130/130 30/30/30
f 145/145/145 153/153/153 152/152/152
f 144/144/144 145/145/145 152/152/152
f 134/134/134 145/145/145 144/144/144
f 133/133/133 134/134/134 144/144/144
f 132/132/132 134/134/134 133/133/133
f 135/135/135 132/132/132 133/133/133
f 148/148/148 157/157/157 51/51/51
f 43/43/43 148/148/148 51/51/51
f 139/139/139 148/148/148 43/43/43
f 35/35/35 139/139/139 43/43/43
f 138/138/138 139/139/139 35/35/35
f 140/140/140 138/138/138 35/35/35
f 55/55/55 63/63/63 64/64/64
f 56/56/56 55/55/55 64/64/64
f 47/47/47 55/55/55 56/56/56
f 48/48/48 47/47/47 56/56/56
f 154/154/154 47/47/47 48/48/48
f 40/40/40 154/154/154 48/48/48
f 173/173/173 183/183/183 182/182/182
f 172/172/172 173/173/173 182/182/182
f 162/162/162 173/173/173 172/172/172
f 161/161/161 162/162/162 172/172/172
f 153/153/153 162/162/162 161/161/161
f 163/163/163 153/153/153 161/161/161
f 59/59/59 166/166/166 167/167/167
f 168/168/168 166/166/166 59/59/59
f 187/187/187 196/196/196 83/83/83
f 75/75/75 187/187/187 83/83/83
f 177/177/177 187/187/187 75/75/75
f 67/67/67 177/177/177 75/75/75
f 176/176/176 177/177/177 67/67/67
f 178/178/178 176/176/176 67/67/67
f 79/79/79 87/87/87 88/88/88
f 80/80/80 79/79/79 88/88/88
f 71/71/71 79/79/79 80/80/80
f 72/72/72 71/71/71 80/80/80
f 184/184/184 71/71/71 72/72/72
f 64/64/64 184/184/184 72/72/72
f 201/201/201 211/211/211 210/210/210
f 200/200/200 201/201/201 210/210/210
f 192/192/192 201/201/201 200/200/200
f 191/191/191 192/192/192 200/200/200
f 183/183/183 192/192/192 191/191/191
f 193/193/193 183/183/183 191/191/191
f 91/91/91 204/204/204 205/205/205
f 206/206/206 204/204/204 91/91/91
