g arka_tampon2
v 1.209725 0.179907 -0.3179453
v 1.481242 -0.1989823 -0.1768007
v 1.481242 0.1792627 -0.217752
v 1.209725 -0.1989824 -0.2769983
v 1.481242 -0.1989823 0.1386266
v 1.481242 0.1740153 0.1484778
v 1.172871 0.1989825 -0.1292288
v -1.209725 -0.1989824 -0.2769983
v -1.209725 0.179907 -0.3179453
v -1.172871 0.1989825 -0.1292288
v -1.481242 0.1792627 -0.217752
v -1.481242 0.1740153 0.1484778
v -1.481242 -0.1989823 0.1386266
v -1.481242 -0.1989823 -0.1768007
v -0.9678552 0.123777 0.2296553
v -1.017817 0.1253344 0.2458141
v -1.048695 0.1294119 0.2881181
v -1.048695 0.1344519 0.3404083
v -1.017817 0.1385293 0.3827123
v -0.9678552 0.1400868 0.3988709
v -0.9178936 0.1385293 0.3827123
v -0.8870156 0.1344519 0.3404083
v -0.8870156 0.1294119 0.2881181
v -0.9178936 0.1253344 0.2458141
v -0.9678552 0.03458666 -0.009747284
v -1.017817 0.02534562 0.007451756
v -1.048695 0.001152211 0.05248139
v -1.048695 -0.02875245 0.1081395
v -1.017817 -0.0529458 0.1531684
v -0.9678552 -0.06218684 0.1703682
v -0.9178936 -0.0529458 0.1531684
v -0.8870156 -0.02875245 0.1081395
v -0.8870156 0.001152211 0.05248139
v -0.9178936 0.02534562 0.007451756
v -0.9678552 0.01875042 -0.1719353
v -1.017817 0.004252428 -0.173162
v -1.048695 -0.0346548 -0.1763742
v -1.048695 -0.08401603 -0.1803439
v -1.017817 -0.1246021 -0.1835551
v -0.9678552 -0.1402151 -0.1847823
v -0.9178936 -0.1246021 -0.1835551
v -0.8870156 -0.08401603 -0.1803439
v -0.8870156 -0.0346548 -0.1763742
v -0.9178936 0.004252487 -0.173162
v -0.9678552 0.0326808 -0.3723233
v -1.017817 0.01703125 -0.3748584
v -1.048695 -0.0241794 -0.3814955
v -1.048695 -0.07543714 -0.3896995
v -1.017817 -0.1170678 -0.3963361
v -0.9678552 -0.1329964 -0.398871
v -0.9178936 -0.1170678 -0.3963361
v -0.8870156 -0.07543714 -0.3896995
v -0.8870156 -0.0241794 -0.3814955
v -0.9178936 0.01703137 -0.3748584
v -1.209725 0.179907 -0.3179453
v 1.209725 0.179907 -0.3179453
v 1.481242 0.1792627 -0.217752
v 1.481242 -0.1989823 0.1386266
v 1.481242 0.1740153 0.1484778
v 1.481242 -0.1989823 -0.1768007
v 1.481242 0.1792627 -0.217752
v 1.481242 -0.1989823 -0.1768007
v 1.209725 -0.1989824 -0.2769983
v 1.481242 -0.1989823 0.1386266
v 1.481242 -0.1989823 0.1386266
v 1.481242 0.1740153 0.1484778
v -1.481242 0.1740153 0.1484778
v -1.481242 -0.1989823 0.1386266
v -1.481242 0.1792627 -0.217752
v -1.481242 0.1740153 0.1484778
v -1.481242 -0.1989823 -0.1768007
v -1.481242 0.1792627 -0.217752
v -1.481242 -0.1989823 -0.1768007
v -1.481242 -0.1989823 0.1386266
v -1.209725 -0.1989824 -0.2769983
v 1.481242 0.1740153 0.1484778
v -1.172871 0.1989825 -0.1292288
v 1.172871 0.1989825 -0.1292288
v -1.481242 0.1740153 0.1484778
v -0.9678552 0.1400868 0.3988709
v -0.9678552 -0.06218684 0.1703682
v -0.9678552 0.03458666 -0.009747284
v -1.017817 0.02534562 0.007451756
v -1.048695 0.001152211 0.05248139
v -1.048695 -0.02875245 0.1081395
v -1.017817 -0.0529458 0.1531684
v -0.9678552 -0.06218684 0.1703682
v -0.9678552 -0.06218684 0.1703682
v -0.9678552 -0.1402151 -0.1847823
v -0.9178936 -0.0529458 0.1531684
v -0.8870156 -0.02875245 0.1081395
v -0.8870156 0.001152211 0.05248139
v -0.9178936 0.02534562 0.007451756
v -0.9678552 -0.1329964 -0.398871
v -0.9178936 -0.1170678 -0.3963361
v -0.8870156 -0.07543714 -0.3896995
v -0.8870156 -0.0241794 -0.3814955
v -0.9178936 0.01703137 -0.3748584
v -0.9678552 -0.1329964 -0.398871
v -0.9678552 0.0326808 -0.3723233
v -1.017817 -0.1170678 -0.3963361
v -1.017817 0.01703125 -0.3748584
v -1.048695 -0.07543714 -0.3896995
v -1.048695 -0.0241794 -0.3814955
vt 0.2018283 0.5075392
vt 0.219934 0.5328049
vt 0.2779498 0.63163
vt 0.2018283 0.5328049
vt 0.2372656 0.5328049
vt 0.2779498 0.6172577
vt 0.2658481 0.6281561
vt 0.04049069 0.5328049
vt 0.04049069 0.5075392
vt 0.1737915 0.6281561
vt 0.1616898 0.63163
vt 0.1523176 0.6928853
vt 0.1523176 0.6753693
vt 0.02238496 0.5328049
vt 0.4693852 0.3246628
vt 0.4623996 0.3244432
vt 0.4553567 0.3238684
vt 0.4482377 0.3231578
vt 0.4410312 0.322583
vt 0.4337837 0.3223635
vt 0.4972223 0.322583
vt 0.4901661 0.3231578
vt 0.4832236 0.3238684
vt 0.4763185 0.3244432
vt 0.4693791 0.3372367
vt 0.4626019 0.3385395
vt 0.455361 0.3419503
vt 0.4478135 0.3461663
vt 0.4405727 0.349577
vt 0.4337955 0.3508798
vt 0.4976872 0.349577
vt 0.4905812 0.3461663
vt 0.4832194 0.3419503
vt 0.4761134 0.3385395
vt 0.5476238 0.3493055
vt 0.5558729 0.3491527
vt 0.5632994 0.3487529
vt 0.5702437 0.3482588
vt 0.5771632 0.3478589
vt 0.5840786 0.3477063
vt 0.5201839 0.3478589
vt 0.5266336 0.3482588
vt 0.5329652 0.3487529
vt 0.5397375 0.3491527
vt 0.5477259 0.3243598
vt 0.5547935 0.3240443
vt 0.5618983 0.323218
vt 0.5691264 0.3221968
vt 0.5765849 0.3213706
vt 0.5841247 0.3210551
vt 0.5207906 0.3213706
vt 0.5276659 0.3221968
vt 0.5342538 0.323218
vt 0.5408574 0.3240443
vt 0.1723452 0.6355621
vt 0.2672944 0.6355621
vt 0.219934 0.5075821
vt 0.2372656 0.5328049
vt 0.2372656 0.5079321
vt 0.219934 0.5328049
vt 0.219934 0.5075821
vt 0.2771517 0.6497697
vt 0.2668539 0.65357
vt 0.2771517 0.6378065
vt 0.2915856 0.6753693
vt 0.2914366 0.6928853
vt 0.1616898 0.6172577
vt 0.004778291 0.5328049
vt 0.02238496 0.5075821
vt 0.004778291 0.5079321
vt 0.02238496 0.5328049
vt 0.02238496 0.5075821
vt 0.164793 0.6497697
vt 0.164793 0.6378065
vt 0.175091 0.65357
vt 0.2779498 0.6172577
vt 0.1737915 0.6281561
vt 0.2658481 0.6281561
vt 0.1616898 0.6172577
vt 0.5044098 0.3223635
vt 0.5044214 0.3508798
vt 0.5477374 0.3694957
vt 0.5542266 0.3716369
vt 0.5590255 0.3772424
vt 0.5624968 0.3841712
vt 0.5659401 0.3897766
vt 0.5880988 0.3919177
vt 0.517473 0.3919177
vt 0.5134526 0.3477063
vt 0.5305676 0.3897766
vt 0.5337014 0.3841712
vt 0.5369632 0.3772423
vt 0.5414593 0.3716369
vt 0.5134988 0.3210551
vt 0.4506733 0.3498146
vt 0.4397064 0.3647849
vt 0.4397053 0.3832199
vt 0.4506703 0.3980443
vt 0.4684165 0.3440875
vt 0.4684128 0.4036755
vt 0.4861593 0.3498167
vt 0.4861563 0.3980466
vt 0.4971242 0.3647884
vt 0.4971231 0.3832234
vn 0.1748566 -0.1058359 -0.9788891
vn 1 0 0
vn 0.05244059 0.9978384 -0.03960529
vn 0.1748566 -0.1058359 -0.9788891
vn 1 0 0
vn 0.06789722 0.9975899 0.01429336
vn 0.03496724 0.9975864 -0.05999049
vn -0.1748568 -0.1058358 -0.9788891
vn -0.1748568 -0.1058358 -0.9788891
vn -0.03496725 0.9975864 -0.05999057
vn -0.05244062 0.9978384 -0.0396054
vn 0 -0.02640173 0.9996514
vn 0 -0.02640173 0.9996514
vn -1 0 0
vn 0 0.9297641 -0.3681557
vn -0.4480609 0.8206635 -0.3546165
vn -0.9142852 0.3649616 -0.1757431
vn -0.9343049 -0.2827165 0.2171307
vn -0.5275261 -0.6565363 0.5391441
vn 0 -0.7583255 0.6518761
vn 0.5275262 -0.6565365 0.5391439
vn 0.9343046 -0.2827171 0.217131
vn 0.914285 0.364962 -0.175743
vn 0.4480616 0.8206632 -0.3546162
vn 0 0.9297641 -0.3681557
vn -0.485975 0.8429159 -0.2309137
vn -0.9257096 0.3612114 -0.1121967
vn -0.9389226 -0.3127905 0.1434798
vn -0.5427037 -0.7567626 0.3643942
vn 0 -0.7583255 0.6518761
vn 0.5427041 -0.7567624 0.3643939
vn 0.9389221 -0.3127918 0.1434798
vn 0.9257099 0.3612107 -0.1121968
vn 0.4859759 0.8429154 -0.2309134
vn 0 0.9997783 -0.02105541
vn -0.5443043 0.8384922 -0.02576191
vn -0.940833 0.3385236 -0.01533529
vn -0.9441289 -0.3283547 0.02835283
vn -0.5603784 -0.8250002 0.07314798
vn 0 -0.9959586 0.08981281
vn 0.5603799 -0.8249993 0.07314825
vn 0.9441289 -0.3283546 0.02835303
vn 0.9408334 0.3385224 -0.01533528
vn 0.5443054 0.8384914 -0.02576175
vn 0 0.997801 0.0662806
vn -0.5693418 0.8204834 0.051546
vn -0.9469951 0.3207245 0.01833298
vn -0.9488583 -0.3154724 -0.01204227
vn -0.5790693 -0.8147518 -0.02929429
vn 0 -0.9994032 -0.03454067
vn 0.5790716 -0.8147503 -0.0292935
vn 0.948859 -0.3154705 -0.01204174
vn 0.9469953 0.320724 0.01833303
vn 0.5693429 0.8204826 0.05154602
vn -0.0184128 0.9951149 -0.09699056
vn 0.01841277 0.9951149 -0.09699045
vn 1 0 0
vn 1 0 0
vn 1 0 0
vn 0.3443254 -0.1009654 -0.9334055
vn 0.3443254 -0.1009654 -0.9334055
vn 0 -1 0
vn 0 -1 0
vn 0 -1 0
vn 0 -0.02640173 0.9996514
vn 0 -0.02640173 0.9996514
vn -0.06789725 0.9975899 0.01429337
vn -1 0 0
vn -1 0 0
vn -1 0 0
vn -0.3443258 -0.1009653 -0.9334055
vn -0.3443258 -0.1009653 -0.9334055
vn 0 -1 0
vn 0 -1 0
vn 0 -1 0
vn 0 0.9959829 0.08954385
vn 0 0.9959829 0.08954385
vn 0 0.9959829 0.08954385
vn 0 0.9959829 0.08954385
vn 0 -0.7583255 0.6518761
vn 0 -0.7583255 0.6518761
vn 0 0.9942473 -0.1071086
vn -0.485975 0.8429159 -0.2309137
vn -0.9257096 0.3612114 -0.1121967
vn -0.9389226 -0.3127905 0.1434798
vn -0.5427037 -0.7567626 0.3643942
vn 0 -0.9773878 0.2114544
vn 0 -0.9773878 0.2114544
vn 0 -0.9959586 0.08981281
vn 0.5427041 -0.7567624 0.3643939
vn 0.9389221 -0.3127918 0.1434798
vn 0.9257099 0.3612107 -0.1121968
vn 0.4859759 0.8429154 -0.2309134
vn 0 -0.9994032 -0.03454067
vn 0 0.158168 -0.9874122
vn 0 0.158168 -0.9874122
vn 0 0.158168 -0.9874122
vn 0 0.158168 -0.9874122
vn 0 0.158168 -0.9874122
vn 0 0.158168 -0.9874122
vn 0 0.158168 -0.9874122
vn 0 0.158168 -0.9874122
vn 0 0.158168 -0.9874122
vn 0 0.158168 -0.9874122
g arka_tampon2_0
f 57/57/57 5/5/5 2/2/2
f 59/59/59 58/58/58 57/57/57
f 7/7/7 56/56/56 55/55/55
f 3/3/3 56/56/56 7/7/7
f 6/6/6 3/3/3 7/7/7
f 9/9/9 8/8/8 71/71/71
f 4/4/4 8/8/8 9/9/9
f 1/1/1 4/4/4 9/9/9
f 60/60/60 4/4/4 1/1/1
f 61/61/61 60/60/60 1/1/1
f 75/75/75 74/74/74 73/73/73
f 64/64/64 74/74/74 75/75/75
f 63/63/63 64/64/64 75/75/75
f 62/62/62 64/64/64 63/63/63
f 12/12/12 65/65/65 66/66/66
f 13/13/13 65/65/65 12/12/12
f 10/10/10 11/11/11 67/67/67
f 55/55/55 11/11/11 10/10/10
f 7/7/7 55/55/55 10/10/10
f 69/69/69 68/68/68 70/70/70
f 14/14/14 68/68/68 69/69/69
f 9/9/9 71/71/71 72/72/72
f 77/77/77 76/76/76 78/78/78
f 79/79/79 76/76/76 77/77/77
f 31/31/31 80/80/80 81/81/81
f 21/21/21 80/80/80 31/31/31
f 32/32/32 21/21/21 31/31/31
f 22/22/22 21/21/21 32/32/32
f 33/33/33 22/22/22 32/32/32
f 23/23/23 22/22/22 33/33/33
f 34/34/34 23/23/23 33/33/33
f 24/24/24 23/23/23 34/34/34
f 25/25/25 24/24/24 34/34/34
f 15/15/15 24/24/24 25/25/25
f 26/26/26 15/15/15 25/25/25
f 16/16/16 15/15/15 26/26/26
f 27/27/27 16/16/16 26/26/26
f 17/17/17 16/16/16 27/27/27
f 28/28/28 17/17/17 27/27/27
f 18/18/18 17/17/17 28/28/28
f 29/29/29 18/18/18 28/28/28
f 19/19/19 18/18/18 29/29/29
f 30/30/30 19/19/19 29/29/29
f 20/20/20 19/19/19 30/30/30
f 41/41/41 88/88/88 89/89/89
f 90/90/90 88/88/88 41/41/41
f 42/42/42 90/90/90 41/41/41
f 91/91/91 90/90/90 42/42/42
f 43/43/43 91/91/91 42/42/42
f 92/92/92 91/91/91 43/43/43
f 44/44/44 92/92/92 43/43/43
f 93/93/93 92/92/92 44/44/44
f 35/35/35 93/93/93 44/44/44
f 82/82/82 93/93/93 35/35/35
f 36/36/36 82/82/82 35/35/35
f 83/83/83 82/82/82 36/36/36
f 37/37/37 83/83/83 36/36/36
f 84/84/84 83/83/83 37/37/37
f 38/38/38 84/84/84 37/37/37
f 85/85/85 84/84/84 38/38/38
f 39/39/39 85/85/85 38/38/38
f 86/86/86 85/85/85 39/39/39
f 40/40/40 86/86/86 39/39/39
f 87/87/87 86/86/86 40/40/40
f 39/39/39 50/50/50 40/40/40
f 49/49/49 50/50/50 39/39/39
f 38/38/38 49/49/49 39/39/39
f 48/48/48 49/49/49 38/38/38
f 37/37/37 48/48/48 38/38/38
f 47/47/47 48/48/48 37/37/37
f 36/36/36 47/47/47 37/37/37
f 46/46/46 47/47/47 36/36/36
f 35/35/35 46/46/46 36/36/36
f 45/45/45 46/46/46 35/35/35
f 44/44/44 45/45/45 35/35/35
f 54/54/54 45/45/45 44/44/44
f 43/43/43 54/54/54 44/44/44
f 53/53/53 54/54/54 43/43/43
f 42/42/42 53/53/53 43/43/43
f 52/52/52 53/53/53 42/42/42
f 41/41/41 52/52/52 42/42/42
f 51/51/51 52/52/52 41/41/41
f 89/89/89 51/51/51 41/41/41
f 94/94/94 51/51/51 89/89/89
f 102/102/102 103/103/103 104/104/104
f 101/101/101 103/103/103 102/102/102
f 100/100/100 101/101/101 102/102/102
f 99/99/99 101/101/101 100/100/100
f 98/98/98 99/99/99 100/100/100
f 95/95/95 99/99/99 98/98/98
f 97/97/97 95/95/95 98/98/98
f 96/96/96 95/95/95 97/97/97
