g ayna_04
v -0.1426985 0.009563267 -0.04296309
v 0.04583168 0.006304741 -0.05426145
v -0.1426985 0.009563327 0.05856562
v 0.04583168 0.009563327 0.05856562
v -0.1555381 0.0532155 -0.05101168
v 0.05356097 0.0532155 -0.0623101
v -0.1555381 0.0532155 0.06586063
v 0.05356097 0.0532155 0.06586063
v -0.0484333 -0.01475251 0.07146055
v -0.0484333 -0.01475251 -0.0606848
v -0.0484333 0.0532155 -0.06873339
v -0.0484333 0.0532155 0.07875556
v -0.1594558 -0.01475251 0.007801294
v 0.066921 -0.01475251 0.002152085
v 0.07465029 0.0532155 0.002152085
v -0.1722953 0.0532155 0.007801294
v -0.0484333 -0.0532155 0.005387843
v -0.0484333 0.05069095 0.005387843
v 0.07857418 0.0380252 -0.01306278
v 0.06662631 0.0380252 -0.04502308
v 0.06416488 0.002417743 -0.04502308
v 0.07611275 0.002417743 -0.01306278
v 0.1722953 0.03077549 -0.05980968
v 0.1652128 0.03077549 -0.07875556
v 0.1652129 0.009667575 -0.07875556
v 0.1722953 0.009667575 -0.05980968
v -0.1426985 0.009563267 -0.04296309
v -0.0484333 0.0532155 -0.06873339
v -0.1555381 0.0532155 -0.05101168
v -0.0484333 -0.01475251 -0.0606848
v -0.1722953 0.0532155 0.007801294
v -0.1594558 -0.01475251 0.007801294
v -0.0484333 -0.01475251 0.07146055
v 0.04583168 0.009563327 0.05856562
v 0.05356097 0.0532155 -0.0623101
v -0.1555381 0.0532155 0.06586063
v -0.1426985 0.009563327 0.05856562
v -0.1426985 0.009563327 0.05856562
v -0.1555381 0.0532155 0.06586063
v -0.0484333 0.0532155 0.07875556
v 0.066921 -0.01475251 0.002152085
v 0.05356097 0.0532155 0.06586063
v 0.07465029 0.0532155 0.002152085
v 0.04583168 0.009563327 0.05856562
v -0.1555381 0.0532155 -0.05101168
v -0.1426985 0.009563267 -0.04296309
v 0.04583168 0.006304741 -0.05426145
v 0.05356097 0.0532155 0.06586063
v 0.07465029 0.0532155 0.002152085
v 0.05356097 0.0532155 -0.0623101
v 0.05356097 0.0532155 -0.0623101
v 0.06662631 0.0380252 -0.04502308
v 0.05356097 0.0532155 -0.0623101
v 0.04583168 0.006304741 -0.05426145
v 0.04583168 0.006304741 -0.05426145
v 0.06416488 0.002417743 -0.04502308
v 0.066921 -0.01475251 0.002152085
v 0.07611275 0.002417743 -0.01306278
v 0.066921 -0.01475251 0.002152085
v 0.07857418 0.0380252 -0.01306278
v 0.07611275 0.002417743 -0.01306278
v 0.07465029 0.0532155 0.002152085
v 0.07857418 0.0380252 -0.01306278
v 0.06662631 0.0380252 -0.04502308
v 0.06662631 0.0380252 -0.04502308
v 0.1652128 0.03077549 -0.07875556
v 0.06416488 0.002417743 -0.04502308
v 0.1652129 0.009667575 -0.07875556
v 0.06416488 0.002417743 -0.04502308
v 0.1652129 0.009667575 -0.07875556
v 0.07611275 0.002417743 -0.01306278
v 0.07611275 0.002417743 -0.01306278
v 0.1722953 0.03077549 -0.05980968
v 0.1722953 0.009667575 -0.05980968
v 0.07857418 0.0380252 -0.01306278
vt 0.5778434 0.1810127
vt 0.6231267 0.1790046
vt 0.5778434 0.2055709
vt 0.6232369 0.206216
vt 0.5036533 0.1832289
vt 0.5485742 0.1812023
vt 0.5688502 0.2143614
vt 0.6297936 0.2120769
vt 0.5997186 0.2096056
vt 0.5997186 0.1776418
vt 0.5266627 0.1795928
vt 0.5999146 0.2196609
vt 0.5729871 0.1938275
vt 0.6278667 0.1936094
vt 0.5531049 0.1952783
vt 0.5000533 0.1959966
vt 0.5997269 0.194375
vt 0.5267565 0.1956977
vt 0.5545124 0.1917926
vt 0.5519456 0.1848106
vt 0.6292777 0.1802758
vt 0.6308467 0.1882342
vt 0.6503913 0.1796998
vt 0.6446172 0.1786853
vt 0.6616082 0.1792547
vt 0.6560967 0.1801815
vt 0.5778434 0.1810127
vt 0.599773 0.1658175
vt 0.5689409 0.1725398
vt 0.5997186 0.1776418
vt 0.5606095 0.1938071
vt 0.5729871 0.1938275
vt 0.5997186 0.2096056
vt 0.6232369 0.206216
vt 0.6265725 0.1705225
vt 0.5688502 0.2143614
vt 0.5778434 0.2055709
vt 0.5778434 0.2055709
vt 0.5036533 0.2086699
vt 0.5266627 0.2116987
vt 0.6278667 0.1936094
vt 0.6297936 0.2120769
vt 0.6350129 0.197022
vt 0.6232369 0.206216
vt 0.5689409 0.1725398
vt 0.5778434 0.1810127
vt 0.6231267 0.1790046
vt 0.5485742 0.2091029
vt 0.5531049 0.1952783
vt 0.5485742 0.1812023
vt 0.6265725 0.1705225
vt 0.6329414 0.1760532
vt 0.6265725 0.1705225
vt 0.6231267 0.1790046
vt 0.6231267 0.1790046
vt 0.6292777 0.1802758
vt 0.6278667 0.1936094
vt 0.6308467 0.1882342
vt 0.6278667 0.1936094
vt 0.6352577 0.1899894
vt 0.6308467 0.1882342
vt 0.6350129 0.197022
vt 0.6475114 0.2091007
vt 0.6382363 0.2072555
vt 0.6762059 0.2058233
vt 0.666319 0.1783612
vt 0.6675298 0.2081581
vt 0.6616082 0.1792547
vt 0.6675298 0.2081581
vt 0.6616082 0.1792547
vt 0.6582323 0.2097217
vt 0.6582323 0.2097217
vt 0.6503913 0.1796998
vt 0.6560967 0.1801815
vt 0.6475114 0.2091007
vn -0.2989287 -0.822078 -0.4845919
vn 0.07997441 -0.1435988 -0.9863992
vn -0.9138352 -0.2320166 0.3332769
vn 0.1458441 -0.138146 0.9796148
vn 0.01272209 0.999707 0.02058915
vn -0.01149608 0.9997346 0.01996147
vn -0.9138352 -0.2320166 0.3332769
vn 0.1458441 -0.138146 0.9796148
vn 0.001517587 -0.1427775 0.9897537
vn -0.01830316 -0.8717458 -0.4896163
vn 0.0001933478 0.9997947 0.02026592
vn 0.001488149 -0.1427781 0.9897536
vn -0.3298638 -0.9440002 0.00731545
vn 0.3023531 -0.9531838 0.004834879
vn -0.01207353 0.999927 0.0002509476
vn 0.01229149 0.9999244 -0.0003478638
vn -0.01186025 -0.9999084 0.006512435
vn 0.0001030348 1 -0.0001724176
vn 0.8437923 0.4521406 -0.2891081
vn 0.8437923 0.4521406 -0.2891081
vn 0.5833169 -0.1499015 -0.7982925
vn 0.3483398 -0.8741147 -0.3385008
vn 0.06503981 0.9975865 -0.02431408
vn 0.06503981 0.9975865 -0.02431408
vn -0.3201241 0.01389264 -0.9472739
vn 0.0636389 -0.9976894 -0.02379023
vn -0.1899551 -0.1615095 -0.9684172
vn -0.05498634 -0.1539412 -0.9865488
vn -0.1899551 -0.1615095 -0.9684172
vn -0.05474236 -0.153925 -0.986565
vn -0.9689792 -0.2471407 0.0008756426
vn -0.9689792 -0.2471405 0.0009462545
vn 0.003907948 -0.8655651 0.5007811
vn 0.2857593 -0.8319494 0.4756067
vn 0.07997442 -0.1435988 -0.9863992
vn -0.1428407 -0.1444172 0.9791529
vn -0.1428407 -0.1444172 0.9791529
vn -0.2782608 -0.8288935 0.4852901
vn 0.01186739 0.9997149 -0.02071643
vn -0.0003773657 0.9997889 -0.02054089
vn 0.9227612 -0.1509689 0.3545704
vn 0.9227612 -0.1509689 0.3545704
vn 0.9227612 -0.1509689 0.3545704
vn 0.9227612 -0.1509689 0.3545704
vn -0.9139374 -0.2341613 -0.3314916
vn -0.9139374 -0.2341613 -0.3314916
vn 0.2492966 -0.8534669 -0.457652
vn -0.01267239 0.9997123 -0.02036151
vn 0.8437923 0.4521406 -0.2891081
vn 0.8437923 0.4521405 -0.2891081
vn 0.5833169 -0.1499015 -0.7982925
vn 0.5833169 -0.1499014 -0.7982925
vn 0.5833169 -0.1499015 -0.7982925
vn 0.5833169 -0.1499014 -0.7982925
vn 0.3483398 -0.8741147 -0.3385008
vn 0.3483399 -0.8741147 -0.3385008
vn 0.3483398 -0.8741147 -0.3385008
vn 0.3483398 -0.8741147 -0.3385008
vn 0.9167076 -0.09019429 0.3892455
vn 0.9167076 -0.0901943 0.3892455
vn 0.9167076 -0.09019428 0.3892455
vn 0.9167076 -0.09019429 0.3892455
vn 0.06503981 0.9975865 -0.02431408
vn 0.06503981 0.9975865 -0.02431408
vn -0.3201241 0.01389264 -0.9472739
vn -0.3201241 0.01389264 -0.9472739
vn -0.3201241 0.01389264 -0.9472739
vn -0.3201241 0.01389264 -0.9472739
vn 0.0636389 -0.9976894 -0.02379023
vn 0.0636389 -0.9976894 -0.02379023
vn 0.0636389 -0.9976894 -0.02379023
vn 0.4416133 -0.01916592 0.8970007
vn 0.4416133 -0.01916592 0.8970007
vn 0.4416133 -0.01916592 0.8970007
vn 0.4416133 -0.01916592 0.8970007
g ayna_04_0
f 21/21/21 51/51/51 52/52/52
f 54/54/54 53/53/53 21/21/21
f 22/22/22 55/55/55 56/56/56
f 57/57/57 55/55/55 58/58/58
f 25/25/25 65/65/65 66/66/66
f 67/67/67 65/65/65 68/68/68
f 30/30/30 35/35/35 2/2/2
f 28/28/28 35/35/35 30/30/30
f 27/27/27 28/28/28 30/30/30
f 29/29/29 28/28/28 27/27/27
f 9/9/9 36/36/36 37/37/37
f 12/12/12 36/36/36 9/9/9
f 4/4/4 12/12/12 9/9/9
f 8/8/8 12/12/12 4/4/4
f 32/32/32 45/45/45 46/46/46
f 31/31/31 45/45/45 32/32/32
f 3/3/3 31/31/31 32/32/32
f 7/7/7 31/31/31 3/3/3
f 17/17/17 1/1/1 10/10/10
f 14/14/14 17/17/17 10/10/10
f 33/33/33 17/17/17 14/14/14
f 34/34/34 33/33/33 14/14/14
f 18/18/18 39/39/39 40/40/40
f 15/15/15 18/18/18 40/40/40
f 11/11/11 18/18/18 15/15/15
f 6/6/6 11/11/11 15/15/15
f 13/13/13 33/33/33 38/38/38
f 17/17/17 33/33/33 13/13/13
f 1/1/1 17/17/17 13/13/13
f 42/42/42 41/41/41 43/43/43
f 44/44/44 41/41/41 42/42/42
f 47/47/47 14/14/14 10/10/10
f 48/48/48 15/15/15 40/40/40
f 20/20/20 49/49/49 19/19/19
f 50/50/50 49/49/49 20/20/20
f 60/60/60 59/59/59 61/61/61
f 62/62/62 59/59/59 60/60/60
f 24/24/24 63/63/63 23/23/23
f 64/64/64 63/63/63 24/24/24
f 26/26/26 69/69/69 70/70/70
f 71/71/71 69/69/69 26/26/26
f 73/73/73 72/72/72 74/74/74
f 75/75/75 72/72/72 73/73/73
f 18/18/18 16/16/16 39/39/39
f 5/5/5 16/16/16 18/18/18
f 11/11/11 5/5/5 18/18/18
