g ayna_01
v 0.2995256 0.02042814 0.007914346
v 0.1109954 0.009129793 0.01117281
v 0.2995256 0.1219568 0.007914346
v 0.1109954 0.1219569 0.007914346
v 0.3123653 0.01237953 -0.03573783
v 0.1032662 0.001081182 -0.03573783
v 0.3123653 0.1292519 -0.03573783
v 0.1032662 0.1292519 -0.03573795
v 0.2052605 0.1348518 0.03223018
v 0.2052605 0.002706437 0.03223006
v 0.2052605 -0.005342172 -0.03573783
v 0.2052605 0.1421468 -0.03573783
v 0.3162829 0.0711925 0.03223018
v 0.08990622 0.06554332 0.03223006
v 0.08217704 0.06554332 -0.03573795
v 0.3291225 0.07119249 -0.03573795
v 0.2052605 0.06877911 0.07069305
v 0.2052605 0.06877911 -0.03321334
v 0.07825303 0.0503285 -0.02054759
v 0.0902009 0.01836814 -0.02054759
v 0.09266233 0.01836815 0.01505987
v 0.08071446 0.0503285 0.01505987
v -0.01546824 0.003581512 -0.01329787
v -0.008385658 -0.0153644 -0.01329787
v -0.008385658 -0.0153644 0.007810037
v -0.01546824 0.003581523 0.007810037
v 0.2995256 0.02042814 0.007914346
v 0.2052605 -0.005342172 -0.03573783
v 0.2052605 0.002706437 0.03223006
v 0.3123653 0.01237953 -0.03573783
v 0.3291225 0.07119249 -0.03573795
v 0.2052605 0.1348518 0.03223018
v 0.1109954 0.1219569 0.007914346
v 0.1032662 0.001081182 -0.03573783
v 0.3123653 0.1292519 -0.03573783
v 0.2995256 0.1219568 0.007914346
v 0.2052605 0.1348518 0.03223018
v 0.2995256 0.1219568 0.007914346
v 0.3123653 0.1292519 -0.03573783
v 0.2052605 0.1421468 -0.03573783
v 0.08990622 0.06554332 0.03223006
v 0.1032662 0.1292519 -0.03573795
v 0.1109954 0.1219569 0.007914346
v 0.08217704 0.06554332 -0.03573795
v 0.3123653 0.01237953 -0.03573783
v 0.1109954 0.009129793 0.01117281
v 0.1032662 0.1292519 -0.03573795
v 0.08217704 0.06554332 -0.03573795
v 0.1032662 0.001081182 -0.03573783
v 0.1032662 0.001081182 -0.03573783
v 0.1109954 0.009129793 0.01117281
v 0.1032662 0.001081182 -0.03573783
v 0.0902009 0.01836814 -0.02054759
v 0.1109954 0.009129793 0.01117281
v 0.08990622 0.06554332 0.03223006
v 0.09266233 0.01836815 0.01505987
v 0.08071446 0.0503285 0.01505987
v 0.08990622 0.06554332 0.03223006
v 0.07825303 0.0503285 -0.02054759
v 0.08217704 0.06554332 -0.03573795
v 0.08071446 0.0503285 0.01505987
v 0.07825303 0.0503285 -0.02054759
v 0.0902009 0.01836814 -0.02054759
v 0.0902009 0.01836814 -0.02054759
v 0.09266233 0.01836815 0.01505987
v -0.008385658 -0.0153644 -0.01329787
v -0.008385658 -0.0153644 0.007810037
v 0.09266233 0.01836815 0.01505987
v 0.08071446 0.0503285 0.01505987
v -0.008385658 -0.0153644 0.007810037
v 0.08071446 0.0503285 0.01505987
v -0.01546824 0.003581512 -0.01329787
v 0.07825303 0.0503285 -0.02054759
v -0.01546824 0.003581523 0.007810037
vt 0.8862554 0.2893621
vt 0.9315388 0.2873538
vt 0.8862554 0.3139202
vt 0.9316489 0.3145654
vt 0.8120654 0.2915782
vt 0.8569862 0.2895516
vt 0.8772622 0.3227107
vt 0.9382057 0.3204262
vt 0.9081306 0.3179549
vt 0.9081306 0.2859911
vt 0.8350748 0.2879422
vt 0.9083266 0.3280102
vt 0.8813992 0.3021769
vt 0.9362788 0.3019587
vt 0.8615169 0.3036276
vt 0.8084654 0.304346
vt 0.9081389 0.3027243
vt 0.8351686 0.304047
vt 0.8629244 0.3001419
vt 0.8603576 0.2931599
vt 0.9376897 0.2886251
vt 0.9392588 0.2965835
vt 0.9588034 0.2880491
vt 0.9530292 0.2870347
vt 0.9700202 0.287604
vt 0.9645087 0.2885308
vt 0.8862554 0.2893621
vt 0.9081851 0.2741669
vt 0.9081306 0.2859911
vt 0.8773529 0.2808891
vt 0.8690215 0.3021565
vt 0.9081306 0.3179549
vt 0.9316489 0.3145654
vt 0.9349845 0.2788717
vt 0.8772622 0.3227107
vt 0.8862554 0.3139202
vt 0.9081306 0.3179549
vt 0.8862554 0.3139202
vt 0.8120654 0.3170192
vt 0.8350748 0.320048
vt 0.9362788 0.3019587
vt 0.9382057 0.3204262
vt 0.9316489 0.3145654
vt 0.9434249 0.3053713
vt 0.8773529 0.2808891
vt 0.9315388 0.2873538
vt 0.8569862 0.3174522
vt 0.8615169 0.3036276
vt 0.8569862 0.2895516
vt 0.9349845 0.2788717
vt 0.9315388 0.2873538
vt 0.9349845 0.2788717
vt 0.9413534 0.2844025
vt 0.9315388 0.2873538
vt 0.9362788 0.3019587
vt 0.9376897 0.2886251
vt 0.9392588 0.2965835
vt 0.9362788 0.3019587
vt 0.9436697 0.2983388
vt 0.9434249 0.3053713
vt 0.9392588 0.2965835
vt 0.9559234 0.31745
vt 0.9466483 0.3156048
vt 0.9846179 0.3141726
vt 0.9759418 0.3165074
vt 0.974731 0.2867105
vt 0.9700202 0.287604
vt 0.9759418 0.3165074
vt 0.9666443 0.318071
vt 0.9700202 0.287604
vt 0.9666443 0.318071
vt 0.9588034 0.2880491
vt 0.9559234 0.31745
vt 0.9645087 0.2885308
vn 0.6724987 -0.452496 0.585656
vn -0.07997467 -0.9863992 0.1435988
vn 0.9138355 0.333275 0.2320179
vn -0.1458442 0.9796149 0.1381456
vn -0.01272257 0.02058783 -0.999707
vn 0.0114976 0.01996022 -0.9997347
vn 0.9138355 0.333275 0.2320179
vn -0.1458442 0.9796149 0.1381456
vn -0.001517595 0.9897537 0.1427772
vn 0.02581018 -0.4899991 0.8713408
vn -0.0006125321 0.02027551 -0.9997943
vn -0.001517595 0.9897537 0.1427772
vn 0.7505913 0.0007738346 0.6607663
vn -0.3025642 0.01015261 0.9530749
vn 0.0120882 -0.0002005397 -0.9999269
vn -0.01229847 -6.365551E-05 -0.9999244
vn 0.01262737 0.005589724 0.9999046
vn -0.0001050794 -0.0001321077 -1
vn -0.8437952 -0.289104 -0.4521378
vn -0.8437952 -0.289104 -0.4521378
vn -0.5833167 -0.7982928 0.1499007
vn -0.3483382 -0.3384984 0.8741164
vn -0.06503864 -0.02431416 -0.9975865
vn -0.06503864 -0.02431416 -0.9975865
vn 0.3201232 -0.947274 -0.01389302
vn -0.06363671 -0.02379037 0.9976895
vn 0.1899552 -0.968417 0.1615103
vn 0.0555026 -0.9865145 0.1539758
vn 0.0555026 -0.9865145 0.1539758
vn 0.1899552 -0.968417 0.1615103
vn 0.9689788 0.0009447288 0.2471421
vn -0.2857588 0.475606 0.8319501
vn -0.2857588 0.475606 0.8319501
vn -0.07997467 -0.9863992 0.1435988
vn 0.1428408 0.9791529 0.144417
vn 0.1428408 0.9791529 0.144417
vn 0.2782609 0.4852894 0.828894
vn 0.2782609 0.4852894 0.828894
vn -0.01186911 -0.02071512 -0.9997149
vn 0.000402418 -0.02053971 -0.9997889
vn -0.9227628 0.3545674 0.1509669
vn -0.9227628 0.3545674 0.1509669
vn -0.9227628 0.3545674 0.1509669
vn -0.9227628 0.3545674 0.1509669
vn 0.9139366 -0.331493 0.2341631
vn -0.2492956 -0.4576521 0.8534672
vn 0.01267389 -0.02036121 -0.9997123
vn -0.8437952 -0.289104 -0.4521378
vn -0.8437952 -0.289104 -0.4521378
vn -0.5833167 -0.7982928 0.1499007
vn -0.5833167 -0.7982928 0.1499007
vn -0.5833167 -0.7982928 0.1499007
vn -0.5833167 -0.7982928 0.1499007
vn -0.3483382 -0.3384984 0.8741164
vn -0.3483382 -0.3384984 0.8741164
vn -0.3483382 -0.3384984 0.8741164
vn -0.3483382 -0.3384984 0.8741164
vn -0.9167038 0.389255 0.09019276
vn -0.9167038 0.389255 0.09019276
vn -0.9167038 0.389255 0.09019276
vn -0.9167038 0.389255 0.09019276
vn -0.06503864 -0.02431416 -0.9975865
vn -0.06503864 -0.02431416 -0.9975865
vn 0.3201232 -0.947274 -0.01389302
vn 0.3201232 -0.947274 -0.01389302
vn 0.3201232 -0.947274 -0.01389302
vn 0.3201232 -0.947274 -0.01389302
vn -0.06363671 -0.02379037 0.9976895
vn -0.06363671 -0.02379037 0.9976895
vn -0.06363671 -0.02379037 0.9976895
vn -0.4416124 0.8970013 0.01916573
vn -0.4416124 0.8970013 0.01916573
vn -0.4416124 0.8970013 0.01916573
vn -0.4416124 0.8970013 0.01916573
g ayna_01_0
f 21/21/21 50/50/50 51/51/51
f 53/53/53 52/52/52 21/21/21
f 22/22/22 54/54/54 55/55/55
f 56/56/56 54/54/54 57/57/57
f 25/25/25 64/64/64 65/65/65
f 66/66/66 64/64/64 67/67/67
f 29/29/29 2/2/2 34/34/34
f 28/28/28 29/29/29 34/34/34
f 27/27/27 29/29/29 28/28/28
f 30/30/30 27/27/27 28/28/28
f 9/9/9 36/36/36 35/35/35
f 12/12/12 9/9/9 35/35/35
f 4/4/4 9/9/9 12/12/12
f 8/8/8 4/4/4 12/12/12
f 13/13/13 1/1/1 45/45/45
f 31/31/31 13/13/13 45/45/45
f 3/3/3 13/13/13 31/31/31
f 7/7/7 3/3/3 31/31/31
f 17/17/17 10/10/10 1/1/1
f 14/14/14 10/10/10 17/17/17
f 32/32/32 14/14/14 17/17/17
f 33/33/33 14/14/14 32/32/32
f 18/18/18 16/16/16 5/5/5
f 11/11/11 18/18/18 5/5/5
f 15/15/15 18/18/18 11/11/11
f 6/6/6 15/15/15 11/11/11
f 13/13/13 17/17/17 1/1/1
f 37/37/37 17/17/17 13/13/13
f 38/38/38 37/37/37 13/13/13
f 42/42/42 41/41/41 43/43/43
f 44/44/44 41/41/41 42/42/42
f 10/10/10 14/14/14 46/46/46
f 18/18/18 39/39/39 16/16/16
f 40/40/40 39/39/39 18/18/18
f 15/15/15 40/40/40 18/18/18
f 47/47/47 40/40/40 15/15/15
f 20/20/20 48/48/48 49/49/49
f 19/19/19 48/48/48 20/20/20
f 59/59/59 58/58/58 60/60/60
f 61/61/61 58/58/58 59/59/59
f 24/24/24 62/62/62 63/63/63
f 23/23/23 62/62/62 24/24/24
f 26/26/26 68/68/68 69/69/69
f 70/70/70 68/68/68 26/26/26
f 72/72/72 71/71/71 73/73/73
f 74/74/74 71/71/71 72/72/72
