g ayna_03
v 0.1426985 0.009563267 -0.04296315
v -0.0458318 0.006304741 -0.05426145
v 0.1426985 0.009563267 0.05856556
v -0.0458318 0.009563327 0.05856556
v 0.155538 0.05321544 -0.05101174
v -0.05356097 0.0532155 -0.0623101
v 0.155538 0.05321544 0.06586057
v -0.05356085 0.0532155 0.06586057
v 0.0484333 -0.01475251 0.07146049
v 0.0484333 -0.01475257 -0.06068486
v 0.0484333 0.05321544 -0.06873345
v 0.0484333 0.0532155 0.0787555
v 0.1594557 -0.01475257 0.007801235
v -0.066921 -0.01475251 0.002152085
v -0.07465005 0.0532155 0.002152085
v 0.1722955 0.05321544 0.007801235
v 0.0484333 -0.0532155 0.005387843
v 0.0484333 0.05069095 0.005387843
v -0.07857418 0.0380252 -0.01306278
v -0.06662631 0.0380252 -0.04502308
v -0.06416476 0.002417743 -0.04502308
v -0.07611263 0.002417743 -0.01306278
v -0.1722955 0.03077549 -0.0598098
v -0.1652128 0.03077549 -0.07875568
v -0.1652129 0.009667575 -0.07875568
v -0.1722955 0.009667575 -0.0598098
v 0.1426985 0.009563267 -0.04296315
v 0.0484333 0.05321544 -0.06873345
v 0.0484333 -0.01475257 -0.06068486
v 0.155538 0.05321544 -0.05101174
v 0.1722955 0.05321544 0.007801235
v 0.1594557 -0.01475257 0.007801235
v 0.0484333 -0.01475251 0.07146049
v -0.0458318 0.009563327 0.05856556
v -0.05356097 0.0532155 -0.0623101
v 0.155538 0.05321544 0.06586057
v 0.1426985 0.009563267 0.05856556
v 0.1426985 0.009563267 0.05856556
v 0.155538 0.05321544 0.06586057
v 0.0484333 0.0532155 0.0787555
v -0.066921 -0.01475251 0.002152085
v -0.05356085 0.0532155 0.06586057
v -0.0458318 0.009563327 0.05856556
v -0.07465005 0.0532155 0.002152085
v 0.155538 0.05321544 -0.05101174
v 0.1426985 0.009563267 -0.04296315
v -0.0458318 0.006304741 -0.05426145
v -0.05356085 0.0532155 0.06586057
v -0.07465005 0.0532155 0.002152085
v -0.05356097 0.0532155 -0.0623101
v -0.05356097 0.0532155 -0.0623101
v -0.0458318 0.006304741 -0.05426145
v -0.05356097 0.0532155 -0.0623101
v -0.06662631 0.0380252 -0.04502308
v -0.0458318 0.006304741 -0.05426145
v -0.066921 -0.01475251 0.002152085
v -0.06416476 0.002417743 -0.04502308
v -0.07611263 0.002417743 -0.01306278
v -0.066921 -0.01475251 0.002152085
v -0.07857418 0.0380252 -0.01306278
v -0.07465005 0.0532155 0.002152085
v -0.07611263 0.002417743 -0.01306278
v -0.07857418 0.0380252 -0.01306278
v -0.06662631 0.0380252 -0.04502308
v -0.06662631 0.0380252 -0.04502308
v -0.06416476 0.002417743 -0.04502308
v -0.1652128 0.03077549 -0.07875568
v -0.1652129 0.009667575 -0.07875568
v -0.06416476 0.002417743 -0.04502308
v -0.07611263 0.002417743 -0.01306278
v -0.1652129 0.009667575 -0.07875568
v -0.07611263 0.002417743 -0.01306278
v -0.1722955 0.03077549 -0.0598098
v -0.07857418 0.0380252 -0.01306278
v -0.1722955 0.009667575 -0.0598098
vt 0.5778434 0.1810127
vt 0.6231267 0.1790046
vt 0.5778434 0.2055709
vt 0.6232369 0.206216
vt 0.5036533 0.1832289
vt 0.5485742 0.1812023
vt 0.5688502 0.2143614
vt 0.6297936 0.2120769
vt 0.5997186 0.2096056
vt 0.5997186 0.1776418
vt 0.5266627 0.1795928
vt 0.5999146 0.2196609
vt 0.5729871 0.1938275
vt 0.6278667 0.1936094
vt 0.5531049 0.1952783
vt 0.5000533 0.1959966
vt 0.5997269 0.194375
vt 0.5267565 0.1956977
vt 0.5545124 0.1917926
vt 0.5519456 0.1848106
vt 0.6292777 0.1802758
vt 0.6308467 0.1882342
vt 0.6503913 0.1796998
vt 0.6446172 0.1786853
vt 0.6616082 0.1792547
vt 0.6560967 0.1801815
vt 0.5778434 0.1810127
vt 0.599773 0.1658175
vt 0.5997186 0.1776418
vt 0.5689409 0.1725398
vt 0.5606095 0.1938071
vt 0.5729871 0.1938275
vt 0.5997186 0.2096056
vt 0.6232369 0.206216
vt 0.6265725 0.1705225
vt 0.5688502 0.2143614
vt 0.5778434 0.2055709
vt 0.5778434 0.2055709
vt 0.5036533 0.2086699
vt 0.5266627 0.2116987
vt 0.6278667 0.1936094
vt 0.6297936 0.2120769
vt 0.6232369 0.206216
vt 0.6350129 0.197022
vt 0.5689409 0.1725398
vt 0.5778434 0.1810127
vt 0.6231267 0.1790046
vt 0.5485742 0.2091029
vt 0.5531049 0.1952783
vt 0.5485742 0.1812023
vt 0.6265725 0.1705225
vt 0.6231267 0.1790046
vt 0.6265725 0.1705225
vt 0.6329414 0.1760532
vt 0.6231267 0.1790046
vt 0.6278667 0.1936094
vt 0.6292777 0.1802758
vt 0.6308467 0.1882342
vt 0.6278667 0.1936094
vt 0.6352577 0.1899894
vt 0.6350129 0.197022
vt 0.6308467 0.1882342
vt 0.6475114 0.2091007
vt 0.6382363 0.2072555
vt 0.6762059 0.2058233
vt 0.6675298 0.2081581
vt 0.666319 0.1783612
vt 0.6616082 0.1792547
vt 0.6675298 0.2081581
vt 0.6582323 0.2097217
vt 0.6616082 0.1792547
vt 0.6582323 0.2097217
vt 0.6503913 0.1796998
vt 0.6475114 0.2091007
vt 0.6560967 0.1801815
vn 0.2989288 -0.8220782 -0.4845917
vn -0.07997505 -0.1435988 -0.9863992
vn 0.913834 -0.2320184 0.333279
vn -0.1458441 -0.1381456 0.9796149
vn -0.01272178 0.999707 0.02058868
vn 0.01149636 0.9997347 0.01996106
vn 0.913834 -0.2320184 0.3332789
vn -0.1458441 -0.1381456 0.9796149
vn -0.001517547 -0.1427773 0.9897537
vn 0.01830304 -0.8717461 -0.4896159
vn -0.0001930558 0.9997947 0.02026548
vn -0.001488145 -0.142778 0.9897537
vn 0.3298636 -0.9440002 0.00731545
vn -0.3023531 -0.9531838 0.004835241
vn 0.01207368 0.999927 0.0002507479
vn -0.01229107 0.9999244 -0.0003480704
vn 0.01186016 -0.9999084 0.006512814
vn -0.0001027538 1 -0.0001726348
vn -0.8437902 0.4521462 -0.2891053
vn -0.8437902 0.4521462 -0.2891053
vn -0.5833196 -0.1499016 -0.7982906
vn -0.3483435 -0.8741131 -0.3385013
vn -0.0650397 0.9975865 -0.02431412
vn -0.0650397 0.9975865 -0.02431412
vn 0.3201247 0.01389367 -0.9472735
vn -0.06363869 -0.9976894 -0.02379037
vn 0.1899552 -0.1615096 -0.9684171
vn 0.05498606 -0.1539412 -0.9865488
vn 0.05474209 -0.153925 -0.986565
vn 0.1899552 -0.1615096 -0.9684171
vn 0.9689786 -0.2471429 0.0008755819
vn 0.9689786 -0.2471427 0.000946346
vn -0.003907997 -0.8655651 0.5007813
vn -0.2857592 -0.8319494 0.4756069
vn -0.07997505 -0.1435988 -0.9863992
vn 0.1428407 -0.1444172 0.9791529
vn 0.1428407 -0.1444172 0.9791529
vn 0.2782606 -0.8288935 0.4852903
vn -0.01186687 0.9997149 -0.0207164
vn 0.0003776365 0.9997889 -0.02054087
vn -0.9227625 -0.150965 0.3545687
vn -0.9227625 -0.150965 0.3545687
vn -0.9227625 -0.150965 0.3545687
vn -0.9227625 -0.150965 0.3545687
vn 0.9139363 -0.2341633 -0.3314938
vn 0.9139363 -0.2341633 -0.3314938
vn -0.2492969 -0.8534672 -0.4576514
vn 0.01267241 0.9997123 -0.02036153
vn -0.8437902 0.4521462 -0.2891053
vn -0.8437901 0.4521462 -0.2891053
vn -0.5833196 -0.1499016 -0.7982906
vn -0.5833196 -0.1499016 -0.7982906
vn -0.5833196 -0.1499016 -0.7982906
vn -0.5833196 -0.1499016 -0.7982906
vn -0.3483435 -0.8741131 -0.3385013
vn -0.3483435 -0.8741131 -0.3385013
vn -0.3483435 -0.8741131 -0.3385013
vn -0.3483435 -0.8741131 -0.3385013
vn -0.9167064 -0.09019312 0.3892486
vn -0.9167064 -0.0901931 0.3892486
vn -0.9167064 -0.09019311 0.3892486
vn -0.9167064 -0.09019311 0.3892486
vn -0.0650397 0.9975865 -0.02431412
vn -0.0650397 0.9975865 -0.02431412
vn 0.3201247 0.01389367 -0.9472735
vn 0.3201247 0.01389367 -0.9472735
vn 0.3201247 0.01389367 -0.9472735
vn 0.3201247 0.01389367 -0.9472735
vn -0.06363869 -0.9976894 -0.02379037
vn -0.06363868 -0.9976894 -0.02379037
vn -0.06363868 -0.9976894 -0.02379037
vn -0.4416135 -0.01916638 0.8970006
vn -0.4416135 -0.01916638 0.8970007
vn -0.4416135 -0.01916638 0.8970006
vn -0.4416135 -0.01916638 0.8970007
g ayna_03_0
f 21/21/21 51/51/51 52/52/52
f 54/54/54 53/53/53 21/21/21
f 22/22/22 55/55/55 56/56/56
f 57/57/57 55/55/55 58/58/58
f 25/25/25 65/65/65 66/66/66
f 67/67/67 65/65/65 68/68/68
f 29/29/29 2/2/2 35/35/35
f 28/28/28 29/29/29 35/35/35
f 27/27/27 29/29/29 28/28/28
f 30/30/30 27/27/27 28/28/28
f 9/9/9 37/37/37 36/36/36
f 12/12/12 9/9/9 36/36/36
f 4/4/4 9/9/9 12/12/12
f 8/8/8 4/4/4 12/12/12
f 32/32/32 46/46/46 45/45/45
f 31/31/31 32/32/32 45/45/45
f 3/3/3 32/32/32 31/31/31
f 7/7/7 3/3/3 31/31/31
f 17/17/17 1/1/1 13/13/13
f 33/33/33 17/17/17 13/13/13
f 14/14/14 17/17/17 33/33/33
f 34/34/34 14/14/14 33/33/33
f 18/18/18 16/16/16 5/5/5
f 11/11/11 18/18/18 5/5/5
f 15/15/15 18/18/18 11/11/11
f 6/6/6 15/15/15 11/11/11
f 33/33/33 13/13/13 38/38/38
f 42/42/42 41/41/41 43/43/43
f 44/44/44 41/41/41 42/42/42
f 10/10/10 14/14/14 47/47/47
f 17/17/17 14/14/14 10/10/10
f 1/1/1 17/17/17 10/10/10
f 18/18/18 39/39/39 16/16/16
f 40/40/40 39/39/39 18/18/18
f 15/15/15 40/40/40 18/18/18
f 48/48/48 40/40/40 15/15/15
f 20/20/20 49/49/49 50/50/50
f 19/19/19 49/49/49 20/20/20
f 60/60/60 59/59/59 61/61/61
f 62/62/62 59/59/59 60/60/60
f 24/24/24 63/63/63 64/64/64
f 23/23/23 63/63/63 24/24/24
f 26/26/26 69/69/69 70/70/70
f 71/71/71 69/69/69 26/26/26
f 73/73/73 72/72/72 74/74/74
f 75/75/75 72/72/72 73/73/73
