g ayna_sag3
v -0.1426985 -0.0429631 -0.009563281
v 0.04583168 -0.05426145 -0.006304755
v -0.1426985 0.05856561 -0.009563341
v 0.04583168 0.05856561 -0.009563341
v -0.1555381 -0.05101169 -0.05321552
v 0.05356097 -0.06231011 -0.05321552
v -0.1555381 0.06586062 -0.05321552
v 0.05356097 0.06586062 -0.05321552
v -0.0484333 0.07146054 0.01475249
v -0.0484333 -0.06068481 0.01475249
v -0.0484333 -0.0687334 -0.05321552
v -0.0484333 0.07875555 -0.05321552
v -0.1594558 0.007801288 0.01475249
v 0.066921 0.002152079 0.01475249
v 0.07465029 0.002152079 -0.05321552
v -0.1722953 0.007801288 -0.05321552
v -0.0484333 0.005387837 0.05321549
v -0.0484333 0.005387837 -0.05069096
v 0.07857418 -0.01306278 -0.03802522
v 0.06662631 -0.04502309 -0.03802522
v 0.06416488 -0.04502309 -0.002417757
v 0.07611275 -0.01306278 -0.002417757
v 0.1722953 -0.05980969 -0.0307755
v 0.1652128 -0.07875556 -0.0307755
v 0.1652129 -0.07875556 -0.009667589
v 0.1722953 -0.05980969 -0.009667589
v -0.0484333 -0.0687334 -0.05321552
v -0.1555381 -0.05101169 -0.05321552
v -0.1722953 0.007801288 -0.05321552
v -0.1594558 0.007801288 0.01475249
v -0.0484333 0.07146054 0.01475249
v 0.04583168 0.05856561 -0.009563341
v 0.05356097 -0.06231011 -0.05321552
v -0.1555381 0.06586062 -0.05321552
v -0.1426985 0.05856561 -0.009563341
v -0.0484333 0.07146054 0.01475249
v -0.1426985 0.05856561 -0.009563341
v -0.1555381 0.06586062 -0.05321552
v -0.0484333 0.07875555 -0.05321552
v 0.066921 0.002152079 0.01475249
v 0.05356097 0.06586062 -0.05321552
v 0.07465029 0.002152079 -0.05321552
v 0.04583168 0.05856561 -0.009563341
v -0.1555381 -0.05101169 -0.05321552
v -0.1426985 -0.0429631 -0.009563281
v 0.04583168 -0.05426145 -0.006304755
v 0.05356097 0.06586062 -0.05321552
v 0.07465029 0.002152079 -0.05321552
v 0.05356097 -0.06231011 -0.05321552
v 0.05356097 -0.06231011 -0.05321552
v 0.06662631 -0.04502309 -0.03802522
v 0.05356097 -0.06231011 -0.05321552
v 0.04583168 -0.05426145 -0.006304755
v 0.04583168 -0.05426145 -0.006304755
v 0.06416488 -0.04502309 -0.002417757
v 0.066921 0.002152079 0.01475249
v 0.07611275 -0.01306278 -0.002417757
v 0.066921 0.002152079 0.01475249
v 0.07857418 -0.01306278 -0.03802522
v 0.07611275 -0.01306278 -0.002417757
v 0.07465029 0.002152079 -0.05321552
v 0.07857418 -0.01306278 -0.03802522
v 0.06662631 -0.04502309 -0.03802522
v 0.06662631 -0.04502309 -0.03802522
v 0.1652128 -0.07875556 -0.0307755
v 0.06416488 -0.04502309 -0.002417757
v 0.1652129 -0.07875556 -0.009667589
v 0.06416488 -0.04502309 -0.002417757
v 0.1652129 -0.07875556 -0.009667589
v 0.07611275 -0.01306278 -0.002417757
v 0.07611275 -0.01306278 -0.002417757
v 0.1722953 -0.05980969 -0.0307755
v 0.1722953 -0.05980969 -0.009667589
v 0.07857418 -0.01306278 -0.03802522
vt 0.5778434 0.1810127
vt 0.6231267 0.1790046
vt 0.5778434 0.2055709
vt 0.6232369 0.206216
vt 0.5036533 0.1832289
vt 0.5485742 0.1812023
vt 0.5688502 0.2143614
vt 0.6297936 0.2120769
vt 0.5997186 0.2096056
vt 0.5997186 0.1776418
vt 0.5266627 0.1795928
vt 0.5999146 0.2196609
vt 0.5729871 0.1938275
vt 0.6278667 0.1936094
vt 0.5531049 0.1952783
vt 0.5000533 0.1959966
vt 0.5997269 0.194375
vt 0.5267565 0.1956977
vt 0.5545124 0.1917926
vt 0.5519456 0.1848106
vt 0.6292777 0.1802758
vt 0.6308467 0.1882342
vt 0.6503913 0.1796998
vt 0.6446172 0.1786853
vt 0.6616082 0.1792547
vt 0.6560967 0.1801815
vt 0.599773 0.1658175
vt 0.5689409 0.1725398
vt 0.5606095 0.1938071
vt 0.5729871 0.1938275
vt 0.5997186 0.2096056
vt 0.6232369 0.206216
vt 0.6265725 0.1705225
vt 0.5688502 0.2143614
vt 0.5778434 0.2055709
vt 0.5997186 0.2096056
vt 0.5778434 0.2055709
vt 0.5036533 0.2086699
vt 0.5266627 0.2116987
vt 0.6278667 0.1936094
vt 0.6297936 0.2120769
vt 0.6350129 0.197022
vt 0.6232369 0.206216
vt 0.5689409 0.1725398
vt 0.5778434 0.1810127
vt 0.6231267 0.1790046
vt 0.5485742 0.2091029
vt 0.5531049 0.1952783
vt 0.5485742 0.1812023
vt 0.6265725 0.1705225
vt 0.6329414 0.1760532
vt 0.6265725 0.1705225
vt 0.6231267 0.1790046
vt 0.6231267 0.1790046
vt 0.6292777 0.1802758
vt 0.6278667 0.1936094
vt 0.6308467 0.1882342
vt 0.6278667 0.1936094
vt 0.6352577 0.1899894
vt 0.6308467 0.1882342
vt 0.6350129 0.197022
vt 0.6475114 0.2091007
vt 0.6382363 0.2072555
vt 0.6762059 0.2058233
vt 0.666319 0.1783612
vt 0.6675298 0.2081581
vt 0.6616082 0.1792547
vt 0.6675298 0.2081581
vt 0.6616082 0.1792547
vt 0.6582323 0.2097217
vt 0.6582323 0.2097217
vt 0.6503913 0.1796998
vt 0.6560967 0.1801815
vt 0.6475114 0.2091007
vn -0.2684034 -0.7977203 0.5400018
vn 0.07997436 -0.9863993 0.1435987
vn -0.9138355 0.3332761 0.2320168
vn 0.1458442 0.9796148 0.1381459
vn 0.01272258 0.02058913 -0.999707
vn -0.01149634 0.0199615 -0.9997346
vn -0.9138355 0.3332761 0.2320168
vn 0.1458442 0.9796148 0.1381459
vn 0.001517647 0.9897537 0.1427775
vn -0.04543447 -0.8246601 0.5638008
vn 0.000613163 0.0202768 -0.9997942
vn 0.001517647 0.9897537 0.1427775
vn -0.3300191 0.0003992822 0.9439742
vn 0.3025652 0.01015309 0.9530746
vn -0.01208699 -0.000200058 -0.9999269
vn 0.01229758 -6.366018E-05 -0.9999244
vn -0.01262736 0.005590254 0.9999046
vn 0.0001052415 -0.0001318693 -1
vn 0.8437912 -0.2891092 -0.4521419
vn 0.8437912 -0.2891092 -0.4521419
vn 0.5833177 -0.798292 0.149901
vn 0.3483399 -0.3384988 0.8741155
vn 0.06504015 -0.0243139 -0.9975864
vn 0.06504015 -0.0243139 -0.9975864
vn -0.3201241 -0.9472739 -0.01389397
vn 0.06363945 -0.02379028 0.9976894
vn -0.05550251 -0.9865146 0.1539752
vn -0.1899547 -0.9684173 0.1615092
vn -0.9689791 0.0009464666 0.2471407
vn -0.9689791 0.0009464666 0.2471407
vn 0.2857595 0.4756069 0.8319492
vn 0.2857595 0.4756069 0.8319492
vn 0.07997436 -0.9863993 0.1435987
vn -0.1428407 0.9791527 0.1444173
vn -0.1428407 0.9791527 0.1444173
vn -0.2782607 0.48529 0.8288936
vn -0.2782607 0.48529 0.8288936
vn 0.01186733 -0.02071643 -0.9997149
vn -0.0004027249 -0.02054052 -0.9997889
vn 0.9227614 0.3545699 0.1509688
vn 0.9227614 0.3545699 0.1509688
vn 0.9227614 0.3545699 0.1509688
vn 0.9227614 0.3545699 0.1509688
vn -0.9139377 -0.3314907 0.2341616
vn -0.9139377 -0.3314907 0.2341616
vn 0.2492965 -0.4576523 0.8534669
vn -0.01267271 -0.02036153 -0.9997123
vn 0.8437912 -0.2891092 -0.4521419
vn 0.8437912 -0.2891092 -0.4521419
vn 0.5833177 -0.798292 0.149901
vn 0.5833177 -0.798292 0.149901
vn 0.5833177 -0.798292 0.149901
vn 0.5833177 -0.798292 0.149901
vn 0.3483399 -0.3384988 0.8741155
vn 0.3483399 -0.3384988 0.8741155
vn 0.3483399 -0.3384988 0.8741155
vn 0.3483399 -0.3384988 0.8741155
vn 0.9167087 0.3892432 0.09019425
vn 0.9167087 0.3892432 0.09019425
vn 0.9167087 0.3892432 0.09019425
vn 0.9167087 0.3892432 0.09019425
vn 0.06504015 -0.0243139 -0.9975864
vn 0.06504015 -0.0243139 -0.9975864
vn -0.3201241 -0.9472739 -0.01389397
vn -0.3201241 -0.9472739 -0.01389397
vn -0.3201241 -0.9472739 -0.01389397
vn -0.3201241 -0.9472739 -0.01389397
vn 0.06363945 -0.02379028 0.9976894
vn 0.06363945 -0.02379028 0.9976894
vn 0.06363945 -0.02379028 0.9976894
vn 0.4416133 0.8970007 0.0191663
vn 0.4416133 0.8970007 0.0191663
vn 0.4416133 0.8970007 0.0191663
vn 0.4416133 0.8970007 0.0191663
g ayna_sag3_0
f 21/21/21 50/50/50 51/51/51
f 53/53/53 52/52/52 21/21/21
f 22/22/22 54/54/54 55/55/55
f 56/56/56 54/54/54 57/57/57
f 25/25/25 64/64/64 65/65/65
f 66/66/66 64/64/64 67/67/67
f 14/14/14 32/32/32 31/31/31
f 17/17/17 14/14/14 31/31/31
f 10/10/10 14/14/14 17/17/17
f 1/1/1 10/10/10 17/17/17
f 27/27/27 10/10/10 1/1/1
f 28/28/28 27/27/27 1/1/1
f 9/9/9 34/34/34 35/35/35
f 12/12/12 34/34/34 9/9/9
f 4/4/4 12/12/12 9/9/9
f 8/8/8 12/12/12 4/4/4
f 30/30/30 44/44/44 45/45/45
f 29/29/29 44/44/44 30/30/30
f 3/3/3 29/29/29 30/30/30
f 7/7/7 29/29/29 3/3/3
f 18/18/18 38/38/38 39/39/39
f 15/15/15 18/18/18 39/39/39
f 11/11/11 18/18/18 15/15/15
f 6/6/6 11/11/11 15/15/15
f 10/10/10 33/33/33 2/2/2
f 27/27/27 33/33/33 10/10/10
f 13/13/13 36/36/36 37/37/37
f 17/17/17 36/36/36 13/13/13
f 1/1/1 17/17/17 13/13/13
f 41/41/41 40/40/40 42/42/42
f 43/43/43 40/40/40 41/41/41
f 46/46/46 14/14/14 10/10/10
f 47/47/47 15/15/15 39/39/39
f 20/20/20 48/48/48 19/19/19
f 49/49/49 48/48/48 20/20/20
f 59/59/59 58/58/58 60/60/60
f 61/61/61 58/58/58 59/59/59
f 24/24/24 62/62/62 23/23/23
f 63/63/63 62/62/62 24/24/24
f 26/26/26 68/68/68 69/69/69
f 70/70/70 68/68/68 26/26/26
f 72/72/72 71/71/71 73/73/73
f 74/74/74 71/71/71 72/72/72
f 18/18/18 16/16/16 38/38/38
f 5/5/5 16/16/16 18/18/18
f 11/11/11 5/5/5 18/18/18
