g ComputerCarSesColider
v 1.636742 -0.5883217 2.350309
v 1.636742 0.6759483 2.350309
v 1.636742 0.675948 -2.860771
v 1.636742 -0.5883217 -2.860771
v -1.740876 0.6759483 -2.860771
v -1.740876 -0.5883217 -2.860771
v -1.740876 0.675948 2.350309
v -1.740876 -0.5883217 2.350309
v -1.948469 -0.5883219 -3.181052
v -1.948469 -0.5883219 2.67059
v -1.948469 0.6759481 2.67059
v -1.948469 0.6759481 -3.181052
v 1.844336 -0.5883219 2.67059
v 1.844336 -0.5883219 -3.181052
v 1.844336 0.6759481 -3.181052
v 1.844336 0.6759481 2.67059
v 1.636742 -0.5883217 -2.860771
v 1.636742 0.675948 -2.860771
v -1.740876 -0.5883217 -2.860771
v -1.740876 0.6759483 -2.860771
v -1.740876 -0.5883217 2.350309
v 1.636742 0.6759483 2.350309
v -1.740876 0.675948 2.350309
v 1.636742 -0.5883217 2.350309
v -1.948469 -0.5883219 -3.181052
v -1.948469 -0.5883219 2.67059
v -1.740876 -0.5883217 -2.860771
v -1.740876 -0.5883217 2.350309
v 1.844336 -0.5883219 -3.181052
v 1.636742 -0.5883217 -2.860771
v 1.844336 -0.5883219 2.67059
v 1.636742 -0.5883217 2.350309
v -1.948469 0.6759481 -3.181052
v 1.844336 -0.5883219 -3.181052
v 1.844336 0.6759481 -3.181052
v -1.948469 -0.5883219 -3.181052
v -1.948469 0.6759481 2.67059
v -1.948469 0.6759481 -3.181052
v -1.740876 0.675948 2.350309
v -1.740876 0.6759483 -2.860771
v 1.844336 0.6759481 2.67059
v 1.636742 0.6759483 2.350309
v 1.844336 0.6759481 -3.181052
v 1.636742 0.675948 -2.860771
v -1.948469 -0.5883219 2.67059
v 1.844336 0.6759481 2.67059
v 1.844336 -0.5883219 2.67059
v -1.948469 0.6759481 2.67059
vt 0.6249999 0.08688596
vt 0.625 0.163114
vt 0.875 0.163114
vt 0.875 0.08688597
vt 0.375 0.586886
vt 0.375 0.6631141
vt 0.375 0.163114
vt 0.375 0.08688597
vt 0.125 0
vt 0.375 0
vt 0.375 0.25
vt 0.125 0.25
vt 0.625 0
vt 0.875 0
vt 0.875 0.25
vt 0.625 0.25
vt 0.625 0.6631141
vt 0.625 0.5868859
vt 0.125 0.08688596
vt 0.125 0.163114
vt 0.375 0.08688597
vt 0.625 0.163114
vt 0.375 0.163114
vt 0.625 0.08688597
vt 0.375 0.75
vt 0.375 1
vt 0.3886834 0.7636834
vt 0.3886834 0.9863167
vt 0.625 0.75
vt 0.6113166 0.7636834
vt 0.625 1
vt 0.6113167 0.9863167
vt 0.375 0.5
vt 0.625 0.75
vt 0.625 0.5
vt 0.375 0.75
vt 0.375 0.25
vt 0.375 0.5
vt 0.3886834 0.2636834
vt 0.3886834 0.4863167
vt 0.625 0.25
vt 0.6113166 0.2636834
vt 0.625 0.5
vt 0.6113167 0.4863167
vt 0.375 0
vt 0.625 0.25
vt 0.625 0
vt 0.375 0.25
vn -1 0 0
vn -1 0 0
vn -1 0 0
vn -1 0 0
vn 0 0 1
vn 0 0 1
vn 1 0 0
vn 1 0 0
vn -1 0 0
vn -1 0 0
vn -1 0 0
vn -1 0 0
vn 1 0 0
vn 1 0 0
vn 1 0 0
vn 1 0 0
vn 0 0 1
vn 0 0 1
vn 1 0 0
vn 1 0 0
vn 0 0 -1
vn 0 0 -1
vn 0 0 -1
vn 0 0 -1
vn 0 -1 0
vn 0 -1 0
vn 0 -1 0
vn 0 -1 0
vn 0 -1 0
vn 0 -1 0
vn 0 -1 0
vn 0 -1 0
vn 0 0 -1
vn 0 0 -1
vn 0 0 -1
vn 0 0 -1
vn 0 1 0
vn 0 1 0
vn 0 1 0
vn 0 1 0
vn 0 1 0
vn 0 1 0
vn 0 1 0
vn 0 1 0
vn 0 0 1
vn 0 0 1
vn 0 0 1
vn 0 0 1
g ComputerCarSesColider_0
f 3/3/3 1/1/1 2/2/2
f 4/4/4 1/1/1 3/3/3
f 5/5/5 17/17/17 18/18/18
f 6/6/6 17/17/17 5/5/5
f 7/7/7 19/19/19 20/20/20
f 8/8/8 19/19/19 7/7/7
f 22/22/22 21/21/21 23/23/23
f 24/24/24 21/21/21 22/22/22
f 11/11/11 9/9/9 10/10/10
f 12/12/12 9/9/9 11/11/11
f 15/15/15 13/13/13 14/14/14
f 16/16/16 13/13/13 15/15/15
f 34/34/34 33/33/33 35/35/35
f 36/36/36 33/33/33 34/34/34
f 46/46/46 45/45/45 47/47/47
f 48/48/48 45/45/45 46/46/46
f 26/26/26 27/27/27 28/28/28
f 32/32/32 26/26/26 28/28/28
f 31/31/31 26/26/26 32/32/32
f 30/30/30 31/31/31 32/32/32
f 29/29/29 31/31/31 30/30/30
f 27/27/27 29/29/29 30/30/30
f 25/25/25 29/29/29 27/27/27
f 26/26/26 25/25/25 27/27/27
f 38/38/38 39/39/39 40/40/40
f 44/44/44 38/38/38 40/40/40
f 43/43/43 38/38/38 44/44/44
f 42/42/42 43/43/43 44/44/44
f 41/41/41 43/43/43 42/42/42
f 39/39/39 41/41/41 42/42/42
f 37/37/37 41/41/41 39/39/39
f 38/38/38 37/37/37 39/39/39
