g dolap_03
v 0.3256161 -1.648674 -0.5547404
v 0.3256156 1.648674 -0.5547404
v -0.3256156 -1.648674 -0.5547404
v -0.3256161 1.648674 -0.5547404
v 0.3256161 -1.648674 0.5547406
v 0.3256156 1.648674 0.5547406
v -0.3256156 -1.648674 0.5547406
v -0.3256161 1.648674 0.5547406
v 0.3482221 1.629252 -0.5560726
v 0.6272197 1.961749 -0.5560726
v 0.3321348 1.642751 -0.5560726
v 0.6111323 1.975248 -0.5560726
v 0.3482221 1.629252 0.5560728
v 0.6272197 1.961749 0.5560728
v 0.3321348 1.642751 0.5560728
v 0.6111323 1.975248 0.5560728
v 0.3256161 -1.648674 -0.5547404
v 0.3256156 1.648674 0.5547406
v 0.3256156 1.648674 -0.5547404
v 0.3256161 -1.648674 0.5547406
v 0.3256156 1.648674 -0.5547404
v -0.3256161 1.648674 0.5547406
v -0.3256161 1.648674 -0.5547404
v 0.3256156 1.648674 0.5547406
v -0.3256161 1.648674 -0.5547404
v -0.3256156 -1.648674 0.5547406
v -0.3256156 -1.648674 -0.5547404
v -0.3256161 1.648674 0.5547406
v -0.3256156 -1.648674 -0.5547404
v 0.3256161 -1.648674 0.5547406
v 0.3256161 -1.648674 -0.5547404
v -0.3256156 -1.648674 0.5547406
v 0.3482221 1.629252 -0.5560726
v 0.6272197 1.961749 0.5560728
v 0.6272197 1.961749 -0.5560726
v 0.3482221 1.629252 0.5560728
v 0.6272197 1.961749 -0.5560726
v 0.6111323 1.975248 0.5560728
v 0.6111323 1.975248 -0.5560726
v 0.6272197 1.961749 0.5560728
v 0.6111323 1.975248 -0.5560726
v 0.3321348 1.642751 0.5560728
v 0.3321348 1.642751 -0.5560726
v 0.6111323 1.975248 0.5560728
v 0.3321348 1.642751 -0.5560726
v 0.3482221 1.629252 0.5560728
v 0.3482221 1.629252 -0.5560726
v 0.3321348 1.642751 0.5560728
vt 0.1278098 0.665143
vt 0.6645784 0.665143
vt 0.1278098 0.5591304
vt 0.6645784 0.5591304
vt 0.1228032 0.3812585
vt 0.9923685 0.3812585
vt 0.1228032 0.552999
vt 0.9923685 0.552999
vt 0.2552879 0.2410585
vt 0.2129684 0.2410585
vt 0.2552879 0.2549314
vt 0.2129684 0.2549314
vt 0.2552879 0.2391405
vt 0.2129684 0.2391405
vt 0.2552879 0.2252676
vt 0.2129684 0.2252676
vt 2.980232E-08 0.005409211
vt 1 0.3410796
vt 1 0.005409211
vt 2.980232E-08 0.3410796
vt 0.004152661 0.3860528
vt 0.1163049 0.5956543
vt 0.1163049 0.3860528
vt 0.004152661 0.5956543
vt 0.682107 0.5584165
vt 0.986728 0.6708555
vt 0.986728 0.5584165
vt 0.682107 0.6708555
vt 0.004152661 0.3860528
vt 0.1163049 0.5956543
vt 0.1163049 0.3860528
vt 0.004152661 0.5956543
vt 0.1701081 0.3218302
vt 0.3099389 0.02428702
vt 0.1701081 0.02428702
vt 0.3099389 0.3218302
vt 0.257206 0.2112953
vt 0.283133 0.1974225
vt 0.257206 0.1974225
vt 0.283133 0.2112953
vt 0.02920224 0.3193554
vt 0.1603401 0.02884513
vt 0.02920221 0.02884513
vt 0.1603401 0.3193554
vt 0.257206 0.1834503
vt 0.283133 0.1695774
vt 0.257206 0.1695774
vt 0.283133 0.1834503
vn 0 0 -1
vn 0 0 -1
vn 0 0 -1
vn 0 0 -1
vn 0 0 1
vn 0 0 1
vn 0 0 1
vn 0 0 1
vn 0 0 -1
vn 0 0 -1
vn 0 0 -1
vn 0 0 -1
vn 0 0 1
vn 0 0 1
vn 0 0 1
vn 0 0 1
vn 1 0 0
vn 1 0 0
vn 1 0 0
vn 1 0 0
vn 0 1 0
vn 0 1 0
vn 0 1 0
vn 0 1 0
vn -1 0 0
vn -1 0 0
vn -1 0 0
vn -1 0 0
vn 0 -1 0
vn 0 -1 0
vn 0 -1 0
vn 0 -1 0
vn 0.7660447 -0.6427873 0
vn 0.7660447 -0.6427873 0
vn 0.7660447 -0.6427873 0
vn 0.7660447 -0.6427873 0
vn 0.6427879 0.7660443 0
vn 0.6427879 0.7660443 0
vn 0.6427879 0.7660443 0
vn 0.6427879 0.7660443 0
vn -0.7660447 0.6427873 0
vn -0.7660447 0.6427873 0
vn -0.7660447 0.6427873 0
vn -0.7660447 0.6427873 0
vn -0.6427886 -0.7660437 0
vn -0.6427886 -0.7660437 0
vn -0.6427886 -0.7660437 0
vn -0.6427886 -0.7660437 0
g dolap_03_0
f 4/4/4 1/1/1 3/3/3
f 2/2/2 1/1/1 4/4/4
f 8/8/8 5/5/5 6/6/6
f 7/7/7 5/5/5 8/8/8
f 18/18/18 17/17/17 19/19/19
f 20/20/20 17/17/17 18/18/18
f 22/22/22 21/21/21 23/23/23
f 24/24/24 21/21/21 22/22/22
f 26/26/26 25/25/25 27/27/27
f 28/28/28 25/25/25 26/26/26
f 30/30/30 29/29/29 31/31/31
f 32/32/32 29/29/29 30/30/30
f 12/12/12 9/9/9 11/11/11
f 10/10/10 9/9/9 12/12/12
f 16/16/16 13/13/13 14/14/14
f 15/15/15 13/13/13 16/16/16
f 34/34/34 33/33/33 35/35/35
f 36/36/36 33/33/33 34/34/34
f 38/38/38 37/37/37 39/39/39
f 40/40/40 37/37/37 38/38/38
f 42/42/42 41/41/41 43/43/43
f 44/44/44 41/41/41 42/42/42
f 46/46/46 45/45/45 47/47/47
f 48/48/48 45/45/45 46/46/46
