g egzoz
v 0.1101644 0.1238412 0.2296554
v 0.06020262 0.1253987 0.2458138
v 0.02932455 0.1294761 0.2881178
v 0.02932454 0.1345161 0.3404082
v 0.0602026 0.1385935 0.3827123
v 0.1101644 0.140151 0.3988711
v 0.1601261 0.1385935 0.3827123
v 0.1910042 0.1345161 0.3404082
v 0.1910042 0.1294761 0.2881178
v 0.1601261 0.1253987 0.2458138
v 0.1101644 0.03465088 -0.009747583
v 0.06020262 0.02540983 0.007452171
v 0.02932456 0.001216429 0.05248086
v 0.02932455 -0.02868824 0.1081399
v 0.06020261 -0.05288158 0.1531688
v 0.1101644 -0.06212262 0.1703684
v 0.1601261 -0.05288158 0.1531688
v 0.1910042 -0.02868824 0.1081399
v 0.1910042 0.001216429 0.05248086
v 0.1601261 0.02540983 0.007452171
v 0.1101644 0.01881464 -0.1719356
v 0.06020265 0.004316645 -0.1731623
v 0.0293246 -0.03459064 -0.1763738
v 0.02932461 -0.08395188 -0.1803439
v 0.06020267 -0.124538 -0.1835552
v 0.1101644 -0.1401509 -0.1847823
v 0.1601262 -0.124538 -0.1835552
v 0.1910042 -0.08395188 -0.1803435
v 0.1910042 -0.03459064 -0.1763738
v 0.1601261 0.004316645 -0.1731623
v 0.1101644 0.03274496 -0.3723236
v 0.06020269 0.0170954 -0.3748587
v 0.02932463 -0.02411525 -0.3814953
v 0.02932463 -0.07537298 -0.3896993
v 0.0602027 -0.1170036 -0.3963359
v 0.1101645 -0.1329322 -0.398871
v 0.1601262 -0.1170036 -0.3963359
v 0.1910042 -0.07537298 -0.3896993
v 0.1910042 -0.02411525 -0.3814953
v 0.1601262 0.01709552 -0.3748585
v -0.1101644 0.1238412 0.2296554
v -0.1601261 0.1253986 0.245814
v -0.1910042 0.1294761 0.2881176
v -0.1910042 0.1345161 0.3404082
v -0.1601262 0.1385935 0.3827123
v -0.1101644 0.140151 0.3988711
v -0.06020265 0.1385935 0.3827123
v -0.0293246 0.1345161 0.3404082
v -0.02932458 0.1294761 0.2881178
v -0.06020265 0.1253986 0.245814
v -0.1101644 0.03465088 -0.009747583
v -0.1601261 0.02540983 0.007452171
v -0.1910042 0.001216429 0.05248086
v -0.1910042 -0.02868824 0.1081399
v -0.1601262 -0.05288158 0.1531688
v -0.1101644 -0.06212262 0.1703684
v -0.06020267 -0.05288158 0.1531688
v -0.0293246 -0.02868824 0.1081399
v -0.0293246 0.001216429 0.05248086
v -0.06020265 0.02540983 0.007452171
v -0.1101644 0.01881464 -0.1719356
v -0.1601261 0.004316645 -0.1731623
v -0.1910042 -0.03459064 -0.176374
v -0.1910042 -0.08395188 -0.1803439
v -0.1601261 -0.1245381 -0.1835554
v -0.1101644 -0.1401509 -0.1847823
v -0.06020261 -0.124538 -0.1835552
v -0.02932455 -0.08395188 -0.1803439
v -0.02932455 -0.03459064 -0.1763738
v -0.06020262 0.004316645 -0.1731623
v -0.1101643 0.03274484 -0.3723236
v -0.1601261 0.0170954 -0.3748587
v -0.1910042 -0.02411525 -0.3814956
v -0.1910042 -0.07537298 -0.3896991
v -0.1601261 -0.1170036 -0.3963359
v -0.1101643 -0.1329322 -0.398871
v -0.06020258 -0.1170036 -0.3963359
v -0.02932452 -0.07537298 -0.3896993
v -0.02932452 -0.02411525 -0.3814953
v -0.06020259 0.01709552 -0.3748585
v 0.1101644 0.140151 0.3988711
v 0.1101644 -0.06212262 0.1703684
v 0.1101644 0.03465088 -0.009747583
v 0.06020262 0.02540983 0.007452171
v 0.02932456 0.001216429 0.05248086
v 0.02932455 -0.02868824 0.1081399
v 0.06020261 -0.05288158 0.1531688
v 0.1101644 -0.06212262 0.1703684
v 0.1101644 -0.06212262 0.1703684
v 0.1101644 -0.1401509 -0.1847823
v 0.1601261 -0.05288158 0.1531688
v 0.1910042 -0.02868824 0.1081399
v 0.1910042 0.001216429 0.05248086
v 0.1601261 0.02540983 0.007452171
v 0.1101645 -0.1329322 -0.398871
v 0.1601262 -0.1170036 -0.3963359
v 0.1910042 -0.07537298 -0.3896993
v 0.1910042 -0.02411525 -0.3814953
v 0.1601262 0.01709552 -0.3748585
v 0.1101645 -0.1329322 -0.398871
v 0.1101644 0.03274496 -0.3723236
v 0.0602027 -0.1170036 -0.3963359
v 0.06020269 0.0170954 -0.3748587
v 0.02932463 -0.07537298 -0.3896993
v 0.02932463 -0.02411525 -0.3814953
v -0.1101644 0.140151 0.3988711
v -0.1101644 -0.06212262 0.1703684
v -0.1101644 0.03465088 -0.009747583
v -0.1601261 0.02540983 0.007452171
v -0.1910042 0.001216429 0.05248086
v -0.1910042 -0.02868824 0.1081399
v -0.1601262 -0.05288158 0.1531688
v -0.1101644 -0.06212262 0.1703684
v -0.1101644 -0.06212262 0.1703684
v -0.1101644 -0.1401509 -0.1847823
v -0.06020267 -0.05288158 0.1531688
v -0.0293246 -0.02868824 0.1081399
v -0.0293246 0.001216429 0.05248086
v -0.06020265 0.02540983 0.007452171
v -0.1101643 -0.1329322 -0.398871
v -0.06020258 -0.1170036 -0.3963359
v -0.02932452 -0.07537298 -0.3896993
v -0.02932452 -0.02411525 -0.3814953
v -0.06020259 0.01709552 -0.3748585
v -0.1101643 -0.1329322 -0.398871
v -0.1101643 0.03274484 -0.3723236
v -0.1601261 -0.1170036 -0.3963359
v -0.1601261 0.0170954 -0.3748587
v -0.1910042 -0.07537298 -0.3896991
v -0.1910042 -0.02411525 -0.3814956
vt 0.5086755 0.7335706
vt 0.5000134 0.7332983
vt 0.4912801 0.7325855
vt 0.4824526 0.7317045
vt 0.4735165 0.7309917
vt 0.4645298 0.7307194
vt 0.5431935 0.7309917
vt 0.5344439 0.7317045
vt 0.5258353 0.7325856
vt 0.5172729 0.7332983
vt 0.508668 0.7491623
vt 0.5002642 0.7507778
vt 0.4912855 0.7550071
vt 0.4819266 0.760235
vt 0.472948 0.7644642
vt 0.4645442 0.7660797
vt 0.54377 0.7644642
vt 0.5349585 0.760235
vt 0.5258299 0.7550071
vt 0.5170184 0.7507778
vt 0.6056914 0.7641276
vt 0.6159202 0.7639381
vt 0.6251291 0.7634424
vt 0.6337401 0.7628296
vt 0.6423203 0.7623338
vt 0.6508953 0.7621446
vt 0.5716659 0.7623338
vt 0.5796636 0.7628296
vt 0.5875148 0.7634424
vt 0.5959124 0.7639381
vt 0.6058181 0.7331949
vt 0.6145819 0.7328037
vt 0.6233918 0.7317791
vt 0.6323547 0.7305128
vt 0.6416032 0.7294883
vt 0.6509526 0.729097
vt 0.5724183 0.7294883
vt 0.5809435 0.7305127
vt 0.5891127 0.7317791
vt 0.5973012 0.7328037
vt 0.5086755 0.7335706
vt 0.5000134 0.7332983
vt 0.4912801 0.7325855
vt 0.4824526 0.7317045
vt 0.4735165 0.7309917
vt 0.4645298 0.7307194
vt 0.5431935 0.7309917
vt 0.5344439 0.7317045
vt 0.5258353 0.7325856
vt 0.5172729 0.7332983
vt 0.508668 0.7491623
vt 0.5002642 0.7507778
vt 0.4912855 0.7550071
vt 0.4819266 0.760235
vt 0.472948 0.7644642
vt 0.4645442 0.7660797
vt 0.54377 0.7644642
vt 0.5349585 0.760235
vt 0.5258299 0.7550071
vt 0.5170184 0.7507778
vt 0.6056914 0.7641276
vt 0.6159202 0.7639381
vt 0.6251291 0.7634424
vt 0.6337401 0.7628296
vt 0.6423203 0.7623338
vt 0.6508953 0.7621446
vt 0.5716659 0.7623338
vt 0.5796636 0.7628296
vt 0.5875148 0.7634424
vt 0.5959124 0.7639381
vt 0.6058181 0.7331949
vt 0.6145819 0.7328037
vt 0.6233918 0.7317791
vt 0.6323547 0.7305128
vt 0.6416032 0.7294883
vt 0.6509526 0.729097
vt 0.5724183 0.7294883
vt 0.5809435 0.7305127
vt 0.5891127 0.7317791
vt 0.5973012 0.7328037
vt 0.552106 0.7307194
vt 0.5521203 0.7660797
vt 0.6058323 0.7891635
vt 0.613879 0.7918185
vt 0.6198297 0.7987693
vt 0.6241339 0.807361
vt 0.6284036 0.8143117
vt 0.6558805 0.8169667
vt 0.5683044 0.8169667
vt 0.5633191 0.7621446
vt 0.5845417 0.8143117
vt 0.5884276 0.807361
vt 0.5924722 0.7987692
vt 0.5980475 0.7918185
vt 0.5633764 0.729097
vt 0.4854727 0.7647588
vt 0.4718738 0.783322
vt 0.4718725 0.8061814
vt 0.485469 0.8245637
vt 0.5074744 0.7576573
vt 0.5074699 0.8315464
vt 0.5294754 0.7647614
vt 0.5294717 0.8245665
vt 0.543072 0.7833264
vt 0.5430705 0.8061858
vt 0.552106 0.7307194
vt 0.5521203 0.7660797
vt 0.6058323 0.7891635
vt 0.613879 0.7918185
vt 0.6198297 0.7987693
vt 0.6241339 0.807361
vt 0.6284036 0.8143117
vt 0.6558805 0.8169667
vt 0.5683044 0.8169667
vt 0.5633191 0.7621446
vt 0.5845417 0.8143117
vt 0.5884276 0.807361
vt 0.5924722 0.7987692
vt 0.5980475 0.7918185
vt 0.5633764 0.729097
vt 0.4854727 0.7647588
vt 0.4718738 0.783322
vt 0.4718725 0.8061814
vt 0.485469 0.8245637
vt 0.5074744 0.7576573
vt 0.5074699 0.8315464
vt 0.5294754 0.7647614
vt 0.5294717 0.8245665
vt 0.543072 0.7833264
vt 0.5430705 0.8061858
vn 0 0.929764 -0.3681563
vn -0.4480594 0.820664 -0.3546171
vn -0.9142846 0.3649628 -0.1757437
vn -0.9343051 -0.2827159 0.2171307
vn -0.5275264 -0.6565359 0.5391443
vn 0 -0.7583252 0.6518764
vn 0.5275266 -0.6565357 0.5391443
vn 0.934305 -0.2827161 0.2171308
vn 0.9142847 0.3649626 -0.1757435
vn 0.4480595 0.820664 -0.3546171
vn 0 0.929764 -0.3681563
vn -0.4859751 0.8429157 -0.2309138
vn -0.9257096 0.3612114 -0.1121971
vn -0.9389226 -0.3127905 0.1434797
vn -0.5427037 -0.7567625 0.3643942
vn 0 -0.7583252 0.6518764
vn 0.5427036 -0.7567625 0.3643943
vn 0.9389225 -0.3127907 0.1434799
vn 0.9257096 0.3612113 -0.1121969
vn 0.4859751 0.8429157 -0.2309138
vn 0 0.9997783 -0.02105505
vn -0.5443053 0.8384916 -0.02576177
vn -0.940833 0.3385232 -0.01533548
vn -0.9441291 -0.328354 0.02835282
vn -0.5603793 -0.8249996 0.07314824
vn 0 -0.9959586 0.08981313
vn 0.560379 -0.8249998 0.07314859
vn 0.944129 -0.3283541 0.02835326
vn 0.9408331 0.3385231 -0.01533518
vn 0.5443051 0.8384918 -0.02576161
vn 0 0.997801 0.06628071
vn -0.5693419 0.8204833 0.05154589
vn -0.946995 0.3207251 0.01833281
vn -0.948859 -0.3154705 -0.01204208
vn -0.5790715 -0.8147503 -0.02929356
vn 0 -0.9994032 -0.03453996
vn 0.5790713 -0.8147504 -0.02929319
vn 0.948859 -0.3154706 -0.01204159
vn 0.946995 0.3207247 0.01833321
vn 0.5693416 0.8204834 0.05154621
vn 0 0.929764 -0.3681561
vn -0.4480597 0.820664 -0.3546169
vn -0.9142841 0.3649637 -0.175744
vn -0.9343051 -0.2827158 0.2171305
vn -0.5275264 -0.6565359 0.5391442
vn 0 -0.7583252 0.6518764
vn 0.5275264 -0.6565359 0.5391443
vn 0.934305 -0.2827162 0.2171308
vn 0.9142841 0.3649637 -0.1757438
vn 0.4480594 0.8206641 -0.3546169
vn 0 0.929764 -0.3681561
vn -0.4859751 0.8429158 -0.2309138
vn -0.9257092 0.3612121 -0.1121973
vn -0.9389228 -0.3127902 0.1434795
vn -0.5427037 -0.7567625 0.3643943
vn 0 -0.7583252 0.6518764
vn 0.5427037 -0.7567624 0.3643943
vn 0.9389226 -0.3127905 0.1434799
vn 0.9257094 0.3612118 -0.1121971
vn 0.4859751 0.8429157 -0.2309138
vn 0 0.9997783 -0.02105523
vn -0.5443047 0.838492 -0.02576181
vn -0.940833 0.3385236 -0.01533545
vn -0.9441293 -0.3283535 0.02835266
vn -0.5603792 -0.8249997 0.07314816
vn 0 -0.9959586 0.08981315
vn 0.5603794 -0.8249995 0.07314856
vn 0.9441291 -0.3283538 0.02835323
vn 0.9408331 0.338523 -0.01533518
vn 0.5443049 0.8384918 -0.0257617
vn 0 0.997801 0.06628033
vn -0.5693412 0.8204837 0.05154581
vn -0.946995 0.3207252 0.0183329
vn -0.9488591 -0.3154702 -0.01204227
vn -0.5790712 -0.8147506 -0.02929394
vn 0 -0.9994032 -0.03454015
vn 0.5790715 -0.8147502 -0.02929321
vn 0.948859 -0.3154704 -0.01204158
vn 0.946995 0.3207245 0.01833322
vn 0.5693413 0.8204837 0.05154603
vn 0 -0.7583252 0.6518764
vn 0 -0.7583252 0.6518764
vn 0 0.9942473 -0.107108
vn -0.4859751 0.8429157 -0.2309138
vn -0.9257096 0.3612114 -0.1121971
vn -0.9389226 -0.3127905 0.1434797
vn -0.5427037 -0.7567625 0.3643942
vn 0 -0.9773878 0.2114542
vn 0 -0.9773878 0.2114542
vn 0 -0.9959586 0.08981313
vn 0.5427036 -0.7567625 0.3643943
vn 0.9389225 -0.3127907 0.1434799
vn 0.9257096 0.3612113 -0.1121969
vn 0.4859751 0.8429157 -0.2309138
vn 0 -0.9994032 -0.03453996
vn 0 0.1581662 -0.9874126
vn 0 0.1581662 -0.9874126
vn 0 0.1581662 -0.9874126
vn 0 0.1581662 -0.9874126
vn 0 0.1581662 -0.9874126
vn 0 0.1581662 -0.9874126
vn 0 0.1581662 -0.9874126
vn 0 0.1581662 -0.9874126
vn 0 0.1581662 -0.9874126
vn 0 0.1581662 -0.9874126
vn 0 -0.7583252 0.6518764
vn 0 -0.7583252 0.6518764
vn 0 0.9942473 -0.107108
vn -0.4859751 0.8429158 -0.2309138
vn -0.9257092 0.3612121 -0.1121973
vn -0.9389228 -0.3127902 0.1434795
vn -0.5427037 -0.7567625 0.3643943
vn 0 -0.9773878 0.2114545
vn 0 -0.9773878 0.2114545
vn 0 -0.9959586 0.08981315
vn 0.5427037 -0.7567624 0.3643943
vn 0.9389226 -0.3127905 0.1434799
vn 0.9257094 0.3612118 -0.1121971
vn 0.4859751 0.8429157 -0.2309138
vn 0 -0.9994032 -0.03454015
vn 0 0.1581658 -0.9874126
vn 0 0.1581658 -0.9874126
vn 0 0.1581658 -0.9874126
vn 0 0.1581658 -0.9874126
vn 0 0.1581658 -0.9874126
vn 0 0.1581658 -0.9874126
vn 0 0.1581658 -0.9874126
vn 0 0.1581658 -0.9874126
vn 0 0.1581658 -0.9874126
vn 0 0.1581658 -0.9874126
g egzoz_0
f 17/17/17 81/81/81 82/82/82
f 7/7/7 81/81/81 17/17/17
f 18/18/18 7/7/7 17/17/17
f 8/8/8 7/7/7 18/18/18
f 19/19/19 8/8/8 18/18/18
f 9/9/9 8/8/8 19/19/19
f 20/20/20 9/9/9 19/19/19
f 10/10/10 9/9/9 20/20/20
f 11/11/11 10/10/10 20/20/20
f 1/1/1 10/10/10 11/11/11
f 12/12/12 1/1/1 11/11/11
f 2/2/2 1/1/1 12/12/12
f 13/13/13 2/2/2 12/12/12
f 3/3/3 2/2/2 13/13/13
f 14/14/14 3/3/3 13/13/13
f 4/4/4 3/3/3 14/14/14
f 15/15/15 4/4/4 14/14/14
f 5/5/5 4/4/4 15/15/15
f 16/16/16 5/5/5 15/15/15
f 6/6/6 5/5/5 16/16/16
f 27/27/27 89/89/89 90/90/90
f 91/91/91 89/89/89 27/27/27
f 28/28/28 91/91/91 27/27/27
f 92/92/92 91/91/91 28/28/28
f 29/29/29 92/92/92 28/28/28
f 93/93/93 92/92/92 29/29/29
f 30/30/30 93/93/93 29/29/29
f 94/94/94 93/93/93 30/30/30
f 21/21/21 94/94/94 30/30/30
f 83/83/83 94/94/94 21/21/21
f 22/22/22 83/83/83 21/21/21
f 84/84/84 83/83/83 22/22/22
f 23/23/23 84/84/84 22/22/22
f 85/85/85 84/84/84 23/23/23
f 24/24/24 85/85/85 23/23/23
f 86/86/86 85/85/85 24/24/24
f 25/25/25 86/86/86 24/24/24
f 87/87/87 86/86/86 25/25/25
f 26/26/26 87/87/87 25/25/25
f 88/88/88 87/87/87 26/26/26
f 25/25/25 36/36/36 26/26/26
f 35/35/35 36/36/36 25/25/25
f 24/24/24 35/35/35 25/25/25
f 34/34/34 35/35/35 24/24/24
f 23/23/23 34/34/34 24/24/24
f 33/33/33 34/34/34 23/23/23
f 22/22/22 33/33/33 23/23/23
f 32/32/32 33/33/33 22/22/22
f 21/21/21 32/32/32 22/22/22
f 31/31/31 32/32/32 21/21/21
f 30/30/30 31/31/31 21/21/21
f 40/40/40 31/31/31 30/30/30
f 29/29/29 40/40/40 30/30/30
f 39/39/39 40/40/40 29/29/29
f 28/28/28 39/39/39 29/29/29
f 38/38/38 39/39/39 28/28/28
f 27/27/27 38/38/38 28/28/28
f 37/37/37 38/38/38 27/27/27
f 90/90/90 37/37/37 27/27/27
f 95/95/95 37/37/37 90/90/90
f 103/103/103 104/104/104 105/105/105
f 102/102/102 104/104/104 103/103/103
f 101/101/101 102/102/102 103/103/103
f 100/100/100 102/102/102 101/101/101
f 99/99/99 100/100/100 101/101/101
f 96/96/96 100/100/100 99/99/99
f 98/98/98 96/96/96 99/99/99
f 97/97/97 96/96/96 98/98/98
f 57/57/57 106/106/106 107/107/107
f 47/47/47 106/106/106 57/57/57
f 58/58/58 47/47/47 57/57/57
f 48/48/48 47/47/47 58/58/58
f 59/59/59 48/48/48 58/58/58
f 49/49/49 48/48/48 59/59/59
f 60/60/60 49/49/49 59/59/59
f 50/50/50 49/49/49 60/60/60
f 51/51/51 50/50/50 60/60/60
f 41/41/41 50/50/50 51/51/51
f 52/52/52 41/41/41 51/51/51
f 42/42/42 41/41/41 52/52/52
f 53/53/53 42/42/42 52/52/52
f 43/43/43 42/42/42 53/53/53
f 54/54/54 43/43/43 53/53/53
f 44/44/44 43/43/43 54/54/54
f 55/55/55 44/44/44 54/54/54
f 45/45/45 44/44/44 55/55/55
f 56/56/56 45/45/45 55/55/55
f 46/46/46 45/45/45 56/56/56
f 67/67/67 114/114/114 115/115/115
f 116/116/116 114/114/114 67/67/67
f 68/68/68 116/116/116 67/67/67
f 117/117/117 116/116/116 68/68/68
f 69/69/69 117/117/117 68/68/68
f 118/118/118 117/117/117 69/69/69
f 70/70/70 118/118/118 69/69/69
f 119/119/119 118/118/118 70/70/70
f 61/61/61 119/119/119 70/70/70
f 108/108/108 119/119/119 61/61/61
f 62/62/62 108/108/108 61/61/61
f 109/109/109 108/108/108 62/62/62
f 63/63/63 109/109/109 62/62/62
f 110/110/110 109/109/109 63/63/63
f 64/64/64 110/110/110 63/63/63
f 111/111/111 110/110/110 64/64/64
f 65/65/65 111/111/111 64/64/64
f 112/112/112 111/111/111 65/65/65
f 66/66/66 112/112/112 65/65/65
f 113/113/113 112/112/112 66/66/66
f 65/65/65 76/76/76 66/66/66
f 75/75/75 76/76/76 65/65/65
f 64/64/64 75/75/75 65/65/65
f 74/74/74 75/75/75 64/64/64
f 63/63/63 74/74/74 64/64/64
f 73/73/73 74/74/74 63/63/63
f 62/62/62 73/73/73 63/63/63
f 72/72/72 73/73/73 62/62/62
f 61/61/61 72/72/72 62/62/62
f 71/71/71 72/72/72 61/61/61
f 70/70/70 71/71/71 61/61/61
f 80/80/80 71/71/71 70/70/70
f 69/69/69 80/80/80 70/70/70
f 79/79/79 80/80/80 69/69/69
f 68/68/68 79/79/79 69/69/69
f 78/78/78 79/79/79 68/68/68
f 67/67/67 78/78/78 68/68/68
f 77/77/77 78/78/78 67/67/67
f 115/115/115 77/77/77 67/67/67
f 120/120/120 77/77/77 115/115/115
f 128/128/128 129/129/129 130/130/130
f 127/127/127 129/129/129 128/128/128
f 126/126/126 127/127/127 128/128/128
f 125/125/125 127/127/127 126/126/126
f 124/124/124 125/125/125 126/126/126
f 121/121/121 125/125/125 124/124/124
f 123/123/123 121/121/121 124/124/124
f 122/122/122 121/121/121 123/123/123
