g egzoz_sag3
v 0 0.1238412 0.2296553
v -0.04996175 0.1253986 0.2458138
v -0.08083981 0.1294761 0.2881179
v -0.08083987 0.1345161 0.3404084
v -0.04996181 0.1385935 0.3827125
v 0 0.140151 0.3988711
v 0.04996169 0.1385935 0.3827125
v 0.08083975 0.1345161 0.3404084
v 0.08083975 0.1294761 0.2881179
v 0.04996175 0.1253986 0.2458138
v 0 0.03465085 -0.0097474
v -0.04996175 0.02540981 0.007451997
v -0.08083981 0.001216405 0.05248092
v -0.08083987 -0.02868826 0.1081399
v -0.04996181 -0.05288161 0.1531687
v 0 -0.06212271 0.1703683
v 0.04996175 -0.05288161 0.1531687
v 0.08083975 -0.02868826 0.1081399
v 0.08083981 0.001216405 0.05248092
v 0.04996175 0.02540981 0.007451997
v 0 0.01881468 -0.1719355
v -0.04996175 0.004316682 -0.1731621
v -0.08083981 -0.03459061 -0.176374
v -0.08083975 -0.08395184 -0.1803438
v -0.04996175 -0.124538 -0.1835553
v 5.960464E-08 -0.1401509 -0.1847822
v 0.04996181 -0.124538 -0.1835553
v 0.08083987 -0.08395184 -0.1803436
v 0.08083981 -0.03459061 -0.176374
v 0.04996175 0.004316682 -0.1731622
v 5.960464E-08 0.032745 -0.3723236
v -0.04996169 0.01709544 -0.3748585
v -0.08083975 -0.02411521 -0.3814956
v -0.08083975 -0.07537294 -0.3896991
v -0.04996169 -0.1170036 -0.3963362
v 5.960464E-08 -0.1329322 -0.3988711
v 0.04996181 -0.1170036 -0.3963362
v 0.08083987 -0.07537294 -0.3896991
v 0.08083987 -0.02411521 -0.3814956
v 0.04996181 0.01709556 -0.3748585
v 0 0.140151 0.3988711
v 0 -0.06212271 0.1703683
v 0 0.03465085 -0.0097474
v -0.04996175 0.02540981 0.007451997
v -0.08083981 0.001216405 0.05248092
v -0.08083987 -0.02868826 0.1081399
v -0.04996181 -0.05288161 0.1531687
v 0 -0.06212271 0.1703683
v 0 -0.06212271 0.1703683
v 5.960464E-08 -0.1401509 -0.1847822
v 0.04996175 -0.05288161 0.1531687
v 0.08083975 -0.02868826 0.1081399
v 0.08083981 0.001216405 0.05248092
v 0.04996175 0.02540981 0.007451997
v 5.960464E-08 -0.1329322 -0.3988711
v 0.04996181 -0.1170036 -0.3963362
v 0.08083987 -0.07537294 -0.3896991
v 0.08083987 -0.02411521 -0.3814956
v 0.04996181 0.01709556 -0.3748585
v 5.960464E-08 -0.1329322 -0.3988711
v 5.960464E-08 0.032745 -0.3723236
v -0.04996169 -0.1170036 -0.3963362
v -0.04996169 0.01709544 -0.3748585
v -0.08083975 -0.07537294 -0.3896991
v -0.08083975 -0.02411521 -0.3814956
vt 0.1772096 0.6722702
vt 0.1724763 0.6721214
vt 0.167704 0.6717319
vt 0.1628802 0.6712505
vt 0.1579971 0.6708609
vt 0.1530863 0.6707122
vt 0.196072 0.6708609
vt 0.1912907 0.6712505
vt 0.1865866 0.6717319
vt 0.1819078 0.6721214
vt 0.1772055 0.6807902
vt 0.1726134 0.681673
vt 0.167707 0.6839842
vt 0.1625928 0.6868409
vt 0.1576865 0.6891519
vt 0.1530942 0.6900347
vt 0.1963869 0.6891519
vt 0.1915719 0.6868409
vt 0.1865836 0.6839842
vt 0.1817686 0.681673
vt 0.2302238 0.688968
vt 0.2358133 0.6888645
vt 0.2408455 0.6885936
vt 0.245551 0.6882587
vt 0.2502396 0.6879878
vt 0.2549254 0.6878844
vt 0.2116306 0.6879878
vt 0.216001 0.6882587
vt 0.2202912 0.6885936
vt 0.2248801 0.6888645
vt 0.230293 0.6720649
vt 0.235082 0.6718512
vt 0.2398962 0.6712912
vt 0.2447939 0.6705992
vt 0.2498478 0.6700394
vt 0.2549567 0.6698256
vt 0.2120418 0.6700394
vt 0.2167004 0.6705992
vt 0.2211645 0.6712912
vt 0.225639 0.6718512
vt 0.2009421 0.6707122
vt 0.20095 0.6900347
vt 0.2303008 0.7026488
vt 0.2346979 0.7040997
vt 0.2379496 0.7078979
vt 0.2403017 0.7125928
vt 0.2426349 0.716391
vt 0.2576495 0.7178419
vt 0.2097937 0.7178419
vt 0.2070696 0.6878844
vt 0.2186666 0.716391
vt 0.22079 0.7125928
vt 0.2230002 0.7078978
vt 0.2260468 0.7040997
vt 0.2071009 0.6698256
vt 0.1645306 0.6893129
vt 0.1570995 0.6994568
vt 0.1570988 0.7119483
vt 0.1645285 0.7219932
vt 0.1765533 0.6854323
vt 0.1765509 0.7258089
vt 0.1885757 0.6893144
vt 0.1885737 0.7219948
vt 0.1960056 0.6994592
vt 0.1960047 0.7119507
vn 0 0.9297639 -0.3681563
vn -0.4480599 0.8206639 -0.3546169
vn -0.9142846 0.3649628 -0.1757438
vn -0.9343051 -0.2827158 0.2171306
vn -0.5275268 -0.6565357 0.5391443
vn 0 -0.7583252 0.6518763
vn 0.5275268 -0.6565357 0.539144
vn 0.9343049 -0.2827164 0.2171311
vn 0.9142849 0.3649623 -0.1757431
vn 0.4480603 0.8206636 -0.3546169
vn 0 0.9297639 -0.3681563
vn -0.4859751 0.8429157 -0.2309137
vn -0.9257096 0.3612113 -0.1121972
vn -0.9389226 -0.3127908 0.1434795
vn -0.5427042 -0.7567623 0.3643941
vn 0 -0.7583252 0.6518763
vn 0.5427042 -0.7567624 0.364394
vn 0.9389224 -0.3127909 0.14348
vn 0.9257097 0.3612111 -0.1121967
vn 0.4859753 0.8429157 -0.2309138
vn 0 0.9997783 -0.02105525
vn -0.5443048 0.838492 -0.02576184
vn -0.940833 0.3385233 -0.01533543
vn -0.9441291 -0.328354 0.02835286
vn -0.5603796 -0.8249994 0.07314833
vn 0 -0.9959586 0.08981303
vn 0.5603793 -0.8249996 0.07314838
vn 0.9441291 -0.3283541 0.02835322
vn 0.940833 0.3385232 -0.01533511
vn 0.5443047 0.838492 -0.02576163
vn 0 0.997801 0.06628051
vn -0.5693415 0.8204835 0.0515458
vn -0.9469948 0.3207252 0.01833286
vn -0.9488591 -0.3154701 -0.01204174
vn -0.5790718 -0.8147501 -0.02929318
vn 0 -0.9994032 -0.03453991
vn 0.579071 -0.8147506 -0.02929317
vn 0.9488591 -0.3154704 -0.01204155
vn 0.9469948 0.3207252 0.0183333
vn 0.5693414 0.8204837 0.05154623
vn 0 -0.7583252 0.6518763
vn 0 -0.7583252 0.6518763
vn 0 0.9942473 -0.1071082
vn -0.4859751 0.8429157 -0.2309137
vn -0.9257096 0.3612113 -0.1121972
vn -0.9389226 -0.3127908 0.1434795
vn -0.5427042 -0.7567623 0.3643941
vn 0 -0.977388 0.2114541
vn 0 -0.977388 0.2114541
vn 0 -0.9959586 0.08981303
vn 0.5427042 -0.7567624 0.364394
vn 0.9389224 -0.3127909 0.14348
vn 0.9257097 0.3612111 -0.1121967
vn 0.4859753 0.8429157 -0.2309138
vn 0 -0.9994032 -0.03453991
vn 0 0.1581667 -0.9874125
vn 0 0.1581667 -0.9874125
vn 0 0.1581667 -0.9874125
vn 0 0.1581667 -0.9874125
vn 0 0.1581667 -0.9874125
vn 0 0.1581667 -0.9874125
vn 0 0.1581667 -0.9874125
vn 0 0.1581667 -0.9874125
vn 0 0.1581667 -0.9874125
vn 0 0.1581667 -0.9874125
g egzoz_sag3_0
f 17/17/17 41/41/41 42/42/42
f 7/7/7 41/41/41 17/17/17
f 18/18/18 7/7/7 17/17/17
f 8/8/8 7/7/7 18/18/18
f 19/19/19 8/8/8 18/18/18
f 9/9/9 8/8/8 19/19/19
f 20/20/20 9/9/9 19/19/19
f 10/10/10 9/9/9 20/20/20
f 11/11/11 10/10/10 20/20/20
f 1/1/1 10/10/10 11/11/11
f 12/12/12 1/1/1 11/11/11
f 2/2/2 1/1/1 12/12/12
f 13/13/13 2/2/2 12/12/12
f 3/3/3 2/2/2 13/13/13
f 14/14/14 3/3/3 13/13/13
f 4/4/4 3/3/3 14/14/14
f 15/15/15 4/4/4 14/14/14
f 5/5/5 4/4/4 15/15/15
f 16/16/16 5/5/5 15/15/15
f 6/6/6 5/5/5 16/16/16
f 27/27/27 49/49/49 50/50/50
f 51/51/51 49/49/49 27/27/27
f 28/28/28 51/51/51 27/27/27
f 52/52/52 51/51/51 28/28/28
f 29/29/29 52/52/52 28/28/28
f 53/53/53 52/52/52 29/29/29
f 30/30/30 53/53/53 29/29/29
f 54/54/54 53/53/53 30/30/30
f 21/21/21 54/54/54 30/30/30
f 43/43/43 54/54/54 21/21/21
f 22/22/22 43/43/43 21/21/21
f 44/44/44 43/43/43 22/22/22
f 23/23/23 44/44/44 22/22/22
f 45/45/45 44/44/44 23/23/23
f 24/24/24 45/45/45 23/23/23
f 46/46/46 45/45/45 24/24/24
f 25/25/25 46/46/46 24/24/24
f 47/47/47 46/46/46 25/25/25
f 26/26/26 47/47/47 25/25/25
f 48/48/48 47/47/47 26/26/26
f 25/25/25 36/36/36 26/26/26
f 35/35/35 36/36/36 25/25/25
f 24/24/24 35/35/35 25/25/25
f 34/34/34 35/35/35 24/24/24
f 23/23/23 34/34/34 24/24/24
f 33/33/33 34/34/34 23/23/23
f 22/22/22 33/33/33 23/23/23
f 32/32/32 33/33/33 22/22/22
f 21/21/21 32/32/32 22/22/22
f 31/31/31 32/32/32 21/21/21
f 30/30/30 31/31/31 21/21/21
f 40/40/40 31/31/31 30/30/30
f 29/29/29 40/40/40 30/30/30
f 39/39/39 40/40/40 29/29/29
f 28/28/28 39/39/39 29/29/29
f 38/38/38 39/39/39 28/28/28
f 27/27/27 38/38/38 28/28/28
f 37/37/37 38/38/38 27/27/27
f 50/50/50 37/37/37 27/27/27
f 55/55/55 37/37/37 50/50/50
f 63/63/63 64/64/64 65/65/65
f 62/62/62 64/64/64 63/63/63
f 61/61/61 62/62/62 63/63/63
f 60/60/60 62/62/62 61/61/61
f 59/59/59 60/60/60 61/61/61
f 56/56/56 60/60/60 59/59/59
f 58/58/58 56/56/56 59/59/59
f 57/57/57 56/56/56 58/58/58
