g egzoz4
v 0.1101644 0.1238412 0.2296551
v 0.0602026 0.1253986 0.245814
v 0.02932453 0.1294761 0.288118
v 0.02932453 0.1345161 0.3404082
v 0.0602026 0.1385935 0.3827122
v 0.1101643 0.140151 0.3988711
v 0.1601261 0.1385935 0.3827122
v 0.1910042 0.1345161 0.3404082
v 0.1910042 0.1294761 0.288118
v 0.1601261 0.1253986 0.245814
v 0.1101644 0.03465085 -0.009747638
v 0.0602026 0.02540981 0.007451877
v 0.02932453 0.001216405 0.05248104
v 0.02932453 -0.02868826 0.1081399
v 0.0602026 -0.05288161 0.1531685
v 0.1101643 -0.06212265 0.1703683
v 0.1601261 -0.05288161 0.1531685
v 0.1910042 -0.02868826 0.1081399
v 0.1910042 0.001216405 0.05248104
v 0.1601261 0.02540981 0.007451877
v 0.1101644 0.01881462 -0.1719357
v 0.06020266 0.004316622 -0.1731624
v 0.02932459 -0.03459061 -0.1763741
v 0.02932459 -0.0839519 -0.180344
v 0.06020266 -0.124538 -0.1835553
v 0.1101644 -0.140151 -0.1847824
v 0.1601262 -0.124538 -0.1835553
v 0.1910042 -0.08395178 -0.1803438
v 0.1910042 -0.03459061 -0.1763741
v 0.1601261 0.004316682 -0.1731621
v 0.1101645 0.03274494 -0.3723236
v 0.06020272 0.0170955 -0.3748585
v 0.02932465 -0.02411515 -0.3814956
v 0.02932465 -0.07537288 -0.3896991
v 0.06020272 -0.1170035 -0.3963362
v 0.1101645 -0.1329322 -0.3988711
v 0.1601262 -0.1170035 -0.3963362
v 0.1910043 -0.07537288 -0.3896991
v 0.1910043 -0.02411515 -0.3814956
v 0.1601262 0.0170955 -0.3748585
v 0.1101643 0.140151 0.3988711
v 0.1101643 -0.06212265 0.1703683
v 0.1101644 0.03465085 -0.009747638
v 0.0602026 0.02540981 0.007451877
v 0.02932453 0.001216405 0.05248104
v 0.02932453 -0.02868826 0.1081399
v 0.0602026 -0.05288161 0.1531685
v 0.1101643 -0.06212265 0.1703683
v 0.1101643 -0.06212265 0.1703683
v 0.1101644 -0.140151 -0.1847824
v 0.1601261 -0.05288161 0.1531685
v 0.1910042 -0.02868826 0.1081399
v 0.1910042 0.001216405 0.05248104
v 0.1601261 0.02540981 0.007451877
v 0.1101645 -0.1329322 -0.3988711
v 0.1601262 -0.1170035 -0.3963362
v 0.1910043 -0.07537288 -0.3896991
v 0.1910043 -0.02411515 -0.3814956
v 0.1601262 0.0170955 -0.3748585
v 0.1101645 -0.1329322 -0.3988711
v 0.1101645 0.03274494 -0.3723236
v 0.06020272 -0.1170035 -0.3963362
v 0.06020272 0.0170955 -0.3748585
v 0.02932465 -0.07537288 -0.3896991
v 0.02932465 -0.02411515 -0.3814956
vt 0.1050914 0.4267816
vt 0.1010788 0.4266554
vt 0.09703326 0.4263253
vt 0.09294401 0.4259171
vt 0.08880453 0.425587
vt 0.08464153 0.4254609
vt 0.1210813 0.425587
vt 0.1170282 0.4259171
vt 0.1130404 0.4263253
vt 0.109074 0.4266554
vt 0.1050879 0.4340042
vt 0.101195 0.4347526
vt 0.09703574 0.4367118
vt 0.09270038 0.4391335
vt 0.08854116 0.4410926
vt 0.08464824 0.441841
vt 0.1213484 0.4410926
vt 0.1172666 0.4391335
vt 0.1130379 0.4367118
vt 0.1089561 0.4347526
vt 0.1490749 0.4225158
vt 0.1529908 0.4224433
vt 0.1565164 0.4222535
vt 0.159813 0.4220189
vt 0.1630978 0.4218291
vt 0.1663807 0.4217566
vt 0.1360486 0.4218291
vt 0.1391104 0.4220189
vt 0.1421161 0.4222535
vt 0.1453311 0.4224433
vt 0.1491234 0.4106736
vt 0.1524785 0.4105238
vt 0.1558513 0.4101315
vt 0.1592826 0.4096467
vt 0.1628233 0.4092545
vt 0.1664026 0.4091047
vt 0.1363366 0.4092545
vt 0.1396004 0.4096467
vt 0.1427279 0.4101315
vt 0.1458628 0.4105238
vt 0.1252099 0.4254609
vt 0.1252166 0.441841
vt 0.1491288 0.4321005
vt 0.1522094 0.433117
vt 0.1544875 0.435778
vt 0.1561354 0.4390672
vt 0.15777 0.4417282
vt 0.1682892 0.4427447
vt 0.1347616 0.4427447
vt 0.1328531 0.4217566
vt 0.1409779 0.4417282
vt 0.1424656 0.4390672
vt 0.144014 0.4357779
vt 0.1461485 0.433117
vt 0.132875 0.4091047
vt 0.1775906 0.4043308
vt 0.1712911 0.4129298
vt 0.1712905 0.4235191
vt 0.1775889 0.4320345
vt 0.1877825 0.4010411
vt 0.1877804 0.4352691
vt 0.1979742 0.404332
vt 0.1979725 0.4320357
vt 0.2042726 0.4129319
vt 0.2042719 0.4235212
vn 0 0.9297641 -0.3681558
vn -0.4480603 0.8206638 -0.3546166
vn -0.9142846 0.364963 -0.1757435
vn -0.9343044 -0.2827173 0.2171316
vn -0.5275273 -0.6565354 0.5391438
vn 0 -0.7583255 0.651876
vn 0.5275269 -0.656536 0.5391434
vn 0.9343045 -0.2827173 0.2171316
vn 0.9142845 0.364963 -0.1757435
vn 0.4480607 0.8206636 -0.3546166
vn 0 0.9297641 -0.3681558
vn -0.4859754 0.8429157 -0.2309138
vn -0.9257096 0.3612113 -0.1121971
vn -0.9389223 -0.3127913 0.1434801
vn -0.5427042 -0.7567623 0.3643941
vn 0 -0.7583255 0.651876
vn 0.5427044 -0.7567621 0.3643941
vn 0.9389225 -0.3127907 0.1434802
vn 0.9257095 0.3612116 -0.1121969
vn 0.4859755 0.8429155 -0.2309135
vn 0 0.9997783 -0.02105527
vn -0.544305 0.8384918 -0.02576182
vn -0.9408332 0.3385229 -0.01533548
vn -0.944129 -0.3283542 0.02835275
vn -0.5603796 -0.8249994 0.07314809
vn 0 -0.9959586 0.08981295
vn 0.5603801 -0.824999 0.07314847
vn 0.9441295 -0.328353 0.02835325
vn 0.9408331 0.3385231 -0.015335
vn 0.5443045 0.838492 -0.02576162
vn 0 0.997801 0.06628068
vn -0.5693418 0.8204834 0.05154625
vn -0.946995 0.3207246 0.01833302
vn -0.9488589 -0.3154707 -0.01204225
vn -0.5790719 -0.81475 -0.029294
vn 0 -0.9994032 -0.03454063
vn 0.5790723 -0.8147498 -0.02929359
vn 0.9488593 -0.3154697 -0.01204158
vn 0.946995 0.3207245 0.0183334
vn 0.569341 0.8204839 0.05154625
vn 0 -0.7583255 0.651876
vn 0 -0.7583255 0.651876
vn 0 0.9942473 -0.1071084
vn -0.4859754 0.8429157 -0.2309138
vn -0.9257096 0.3612113 -0.1121971
vn -0.9389223 -0.3127913 0.1434801
vn -0.5427042 -0.7567623 0.3643941
vn 0 -0.9773878 0.2114546
vn 0 -0.9773878 0.2114546
vn 0 -0.9959586 0.08981295
vn 0.5427044 -0.7567621 0.3643941
vn 0.9389225 -0.3127907 0.1434802
vn 0.9257095 0.3612116 -0.1121969
vn 0.4859755 0.8429155 -0.2309135
vn 0 -0.9994032 -0.03454063
vn 0 0.1581668 -0.9874125
vn 0 0.1581668 -0.9874125
vn 0 0.1581668 -0.9874125
vn 0 0.1581668 -0.9874125
vn 0 0.1581668 -0.9874125
vn 0 0.1581668 -0.9874125
vn 0 0.1581668 -0.9874125
vn 0 0.1581668 -0.9874125
vn 0 0.1581668 -0.9874125
vn 0 0.1581668 -0.9874125
g egzoz4_0
f 17/17/17 41/41/41 42/42/42
f 7/7/7 41/41/41 17/17/17
f 18/18/18 7/7/7 17/17/17
f 8/8/8 7/7/7 18/18/18
f 19/19/19 8/8/8 18/18/18
f 9/9/9 8/8/8 19/19/19
f 20/20/20 9/9/9 19/19/19
f 10/10/10 9/9/9 20/20/20
f 11/11/11 10/10/10 20/20/20
f 1/1/1 10/10/10 11/11/11
f 12/12/12 1/1/1 11/11/11
f 2/2/2 1/1/1 12/12/12
f 13/13/13 2/2/2 12/12/12
f 3/3/3 2/2/2 13/13/13
f 14/14/14 3/3/3 13/13/13
f 4/4/4 3/3/3 14/14/14
f 15/15/15 4/4/4 14/14/14
f 5/5/5 4/4/4 15/15/15
f 16/16/16 5/5/5 15/15/15
f 6/6/6 5/5/5 16/16/16
f 27/27/27 49/49/49 50/50/50
f 51/51/51 49/49/49 27/27/27
f 28/28/28 51/51/51 27/27/27
f 52/52/52 51/51/51 28/28/28
f 29/29/29 52/52/52 28/28/28
f 53/53/53 52/52/52 29/29/29
f 30/30/30 53/53/53 29/29/29
f 54/54/54 53/53/53 30/30/30
f 21/21/21 54/54/54 30/30/30
f 43/43/43 54/54/54 21/21/21
f 22/22/22 43/43/43 21/21/21
f 44/44/44 43/43/43 22/22/22
f 23/23/23 44/44/44 22/22/22
f 45/45/45 44/44/44 23/23/23
f 24/24/24 45/45/45 23/23/23
f 46/46/46 45/45/45 24/24/24
f 25/25/25 46/46/46 24/24/24
f 47/47/47 46/46/46 25/25/25
f 26/26/26 47/47/47 25/25/25
f 48/48/48 47/47/47 26/26/26
f 25/25/25 36/36/36 26/26/26
f 35/35/35 36/36/36 25/25/25
f 24/24/24 35/35/35 25/25/25
f 34/34/34 35/35/35 24/24/24
f 23/23/23 34/34/34 24/24/24
f 33/33/33 34/34/34 23/23/23
f 22/22/22 33/33/33 23/23/23
f 32/32/32 33/33/33 22/22/22
f 21/21/21 32/32/32 22/22/22
f 31/31/31 32/32/32 21/21/21
f 30/30/30 31/31/31 21/21/21
f 40/40/40 31/31/31 30/30/30
f 29/29/29 40/40/40 30/30/30
f 39/39/39 40/40/40 29/29/29
f 28/28/28 39/39/39 29/29/29
f 38/38/38 39/39/39 28/28/28
f 27/27/27 38/38/38 28/28/28
f 37/37/37 38/38/38 27/27/27
f 50/50/50 37/37/37 27/27/27
f 55/55/55 37/37/37 50/50/50
f 63/63/63 64/64/64 65/65/65
f 62/62/62 64/64/64 63/63/63
f 61/61/61 62/62/62 63/63/63
f 60/60/60 62/62/62 61/61/61
f 59/59/59 60/60/60 61/61/61
f 56/56/56 60/60/60 59/59/59
f 58/58/58 56/56/56 59/59/59
f 57/57/57 56/56/56 58/58/58
