g egzoz02
v 0.1101644 -0.2296553 0.1238412
v 0.06020262 -0.2458138 0.1253986
v 0.02932455 -0.2881179 0.1294761
v 0.02932454 -0.3404083 0.1345161
v 0.0602026 -0.3827124 0.1385935
v 0.1101644 -0.3988709 0.140151
v 0.1601261 -0.3827124 0.1385935
v 0.1910042 -0.3404083 0.1345161
v 0.1910042 -0.2881179 0.1294761
v 0.1601261 -0.2458138 0.1253986
v 0.1101644 0.009747505 0.03465086
v 0.06020262 -0.007452011 0.02540982
v 0.02932456 -0.05248094 0.001216412
v 0.02932455 -0.1081398 -0.02868825
v 0.06020261 -0.1531687 -0.0528816
v 0.1101644 -0.1703682 -0.06212264
v 0.1601261 -0.1531687 -0.0528816
v 0.1910042 -0.1081398 -0.02868825
v 0.1910042 -0.05248094 0.001216412
v 0.1601261 -0.007452011 0.02540982
v 0.1101644 0.1719356 0.01881462
v 0.06020265 0.1731622 0.004316628
v 0.0293246 0.176374 -0.0345906
v 0.02932461 0.1803439 -0.08395189
v 0.06020267 0.1835554 -0.124538
v 0.1101644 0.1847823 -0.140151
v 0.1601262 0.1835554 -0.124538
v 0.1910042 0.1803436 -0.08395183
v 0.1910042 0.176374 -0.0345906
v 0.1601261 0.1731622 0.004316688
v 0.1101644 0.3723235 0.03274494
v 0.06020269 0.3748586 0.01709545
v 0.02932463 0.3814955 -0.0241152
v 0.02932463 0.3896992 -0.07537293
v 0.0602027 0.3963361 -0.1170036
v 0.1101645 0.3988712 -0.1329322
v 0.1601262 0.3963361 -0.1170036
v 0.1910042 0.3896992 -0.07537293
v 0.1910042 0.3814955 -0.0241152
v 0.1601262 0.3748586 0.01709551
v 0.1101644 -0.3988709 0.140151
v 0.1101644 -0.1703682 -0.06212264
v 0.1101644 0.009747505 0.03465086
v 0.06020262 -0.007452011 0.02540982
v 0.02932456 -0.05248094 0.001216412
v 0.02932455 -0.1081398 -0.02868825
v 0.06020261 -0.1531687 -0.0528816
v 0.1101644 -0.1703682 -0.06212264
v 0.1101644 -0.1703682 -0.06212264
v 0.1101644 0.1847823 -0.140151
v 0.1601261 -0.1531687 -0.0528816
v 0.1910042 -0.1081398 -0.02868825
v 0.1910042 -0.05248094 0.001216412
v 0.1601261 -0.007452011 0.02540982
v 0.1101645 0.3988712 -0.1329322
v 0.0602027 0.3963361 -0.1170036
v 0.1101645 0.3988712 -0.1329322
v 0.1601262 0.3963361 -0.1170036
v 0.02932463 0.3896992 -0.07537293
v 0.1910042 0.3896992 -0.07537293
v 0.02932463 0.3814955 -0.0241152
v 0.1910042 0.3814955 -0.0241152
v 0.06020269 0.3748586 0.01709545
v 0.1601262 0.3748586 0.01709551
v 0.1101644 0.3723235 0.03274494
vt 0.1050914 0.4267816
vt 0.1010788 0.4266554
vt 0.09703326 0.4263253
vt 0.09294401 0.4259171
vt 0.08880453 0.425587
vt 0.08464153 0.4254609
vt 0.1210813 0.425587
vt 0.1170282 0.4259171
vt 0.1130404 0.4263253
vt 0.109074 0.4266554
vt 0.1050879 0.4340042
vt 0.101195 0.4347526
vt 0.09703574 0.4367118
vt 0.09270038 0.4391335
vt 0.08854116 0.4410926
vt 0.08464824 0.441841
vt 0.1213484 0.4410926
vt 0.1172666 0.4391335
vt 0.1130379 0.4367118
vt 0.1089561 0.4347526
vt 0.1490749 0.4225158
vt 0.1529908 0.4224433
vt 0.1565164 0.4222535
vt 0.159813 0.4220189
vt 0.1630978 0.4218291
vt 0.1663807 0.4217566
vt 0.1360486 0.4218291
vt 0.1391104 0.4220189
vt 0.1421161 0.4222535
vt 0.1453311 0.4224433
vt 0.1491234 0.4106736
vt 0.1524785 0.4105238
vt 0.1558513 0.4101315
vt 0.1592826 0.4096467
vt 0.1628233 0.4092545
vt 0.1664026 0.4091047
vt 0.1363366 0.4092545
vt 0.1396004 0.4096467
vt 0.1427279 0.4101315
vt 0.1458628 0.4105238
vt 0.1252099 0.4254609
vt 0.1252166 0.441841
vt 0.1491288 0.4321005
vt 0.1522094 0.433117
vt 0.1544875 0.435778
vt 0.1561354 0.4390672
vt 0.15777 0.4417282
vt 0.1682892 0.4427447
vt 0.1347616 0.4427447
vt 0.1328531 0.4217566
vt 0.1409779 0.4417282
vt 0.1424656 0.4390672
vt 0.144014 0.4357779
vt 0.1461485 0.433117
vt 0.132875 0.4091047
vt 0.1979742 0.404332
vt 0.1877825 0.4010411
vt 0.1775906 0.4043308
vt 0.2042726 0.4129319
vt 0.1712911 0.4129298
vt 0.2042719 0.4235212
vt 0.1712905 0.4235191
vt 0.1979725 0.4320357
vt 0.1775889 0.4320345
vt 0.1877804 0.4352691
vn 0 0.3681561 0.929764
vn -0.5252833 0.3466374 0.7771229
vn -0.9862368 0.07173353 0.1489674
vn -0.823112 -0.3458983 -0.4503788
vn -0.4321356 -0.5787432 -0.6916034
vn 0 -0.6518763 -0.7583253
vn 0.4321356 -0.5787432 -0.6916034
vn 0.823112 -0.3458983 -0.4503787
vn 0.9862368 0.07173319 0.148967
vn 0.5252835 0.3466373 0.7771228
vn 0 0.3681561 0.929764
vn -0.5037625 0.2168755 0.8361748
vn -0.9362208 0.1260468 0.3280286
vn -0.9227771 -0.1340551 -0.361264
vn -0.5184557 -0.3806705 -0.765698
vn 0 -0.6518763 -0.7583253
vn 0.5184558 -0.3806706 -0.765698
vn 0.9227771 -0.1340553 -0.361264
vn 0.9362208 0.1260466 0.3280287
vn 0.5037625 0.2168754 0.8361748
vn 0 0.02254952 0.9997457
vn -0.5513985 0.02681971 0.8338107
vn -0.9481458 0.01218851 0.3176021
vn -0.9357713 -0.03339465 -0.3510226
vn -0.5500891 -0.0724633 -0.8319561
vn 0 -0.08575752 -0.996316
vn 0.5500894 -0.07246336 -0.8319559
vn 0.9357715 -0.03339504 -0.3510223
vn 0.9481458 0.0121882 0.317602
vn 0.5513984 0.02681947 0.8338109
vn 0 -0.06628064 0.997801
vn -0.5781606 -0.05103802 0.8143252
vn -0.9535059 -0.01719874 0.3008835
vn -0.9414707 0.01285803 -0.3368492
vn -0.5674146 0.02952521 -0.8229027
vn 0 0.03454066 -0.9994032
vn 0.567415 0.02952502 -0.8229025
vn 0.941471 0.01285774 -0.3368489
vn 0.9535059 -0.01719898 0.3008833
vn 0.5781605 -0.05103821 0.8143253
vn 0 -0.6518763 -0.7583253
vn 0 -0.6518763 -0.7583253
vn 0 0.1071083 0.9942473
vn -0.5037625 0.2168755 0.8361748
vn -0.9362208 0.1260468 0.3280286
vn -0.9227771 -0.1340551 -0.361264
vn -0.5184557 -0.3806705 -0.765698
vn 0 -0.2114546 -0.9773878
vn 0 -0.2114546 -0.9773878
vn 0 -0.08575752 -0.996316
vn 0.5184558 -0.3806706 -0.765698
vn 0.9227771 -0.1340553 -0.361264
vn 0.9362208 0.1260466 0.3280287
vn 0.5037625 0.2168754 0.8361748
vn 0 0.03454066 -0.9994032
vn 0 0.9874125 0.1581667
vn 0 0.9874125 0.1581667
vn 0 0.9874125 0.1581667
vn 0 0.9874125 0.1581667
vn 0 0.9874125 0.1581667
vn 0 0.9874125 0.1581667
vn 0 0.9874125 0.1581667
vn 0 0.9874125 0.1581667
vn 0 0.9874125 0.1581667
vn 0 0.9874125 0.1581667
g egzoz02_0
f 17/17/17 41/41/41 42/42/42
f 7/7/7 41/41/41 17/17/17
f 18/18/18 7/7/7 17/17/17
f 8/8/8 7/7/7 18/18/18
f 19/19/19 8/8/8 18/18/18
f 9/9/9 8/8/8 19/19/19
f 20/20/20 9/9/9 19/19/19
f 10/10/10 9/9/9 20/20/20
f 11/11/11 10/10/10 20/20/20
f 1/1/1 10/10/10 11/11/11
f 12/12/12 1/1/1 11/11/11
f 2/2/2 1/1/1 12/12/12
f 13/13/13 2/2/2 12/12/12
f 3/3/3 2/2/2 13/13/13
f 14/14/14 3/3/3 13/13/13
f 4/4/4 3/3/3 14/14/14
f 15/15/15 4/4/4 14/14/14
f 5/5/5 4/4/4 15/15/15
f 16/16/16 5/5/5 15/15/15
f 6/6/6 5/5/5 16/16/16
f 27/27/27 49/49/49 50/50/50
f 51/51/51 49/49/49 27/27/27
f 28/28/28 51/51/51 27/27/27
f 52/52/52 51/51/51 28/28/28
f 29/29/29 52/52/52 28/28/28
f 53/53/53 52/52/52 29/29/29
f 30/30/30 53/53/53 29/29/29
f 54/54/54 53/53/53 30/30/30
f 21/21/21 54/54/54 30/30/30
f 43/43/43 54/54/54 21/21/21
f 22/22/22 43/43/43 21/21/21
f 44/44/44 43/43/43 22/22/22
f 23/23/23 44/44/44 22/22/22
f 45/45/45 44/44/44 23/23/23
f 24/24/24 45/45/45 23/23/23
f 46/46/46 45/45/45 24/24/24
f 25/25/25 46/46/46 24/24/24
f 47/47/47 46/46/46 25/25/25
f 26/26/26 47/47/47 25/25/25
f 48/48/48 47/47/47 26/26/26
f 25/25/25 36/36/36 26/26/26
f 35/35/35 36/36/36 25/25/25
f 24/24/24 35/35/35 25/25/25
f 34/34/34 35/35/35 24/24/24
f 23/23/23 34/34/34 24/24/24
f 33/33/33 34/34/34 23/23/23
f 22/22/22 33/33/33 23/23/23
f 32/32/32 33/33/33 22/22/22
f 21/21/21 32/32/32 22/22/22
f 31/31/31 32/32/32 21/21/21
f 30/30/30 31/31/31 21/21/21
f 40/40/40 31/31/31 30/30/30
f 29/29/29 40/40/40 30/30/30
f 39/39/39 40/40/40 29/29/29
f 28/28/28 39/39/39 29/29/29
f 38/38/38 39/39/39 28/28/28
f 27/27/27 38/38/38 28/28/28
f 37/37/37 38/38/38 27/27/27
f 50/50/50 37/37/37 27/27/27
f 55/55/55 37/37/37 50/50/50
f 63/63/63 65/65/65 64/64/64
f 62/62/62 63/63/63 64/64/64
f 61/61/61 63/63/63 62/62/62
f 60/60/60 61/61/61 62/62/62
f 59/59/59 61/61/61 60/60/60
f 58/58/58 59/59/59 60/60/60
f 56/56/56 59/59/59 58/58/58
f 57/57/57 56/56/56 58/58/58
