g kutuk_duvar
v -4.90613 0.04424737 0.2981456
v -4.90613 -0.1055103 0.1393163
v -4.90613 -0.105473 -0.1106695
v -4.90613 0.04439844 -0.2704185
v 4.90613 0.04424728 0.298146
v 4.90613 -0.1055106 0.1393165
v 4.90613 -0.1054733 -0.1106693
v 4.90613 0.04439836 -0.270418
v -4.90613 0.04424752 0.8656312
v -4.90613 -0.1055101 0.706802
v -4.90613 -0.1054728 0.4568161
v 4.90613 0.04424743 0.8656316
v 4.90613 -0.1055105 0.7068021
v 4.90613 -0.1054731 0.4568163
v -4.90613 0.04424764 1.433117
v -4.90613 -0.10551 1.274288
v -4.90613 -0.1054726 1.024302
v 4.90613 0.04424758 1.433117
v 4.90613 -0.1055103 1.274288
v 4.90613 -0.105473 1.024302
v -4.90613 0.04424782 2.000602
v -4.90613 -0.1055098 1.841773
v -4.90613 -0.1054725 1.591787
v 4.90613 0.04424775 2.000603
v 4.90613 -0.1055102 1.841774
v 4.90613 -0.1054728 1.591788
v -4.90613 0.04424794 2.568088
v -4.90613 -0.1055097 2.409259
v -4.90613 -0.1054723 2.159273
v 4.90613 0.04424787 2.568089
v 4.90613 -0.10551 2.409259
v 4.90613 -0.1054727 2.159273
v -4.90613 0.04424717 3.135574
v -4.90613 -0.1055096 2.976745
v -4.90613 -0.1054722 2.726759
v 4.90613 0.0442471 3.135574
v 4.90613 -0.1055098 2.976745
v 4.90613 -0.1054725 2.726759
v -4.90613 0.04424657 3.703059
v -4.90613 -0.1055112 3.54423
v -4.90613 -0.1054739 3.294244
v 4.906131 0.0442465 3.703059
v 4.90613 -0.1055115 3.54423
v 4.90613 -0.1054742 3.294244
v -4.90613 0.04424681 4.270544
v -4.90613 -0.1055109 4.111715
v -4.90613 -0.1054736 3.861729
v 4.906131 0.04424674 4.270545
v 4.906131 -0.1055112 4.111715
v 4.906131 -0.1054739 3.861729
v -4.90613 0.04424681 4.83803
v -4.90613 -0.1055109 4.679201
v -4.90613 -0.1054736 4.429215
v 4.906131 0.04424674 4.838031
v 4.906131 -0.1055112 4.679201
v 4.906131 -0.1054738 4.429215
v -4.90613 0.04424693 5.405516
v -4.90613 -0.1055108 5.246687
v -4.90613 -0.1054735 4.996701
v 4.906131 0.04424686 5.405517
v 4.906131 -0.1055111 5.246687
v 4.906131 -0.1054737 4.996701
v -4.90613 0.04424693 5.973002
v -4.90613 -0.1055107 5.814172
v -4.90613 -0.1054734 5.564187
v 4.906131 0.04424686 5.973002
v 4.906131 -0.105511 5.814173
v 4.906131 -0.1054736 5.564187
v -4.90613 0.04424705 6.540488
v -4.90613 -0.1055107 6.381659
v -4.90613 -0.1054734 6.131673
v 4.906131 0.04424698 6.540488
v 4.906131 -0.105511 6.381659
v 4.906131 -0.1054735 6.131672
v -4.90613 0.04424717 7.107974
v -4.90613 -0.1055107 6.949144
v -4.90613 -0.1054731 6.699159
v 4.90613 0.0442471 7.107974
v 4.90613 -0.1055109 6.949145
v 4.90613 -0.1054733 6.699159
v -4.90613 0.04409601 7.676538
v -4.90613 -0.1055103 7.51663
v -4.90613 -0.105473 7.266644
v 4.90613 0.04409594 7.676538
v 4.90613 -0.1055108 7.51663
v 4.90613 -0.1054732 7.266644
v 25.86957 0.04424737 0.2981456
v 25.86957 -0.1055103 0.1393163
v 25.86957 -0.105473 -0.1106695
v 25.86957 0.04439844 -0.2704185
v 35.52722 0.04424728 0.298146
v 35.52722 -0.1055106 0.1393165
v 35.52722 -0.1054733 -0.1106693
v 35.52722 0.04439836 -0.270418
v 25.86957 0.04424752 0.8656312
v 25.86957 -0.1055101 0.706802
v 25.86957 -0.1054728 0.4568161
v 35.52722 0.04424743 0.8656316
v 35.52722 -0.1055105 0.7068021
v 35.52722 -0.1054731 0.4568163
v 25.86957 0.04424764 1.433117
v 25.86957 -0.10551 1.274288
v 25.86957 -0.1054726 1.024302
v 35.52722 0.04424758 1.433117
v 35.52722 -0.1055103 1.274288
v 35.52722 -0.105473 1.024302
v 25.86957 0.04424782 2.000602
v 25.86957 -0.1055098 1.841773
v 25.86957 -0.1054725 1.591787
v 35.52722 0.04424775 2.000603
v 35.52722 -0.1055102 1.841774
v 35.52722 -0.1054728 1.591788
v 25.86957 0.04424794 2.568088
v 25.86957 -0.1055097 2.409259
v 25.86957 -0.1054723 2.159273
v 35.52722 0.04424787 2.568089
v 35.52722 -0.10551 2.409259
v 35.52722 -0.1054727 2.159273
v 25.86957 0.04424717 3.135574
v 25.86957 -0.1055096 2.976745
v 25.86957 -0.1054722 2.726759
v 35.52722 0.0442471 3.135574
v 35.52722 -0.1055098 2.976745
v 35.52722 -0.1054725 2.726759
v 25.86957 0.04424657 3.703059
v 25.86957 -0.1055112 3.54423
v 25.86957 -0.1054739 3.294244
v 35.52722 0.0442465 3.703059
v 35.52722 -0.1055115 3.54423
v 35.52722 -0.1054742 3.294244
v 25.86957 0.04424681 4.270544
v 25.86957 -0.1055109 4.111715
v 25.86957 -0.1054736 3.861729
v 35.52722 0.04424674 4.270545
v 35.52722 -0.1055112 4.111715
v 35.52722 -0.1054739 3.861729
v 25.86957 0.04424681 4.83803
v 25.86957 -0.1055109 4.679201
v 25.86957 -0.1054736 4.429215
v 35.52722 0.04424674 4.838031
v 35.52722 -0.1055112 4.679201
v 35.52722 -0.1054738 4.429215
v 25.86957 0.04424693 5.405516
v 25.86957 -0.1055108 5.246687
v 25.86957 -0.1054735 4.996701
v 35.52722 0.04424686 5.405517
v 35.52722 -0.1055111 5.246687
v 35.52722 -0.1054737 4.996701
v 25.86957 0.04424693 5.973002
v 25.86957 -0.1055107 5.814172
v 25.86957 -0.1054734 5.564187
v 35.52722 0.04424686 5.973002
v 35.52722 -0.105511 5.814173
v 35.52722 -0.1054736 5.564187
v 25.86957 0.04424705 6.540488
v 25.86957 -0.1055107 6.381659
v 25.86957 -0.1054734 6.131673
v 35.52722 0.04424698 6.540488
v 35.52722 -0.105511 6.381659
v 35.52722 -0.1054735 6.131672
v 25.86957 0.04424717 7.107974
v 25.86957 -0.1055107 6.949144
v 25.86957 -0.1054731 6.699159
v 35.52722 0.0442471 7.107974
v 35.52722 -0.1055109 6.949145
v 35.52722 -0.1054733 6.699159
v 25.86957 0.04409601 7.676538
v 25.86957 -0.1055103 7.51663
v 25.86957 -0.105473 7.266644
v 35.52722 0.04409594 7.676538
v 35.52722 -0.1055108 7.51663
v 35.52722 -0.1054732 7.266644
v 4.90613 0.04424728 0.298146
v -4.90613 0.04424737 0.2981456
v 4.90613 0.04424743 0.8656316
v -4.90613 0.04424752 0.8656312
v 4.90613 0.04424758 1.433117
v -4.90613 0.04424764 1.433117
v 4.90613 0.04424775 2.000603
v -4.90613 0.04424782 2.000602
v 4.90613 0.04424787 2.568089
v -4.90613 0.04424794 2.568088
v 4.90613 0.0442471 3.135574
v -4.90613 0.04424717 3.135574
v 4.906131 0.0442465 3.703059
v -4.90613 0.04424657 3.703059
v 4.906131 0.04424674 4.270545
v -4.90613 0.04424681 4.270544
v 4.906131 0.04424674 4.838031
v -4.90613 0.04424681 4.83803
v 4.906131 0.04424686 5.405517
v -4.90613 0.04424693 5.405516
v 4.906131 0.04424686 5.973002
v -4.90613 0.04424693 5.973002
v 4.906131 0.04424698 6.540488
v -4.90613 0.04424705 6.540488
v 4.90613 0.0442471 7.107974
v -4.90613 0.04424717 7.107974
v 35.52722 0.04424728 0.298146
v 25.86957 0.04424737 0.2981456
v 35.52722 0.04424743 0.8656316
v 25.86957 0.04424752 0.8656312
v 35.52722 0.04424758 1.433117
v 25.86957 0.04424764 1.433117
v 35.52722 0.04424775 2.000603
v 25.86957 0.04424782 2.000602
v 35.52722 0.04424787 2.568089
v 25.86957 0.04424794 2.568088
v 35.52722 0.0442471 3.135574
v 25.86957 0.04424717 3.135574
v 35.52722 0.0442465 3.703059
v 25.86957 0.04424657 3.703059
v 35.52722 0.04424674 4.270545
v 25.86957 0.04424681 4.270544
v 35.52722 0.04424674 4.838031
v 25.86957 0.04424681 4.83803
v 35.52722 0.04424686 5.405517
v 25.86957 0.04424693 5.405516
v 35.52722 0.04424686 5.973002
v 25.86957 0.04424693 5.973002
v 35.52722 0.04424698 6.540488
v 25.86957 0.04424705 6.540488
v 35.52722 0.0442471 7.107974
v 25.86957 0.04424717 7.107974
vt 0.003004815 0.1258762
vt 0.003004815 0.1084252
vt 0.003004815 0.08095869
vt 0.003004815 0.06340665
vt 0.9969947 0.1258762
vt 0.9969947 0.1084252
vt 0.9969947 0.08095863
vt 0.9969947 0.06340662
vt 0.003004815 0.1882273
vt 0.003004815 0.1707763
vt 0.003004815 0.1433097
vt 0.9969947 0.1882272
vt 0.9969947 0.1707762
vt 0.9969947 0.1433097
vt 0.003004815 0.2505783
vt 0.003004815 0.2331273
vt 0.003004815 0.2056607
vt 0.9969947 0.2505782
vt 0.9969947 0.2331273
vt 0.9969947 0.2056607
vt 0.003004815 0.3129293
vt 0.003004815 0.2954783
vt 0.003004815 0.2680118
vt 0.9969947 0.3129293
vt 0.9969947 0.2954783
vt 0.9969947 0.2680117
vt 0.003004815 0.3752804
vt 0.003004815 0.3578294
vt 0.003004815 0.3303629
vt 0.9969947 0.3752804
vt 0.9969947 0.3578294
vt 0.9969947 0.3303628
vt 0.003004874 0.4376314
vt 0.003004815 0.4201805
vt 0.003004815 0.3927139
vt 0.9969949 0.4376314
vt 0.9969947 0.4201804
vt 0.9969947 0.3927139
vt 0.003004874 0.4999824
vt 0.003004874 0.4825315
vt 0.003004874 0.4550649
vt 0.9969949 0.4999824
vt 0.9969949 0.4825314
vt 0.9969949 0.4550648
vt 0.003004874 0.5623333
vt 0.003004874 0.5448824
vt 0.003004874 0.5174159
vt 0.9969949 0.5623333
vt 0.9969949 0.5448824
vt 0.9969949 0.5174159
vt 0.003004874 0.6246846
vt 0.003004874 0.6072335
vt 0.003004874 0.579767
vt 0.9969949 0.6246845
vt 0.9969949 0.6072334
vt 0.9969949 0.579767
vt 0.003004874 0.6870356
vt 0.003004874 0.6695846
vt 0.003004874 0.642118
vt 0.9969949 0.6870354
vt 0.9969949 0.6695845
vt 0.9969949 0.6421179
vt 0.003004874 0.7493865
vt 0.003004874 0.7319356
vt 0.003004874 0.7044691
vt 0.9969949 0.7493865
vt 0.9969949 0.7319356
vt 0.9969949 0.704469
vt 0.003004874 0.8117377
vt 0.003004874 0.7942866
vt 0.003004874 0.7668201
vt 0.9969949 0.8117377
vt 0.9969949 0.7942866
vt 0.9969949 0.7668201
vt 0.003004874 0.8740888
vt 0.003004874 0.8566378
vt 0.003004874 0.8291712
vt 0.9969949 0.8740886
vt 0.9969949 0.8566377
vt 0.9969949 0.8291711
vt 0.003004874 0.9365582
vt 0.003004874 0.9189888
vt 0.003004874 0.8915223
vt 0.9969949 0.9365582
vt 0.9969949 0.9189887
vt 0.9969949 0.8915222
vt 0.003004815 0.1258762
vt 0.003004815 0.1084252
vt 0.003004815 0.08095869
vt 0.003004815 0.06340665
vt 0.9969947 0.1258762
vt 0.9969947 0.1084252
vt 0.9969947 0.08095863
vt 0.9969947 0.06340662
vt 0.003004815 0.1882273
vt 0.003004815 0.1707763
vt 0.003004815 0.1433097
vt 0.9969947 0.1882272
vt 0.9969947 0.1707762
vt 0.9969947 0.1433097
vt 0.003004815 0.2505783
vt 0.003004815 0.2331273
vt 0.003004815 0.2056607
vt 0.9969947 0.2505782
vt 0.9969947 0.2331273
vt 0.9969947 0.2056607
vt 0.003004815 0.3129293
vt 0.003004815 0.2954783
vt 0.003004815 0.2680118
vt 0.9969947 0.3129293
vt 0.9969947 0.2954783
vt 0.9969947 0.2680117
vt 0.003004815 0.3752804
vt 0.003004815 0.3578294
vt 0.003004815 0.3303629
vt 0.9969947 0.3752804
vt 0.9969947 0.3578294
vt 0.9969947 0.3303628
vt 0.003004874 0.4376314
vt 0.003004815 0.4201805
vt 0.003004815 0.3927139
vt 0.9969949 0.4376314
vt 0.9969947 0.4201804
vt 0.9969947 0.3927139
vt 0.003004874 0.4999824
vt 0.003004874 0.4825315
vt 0.003004874 0.4550649
vt 0.9969949 0.4999824
vt 0.9969949 0.4825314
vt 0.9969949 0.4550648
vt 0.003004874 0.5623333
vt 0.003004874 0.5448824
vt 0.003004874 0.5174159
vt 0.9969949 0.5623333
vt 0.9969949 0.5448824
vt 0.9969949 0.5174159
vt 0.003004874 0.6246846
vt 0.003004874 0.6072335
vt 0.003004874 0.579767
vt 0.9969949 0.6246845
vt 0.9969949 0.6072334
vt 0.9969949 0.579767
vt 0.003004874 0.6870356
vt 0.003004874 0.6695846
vt 0.003004874 0.642118
vt 0.9969949 0.6870354
vt 0.9969949 0.6695845
vt 0.9969949 0.6421179
vt 0.003004874 0.7493865
vt 0.003004874 0.7319356
vt 0.003004874 0.7044691
vt 0.9969949 0.7493865
vt 0.9969949 0.7319356
vt 0.9969949 0.704469
vt 0.003004874 0.8117377
vt 0.003004874 0.7942866
vt 0.003004874 0.7668201
vt 0.9969949 0.8117377
vt 0.9969949 0.7942866
vt 0.9969949 0.7668201
vt 0.003004874 0.8740888
vt 0.003004874 0.8566378
vt 0.003004874 0.8291712
vt 0.9969949 0.8740886
vt 0.9969949 0.8566377
vt 0.9969949 0.8291711
vt 0.003004874 0.9365582
vt 0.003004874 0.9189888
vt 0.003004874 0.8915223
vt 0.9969949 0.9365582
vt 0.9969949 0.9189887
vt 0.9969949 0.8915222
vt 0.9969947 0.1258762
vt 0.003004815 0.1258762
vt 0.9969947 0.1882272
vt 0.003004815 0.1882273
vt 0.9969947 0.2505782
vt 0.003004815 0.2505783
vt 0.9969947 0.3129293
vt 0.003004815 0.3129293
vt 0.9969947 0.3752804
vt 0.003004815 0.3752804
vt 0.9969949 0.4376314
vt 0.003004874 0.4376314
vt 0.9969949 0.4999824
vt 0.003004874 0.4999824
vt 0.9969949 0.5623333
vt 0.003004874 0.5623333
vt 0.9969949 0.6246845
vt 0.003004874 0.6246846
vt 0.9969949 0.6870354
vt 0.003004874 0.6870356
vt 0.9969949 0.7493865
vt 0.003004874 0.7493865
vt 0.9969949 0.8117377
vt 0.003004874 0.8117377
vt 0.9969949 0.8740886
vt 0.003004874 0.8740888
vt 0.9969947 0.1258762
vt 0.003004815 0.1258762
vt 0.9969947 0.1882272
vt 0.003004815 0.1882273
vt 0.9969947 0.2505782
vt 0.003004815 0.2505783
vt 0.9969947 0.3129293
vt 0.003004815 0.3129293
vt 0.9969947 0.3752804
vt 0.003004815 0.3752804
vt 0.9969949 0.4376314
vt 0.003004874 0.4376314
vt 0.9969949 0.4999824
vt 0.003004874 0.4999824
vt 0.9969949 0.5623333
vt 0.003004874 0.5623333
vt 0.9969949 0.6246845
vt 0.003004874 0.6246846
vt 0.9969949 0.6870354
vt 0.003004874 0.6870356
vt 0.9969949 0.7493865
vt 0.003004874 0.7493865
vt 0.9969949 0.8117377
vt 0.003004874 0.8117377
vt 0.9969949 0.8740886
vt 0.003004874 0.8740888
vn 0 -0.7275794 0.6860235
vn 0 -0.9294304 0.3689974
vn 0 -0.9298363 -0.3679734
vn 0 -0.7292933 -0.6842011
vn 0 -0.7275794 0.6860235
vn 0 -0.9294304 0.3689974
vn 0 -0.9298363 -0.3679733
vn 0 -0.7292933 -0.6842011
vn 0 -0.7275794 0.6860234
vn 0 -0.9294304 0.3689974
vn 0 -0.9293061 -0.3693103
vn 0 -0.7275794 0.6860234
vn 0 -0.9294304 0.3689974
vn 0 -0.9293061 -0.3693103
vn 0 -0.7275795 0.6860233
vn 0 -0.9294305 0.3689972
vn 0 -0.9293061 -0.3693106
vn 0 -0.7275795 0.6860233
vn 0 -0.9294304 0.3689972
vn 0 -0.9293061 -0.3693105
vn 0 -0.7275794 0.6860234
vn 0 -0.9294304 0.3689974
vn 0 -0.9293061 -0.3693105
vn 0 -0.7275794 0.6860234
vn 0 -0.9294304 0.3689974
vn 0 -0.9293061 -0.3693104
vn 0 -0.7275794 0.6860235
vn 0 -0.9294304 0.3689974
vn 0 -0.9293061 -0.3693102
vn 0 -0.7275793 0.6860236
vn 0 -0.9294304 0.3689975
vn 0 -0.9293061 -0.3693102
vn 0 -0.7275807 0.686022
vn 0 -0.9294308 0.3689965
vn 0 -0.9293061 -0.3693103
vn 0 -0.7275807 0.686022
vn 0 -0.9294308 0.3689965
vn 0 -0.9293061 -0.3693102
vn 0 -0.7275786 0.6860243
vn 0 -0.9294301 0.3689981
vn 0 -0.9293054 -0.369312
vn 0 -0.7275786 0.6860244
vn 0 -0.9294299 0.3689986
vn 0 -0.9293054 -0.369312
vn 0 -0.7275789 0.6860241
vn 0 -0.9294302 0.3689978
vn 0 -0.929306 -0.3693107
vn 0 -0.7275789 0.6860241
vn 0 -0.9294302 0.3689978
vn 0 -0.929306 -0.3693106
vn 0 -0.7275794 0.6860235
vn 0 -0.9294304 0.3689973
vn 0 -0.9293064 -0.3693097
vn 0 -0.7275794 0.6860235
vn 0 -0.9294304 0.3689973
vn 0 -0.9293064 -0.3693097
vn 0 -0.7275789 0.6860241
vn 0 -0.9294304 0.3689977
vn 0 -0.9293059 -0.3693109
vn 0 -0.7275789 0.6860241
vn 0 -0.9294304 0.3689977
vn 0 -0.9293059 -0.3693109
vn 0 -0.7275802 0.6860227
vn 0 -0.9294307 0.3689968
vn 0 -0.9293059 -0.3693109
vn 0 -0.7275801 0.6860228
vn 0 -0.9294307 0.3689968
vn 0 -0.9293059 -0.3693109
vn 0 -0.7275789 0.6860241
vn 0 -0.9294304 0.3689976
vn 0 -0.9293061 -0.3693106
vn 0 -0.7275789 0.6860241
vn 0 -0.9294304 0.3689976
vn 0 -0.9293061 -0.3693106
vn 0 -0.7275788 0.6860242
vn 0 -0.9294304 0.3689974
vn 0 -0.9293061 -0.3693103
vn 0 -0.7275788 0.6860241
vn 0 -0.9294304 0.3689975
vn 0 -0.929306 -0.3693109
vn 0 -0.7302364 0.6831946
vn 0 -0.9301448 0.367193
vn 0 -0.929306 -0.3693108
vn 0 -0.7302364 0.6831946
vn 0 -0.9301447 0.3671929
vn 0 -0.929306 -0.3693108
vn 0 -0.7275794 0.6860234
vn 0 -0.9294304 0.3689974
vn 0 -0.9298363 -0.3679733
vn 0 -0.7292934 -0.6842011
vn 0 -0.7275794 0.6860234
vn 0 -0.9294304 0.3689974
vn 0 -0.9298363 -0.3679733
vn 0 -0.7292934 -0.6842011
vn 0 -0.7275795 0.6860234
vn 0 -0.9294304 0.3689974
vn 0 -0.9293061 -0.3693103
vn 0 -0.7275795 0.6860234
vn 0 -0.9294304 0.3689974
vn 0 -0.9293061 -0.3693103
vn 0 -0.7275797 0.6860232
vn 0 -0.9294305 0.3689971
vn 0 -0.9293061 -0.3693105
vn 0 -0.7275797 0.6860232
vn 0 -0.9294305 0.3689972
vn 0 -0.9293061 -0.3693105
vn 0 -0.7275794 0.6860235
vn 0 -0.9294304 0.3689974
vn 0 -0.9293061 -0.3693105
vn 0 -0.7275794 0.6860235
vn 0 -0.9294304 0.3689974
vn 0 -0.9293061 -0.3693104
vn 0 -0.7275794 0.6860235
vn 0 -0.9294304 0.3689974
vn 0 -0.9293061 -0.3693102
vn 0 -0.7275794 0.6860235
vn 0 -0.9294304 0.3689974
vn 0 -0.9293061 -0.3693102
vn 0 -0.7275808 0.686022
vn 0 -0.9294308 0.3689964
vn 0 -0.9293061 -0.3693103
vn 0 -0.7275808 0.686022
vn 0 -0.9294308 0.3689964
vn 0 -0.9293061 -0.3693103
vn 0 -0.7275786 0.6860244
vn 0 -0.9294301 0.3689981
vn 0 -0.9293054 -0.3693121
vn 0 -0.7275785 0.6860244
vn 0 -0.9294301 0.3689981
vn 0 -0.9293054 -0.369312
vn 0 -0.7275789 0.6860241
vn 0 -0.9294302 0.3689978
vn 0 -0.929306 -0.3693107
vn 0 -0.7275789 0.6860241
vn 0 -0.9294302 0.3689978
vn 0 -0.929306 -0.3693107
vn 0 -0.7275794 0.6860235
vn 0 -0.9294304 0.3689973
vn 0 -0.9293064 -0.3693097
vn 0 -0.7275794 0.6860235
vn 0 -0.9294304 0.3689974
vn 0 -0.9293064 -0.3693097
vn 0 -0.7275789 0.6860241
vn 0 -0.9294304 0.3689977
vn 0 -0.9293059 -0.3693109
vn 0 -0.7275789 0.6860241
vn 0 -0.9294304 0.3689977
vn 0 -0.9293059 -0.3693109
vn 0 -0.7275802 0.6860227
vn 0 -0.9294307 0.3689968
vn 0 -0.9293059 -0.3693109
vn 0 -0.7275802 0.6860227
vn 0 -0.9294307 0.3689968
vn 0 -0.9293059 -0.3693109
vn 0 -0.7275789 0.6860241
vn 0 -0.9294304 0.3689976
vn 0 -0.9293061 -0.3693106
vn 0 -0.7275789 0.6860241
vn 0 -0.9294304 0.3689976
vn 0 -0.9293061 -0.3693106
vn 0 -0.7275787 0.6860242
vn 0 -0.9294304 0.3689974
vn 0 -0.9293061 -0.3693103
vn 0 -0.7275788 0.6860242
vn 0 -0.9294304 0.3689975
vn 0 -0.9293061 -0.3693103
vn 0 -0.7302365 0.6831946
vn 0 -0.9301448 0.3671929
vn 0 -0.929306 -0.3693108
vn 0 -0.7302365 0.6831945
vn 0 -0.9301448 0.367193
vn 0 -0.929306 -0.3693108
vn 0 -0.7273222 -0.6862961
vn 0 -0.7273222 -0.6862961
vn 0 -0.7273221 -0.6862962
vn 0 -0.7273222 -0.6862962
vn 0 -0.7273222 -0.6862962
vn 0 -0.7273222 -0.6862962
vn 0 -0.7273224 -0.6862959
vn 0 -0.7273224 -0.6862959
vn 0 -0.7273223 -0.686296
vn 0 -0.7273223 -0.686296
vn 0 -0.7273197 -0.6862989
vn 0 -0.7273197 -0.6862989
vn 0 -0.7273217 -0.6862967
vn 0 -0.7273217 -0.6862967
vn 0 -0.7273233 -0.686295
vn 0 -0.7273233 -0.686295
vn 0 -0.7273214 -0.6862969
vn 0 -0.7273214 -0.6862968
vn 0 -0.7273214 -0.6862969
vn 0 -0.7273214 -0.6862968
vn 0 -0.7273222 -0.6862962
vn 0 -0.7273222 -0.6862962
vn 0 -0.7273229 -0.6862955
vn 0 -0.7273229 -0.6862955
vn 0 -0.7273219 -0.6862966
vn 0 -0.7273219 -0.6862966
vn 0 -0.7273222 -0.686296
vn 0 -0.7273222 -0.686296
vn 0 -0.7273222 -0.6862962
vn 0 -0.7273222 -0.6862962
vn 0 -0.7273222 -0.6862962
vn 0 -0.7273222 -0.6862962
vn 0 -0.7273225 -0.6862959
vn 0 -0.7273225 -0.6862959
vn 0 -0.7273223 -0.686296
vn 0 -0.7273223 -0.686296
vn 0 -0.7273196 -0.6862989
vn 0 -0.7273196 -0.6862989
vn 0 -0.7273217 -0.6862968
vn 0 -0.7273217 -0.6862968
vn 0 -0.7273233 -0.686295
vn 0 -0.7273233 -0.686295
vn 0 -0.7273216 -0.6862969
vn 0 -0.7273214 -0.6862968
vn 0 -0.7273216 -0.6862969
vn 0 -0.7273214 -0.6862968
vn 0 -0.7273222 -0.6862962
vn 0 -0.7273222 -0.6862962
vn 0 -0.7273229 -0.6862954
vn 0 -0.7273229 -0.6862954
vn 0 -0.7273219 -0.6862965
vn 0 -0.7273219 -0.6862965
g kutuk_duvar_0
f 3/3/3 4/4/4 8/8/8
f 7/7/7 3/3/3 8/8/8
f 2/2/2 3/3/3 7/7/7
f 6/6/6 2/2/2 7/7/7
f 1/1/1 2/2/2 6/6/6
f 5/5/5 1/1/1 6/6/6
f 11/11/11 174/174/174 173/173/173
f 14/14/14 11/11/11 173/173/173
f 10/10/10 11/11/11 14/14/14
f 13/13/13 10/10/10 14/14/14
f 9/9/9 10/10/10 13/13/13
f 12/12/12 9/9/9 13/13/13
f 17/17/17 176/176/176 175/175/175
f 20/20/20 17/17/17 175/175/175
f 16/16/16 17/17/17 20/20/20
f 19/19/19 16/16/16 20/20/20
f 15/15/15 16/16/16 19/19/19
f 18/18/18 15/15/15 19/19/19
f 23/23/23 178/178/178 177/177/177
f 26/26/26 23/23/23 177/177/177
f 22/22/22 23/23/23 26/26/26
f 25/25/25 22/22/22 26/26/26
f 21/21/21 22/22/22 25/25/25
f 24/24/24 21/21/21 25/25/25
f 29/29/29 180/180/180 179/179/179
f 32/32/32 29/29/29 179/179/179
f 28/28/28 29/29/29 32/32/32
f 31/31/31 28/28/28 32/32/32
f 27/27/27 28/28/28 31/31/31
f 30/30/30 27/27/27 31/31/31
f 35/35/35 182/182/182 181/181/181
f 38/38/38 35/35/35 181/181/181
f 34/34/34 35/35/35 38/38/38
f 37/37/37 34/34/34 38/38/38
f 33/33/33 34/34/34 37/37/37
f 36/36/36 33/33/33 37/37/37
f 41/41/41 184/184/184 183/183/183
f 44/44/44 41/41/41 183/183/183
f 40/40/40 41/41/41 44/44/44
f 43/43/43 40/40/40 44/44/44
f 39/39/39 40/40/40 43/43/43
f 42/42/42 39/39/39 43/43/43
f 47/47/47 186/186/186 185/185/185
f 50/50/50 47/47/47 185/185/185
f 46/46/46 47/47/47 50/50/50
f 49/49/49 46/46/46 50/50/50
f 45/45/45 46/46/46 49/49/49
f 48/48/48 45/45/45 49/49/49
f 53/53/53 188/188/188 187/187/187
f 56/56/56 53/53/53 187/187/187
f 52/52/52 53/53/53 56/56/56
f 55/55/55 52/52/52 56/56/56
f 51/51/51 52/52/52 55/55/55
f 54/54/54 51/51/51 55/55/55
f 59/59/59 190/190/190 189/189/189
f 62/62/62 59/59/59 189/189/189
f 58/58/58 59/59/59 62/62/62
f 61/61/61 58/58/58 62/62/62
f 57/57/57 58/58/58 61/61/61
f 60/60/60 57/57/57 61/61/61
f 65/65/65 192/192/192 191/191/191
f 68/68/68 65/65/65 191/191/191
f 64/64/64 65/65/65 68/68/68
f 67/67/67 64/64/64 68/68/68
f 63/63/63 64/64/64 67/67/67
f 66/66/66 63/63/63 67/67/67
f 71/71/71 194/194/194 193/193/193
f 74/74/74 71/71/71 193/193/193
f 70/70/70 71/71/71 74/74/74
f 73/73/73 70/70/70 74/74/74
f 69/69/69 70/70/70 73/73/73
f 72/72/72 69/69/69 73/73/73
f 77/77/77 196/196/196 195/195/195
f 80/80/80 77/77/77 195/195/195
f 76/76/76 77/77/77 80/80/80
f 79/79/79 76/76/76 80/80/80
f 75/75/75 76/76/76 79/79/79
f 78/78/78 75/75/75 79/79/79
f 83/83/83 198/198/198 197/197/197
f 86/86/86 83/83/83 197/197/197
f 82/82/82 83/83/83 86/86/86
f 85/85/85 82/82/82 86/86/86
f 81/81/81 82/82/82 85/85/85
f 84/84/84 81/81/81 85/85/85
f 89/89/89 90/90/90 94/94/94
f 93/93/93 89/89/89 94/94/94
f 88/88/88 89/89/89 93/93/93
f 92/92/92 88/88/88 93/93/93
f 87/87/87 88/88/88 92/92/92
f 91/91/91 87/87/87 92/92/92
f 97/97/97 200/200/200 199/199/199
f 100/100/100 97/97/97 199/199/199
f 96/96/96 97/97/97 100/100/100
f 99/99/99 96/96/96 100/100/100
f 95/95/95 96/96/96 99/99/99
f 98/98/98 95/95/95 99/99/99
f 103/103/103 202/202/202 201/201/201
f 106/106/106 103/103/103 201/201/201
f 102/102/102 103/103/103 106/106/106
f 105/105/105 102/102/102 106/106/106
f 101/101/101 102/102/102 105/105/105
f 104/104/104 101/101/101 105/105/105
f 109/109/109 204/204/204 203/203/203
f 112/112/112 109/109/109 203/203/203
f 108/108/108 109/109/109 112/112/112
f 111/111/111 108/108/108 112/112/112
f 107/107/107 108/108/108 111/111/111
f 110/110/110 107/107/107 111/111/111
f 115/115/115 206/206/206 205/205/205
f 118/118/118 115/115/115 205/205/205
f 114/114/114 115/115/115 118/118/118
f 117/117/117 114/114/114 118/118/118
f 113/113/113 114/114/114 117/117/117
f 116/116/116 113/113/113 117/117/117
f 121/121/121 208/208/208 207/207/207
f 124/124/124 121/121/121 207/207/207
f 120/120/120 121/121/121 124/124/124
f 123/123/123 120/120/120 124/124/124
f 119/119/119 120/120/120 123/123/123
f 122/122/122 119/119/119 123/123/123
f 127/127/127 210/210/210 209/209/209
f 130/130/130 127/127/127 209/209/209
f 126/126/126 127/127/127 130/130/130
f 129/129/129 126/126/126 130/130/130
f 125/125/125 126/126/126 129/129/129
f 128/128/128 125/125/125 129/129/129
f 133/133/133 212/212/212 211/211/211
f 136/136/136 133/133/133 211/211/211
f 132/132/132 133/133/133 136/136/136
f 135/135/135 132/132/132 136/136/136
f 131/131/131 132/132/132 135/135/135
f 134/134/134 131/131/131 135/135/135
f 139/139/139 214/214/214 213/213/213
f 142/142/142 139/139/139 213/213/213
f 138/138/138 139/139/139 142/142/142
f 141/141/141 138/138/138 142/142/142
f 137/137/137 138/138/138 141/141/141
f 140/140/140 137/137/137 141/141/141
f 145/145/145 216/216/216 215/215/215
f 148/148/148 145/145/145 215/215/215
f 144/144/144 145/145/145 148/148/148
f 147/147/147 144/144/144 148/148/148
f 143/143/143 144/144/144 147/147/147
f 146/146/146 143/143/143 147/147/147
f 151/151/151 218/218/218 217/217/217
f 154/154/154 151/151/151 217/217/217
f 150/150/150 151/151/151 154/154/154
f 153/153/153 150/150/150 154/154/154
f 149/149/149 150/150/150 153/153/153
f 152/152/152 149/149/149 153/153/153
f 157/157/157 220/220/220 219/219/219
f 160/160/160 157/157/157 219/219/219
f 156/156/156 157/157/157 160/160/160
f 159/159/159 156/156/156 160/160/160
f 155/155/155 156/156/156 159/159/159
f 158/158/158 155/155/155 159/159/159
f 163/163/163 222/222/222 221/221/221
f 166/166/166 163/163/163 221/221/221
f 162/162/162 163/163/163 166/166/166
f 165/165/165 162/162/162 166/166/166
f 161/161/161 162/162/162 165/165/165
f 164/164/164 161/161/161 165/165/165
f 169/169/169 224/224/224 223/223/223
f 172/172/172 169/169/169 223/223/223
f 168/168/168 169/169/169 172/172/172
f 171/171/171 168/168/168 172/172/172
f 167/167/167 168/168/168 171/171/171
f 170/170/170 167/167/167 171/171/171
