g lamba_05
v 0 0.09204221 0
v 0 0.06737971 -0.09204221
v -0.04602122 0.06737971 -0.07971096
v -0.07971096 0.06737971 -0.0460211
v -0.09204233 0.06737971 0
v -0.07971096 0.06737971 0.04602122
v -0.04602122 0.06737924 0.07971096
v 0 0.06737924 0.09204233
v 0.04602098 0.06737924 0.07971096
v 0.07971084 0.06737971 0.04602122
v 0.09204221 0.06737971 1.192093E-07
v 0.07971096 0.06737971 -0.04602098
v 0.04602122 0.06737971 -0.07971084
v 0 -2.384186E-07 -0.1594218
v -0.07971096 -2.384186E-07 -0.1380633
v -0.1380634 -2.384186E-07 -0.07971096
v -0.1594218 -2.384186E-07 0
v -0.1380634 -2.384186E-07 0.07971096
v -0.07971096 -2.384186E-07 0.1380634
v -1.192093E-07 -2.384186E-07 0.1594219
v 0.07971084 -2.384186E-07 0.1380634
v 0.1380633 -2.384186E-07 0.07971108
v 0.1594218 -2.384186E-07 1.192093E-07
v 0.1380633 -2.384186E-07 -0.07971072
v 0.07971096 -2.384186E-07 -0.1380633
v 0 -0.09204221 -0.1840845
v -0.09204233 -0.09204221 -0.1594218
v -0.1594218 -0.09204221 -0.09204221
v -0.1840844 -0.09204221 0
v -0.1594219 -0.09204221 0.09204221
v -0.09204233 -0.09204221 0.1594219
v -1.192093E-07 -0.09204221 0.1840845
v 0.09204209 -0.09204221 0.1594219
v 0.1594218 -0.09204221 0.09204245
v 0.1840844 -0.09204221 1.192093E-07
v 0.1594218 -0.09204221 -0.09204197
v 0.09204233 -0.09204221 -0.1594218
v 0 -0.09204221 0
v 0 -2.384186E-07 -0.1594218
v -1.192093E-07 -2.384186E-07 0.1594219
v -1.192093E-07 -2.384186E-07 0.1594219
v -1.192093E-07 -0.09204221 0.1840845
v 0 -0.09204221 -0.1840845
v 0 -2.384186E-07 -0.1594218
v -0.09204233 -0.09204221 -0.1594218
v 0 -0.09204221 -0.1840845
v 0.09204233 -0.09204221 -0.1594218
v 0.1594218 -0.09204221 -0.09204197
v 0.1840844 -0.09204221 1.192093E-07
v 0.1594218 -0.09204221 0.09204245
v 0.09204209 -0.09204221 0.1594219
v -1.192093E-07 -0.09204221 0.1840845
v -0.09204233 -0.09204221 0.1594219
v -0.1594219 -0.09204221 0.09204221
v -0.1840844 -0.09204221 0
v -0.1594218 -0.09204221 -0.09204221
vt 0.1794292 0.4781865
vt 0.1794292 0.4667863
vt 0.1737291 0.4683136
vt 0.1695563 0.4724864
vt 0.168029 0.4781865
vt 0.1695563 0.4838866
vt 0.1737291 0.4880594
vt 0.1794292 0.4895868
vt 0.1851293 0.4880594
vt 0.1893021 0.4838866
vt 0.1908295 0.4781866
vt 0.1893021 0.4724864
vt 0.1851293 0.4683136
vt 0.1794292 0.4584408
vt 0.1695563 0.4610862
vt 0.1623289 0.4683136
vt 0.1596834 0.4781865
vt 0.1623289 0.4880594
vt 0.1695563 0.4952869
vt 0.1794292 0.4979323
vt 0.1893021 0.4952869
vt 0.1965296 0.4880594
vt 0.199175 0.4781866
vt 0.1965296 0.4683136
vt 0.1893021 0.4610862
vt 0.1794292 0.455386
vt 0.168029 0.4584408
vt 0.1596834 0.4667863
vt 0.1566287 0.4781865
vt 0.1596834 0.4895868
vt 0.168029 0.4979323
vt 0.1794292 0.500987
vt 0.1908294 0.4979323
vt 0.199175 0.4895868
vt 0.2022297 0.4781866
vt 0.199175 0.4667863
vt 0.1908295 0.4584408
vt 0.02710557 0.4792239
vt 0.1794292 0.4584408
vt 0.1794292 0.4979323
vt 0.1794292 0.4979323
vt 0.1794292 0.500987
vt 0.1794292 0.455386
vt 0.1794292 0.4584408
vt 0.01422331 0.4569111
vt 0.02710557 0.4534594
vt 0.03998786 0.4569111
vt 0.04941832 0.4663416
vt 0.05287011 0.4792239
vt 0.04941829 0.4921062
vt 0.03998782 0.5015367
vt 0.02710557 0.5049884
vt 0.01422331 0.5015366
vt 0.004792839 0.4921062
vt 0.001341045 0.4792238
vt 0.004792839 0.4663416
vn 0 1 0
vn 0 0.8545752 -0.5193278
vn -0.265703 0.8471171 -0.4602116
vn -0.449751 0.8545752 -0.2596637
vn -0.5314063 0.8471171 0
vn -0.4497496 0.8545754 0.2596653
vn -0.2657012 0.8471167 0.4602131
vn 0 0.8545746 0.5193285
vn 0.265701 0.8471168 0.4602132
vn 0.4497494 0.8545755 0.2596657
vn 0.5314062 0.8471171 0
vn 0.4497516 0.8545749 -0.2596635
vn 0.2657037 0.8471171 -0.460211
vn 0 0.4823411 -0.8759835
vn -0.4379918 0.4823409 -0.7586241
vn -0.7586244 0.4823405 -0.4379916
vn -0.8759838 0.4823406 0
vn -0.758624 0.4823412 0.4379916
vn -0.4379911 0.4823419 0.7586237
vn 0 0.4823423 0.8759828
vn 0.4379907 0.4823419 0.758624
vn 0.7586232 0.4823415 0.4379925
vn 0.8759837 0.4823409 0
vn 0.7586246 0.4823408 -0.4379911
vn 0.4379927 0.4823411 -0.7586235
vn 0 0.2588204 -0.9659255
vn -0.482963 0.2588198 -0.836516
vn -0.8365164 0.2588192 -0.4829625
vn -0.9659257 0.2588192 0
vn -0.8365166 0.2588197 0.482962
vn -0.4829631 0.2588198 0.836516
vn 0 0.2588197 0.9659256
vn 0.4829622 0.2588196 0.8365166
vn 0.8365158 0.2588198 0.4829633
vn 0.9659256 0.2588196 0
vn 0.8365168 0.2588196 -0.4829619
vn 0.4829639 0.2588201 -0.8365154
vn 0 -1 0
vn 0 0.4823411 -0.8759835
vn 0 0.4823423 0.8759828
vn 0 0.4823423 0.8759828
vn 0 0.2588197 0.9659256
vn 0 0.2588204 -0.9659255
vn 0 0.4823411 -0.8759835
vn 0 -1 0
vn 0 -1 0
vn 0 -1 0
vn 0 -1 0
vn 0 -1 0
vn 0 -1 0
vn 0 -1 0
vn 0 -1 0
vn 0 -1 0
vn 0 -1 0
vn 0 -1 0
vn 0 -1 0
g lamba_05_0
f 19/19/19 32/32/32 40/40/40
f 31/31/31 32/32/32 19/19/19
f 18/18/18 31/31/31 19/19/19
f 30/30/30 31/31/31 18/18/18
f 17/17/17 30/30/30 18/18/18
f 29/29/29 30/30/30 17/17/17
f 16/16/16 29/29/29 17/17/17
f 28/28/28 29/29/29 16/16/16
f 15/15/15 28/28/28 16/16/16
f 27/27/27 28/28/28 15/15/15
f 39/39/39 27/27/27 15/15/15
f 26/26/26 27/27/27 39/39/39
f 25/25/25 43/43/43 44/44/44
f 37/37/37 43/43/43 25/25/25
f 24/24/24 37/37/37 25/25/25
f 36/36/36 37/37/37 24/24/24
f 23/23/23 36/36/36 24/24/24
f 35/35/35 36/36/36 23/23/23
f 22/22/22 35/35/35 23/23/23
f 34/34/34 35/35/35 22/22/22
f 21/21/21 34/34/34 22/22/22
f 33/33/33 34/34/34 21/21/21
f 41/41/41 33/33/33 21/21/21
f 42/42/42 33/33/33 41/41/41
f 13/13/13 14/14/14 2/2/2
f 25/25/25 14/14/14 13/13/13
f 12/12/12 25/25/25 13/13/13
f 24/24/24 25/25/25 12/12/12
f 11/11/11 24/24/24 12/12/12
f 23/23/23 24/24/24 11/11/11
f 10/10/10 23/23/23 11/11/11
f 22/22/22 23/23/23 10/10/10
f 9/9/9 22/22/22 10/10/10
f 21/21/21 22/22/22 9/9/9
f 8/8/8 21/21/21 9/9/9
f 20/20/20 21/21/21 8/8/8
f 7/7/7 20/20/20 8/8/8
f 19/19/19 20/20/20 7/7/7
f 6/6/6 19/19/19 7/7/7
f 18/18/18 19/19/19 6/6/6
f 5/5/5 18/18/18 6/6/6
f 17/17/17 18/18/18 5/5/5
f 4/4/4 17/17/17 5/5/5
f 16/16/16 17/17/17 4/4/4
f 3/3/3 16/16/16 4/4/4
f 15/15/15 16/16/16 3/3/3
f 2/2/2 15/15/15 3/3/3
f 14/14/14 15/15/15 2/2/2
f 38/38/38 46/46/46 47/47/47
f 45/45/45 46/46/46 38/38/38
f 56/56/56 45/45/45 38/38/38
f 38/38/38 49/49/49 50/50/50
f 48/48/48 49/49/49 38/38/38
f 47/47/47 48/48/48 38/38/38
f 38/38/38 52/52/52 53/53/53
f 51/51/51 52/52/52 38/38/38
f 50/50/50 51/51/51 38/38/38
f 38/38/38 55/55/55 56/56/56
f 54/54/54 55/55/55 38/38/38
f 53/53/53 54/54/54 38/38/38
f 1/1/1 4/4/4 5/5/5
f 3/3/3 4/4/4 1/1/1
f 2/2/2 3/3/3 1/1/1
f 1/1/1 7/7/7 8/8/8
f 6/6/6 7/7/7 1/1/1
f 5/5/5 6/6/6 1/1/1
f 1/1/1 10/10/10 11/11/11
f 9/9/9 10/10/10 1/1/1
f 8/8/8 9/9/9 1/1/1
f 1/1/1 13/13/13 2/2/2
f 12/12/12 13/13/13 1/1/1
f 11/11/11 12/12/12 1/1/1
