g lamba_03
v 0 0.09204221 0
v 0 0.06737971 -0.05347788
v -0.02673888 0.06737971 -0.04631317
v -0.04631317 0.06737971 -0.02673888
v -0.05347788 0.06737971 0
v -0.04631317 0.06737971 0.026739
v -0.026739 0.06737971 0.04631329
v 0 0.06737971 0.053478
v 0.02673888 0.06737971 0.04631329
v 0.04631317 0.06737971 0.026739
v 0.05347788 0.06737971 1.192093E-07
v 0.04631329 0.06737971 -0.02673888
v 0.026739 0.06737971 -0.04631317
v 0 -2.384186E-07 -0.09262633
v -0.04631317 -2.384186E-07 -0.08021677
v -0.08021688 -2.384186E-07 -0.04631317
v -0.09262657 -2.384186E-07 0
v -0.08021688 -2.384186E-07 0.04631317
v -0.04631317 -2.384186E-07 0.08021688
v 0 -2.384186E-07 0.09262645
v 0.04631317 -2.384186E-07 0.08021688
v 0.08021677 -2.384186E-07 0.04631329
v 0.09262645 -2.384186E-07 1.192093E-07
v 0.08021688 -2.384186E-07 -0.04631317
v 0.04631329 -2.384186E-07 -0.08021677
v 0 -0.09204221 -0.1069558
v -0.05347788 -0.09204221 -0.09262633
v -0.09262657 -0.09204221 -0.05347788
v -0.1069559 -0.09204221 0
v -0.09262657 -0.09204221 0.053478
v -0.053478 -0.09204221 0.09262645
v 0 -0.09204221 0.1069559
v 0.05347776 -0.09204221 0.09262645
v 0.09262645 -0.09204221 0.053478
v 0.1069559 -0.09204221 1.192093E-07
v 0.09262657 -0.09204221 -0.05347776
v 0.053478 -0.09204221 -0.09262633
v 0 -0.09204221 0
v 0 -2.384186E-07 -0.09262633
v 0 -2.384186E-07 0.09262645
v 0 -2.384186E-07 0.09262645
v 0 -0.09204221 0.1069559
v 0 -0.09204221 -0.1069558
v 0 -2.384186E-07 -0.09262633
v -0.05347788 -0.09204221 -0.09262633
v 0 -0.09204221 -0.1069558
v 0.053478 -0.09204221 -0.09262633
v 0.09262657 -0.09204221 -0.05347776
v 0.1069559 -0.09204221 1.192093E-07
v 0.09262645 -0.09204221 0.053478
v 0.05347776 -0.09204221 0.09262645
v 0 -0.09204221 0.1069559
v -0.053478 -0.09204221 0.09262645
v -0.09262657 -0.09204221 0.053478
v -0.1069559 -0.09204221 0
v -0.09262657 -0.09204221 -0.05347788
vt 0.2215265 0.4883957
vt 0.2215265 0.4810407
vt 0.2178489 0.4820261
vt 0.2151568 0.4847183
vt 0.2141714 0.4883957
vt 0.2151568 0.4920732
vt 0.2178489 0.4947653
vt 0.2215265 0.4957507
vt 0.225204 0.4947653
vt 0.2278961 0.4920732
vt 0.2288815 0.4883957
vt 0.2278961 0.4847183
vt 0.225204 0.4820261
vt 0.2215265 0.4756565
vt 0.2151568 0.4773633
vt 0.210494 0.4820261
vt 0.2087872 0.4883957
vt 0.210494 0.4947653
vt 0.2151568 0.4994282
vt 0.2215265 0.501135
vt 0.2278961 0.4994282
vt 0.232559 0.4947653
vt 0.2342657 0.4883957
vt 0.232559 0.4820261
vt 0.2278961 0.4773633
vt 0.2215265 0.4736857
vt 0.2141714 0.4756565
vt 0.2087872 0.4810407
vt 0.2068165 0.4883957
vt 0.2087872 0.4957507
vt 0.2141714 0.5011349
vt 0.2215265 0.5031057
vt 0.2288814 0.501135
vt 0.2342657 0.4957507
vt 0.2362365 0.4883958
vt 0.2342657 0.4810407
vt 0.2288815 0.4756565
vt 0.01878898 0.4323519
vt 0.2215265 0.4756565
vt 0.2215265 0.501135
vt 0.2215265 0.501135
vt 0.2215265 0.5031057
vt 0.2215265 0.4736857
vt 0.2215265 0.4756565
vt 0.01014313 0.4173769
vt 0.01878898 0.4150603
vt 0.02743484 0.4173769
vt 0.03376399 0.4237061
vt 0.03608064 0.4323519
vt 0.03376397 0.4409977
vt 0.02743478 0.4473269
vt 0.01878898 0.4496435
vt 0.01014313 0.4473269
vt 0.003813997 0.4409977
vt 0.001497343 0.4323519
vt 0.003813997 0.4237061
vn 0 1 0
vn 0 0.7293951 -0.6840926
vn -0.3499943 0.7141542 -0.6062076
vn -0.5924406 0.7293959 -0.3420466
vn -0.6999878 0.7141547 0
vn -0.5924408 0.7293958 0.3420462
vn -0.3499949 0.7141541 0.6062075
vn 0 0.7293953 0.6840923
vn 0.3499945 0.7141543 0.6062074
vn 0.5924409 0.7293954 0.3420467
vn 0.6999882 0.7141544 0
vn 0.5924417 0.7293954 -0.3420455
vn 0.3499942 0.7141542 -0.6062078
vn 0 0.3246312 -0.9458407
vn -0.4729198 0.3246314 -0.8191223
vn -0.8191211 0.3246319 -0.4729215
vn -0.9458404 0.3246321 0
vn -0.8191217 0.3246319 0.4729204
vn -0.4729203 0.3246315 0.819122
vn 0 0.3246312 0.9458407
vn 0.4729204 0.3246312 0.8191221
vn 0.8191213 0.3246315 0.4729215
vn 0.9458405 0.3246318 0
vn 0.8191221 0.3246315 -0.4729199
vn 0.4729203 0.3246312 -0.8191221
vn 0 0.1538302 -0.9880973
vn -0.494048 0.1538302 -0.8557178
vn -0.8557166 0.1538303 -0.4940499
vn -0.9880973 0.1538303 0
vn -0.8557169 0.1538309 0.4940492
vn -0.4940487 0.1538308 0.8557172
vn 0 0.1538302 0.9880973
vn 0.4940482 0.1538299 0.8557177
vn 0.8557165 0.1538303 0.4940501
vn 0.9880973 0.1538308 0
vn 0.8557176 0.1538303 -0.4940481
vn 0.4940487 0.1538301 -0.8557173
vn 0 -1 0
vn 0 0.3246312 -0.9458407
vn 0 0.3246312 0.9458407
vn 0 0.3246312 0.9458407
vn 0 0.1538302 0.9880973
vn 0 0.1538302 -0.9880973
vn 0 0.3246312 -0.9458407
vn 0 -1 0
vn 0 -1 0
vn 0 -1 0
vn 0 -1 0
vn 0 -1 0
vn 0 -1 0
vn 0 -1 0
vn 0 -1 0
vn 0 -1 0
vn 0 -1 0
vn 0 -1 0
vn 0 -1 0
g lamba_03_0
f 19/19/19 32/32/32 40/40/40
f 31/31/31 32/32/32 19/19/19
f 18/18/18 31/31/31 19/19/19
f 30/30/30 31/31/31 18/18/18
f 17/17/17 30/30/30 18/18/18
f 29/29/29 30/30/30 17/17/17
f 16/16/16 29/29/29 17/17/17
f 28/28/28 29/29/29 16/16/16
f 15/15/15 28/28/28 16/16/16
f 27/27/27 28/28/28 15/15/15
f 39/39/39 27/27/27 15/15/15
f 26/26/26 27/27/27 39/39/39
f 25/25/25 43/43/43 44/44/44
f 37/37/37 43/43/43 25/25/25
f 24/24/24 37/37/37 25/25/25
f 36/36/36 37/37/37 24/24/24
f 23/23/23 36/36/36 24/24/24
f 35/35/35 36/36/36 23/23/23
f 22/22/22 35/35/35 23/23/23
f 34/34/34 35/35/35 22/22/22
f 21/21/21 34/34/34 22/22/22
f 33/33/33 34/34/34 21/21/21
f 41/41/41 33/33/33 21/21/21
f 42/42/42 33/33/33 41/41/41
f 13/13/13 14/14/14 2/2/2
f 25/25/25 14/14/14 13/13/13
f 12/12/12 25/25/25 13/13/13
f 24/24/24 25/25/25 12/12/12
f 11/11/11 24/24/24 12/12/12
f 23/23/23 24/24/24 11/11/11
f 10/10/10 23/23/23 11/11/11
f 22/22/22 23/23/23 10/10/10
f 9/9/9 22/22/22 10/10/10
f 21/21/21 22/22/22 9/9/9
f 8/8/8 21/21/21 9/9/9
f 20/20/20 21/21/21 8/8/8
f 7/7/7 20/20/20 8/8/8
f 19/19/19 20/20/20 7/7/7
f 6/6/6 19/19/19 7/7/7
f 18/18/18 19/19/19 6/6/6
f 5/5/5 18/18/18 6/6/6
f 17/17/17 18/18/18 5/5/5
f 4/4/4 17/17/17 5/5/5
f 16/16/16 17/17/17 4/4/4
f 3/3/3 16/16/16 4/4/4
f 15/15/15 16/16/16 3/3/3
f 2/2/2 15/15/15 3/3/3
f 14/14/14 15/15/15 2/2/2
f 38/38/38 46/46/46 47/47/47
f 45/45/45 46/46/46 38/38/38
f 56/56/56 45/45/45 38/38/38
f 38/38/38 49/49/49 50/50/50
f 48/48/48 49/49/49 38/38/38
f 47/47/47 48/48/48 38/38/38
f 38/38/38 52/52/52 53/53/53
f 51/51/51 52/52/52 38/38/38
f 50/50/50 51/51/51 38/38/38
f 38/38/38 55/55/55 56/56/56
f 54/54/54 55/55/55 38/38/38
f 53/53/53 54/54/54 38/38/38
f 1/1/1 4/4/4 5/5/5
f 3/3/3 4/4/4 1/1/1
f 2/2/2 3/3/3 1/1/1
f 1/1/1 7/7/7 8/8/8
f 6/6/6 7/7/7 1/1/1
f 5/5/5 6/6/6 1/1/1
f 1/1/1 10/10/10 11/11/11
f 9/9/9 10/10/10 1/1/1
f 8/8/8 9/9/9 1/1/1
f 1/1/1 13/13/13 2/2/2
f 12/12/12 13/13/13 1/1/1
f 11/11/11 12/12/12 1/1/1
