g lastik28
v -1.221374E-07 0.749674 0.05439077
v -0.3812428 0.5247355 0
v -0.6168637 0.200431 0
v -0.6168636 -0.2004313 0
v -0.3812425 -0.5247356 0
v 1.62375E-07 -0.6486089 0
v 0.3812428 -0.5247355 0
v 0.6168637 -0.2004311 0
v 0.6168636 0.2004313 0
v 0.440647 0.6064993 0.05439077
v -1.221374E-07 0.749674 0.4915905
v -0.4406474 0.6064989 0.4915905
v -0.7129824 0.2316619 0.4915905
v -0.7129822 -0.2316622 0.4915905
v -0.4406472 -0.6064991 0.4915905
v 1.87676E-07 -0.749674 0.4915905
v 0.4406474 -0.6064989 0.4915905
v 0.7129823 -0.231662 0.4915905
v 0.7129822 0.2316622 0.4915905
v 0.440647 0.6064993 0.4915905
v -1.056718E-07 0.6486089 0
v -0.4406474 0.6064989 0.05439077
v -0.7129824 0.2316619 0.05439077
v -0.7129822 -0.2316622 0.05439077
v -0.4406472 -0.6064991 0.05439077
v 1.87676E-07 -0.749674 0.05439077
v 0.4406474 -0.6064989 0.05439077
v 0.7129823 -0.231662 0.05439077
v 0.7129822 0.2316622 0.05439077
v 0.3812424 0.5247358 0
v -1.056718E-07 0.6486089 0.5459813
v -0.3812428 0.5247355 0.5459813
v -0.6168637 0.200431 0.5459813
v -0.6168636 -0.2004313 0.5459813
v -0.3812425 -0.5247356 0.5459813
v 1.62375E-07 -0.6486089 0.5459813
v 0.3812428 -0.5247355 0.5459813
v 0.6168637 -0.2004311 0.5459813
v 0.6168636 0.2004313 0.5459813
v 0.3812424 0.5247358 0.5459813
v -0.4705501 0.6476565 0.2729906
v -1.304258E-07 0.8005476 0.2729906
v -0.7613661 0.2473827 0.2729906
v -0.7613658 -0.247383 0.2729906
v -0.4705499 -0.6476567 0.2729906
v 2.004118E-07 -0.8005476 0.2729906
v 0.4705501 -0.6476565 0.2729906
v 0.761366 -0.2473828 0.2729906
v 0.7613658 0.2473831 0.2729906
v 0.4705497 0.6476569 0.2729906
v -2.189965E-09 -1.094983E-09 0.5039083
v -9.790431E-09 -3.993467E-09 0.04207271
v -0.7129822 -0.2316622 0.05439077
v -0.7613658 -0.247383 0.2729906
v 0.7129822 0.2316622 0.05439077
v 0.7613658 0.2473831 0.2729906
v -0.3812428 0.5247355 0
v -1.056718E-07 0.6486089 0
v -1.056718E-07 0.6486089 0.5459813
v -0.3812428 0.5247355 0.5459813
v -0.6168637 0.200431 0
v -0.6168637 0.200431 0.5459813
v -0.6168636 -0.2004313 0
v -0.6168636 -0.2004313 0.5459813
v -0.3812425 -0.5247356 0
v -0.6168636 -0.2004313 0
v -0.6168636 -0.2004313 0.5459813
v -0.3812425 -0.5247356 0.5459813
v -0.7129822 -0.2316622 0.4915905
v 1.62375E-07 -0.6486089 0
v 1.62375E-07 -0.6486089 0.5459813
v 0.3812428 -0.5247355 0
v 0.3812428 -0.5247355 0.5459813
v 0.6168637 -0.2004311 0
v 0.6168637 -0.2004311 0.5459813
v 0.6168636 0.2004313 0
v 0.6168637 -0.2004311 0
v 0.6168637 -0.2004311 0.5459813
v 0.6168636 0.2004313 0.5459813
v 0.3812424 0.5247358 0
v 0.6168636 0.2004313 0
v 0.6168636 0.2004313 0.5459813
v 0.3812424 0.5247358 0.5459813
v 0.7129822 0.2316622 0.4915905
vt 0.5674819 0.5341012
vt 0.3568821 0.4478513
vt 0.2925921 0.3593636
vt 0.2925922 0.2499871
vt 0.3568821 0.1614997
vt 0.4609053 0.1277003
vt 0.5649287 0.1614997
vt 0.6292186 0.2499871
vt 0.6292186 0.3593637
vt 0.4320707 0.5341012
vt 0.5674819 0.6665875
vt 0.7028936 0.6665875
vt 0.8455413 0.6665875
vt 0.9929941 0.6665875
vt 0.4273214 0.8684392
vt 0.562733 0.8684392
vt 0.6981443 0.8684392
vt 0.8407872 0.8684392
vt 0.9882402 0.8684392
vt 0.4320707 0.6665875
vt 0.4609053 0.4816504
vt 0.7028936 0.5341012
vt 0.8455365 0.5341012
vt 0.9929892 0.5341012
vt 0.4273214 0.735953
vt 0.562733 0.735953
vt 0.6981443 0.735953
vt 0.8407872 0.735953
vt 0.9882402 0.735953
vt 0.5649285 0.4478514
vt 0.8156565 0.4827187
vt 0.7116333 0.4489195
vt 0.6473432 0.3604319
vt 0.6473432 0.2510554
vt 0.7116333 0.162568
vt 0.8156565 0.1287687
vt 0.9196799 0.162568
vt 0.9839699 0.2510554
vt 0.9839699 0.360432
vt 0.9196798 0.4489198
vt 0.7028936 0.6003444
vt 0.5674819 0.6003444
vt 0.845539 0.6003444
vt 0.9929917 0.6003444
vt 0.4273214 0.8021961
vt 0.562733 0.8021961
vt 0.6981443 0.8021961
vt 0.8407872 0.8021961
vt 0.9882402 0.8021961
vt 0.4320707 0.6003444
vt 0.8161123 0.3080805
vt 0.4587246 0.3065419
vt 0.2846785 0.735953
vt 0.2846785 0.8021961
vt 0.2894277 0.5341012
vt 0.2894277 0.6003444
vt 0.7028936 0.5038536
vt 0.5674819 0.5038536
vt 0.5674819 0.6968353
vt 0.7028936 0.6968353
vt 0.8455365 0.5038536
vt 0.8455413 0.6968353
vt 0.9929892 0.5038536
vt 0.9929941 0.6968353
vt 0.4273214 0.7095664
vt 0.2846785 0.7095664
vt 0.2846785 0.894826
vt 0.4273214 0.894826
vt 0.2846785 0.8684392
vt 0.562733 0.7095664
vt 0.562733 0.894826
vt 0.6981443 0.7095664
vt 0.6981443 0.894826
vt 0.8407872 0.7095664
vt 0.8407872 0.894826
vt 0.9882402 0.7095664
vt 0.8407872 0.7095664
vt 0.8407872 0.894826
vt 0.9882402 0.894826
vt 0.4320707 0.5038536
vt 0.2894277 0.5038536
vt 0.2894277 0.6968353
vt 0.4320707 0.6968353
vt 0.2894277 0.6665875
vn 0 0.8209312 -0.5710272
vn 0.03804738 -0.05236771 -0.9979029
vn 0.06156193 -0.02000267 -0.9979029
vn 0.06156192 0.0200027 -0.9979029
vn 0.03804736 0.05236772 -0.9979029
vn 0 0.06473005 -0.9979029
vn -0.03804738 0.05236771 -0.9979029
vn -0.06156193 0.02000268 -0.9979029
vn -0.06156192 -0.02000271 -0.9979029
vn 0.482531 0.6641474 -0.5710271
vn 0 0.8209313 0.571027
vn -0.4825314 0.6641473 0.571027
vn -0.7807521 0.2536815 0.5710269
vn -0.780752 -0.253682 0.5710269
vn -0.4825312 -0.6641474 0.5710269
vn 0 -0.8209313 0.571027
vn 0.4825314 -0.6641473 0.571027
vn 0.7807521 -0.2536816 0.5710269
vn 0.7807521 0.2536819 0.5710269
vn 0.4825312 0.6641476 0.571027
vn 0 -0.06473006 -0.9979029
vn -0.4825313 0.6641473 -0.5710271
vn -0.7807521 0.2536815 -0.5710271
vn -0.7807519 -0.2536819 -0.5710271
vn -0.4825312 -0.6641473 -0.571027
vn 0 -0.8209312 -0.5710272
vn 0.4825314 -0.6641473 -0.5710271
vn 0.7807521 -0.2536815 -0.571027
vn 0.780752 0.2536819 -0.571027
vn -0.03804734 -0.05236773 -0.9979029
vn 0 -0.06473042 0.9979029
vn 0.0380476 -0.052368 0.9979029
vn 0.06156229 -0.02000279 0.9979029
vn 0.06156228 0.02000282 0.9979029
vn 0.03804757 0.05236802 0.9979029
vn 0 0.06473041 0.9979029
vn -0.0380476 0.05236801 0.9979029
vn -0.06156228 0.02000279 0.9979029
vn -0.06156228 -0.02000282 0.9979029
vn -0.03804756 -0.05236802 0.9979029
vn -0.5877854 0.8090169 0
vn 0 1 0
vn -0.9510565 0.3090168 0
vn -0.9510565 -0.3090173 0
vn -0.5877851 -0.8090171 0
vn 0 -1 0
vn 0.5877854 -0.8090169 0
vn 0.9510565 -0.3090168 0
vn 0.9510565 0.3090172 0
vn 0.5877849 0.8090172 0
vn 0 0 1
vn 0 0 -1
vn -0.7807519 -0.2536819 -0.5710271
vn -0.9510565 -0.3090173 0
vn 0.780752 0.2536819 -0.571027
vn 0.9510565 0.3090172 0
vn -0.2785541 0.3833966 -0.8805763
vn 0 0.4739044 -0.8805763
vn 0 0.4739048 0.8805761
vn -0.2785543 0.383397 0.8805761
vn -0.4507099 0.1464444 -0.8805763
vn -0.4507103 0.1464445 0.8805761
vn -0.4507099 -0.1464446 -0.8805763
vn -0.4507103 -0.1464448 0.8805761
vn -0.2785539 -0.3833968 -0.8805764
vn -0.4507099 -0.1464446 -0.8805763
vn -0.4507103 -0.1464448 0.8805761
vn -0.2785542 -0.3833971 0.8805761
vn -0.780752 -0.253682 0.5710269
vn 0 -0.4739044 -0.8805763
vn 0 -0.4739048 0.8805761
vn 0.2785541 -0.3833966 -0.8805763
vn 0.2785544 -0.383397 0.8805761
vn 0.4507101 -0.1464444 -0.8805761
vn 0.4507105 -0.1464445 0.880576
vn 0.4507101 0.1464446 -0.8805761
vn 0.4507101 -0.1464444 -0.8805761
vn 0.4507105 -0.1464445 0.880576
vn 0.4507103 0.1464447 0.880576
vn 0.2785538 0.3833969 -0.8805763
vn 0.4507101 0.1464446 -0.8805761
vn 0.4507103 0.1464447 0.880576
vn 0.278554 0.3833972 0.8805761
vn 0.7807521 0.2536819 0.5710269
g lastik28_0
f 20/20/20 82/82/82 84/84/84
f 83/83/83 82/82/82 20/20/20
f 11/11/11 83/83/83 20/20/20
f 59/59/59 83/83/83 11/11/11
f 12/12/12 59/59/59 11/11/11
f 60/60/60 59/59/59 12/12/12
f 13/13/13 60/60/60 12/12/12
f 62/62/62 60/60/60 13/13/13
f 14/14/14 62/62/62 13/13/13
f 64/64/64 62/62/62 14/14/14
f 16/16/16 71/71/71 68/68/68
f 15/15/15 16/16/16 68/68/68
f 46/46/46 16/16/16 15/15/15
f 45/45/45 46/46/46 15/15/15
f 25/25/25 46/46/46 45/45/45
f 53/53/53 25/25/25 45/45/45
f 65/65/65 25/25/25 53/53/53
f 66/66/66 65/65/65 53/53/53
f 26/26/26 70/70/70 72/72/72
f 27/27/27 26/26/26 72/72/72
f 47/47/47 26/26/26 27/27/27
f 48/48/48 47/47/47 27/27/27
f 17/17/17 47/47/47 48/48/48
f 18/18/18 17/17/17 48/48/48
f 73/73/73 17/17/17 18/18/18
f 75/75/75 73/73/73 18/18/18
f 28/28/28 29/29/29 49/49/49
f 76/76/76 29/29/29 28/28/28
f 77/77/77 76/76/76 28/28/28
f 27/27/27 72/72/72 74/74/74
f 28/28/28 27/27/27 74/74/74
f 48/48/48 27/27/27 28/28/28
f 49/49/49 48/48/48 28/28/28
f 18/18/18 48/48/48 49/49/49
f 19/19/19 18/18/18 49/49/49
f 78/78/78 18/18/18 19/19/19
f 79/79/79 78/78/78 19/19/19
f 23/23/23 63/63/63 24/24/24
f 61/61/61 63/63/63 23/23/23
f 22/22/22 61/61/61 23/23/23
f 57/57/57 61/61/61 22/22/22
f 1/1/1 57/57/57 22/22/22
f 58/58/58 57/57/57 1/1/1
f 10/10/10 58/58/58 1/1/1
f 80/80/80 58/58/58 10/10/10
f 55/55/55 80/80/80 10/10/10
f 81/81/81 80/80/80 55/55/55
f 50/50/50 56/56/56 55/55/55
f 10/10/10 50/50/50 55/55/55
f 42/42/42 50/50/50 10/10/10
f 1/1/1 42/42/42 10/10/10
f 41/41/41 42/42/42 1/1/1
f 22/22/22 41/41/41 1/1/1
f 43/43/43 41/41/41 22/22/22
f 23/23/23 43/43/43 22/22/22
f 44/44/44 43/43/43 23/23/23
f 24/24/24 44/44/44 23/23/23
f 45/45/45 54/54/54 53/53/53
f 69/69/69 54/54/54 45/45/45
f 15/15/15 69/69/69 45/45/45
f 67/67/67 69/69/69 15/15/15
f 68/68/68 67/67/67 15/15/15
f 52/52/52 21/21/21 30/30/30
f 2/2/2 21/21/21 52/52/52
f 3/3/3 2/2/2 52/52/52
f 52/52/52 4/4/4 3/3/3
f 5/5/5 4/4/4 52/52/52
f 6/6/6 5/5/5 52/52/52
f 52/52/52 7/7/7 6/6/6
f 8/8/8 7/7/7 52/52/52
f 9/9/9 8/8/8 52/52/52
f 52/52/52 30/30/30 9/9/9
f 51/51/51 32/32/32 33/33/33
f 31/31/31 32/32/32 51/51/51
f 40/40/40 31/31/31 51/51/51
f 51/51/51 35/35/35 36/36/36
f 34/34/34 35/35/35 51/51/51
f 33/33/33 34/34/34 51/51/51
f 51/51/51 38/38/38 39/39/39
f 37/37/37 38/38/38 51/51/51
f 36/36/36 37/37/37 51/51/51
f 51/51/51 39/39/39 40/40/40
f 17/17/17 73/73/73 71/71/71
f 16/16/16 17/17/17 71/71/71
f 47/47/47 17/17/17 16/16/16
f 46/46/46 47/47/47 16/16/16
f 26/26/26 47/47/47 46/46/46
f 25/25/25 26/26/26 46/46/46
f 70/70/70 26/26/26 25/25/25
f 65/65/65 70/70/70 25/25/25
f 50/50/50 84/84/84 56/56/56
f 20/20/20 84/84/84 50/50/50
f 42/42/42 20/20/20 50/50/50
f 11/11/11 20/20/20 42/42/42
f 41/41/41 11/11/11 42/42/42
f 12/12/12 11/11/11 41/41/41
f 43/43/43 12/12/12 41/41/41
f 13/13/13 12/12/12 43/43/43
f 44/44/44 13/13/13 43/43/43
f 14/14/14 13/13/13 44/44/44
