g Object01
v 1.674228 -1.890564 -0.1354438
v 1.674228 -1.058179 -0.2430326
v 1.23814 -1.238247 -0.1385198
v 1.23814 -2.070557 -0.2387425
v 1.614735 -0.8681215 -0.6758189
v 1.23814 -0.9378151 -0.4593152
v 1.674228 -2.163206 -0.4002394
v 1.23814 -2.22464 -0.6157513
v 1.51743 -0.8681215 -0.8100903
v 1.23814 -0.8777775 -0.874077
v 1.367313 -2.223771 -0.8375132
v 1.23814 -2.22464 -0.837537
v 1.674228 -2.07059 -0.2387513
v 1.674228 -1.238214 -0.1385766
v 1.23814 -1.05821 -0.2430195
v 1.23814 -1.890532 -0.135387
v 1.674228 -0.9281582 -0.4601137
v 1.23814 -0.8777775 -0.6756281
v 1.61234 -2.223233 -0.6155068
v 1.23814 -2.164614 -0.4003929
v 1.67422 -1.872697 -0.2031251
v 1.67423 -1.107332 -0.2928726
v 1.238133 -1.256603 -0.2060701
v 1.238143 -2.021204 -0.2883839
v 1.616493 -0.936932 -0.6885476
v 1.239525 -1.002544 -0.4859289
v 1.67403 -2.098948 -0.4280038
v 1.237885 -2.155285 -0.625229
v 1.521325 -0.9376959 -0.812204
v 1.240752 -0.9477285 -0.874077
v 1.366895 -2.153773 -0.8373177
v 1.237824 -2.154641 -0.8374479
v 1.674156 -2.021124 -0.2882805
v 1.674222 -1.256568 -0.2061274
v 1.238584 -1.107887 -0.2923352
v 1.238135 -1.872662 -0.2030678
v 1.675211 -0.9922689 -0.4881995
v 1.24006 -0.9470667 -0.6853914
v 1.612076 -2.154299 -0.6276778
v 1.238001 -2.100095 -0.4275455
v 1.390555 -0.8714432 -0.8745962
v 1.49504 -2.223233 -0.7732955
v 1.392604 -0.9414124 -0.8750756
v 1.496416 -2.153554 -0.7744092
v 1.674228 -1.238214 -0.1385766
v 1.67422 -1.872697 -0.2031251
v 1.674228 -1.890564 -0.1354438
v 1.674222 -1.256568 -0.2061274
v 1.674228 -0.9281582 -0.4601137
v 1.67423 -1.107332 -0.2928726
v 1.674228 -1.058179 -0.2430326
v 1.675211 -0.9922689 -0.4881995
v 1.674228 -2.07059 -0.2387513
v 1.67403 -2.098948 -0.4280038
v 1.674228 -2.163206 -0.4002394
v 1.674156 -2.021124 -0.2882805
v 1.51743 -0.8681215 -0.8100903
v 1.616493 -0.936932 -0.6885476
v 1.614735 -0.8681215 -0.6758189
v 1.521325 -0.9376959 -0.812204
v 1.23814 -0.8777775 -0.874077
v 1.392604 -0.9414124 -0.8750756
v 1.390555 -0.8714432 -0.8745962
v 1.240752 -0.9477285 -0.874077
v 1.367313 -2.223771 -0.8375132
v 1.237824 -2.154641 -0.8374479
v 1.23814 -2.22464 -0.837537
v 1.366895 -2.153773 -0.8373177
v 1.61234 -2.223233 -0.6155068
v 1.496416 -2.153554 -0.7744092
v 1.49504 -2.223233 -0.7732955
v 1.612076 -2.154299 -0.6276778
v 1.674228 -1.058179 -0.2430326
v 1.67423 -1.107332 -0.2928726
v 1.674156 -2.021124 -0.2882805
v 1.674228 -2.07059 -0.2387513
v 1.521325 -0.9376959 -0.812204
v 1.390555 -0.8714432 -0.8745962
v 1.392604 -0.9414124 -0.8750756
v 1.51743 -0.8681215 -0.8100903
v 1.366895 -2.153773 -0.8373177
v 1.49504 -2.223233 -0.7732955
v 1.496416 -2.153554 -0.7744092
v 1.367313 -2.223771 -0.8375132
vt 0.8989397 0.3220362
vt 0.7954342 0.3221537
vt 0.8171599 0.2673647
vt 0.9205318 0.2672977
vt 0.7368404 0.315132
vt 0.7643944 0.2682981
vt 0.9438518 0.3218803
vt 0.9714078 0.2672563
vt 0.7218832 0.3030647
vt 0.7150975 0.2684106
vt 0.9962846 0.2834318
vt 0.9963201 0.2672563
vt 0.9205864 0.3219052
vt 0.8171558 0.3220362
vt 0.7950699 0.2680725
vt 0.8989356 0.2673647
vt 0.7641349 0.3223974
vt 0.7370825 0.2684106
vt 0.9713469 0.3141145
vt 0.9438952 0.2672724
vt 0.5937983 0.3058085
vt 0.6563092 0.3056818
vt 0.647337 0.267982
vt 0.5849565 0.2682316
vt 0.691995 0.3007489
vt 0.6739603 0.2681801
vt 0.5722089 0.3058167
vt 0.5547494 0.268205
vt 0.7025903 0.2925315
vt 0.7078004 0.2683029
vt 0.5366028 0.27933
vt 0.5365833 0.2681998
vt 0.5849645 0.30583
vt 0.6473262 0.3056355
vt 0.6562735 0.2680666
vt 0.5938014 0.2679796
vt 0.6742455 0.3058019
vt 0.6916333 0.2682433
vt 0.5545483 0.3004725
vt 0.5722381 0.2682168
vt 0.7148153 0.2873242
vt 0.9890567 0.299426
vt 0.7079458 0.2814162
vt 0.5419915 0.2904989
vt 0.5247415 0.2999198
vt 0.4806516 0.2992973
vt 0.4798289 0.3040666
vt 0.5230702 0.2953778
vt 0.5150052 0.2897331
vt 0.5265681 0.2773452
vt 0.530014 0.2807435
vt 0.5130633 0.2853006
vt 0.53031 0.2732375
vt 0.5172251 0.2751982
vt 0.5191448 0.279641
vt 0.5268856 0.2698175
vt 0.4899778 0.293884
vt 0.4992114 0.2891265
vt 0.5000914 0.293884
vt 0.4899553 0.2890737
vt 0.4715278 0.2935347
vt 0.4818933 0.2888167
vt 0.4818987 0.2936543
vt 0.4715947 0.2887968
vt 0.4845727 0.2838284
vt 0.4746492 0.2790488
vt 0.4746482 0.2838885
vt 0.4845749 0.2789888
vt 0.5042614 0.2837912
vt 0.4932749 0.2789736
vt 0.4933519 0.2837912
vt 0.5034198 0.2790252
vt 0.5365122 0.2916404
vt 0.5328264 0.2885038
vt 0.4699154 0.2943265
vt 0.4668069 0.2980359
vt 0.4899553 0.2890737
vt 0.4818987 0.2936543
vt 0.4818933 0.2888167
vt 0.4899778 0.293884
vt 0.4845749 0.2789888
vt 0.4933519 0.2837912
vt 0.4932749 0.2789736
vt 0.4845727 0.2838284
vn 8.183734E-05 -0.2552938 0.9668636
vn -0.004719029 0.7077628 0.7064344
vn 8.42393E-05 0.2621935 0.9650154
vn 0.0006780839 -0.7061142 0.7080976
vn -0.02571098 0.9827166 0.1833224
vn -0.01592864 0.9210084 0.389217
vn 0.00217377 -0.917231 0.3983499
vn 0.004019688 -0.9909218 0.1343797
vn -0.03124133 0.9994549 0.01066631
vn -0.03124133 0.9994549 0.01066631
vn 0.004747975 -0.9999874 -0.001662315
vn 0.004747975 -0.9999874 -0.001662315
vn 0.0006781379 -0.7061301 0.7080818
vn 8.423265E-05 0.2622274 0.9650061
vn -0.004718611 0.7077463 0.7064509
vn 8.184423E-05 -0.25526 0.9668725
vn -0.01541018 0.9172238 0.3980742
vn -0.02711577 0.989468 0.1421889
vn 0.003761034 -0.983832 0.1790546
vn 0.002267628 -0.9220216 0.3871318
vn -5.738347E-05 0.2552495 -0.9668752
vn 0.00466115 -0.7112827 -0.7028906
vn -0.0001973503 -0.2621363 -0.9650308
vn -0.0007290026 0.7104224 -0.7037752
vn 0.02582134 -0.9827346 -0.18321
vn 0.01585049 -0.9225499 -0.3855522
vn -0.002372076 0.919588 -0.3928768
vn -0.003766508 0.9911378 -0.1327844
vn 0.03202186 -0.9994648 -0.006689503
vn 0.03202186 -0.9994648 -0.006689503
vn -0.003966871 0.9999774 0.005448719
vn -0.003966871 0.9999774 0.005448719
vn -0.0007282512 0.7102281 -0.7039713
vn -0.000197411 -0.2623902 -0.9649618
vn 0.004632866 -0.7101846 -0.7040003
vn -5.738599E-05 0.2552411 -0.9668774
vn 0.01535703 -0.9190356 -0.3938756
vn 0.0274021 -0.9896485 -0.1408719
vn -0.00368192 0.9838032 -0.1792144
vn -0.002479291 0.9244019 -0.3814117
vn -0.03124133 0.9994549 0.01066631
vn 0.004747975 -0.9999874 -0.001662315
vn 0.03202186 -0.9994648 -0.006689503
vn -0.003966871 0.9999774 0.005448719
vn 1 -1.541619E-05 -5.311327E-05
vn 1 7.171897E-05 -0.0003454056
vn 1 7.172397E-05 -0.0003454225
vn 1 -1.541856E-05 -5.310565E-05
vn 0.9912476 0.05079608 -0.1218519
vn 0.9999933 0.002497836 0.002679705
vn 0.9999933 0.00249229 0.002673798
vn 0.9911298 0.05109482 -0.1226831
vn 0.9999993 0.0008263619 -0.0009327693
vn 0.9899711 -0.03814412 -0.1360229
vn 0.9902866 -0.03751465 -0.1338848
vn 0.9999993 0.0008293435 -0.0009342462
vn 0.7975746 0.09644601 -0.5954601
vn 0.8966335 0.09798834 -0.4317947
vn 0.8989293 0.09797994 -0.4269964
vn 0.7975746 0.09644601 -0.5954601
vn -0.00512414 0.003255489 -0.9999816
vn -0.005124139 0.003255489 -0.9999816
vn -0.00512414 0.003255489 -0.9999816
vn -0.005124139 0.003255489 -0.9999816
vn 0.0005824747 0.002036032 -0.9999977
vn 0.0005824747 0.002036032 -0.9999977
vn 0.0005824748 0.002036032 -0.9999977
vn 0.0005824747 0.002036032 -0.9999977
vn 0.8945479 -0.071811 -0.4411656
vn 0.7925138 -0.06448577 -0.6064351
vn 0.7925138 -0.06448577 -0.6064351
vn 0.8917419 -0.07161409 -0.4468421
vn 0.9999933 0.00249229 0.002673798
vn 0.9999933 0.002497836 0.002679705
vn 0.9999993 0.0008293435 -0.0009342462
vn 0.9999993 0.0008263619 -0.0009327693
vn 0.4449684 0.03558247 -0.8948392
vn 0.4449684 0.03558248 -0.8948392
vn 0.4449684 0.03558247 -0.8948392
vn 0.4449684 0.03558248 -0.8948392
vn 0.4430363 -0.00893167 -0.8964592
vn 0.4430363 -0.00893167 -0.8964592
vn 0.4430363 -0.008931671 -0.8964592
vn 0.4430363 -0.00893167 -0.8964592
g Object01_0
f 18/18/18 17/17/17 5/5/5
f 9/9/9 18/18/18 5/5/5
f 10/10/10 18/18/18 9/9/9
f 41/41/41 10/10/10 9/9/9
f 8/8/8 42/42/42 19/19/19
f 11/11/11 42/42/42 8/8/8
f 12/12/12 11/11/11 8/8/8
f 38/38/38 25/25/25 37/37/37
f 29/29/29 25/25/25 38/38/38
f 30/30/30 29/29/29 38/38/38
f 43/43/43 29/29/29 30/30/30
f 28/28/28 31/31/31 32/32/32
f 44/44/44 31/31/31 28/28/28
f 39/39/39 44/44/44 28/28/28
f 58/58/58 60/60/60 57/57/57
f 59/59/59 58/58/58 57/57/57
f 52/52/52 58/58/58 59/59/59
f 49/49/49 52/52/52 59/59/59
f 50/50/50 52/52/52 49/49/49
f 51/51/51 50/50/50 49/49/49
f 69/69/69 71/71/71 70/70/70
f 72/72/72 69/69/69 70/70/70
f 55/55/55 69/69/69 72/72/72
f 54/54/54 55/55/55 72/72/72
f 53/53/53 55/55/55 54/54/54
f 56/56/56 53/53/53 54/54/54
f 62/62/62 61/61/61 63/63/63
f 64/64/64 61/61/61 62/62/62
f 66/66/66 65/65/65 67/67/67
f 68/68/68 65/65/65 66/66/66
f 47/47/47 76/76/76 75/75/75
f 46/46/46 47/47/47 75/75/75
f 45/45/45 47/47/47 46/46/46
f 48/48/48 45/45/45 46/46/46
f 73/73/73 45/45/45 48/48/48
f 74/74/74 73/73/73 48/48/48
f 78/78/78 77/77/77 79/79/79
f 80/80/80 77/77/77 78/78/78
f 82/82/82 81/81/81 83/83/83
f 84/84/84 81/81/81 82/82/82
f 14/14/14 15/15/15 3/3/3
f 16/16/16 14/14/14 3/3/3
f 1/1/1 14/14/14 16/16/16
f 13/13/13 1/1/1 16/16/16
f 15/15/15 14/14/14 2/2/2
f 17/17/17 15/15/15 2/2/2
f 6/6/6 15/15/15 17/17/17
f 18/18/18 6/6/6 17/17/17
f 13/13/13 16/16/16 4/4/4
f 20/20/20 13/13/13 4/4/4
f 7/7/7 13/13/13 20/20/20
f 19/19/19 7/7/7 20/20/20
f 19/19/19 20/20/20 8/8/8
f 34/34/34 23/23/23 35/35/35
f 36/36/36 23/23/23 34/34/34
f 21/21/21 36/36/36 34/34/34
f 33/33/33 36/36/36 21/21/21
f 35/35/35 22/22/22 34/34/34
f 37/37/37 22/22/22 35/35/35
f 26/26/26 37/37/37 35/35/35
f 38/38/38 37/37/37 26/26/26
f 33/33/33 24/24/24 36/36/36
f 40/40/40 24/24/24 33/33/33
f 27/27/27 40/40/40 33/33/33
f 39/39/39 40/40/40 27/27/27
f 40/40/40 39/39/39 28/28/28
