g Object02
v 1.674228 1.316947 -0.1354447
v 1.674228 2.149332 -0.2430334
v 1.23814 1.969265 -0.1385206
v 1.23814 1.136955 -0.2387434
v 1.614735 2.33939 -0.6758197
v 1.23814 2.269696 -0.459316
v 1.674228 1.044306 -0.4002402
v 1.23814 0.9828713 -0.6157521
v 1.51743 2.33939 -0.8100911
v 1.23814 2.329734 -0.8740778
v 1.367313 0.9837406 -0.837514
v 1.23814 0.9828713 -0.8375379
v 1.674228 1.136922 -0.2387522
v 1.674228 1.969298 -0.1385774
v 1.23814 2.149301 -0.2430203
v 1.23814 1.31698 -0.1353879
v 1.674228 2.279353 -0.4601146
v 1.23814 2.329734 -0.6756289
v 1.61234 0.9842789 -0.6155076
v 1.23814 1.042898 -0.4003938
v 1.67422 1.334814 -0.203126
v 1.67423 2.10018 -0.2928735
v 1.238133 1.950908 -0.206071
v 1.238143 1.186308 -0.2883848
v 1.616493 2.27058 -0.6885484
v 1.239525 2.204968 -0.4859297
v 1.67403 1.108563 -0.4280047
v 1.237885 1.052226 -0.6252298
v 1.521325 2.269816 -0.8122048
v 1.240752 2.259783 -0.8740778
v 1.366895 1.053739 -0.8373185
v 1.237824 1.052871 -0.8374487
v 1.674156 1.186388 -0.2882814
v 1.674222 1.950943 -0.2061282
v 1.238584 2.099625 -0.292336
v 1.238135 1.334849 -0.2030687
v 1.675211 2.215243 -0.4882003
v 1.24006 2.260445 -0.6853923
v 1.612076 1.053212 -0.6276787
v 1.238001 1.107417 -0.4275464
v 1.390555 2.336068 -0.8745971
v 1.49504 0.9842789 -0.7732964
v 1.392604 2.266099 -0.8750765
v 1.496416 1.053958 -0.77441
v 1.674228 1.969298 -0.1385774
v 1.67422 1.334814 -0.203126
v 1.674228 1.316947 -0.1354447
v 1.674222 1.950943 -0.2061282
v 1.674228 2.279353 -0.4601146
v 1.67423 2.10018 -0.2928735
v 1.674228 2.149332 -0.2430334
v 1.675211 2.215243 -0.4882003
v 1.674228 1.136922 -0.2387522
v 1.67403 1.108563 -0.4280047
v 1.674228 1.044306 -0.4002402
v 1.674156 1.186388 -0.2882814
v 1.51743 2.33939 -0.8100911
v 1.616493 2.27058 -0.6885484
v 1.614735 2.33939 -0.6758197
v 1.521325 2.269816 -0.8122048
v 1.23814 2.329734 -0.8740778
v 1.392604 2.266099 -0.8750765
v 1.390555 2.336068 -0.8745971
v 1.240752 2.259783 -0.8740778
v 1.367313 0.9837406 -0.837514
v 1.237824 1.052871 -0.8374487
v 1.23814 0.9828713 -0.8375379
v 1.366895 1.053739 -0.8373185
v 1.61234 0.9842789 -0.6155076
v 1.496416 1.053958 -0.77441
v 1.49504 0.9842789 -0.7732964
v 1.612076 1.053212 -0.6276787
v 1.674228 2.149332 -0.2430334
v 1.67423 2.10018 -0.2928735
v 1.674156 1.186388 -0.2882814
v 1.674228 1.136922 -0.2387522
v 1.521325 2.269816 -0.8122048
v 1.390555 2.336068 -0.8745971
v 1.392604 2.266099 -0.8750765
v 1.51743 2.33939 -0.8100911
v 1.366895 1.053739 -0.8373185
v 1.49504 0.9842789 -0.7732964
v 1.496416 1.053958 -0.77441
v 1.367313 0.9837406 -0.837514
vt 0.8989397 0.3220362
vt 0.7954342 0.3221537
vt 0.8171599 0.2673647
vt 0.9205318 0.2672977
vt 0.7368404 0.315132
vt 0.7643944 0.2682981
vt 0.9438518 0.3218803
vt 0.9714078 0.2672563
vt 0.7218832 0.3030647
vt 0.7150975 0.2684106
vt 0.9962846 0.2834318
vt 0.9963201 0.2672563
vt 0.9205864 0.3219052
vt 0.8171558 0.3220362
vt 0.7950699 0.2680725
vt 0.8989356 0.2673647
vt 0.7641349 0.3223974
vt 0.7370825 0.2684106
vt 0.9713469 0.3141145
vt 0.9438952 0.2672724
vt 0.5937983 0.3058085
vt 0.6563092 0.3056818
vt 0.647337 0.267982
vt 0.5849565 0.2682316
vt 0.691995 0.3007489
vt 0.6739603 0.2681801
vt 0.5722089 0.3058167
vt 0.5547494 0.268205
vt 0.7025903 0.2925315
vt 0.7078004 0.2683029
vt 0.5366028 0.27933
vt 0.5365833 0.2681998
vt 0.5849645 0.30583
vt 0.6473262 0.3056355
vt 0.6562735 0.2680666
vt 0.5938014 0.2679796
vt 0.6742455 0.3058019
vt 0.6916333 0.2682433
vt 0.5545483 0.3004725
vt 0.5722381 0.2682168
vt 0.7148153 0.2873242
vt 0.9890567 0.299426
vt 0.7079458 0.2814162
vt 0.5419915 0.2904989
vt 0.5247415 0.2999198
vt 0.4806516 0.2992973
vt 0.4798289 0.3040666
vt 0.5230702 0.2953778
vt 0.5150052 0.2897331
vt 0.5265681 0.2773452
vt 0.530014 0.2807435
vt 0.5130633 0.2853006
vt 0.53031 0.2732375
vt 0.5172251 0.2751982
vt 0.5191448 0.279641
vt 0.5268856 0.2698175
vt 0.4899778 0.293884
vt 0.4992114 0.2891265
vt 0.5000914 0.293884
vt 0.4899553 0.2890737
vt 0.4715278 0.2935347
vt 0.4818933 0.2888167
vt 0.4818987 0.2936543
vt 0.4715947 0.2887968
vt 0.4845727 0.2838284
vt 0.4746492 0.2790488
vt 0.4746482 0.2838885
vt 0.4845749 0.2789888
vt 0.5042614 0.2837912
vt 0.4932749 0.2789736
vt 0.4933519 0.2837912
vt 0.5034198 0.2790252
vt 0.5365122 0.2916404
vt 0.5328264 0.2885038
vt 0.4699154 0.2943265
vt 0.4668069 0.2980359
vt 0.4899553 0.2890737
vt 0.4818987 0.2936543
vt 0.4818933 0.2888167
vt 0.4899778 0.293884
vt 0.4845749 0.2789888
vt 0.4933519 0.2837912
vt 0.4932749 0.2789736
vt 0.4845727 0.2838284
vn 8.159382E-05 -0.2552941 0.9668635
vn -0.004719005 0.7077628 0.7064345
vn 8.423816E-05 0.2621934 0.9650154
vn 0.0006776221 -0.7061146 0.7080973
vn -0.02571098 0.9827166 0.1833225
vn -0.01592863 0.9210083 0.389217
vn 0.002173524 -0.9172313 0.3983494
vn 0.004019694 -0.9909218 0.1343798
vn -0.03124133 0.9994549 0.01066631
vn -0.03124133 0.9994549 0.01066631
vn 0.004747974 -0.9999874 -0.001662315
vn 0.004747974 -0.9999874 -0.001662315
vn 0.0006776767 -0.7061306 0.7080812
vn 8.423149E-05 0.2622272 0.9650061
vn -0.004718588 0.7077462 0.7064511
vn 8.160077E-05 -0.2552601 0.9668724
vn -0.01541017 0.9172237 0.3980743
vn -0.02711577 0.989468 0.142189
vn 0.00376104 -0.983832 0.1790546
vn 0.002267405 -0.9220218 0.3871313
vn -5.750861E-05 0.2552498 -0.9668752
vn 0.004661161 -0.7112828 -0.7028905
vn -0.0001973487 -0.2621363 -0.9650308
vn -0.0007291118 0.7104226 -0.7037749
vn 0.02582138 -0.9827346 -0.1832101
vn 0.01585051 -0.9225499 -0.3855522
vn -0.002371678 0.9195881 -0.3928766
vn -0.003765931 0.9911378 -0.1327839
vn 0.03202193 -0.9994648 -0.006689809
vn 0.03202193 -0.9994648 -0.006689809
vn -0.003966569 0.9999774 0.005449242
vn -0.003966569 0.9999774 0.005449242
vn -0.0007283599 0.7102283 -0.7039711
vn -0.0001974093 -0.2623903 -0.9649618
vn 0.004632875 -0.7101846 -0.7040003
vn -5.751113E-05 0.2552414 -0.9668774
vn 0.01535706 -0.9190356 -0.3938756
vn 0.02740214 -0.9896485 -0.140872
vn -0.003681252 0.9838033 -0.1792139
vn -0.002478851 0.924402 -0.3814115
vn -0.03124133 0.9994549 0.01066631
vn 0.004747974 -0.9999874 -0.001662315
vn 0.03202193 -0.9994648 -0.006689809
vn -0.003966569 0.9999774 0.005449242
vn 1 -1.541618E-05 -5.311333E-05
vn 1 7.171895E-05 -0.0003454054
vn 1 7.17239E-05 -0.0003454222
vn 1 -1.541857E-05 -5.310562E-05
vn 0.9912476 0.05079608 -0.121852
vn 0.9999933 0.002497837 0.002679706
vn 0.9999933 0.002492292 0.002673799
vn 0.9911298 0.05109478 -0.1226831
vn 0.9999993 0.0008263642 -0.0009327702
vn 0.9899711 -0.03814437 -0.136023
vn 0.9902866 -0.03751478 -0.1338844
vn 0.9999993 0.0008293416 -0.0009342449
vn 0.7975746 0.09644601 -0.5954601
vn 0.8966335 0.09798831 -0.4317947
vn 0.8989293 0.09797991 -0.4269964
vn 0.7975746 0.09644601 -0.5954601
vn -0.005124141 0.003255492 -0.9999816
vn -0.005124141 0.003255492 -0.9999816
vn -0.005124141 0.003255492 -0.9999816
vn -0.005124141 0.003255492 -0.9999816
vn 0.0005829307 0.002036886 -0.9999977
vn 0.0005829307 0.002036886 -0.9999977
vn 0.0005829307 0.002036886 -0.9999977
vn 0.0005829307 0.002036886 -0.9999977
vn 0.894548 -0.07181142 -0.4411655
vn 0.7925137 -0.06448618 -0.6064352
vn 0.7925137 -0.06448618 -0.6064352
vn 0.8917417 -0.0716145 -0.4468424
vn 0.9999933 0.002492292 0.002673799
vn 0.9999933 0.002497837 0.002679706
vn 0.9999993 0.0008293416 -0.0009342449
vn 0.9999993 0.0008263642 -0.0009327702
vn 0.4449684 0.03558249 -0.8948392
vn 0.4449684 0.03558248 -0.8948392
vn 0.4449684 0.03558248 -0.8948392
vn 0.4449684 0.03558248 -0.8948392
vn 0.4430361 -0.008931299 -0.8964593
vn 0.4430361 -0.008931299 -0.8964593
vn 0.4430361 -0.0089313 -0.8964593
vn 0.4430361 -0.008931299 -0.8964593
g Object02_0
f 18/18/18 17/17/17 5/5/5
f 9/9/9 18/18/18 5/5/5
f 10/10/10 18/18/18 9/9/9
f 41/41/41 10/10/10 9/9/9
f 8/8/8 42/42/42 19/19/19
f 11/11/11 42/42/42 8/8/8
f 12/12/12 11/11/11 8/8/8
f 38/38/38 25/25/25 37/37/37
f 29/29/29 25/25/25 38/38/38
f 30/30/30 29/29/29 38/38/38
f 43/43/43 29/29/29 30/30/30
f 28/28/28 31/31/31 32/32/32
f 44/44/44 31/31/31 28/28/28
f 39/39/39 44/44/44 28/28/28
f 58/58/58 60/60/60 57/57/57
f 59/59/59 58/58/58 57/57/57
f 52/52/52 58/58/58 59/59/59
f 49/49/49 52/52/52 59/59/59
f 50/50/50 52/52/52 49/49/49
f 51/51/51 50/50/50 49/49/49
f 69/69/69 71/71/71 70/70/70
f 72/72/72 69/69/69 70/70/70
f 55/55/55 69/69/69 72/72/72
f 54/54/54 55/55/55 72/72/72
f 53/53/53 55/55/55 54/54/54
f 56/56/56 53/53/53 54/54/54
f 62/62/62 61/61/61 63/63/63
f 64/64/64 61/61/61 62/62/62
f 66/66/66 65/65/65 67/67/67
f 68/68/68 65/65/65 66/66/66
f 47/47/47 76/76/76 75/75/75
f 46/46/46 47/47/47 75/75/75
f 45/45/45 47/47/47 46/46/46
f 48/48/48 45/45/45 46/46/46
f 73/73/73 45/45/45 48/48/48
f 74/74/74 73/73/73 48/48/48
f 78/78/78 77/77/77 79/79/79
f 80/80/80 77/77/77 78/78/78
f 82/82/82 81/81/81 83/83/83
f 84/84/84 81/81/81 82/82/82
f 14/14/14 15/15/15 3/3/3
f 16/16/16 14/14/14 3/3/3
f 1/1/1 14/14/14 16/16/16
f 13/13/13 1/1/1 16/16/16
f 15/15/15 14/14/14 2/2/2
f 17/17/17 15/15/15 2/2/2
f 6/6/6 15/15/15 17/17/17
f 18/18/18 6/6/6 17/17/17
f 13/13/13 16/16/16 4/4/4
f 20/20/20 13/13/13 4/4/4
f 7/7/7 13/13/13 20/20/20
f 19/19/19 7/7/7 20/20/20
f 19/19/19 20/20/20 8/8/8
f 34/34/34 23/23/23 35/35/35
f 36/36/36 23/23/23 34/34/34
f 21/21/21 36/36/36 34/34/34
f 33/33/33 36/36/36 21/21/21
f 35/35/35 22/22/22 34/34/34
f 37/37/37 22/22/22 35/35/35
f 26/26/26 37/37/37 35/35/35
f 38/38/38 37/37/37 26/26/26
f 33/33/33 24/24/24 36/36/36
f 40/40/40 24/24/24 33/33/33
f 27/27/27 40/40/40 33/33/33
f 39/39/39 40/40/40 27/27/27
f 40/40/40 39/39/39 28/28/28
