g Puan_Kum_saati09
v -0.5290844 -0.5352552 0.8786689
v 0.5352552 -0.5290844 0.8786689
v -0.5352552 0.5290844 0.8786689
v 0.5290844 0.5352552 0.8786689
v -0.5290844 -0.5352552 0.9302288
v 0.5352552 -0.5290844 0.9302288
v -0.5352552 0.5290844 0.9302288
v 0.5290844 0.5352552 0.9302288
v -0.5290844 -0.5352552 -0.9302288
v 0.5352552 -0.5290844 -0.9302288
v -0.5352552 0.5290844 -0.9302288
v 0.5290844 0.5352552 -0.9302288
v -0.5290844 -0.5352552 -0.8786689
v 0.5352552 -0.5290844 -0.8786689
v -0.5352552 0.5290844 -0.8786689
v 0.5290844 0.5352552 -0.8786689
v -0.4210105 0.4561422 -0.8852957
v -0.434973 0.4800053 -0.8852957
v -0.4626203 0.479845 -0.8852957
v -0.4763051 0.4558216 -0.8852957
v -0.4623426 0.4319585 -0.8852957
v -0.4346953 0.4321188 -0.8852957
v -0.4210105 0.4561422 0.8886241
v -0.434973 0.4800053 0.8886241
v -0.4626203 0.479845 0.8886241
v -0.4763051 0.4558216 0.8886241
v -0.4623426 0.4319585 0.8886241
v -0.4346953 0.4321188 0.8886241
v -0.4157811 -0.445831 -0.8852957
v -0.4297436 -0.4219679 -0.8852957
v -0.4573909 -0.4221282 -0.8852957
v -0.4710757 -0.4461516 -0.8852957
v -0.4571132 -0.4700147 -0.8852957
v -0.4294659 -0.4698544 -0.8852957
v -0.4157811 -0.445831 0.8886241
v -0.4297436 -0.4219679 0.8886241
v -0.4573909 -0.4221282 0.8886241
v -0.4710757 -0.4461516 0.8886241
v -0.4571132 -0.4700147 0.8886241
v -0.4294659 -0.4698544 0.8886241
v 0.4642366 0.4612746 -0.8852957
v 0.4502741 0.4851378 -0.8852957
v 0.4226268 0.4849775 -0.8852957
v 0.408942 0.460954 -0.8852957
v 0.4229044 0.4370909 -0.8852957
v 0.4505517 0.4372512 -0.8852957
v 0.4642366 0.4612746 0.8886241
v 0.4502741 0.4851378 0.8886241
v 0.4226268 0.4849775 0.8886241
v 0.408942 0.460954 0.8886241
v 0.4229044 0.4370909 0.8886241
v 0.4505517 0.4372512 0.8886241
v 0.469466 -0.4406986 -0.8852957
v 0.4555035 -0.4168354 -0.8852957
v 0.4278562 -0.4169957 -0.8852957
v 0.4141714 -0.4410192 -0.8852957
v 0.4281338 -0.4648823 -0.8852957
v 0.4557811 -0.464722 -0.8852957
v 0.469466 -0.4406986 0.8886241
v 0.4555035 -0.4168354 0.8886241
v 0.4278562 -0.4169957 0.8886241
v 0.4141714 -0.4410192 0.8886241
v 0.4281338 -0.4648823 0.8886241
v 0.4557811 -0.464722 0.8886241
v 0.3504664 0.002031916 -0.8932874
v 0.2463804 0.249254 -0.8932874
v -0.002031932 0.3504664 -0.8932874
v -0.249254 0.2463804 -0.8932874
v -0.3504664 -0.002031947 -0.8932874
v -0.2463803 -0.249254 -0.8932874
v 0.00203192 -0.3504664 -0.8932874
v 0.2492539 -0.2463804 -0.8932874
v 0.3504664 0.002031916 0.886635
v 0.2463804 0.249254 0.886635
v -0.002031932 0.3504664 0.886635
v -0.249254 0.2463804 0.886635
v -0.3504664 -0.002031947 0.886635
v -0.2463803 -0.249254 0.886635
v 0.00203192 -0.3504664 0.886635
v 0.2492539 -0.2463804 0.886635
v 0.2605755 0.2636146 -0.4106057
v 0.2605755 0.2636146 0.3693444
v 0.3706584 0.002148984 0.3693444
v 0.3706584 0.002148984 -0.4106057
v -0.002149001 0.3706584 -0.4106057
v -0.002149001 0.3706584 0.3693444
v -0.2636146 0.2605755 -0.4106057
v -0.2636146 0.2605755 0.3693444
v -0.3706584 -0.002149017 -0.4106057
v -0.3706584 -0.002149017 0.3693444
v -0.2605754 -0.2636146 -0.4106057
v -0.2605754 -0.2636146 0.3693444
v 0.002148989 -0.3706584 -0.4106057
v 0.002148989 -0.3706584 0.3693444
v 0.2636146 -0.2605755 -0.4106057
v 0.2636146 -0.2605755 0.3693444
v 0.06606684 0.06683738 -0.05939418
v 0.06606684 0.06683738 0.01813293
v 0.09397748 0.0005448579 0.01813293
v 0.09397748 0.0005448579 -0.05939418
v -0.000544862 0.09397748 -0.05939418
v -0.000544862 0.09397748 0.01813293
v -0.06683738 0.06606684 -0.05939418
v -0.06683738 0.06606684 0.01813293
v -0.09397748 -0.0005448661 -0.05939418
v -0.09397748 -0.0005448661 0.01813293
v -0.06606682 -0.06683738 -0.05939418
v -0.06606682 -0.06683738 0.01813293
v 0.000544859 -0.09397748 -0.05939418
v 0.000544859 -0.09397748 0.01813293
v 0.06683737 -0.06606684 -0.05939418
v 0.06683737 -0.06606684 0.01813293
v 0.1704832 0.1724716 -0.2349999
v 0.2425057 0.001405988 0.1937387
v -0.001405998 0.2425057 -0.2349999
v -0.1724716 0.1704833 -0.2349999
v -0.2425057 -0.001406009 -0.2349999
v -0.1704832 -0.1724717 -0.2349999
v 0.00140599 -0.2425057 -0.2349999
v 0.1724716 -0.1704833 -0.2349999
v 0.1704832 0.1724716 0.1937387
v 0.2425057 0.001405988 -0.2349999
v -0.001405998 0.2425057 0.1937387
v -0.1724716 0.1704833 0.1937387
v -0.2425057 -0.001406009 0.1937387
v -0.1704832 -0.1724716 0.1937387
v 0.00140599 -0.2425057 0.1937387
v 0.1724716 -0.1704833 0.1937387
v 0.288921 0.2922908 -0.6704172
v 0.4109788 0.002382752 0.629156
v -0.00238277 0.4109788 -0.6704172
v -0.2922908 0.288921 -0.6704172
v -0.4109788 -0.002382788 -0.6704172
v -0.288921 -0.2922908 -0.6704172
v 0.002382757 -0.4109788 -0.6704172
v 0.2922907 -0.2889211 -0.6704172
v 0.288921 0.2922908 0.629156
v 0.4109788 0.002382752 -0.6704172
v -0.00238277 0.4109788 0.629156
v -0.2922908 0.288921 0.629156
v -0.4109788 -0.002382788 0.629156
v -0.288921 -0.2922908 0.629156
v 0.002382757 -0.4109788 0.629156
v 0.2922907 -0.2889211 0.629156
v -0.5290844 -0.5352552 0.8786689
v 0.5352552 -0.5290844 0.9302288
v 0.5352552 -0.5290844 0.8786689
v -0.5290844 -0.5352552 0.9302288
v 0.5352552 -0.5290844 0.8786689
v 0.5290844 0.5352552 0.9302288
v 0.5290844 0.5352552 0.8786689
v 0.5352552 -0.5290844 0.9302288
v 0.5290844 0.5352552 0.8786689
v -0.5352552 0.5290844 0.9302288
v -0.5352552 0.5290844 0.8786689
v 0.5290844 0.5352552 0.9302288
v -0.5352552 0.5290844 0.8786689
v -0.5290844 -0.5352552 0.9302288
v -0.5290844 -0.5352552 0.8786689
v -0.5352552 0.5290844 0.9302288
v -0.5290844 -0.5352552 -0.9302288
v 0.5352552 -0.5290844 -0.8786689
v 0.5352552 -0.5290844 -0.9302288
v -0.5290844 -0.5352552 -0.8786689
v 0.5352552 -0.5290844 -0.9302288
v 0.5290844 0.5352552 -0.8786689
v 0.5290844 0.5352552 -0.9302288
v 0.5352552 -0.5290844 -0.8786689
v 0.5290844 0.5352552 -0.9302288
v -0.5352552 0.5290844 -0.8786689
v -0.5352552 0.5290844 -0.9302288
v 0.5290844 0.5352552 -0.8786689
v -0.5352552 0.5290844 -0.9302288
v -0.5290844 -0.5352552 -0.8786689
v -0.5290844 -0.5352552 -0.9302288
v -0.5352552 0.5290844 -0.8786689
v -0.4626203 0.479845 -0.8852957
v -0.4626203 0.479845 0.8886241
v -0.4573909 -0.4221282 -0.8852957
v -0.4573909 -0.4221282 0.8886241
v 0.4226268 0.4849775 -0.8852957
v 0.4226268 0.4849775 0.8886241
v 0.4278562 -0.4169957 -0.8852957
v 0.4278562 -0.4169957 0.8886241
v -0.06683738 0.06606684 0.01813293
v -0.06683738 0.06606684 -0.05939418
v -0.2922908 0.288921 0.629156
v -0.2636146 0.2605755 0.3693444
v -0.2636146 0.2605755 -0.4106057
v -0.2922908 0.288921 -0.6704172
v -0.1724716 0.1704833 0.1937387
v -0.1724716 0.1704833 -0.2349999
v -0.249254 0.2463804 0.886635
v -0.249254 0.2463804 -0.8932874
vt 0.3336028 0.3321678
vt 0.6557706 0.3321678
vt 0.3336028 0.01
vt 0.6557706 0.01
vt 0.6658459 0.007358789
vt 0.9509501 0.007358789
vt 0.6658459 0.2924631
vt 0.9509501 0.2924631
vt 0.6668114 0.5839827
vt 0.9519157 0.5839827
vt 0.6668114 0.2988784
vt 0.9519157 0.2988784
vt 0.00512664 0.007939935
vt 0.3272945 0.007939935
vt 0.00512664 0.3301078
vt 0.3272945 0.3301078
vt 0.9834965 0.008229554
vt 0.9900503 0.008229554
vt 0.9978925 0.008229554
vt 0.9625467 0.008229554
vt 0.9691005 0.008229554
vt 0.9769428 0.008229554
vt 0.9834965 0.4870104
vt 0.9900503 0.4870104
vt 0.9978925 0.4870104
vt 0.9625467 0.4870104
vt 0.9691005 0.4870104
vt 0.9769428 0.4870104
vt 0.9834965 0.008229554
vt 0.9900503 0.008229554
vt 0.9978925 0.008229554
vt 0.9625467 0.008229554
vt 0.9691005 0.008229554
vt 0.9769428 0.008229554
vt 0.9834965 0.4870104
vt 0.9900503 0.4870104
vt 0.9978925 0.4870104
vt 0.9625467 0.4870104
vt 0.9691005 0.4870104
vt 0.9769428 0.4870104
vt 0.9834965 0.008229554
vt 0.9900503 0.008229554
vt 0.9978925 0.008229554
vt 0.9625467 0.008229554
vt 0.9691005 0.008229554
vt 0.9769428 0.008229554
vt 0.9834965 0.4870104
vt 0.9900503 0.4870104
vt 0.9978925 0.4870104
vt 0.9625467 0.4870104
vt 0.9691005 0.4870104
vt 0.9769428 0.4870104
vt 0.9834965 0.008229554
vt 0.9900503 0.008229554
vt 0.9978925 0.008229554
vt 0.9625467 0.008229554
vt 0.9691005 0.008229554
vt 0.9769428 0.008229554
vt 0.9834965 0.4870104
vt 0.9900503 0.4870104
vt 0.9978925 0.4870104
vt 0.9625467 0.4870104
vt 0.9691005 0.4870104
vt 0.9769428 0.4870104
vt 0.4093794 0.3422134
vt 0.4896351 0.3422134
vt 0.5698908 0.3422134
vt 0.6501465 0.3422134
vt 0.0883567 0.3422134
vt 0.1686124 0.3422134
vt 0.2488681 0.3422134
vt 0.3291238 0.3422134
vt 0.4093794 0.9836174
vt 0.4896351 0.9836174
vt 0.5699775 0.9836174
vt 0.6502331 0.9836174
vt 0.0883567 0.9836174
vt 0.1686124 0.9836174
vt 0.2488681 0.9836174
vt 0.3291238 0.9836174
vt 0.4896351 0.5254198
vt 0.4896351 0.800411
vt 0.4093794 0.800411
vt 0.4093794 0.5254198
vt 0.5698908 0.5254198
vt 0.5699775 0.800411
vt 0.6501465 0.5254198
vt 0.6502331 0.800411
vt 0.0883567 0.5254198
vt 0.0883567 0.800411
vt 0.1686124 0.5254198
vt 0.1686124 0.800411
vt 0.2488681 0.5254198
vt 0.2488681 0.800411
vt 0.3291238 0.5254198
vt 0.3291238 0.800411
vt 0.4896351 0.6492483
vt 0.4896351 0.6765824
vt 0.4093794 0.6765824
vt 0.4093794 0.6492483
vt 0.5699775 0.6492483
vt 0.5699775 0.6765824
vt 0.6502331 0.6492483
vt 0.6502331 0.6765824
vt 0.0883567 0.6492483
vt 0.0883567 0.6765824
vt 0.1686124 0.6492483
vt 0.1686124 0.6765824
vt 0.2488681 0.6492483
vt 0.2488681 0.6765824
vt 0.3291238 0.6492483
vt 0.3291238 0.6765824
vt 0.4896351 0.587334
vt 0.4093794 0.7384968
vt 0.5698908 0.587334
vt 0.6501465 0.587334
vt 0.0883567 0.587334
vt 0.1686124 0.587334
vt 0.2488681 0.587334
vt 0.3291238 0.587334
vt 0.4896351 0.7384968
vt 0.4093794 0.587334
vt 0.5699775 0.7384968
vt 0.6502331 0.7384968
vt 0.0883567 0.7384968
vt 0.1686124 0.7384968
vt 0.2488681 0.7384968
vt 0.3291238 0.7384968
vt 0.4896351 0.4338166
vt 0.4093794 0.8920142
vt 0.5698908 0.4338166
vt 0.6501465 0.4338166
vt 0.0883567 0.4338166
vt 0.1686124 0.4338166
vt 0.2488681 0.4338166
vt 0.3291238 0.4338166
vt 0.4896351 0.8920142
vt 0.4093794 0.4338166
vt 0.5699775 0.8920142
vt 0.6502331 0.8920142
vt 0.0883567 0.8920142
vt 0.1686124 0.8920142
vt 0.2488681 0.8920142
vt 0.3291238 0.8920142
vt 0.9863036 0.8237937
vt 0.6641358 0.8081871
vt 0.6641358 0.8237937
vt 0.9863036 0.8081871
vt 0.9863036 0.8471117
vt 0.6641358 0.8315052
vt 0.6641358 0.8471117
vt 0.9863036 0.8315052
vt 0.9863036 0.8923552
vt 0.6641358 0.8767486
vt 0.6641358 0.8923552
vt 0.9863036 0.8767486
vt 0.9863036 0.8690371
vt 0.6641358 0.8534307
vt 0.6641358 0.8690371
vt 0.9863036 0.8534307
vt 0.9863036 0.782728
vt 0.6641358 0.7671214
vt 0.6641358 0.782728
vt 0.9863036 0.7671214
vt 0.9863036 0.7635877
vt 0.6641358 0.7479811
vt 0.6641358 0.7635877
vt 0.9863036 0.7479811
vt 0.9863036 0.7430547
vt 0.6641358 0.7274482
vt 0.6641358 0.7430547
vt 0.9863036 0.7274482
vt 0.9863036 0.8032608
vt 0.6641358 0.7876543
vt 0.6641358 0.8032608
vt 0.9863036 0.7876543
vt 0.9559929 0.008229554
vt 0.9559929 0.4870104
vt 0.9559929 0.008229554
vt 0.9559929 0.4870104
vt 0.9559929 0.008229554
vt 0.9559929 0.4870104
vt 0.9559929 0.008229554
vt 0.9559929 0.4870104
vt 0.008101026 0.6765824
vt 0.008101026 0.6492483
vt 0.008101026 0.8920142
vt 0.008101026 0.800411
vt 0.008101026 0.5254198
vt 0.008101026 0.4338166
vt 0.008101026 0.7384968
vt 0.008101026 0.587334
vt 0.008101026 0.9836174
vt 0.008101026 0.3422134
vn 0 0 -1
vn 0 0 -1
vn 0 0 -1
vn 0 0 -1
vn 0 0 1
vn 0 0 1
vn 0 0 1
vn 0 0 1
vn 0 0 -1
vn 0 0 -1
vn 0 0 -1
vn 0 0 -1
vn 0 0 1
vn 0 0 1
vn 0 0 1
vn 0 0 1
vn 0.9999832 0.005797626 0
vn 0.4949705 0.8689098 0
vn -0.505013 0.8631117 0
vn -0.9999832 -0.005798831 0
vn -0.4949703 -0.8689099 0
vn 0.5050122 -0.8631122 0
vn 0.9999832 0.005797626 0
vn 0.4949705 0.8689098 0
vn -0.505013 0.8631117 0
vn -0.9999832 -0.005798831 0
vn -0.4949703 -0.8689099 0
vn 0.5050122 -0.8631122 0
vn 0.9999832 0.005796991 0
vn 0.4949707 0.8689097 0
vn -0.5050133 0.8631116 0
vn -0.9999832 -0.005799093 0
vn -0.4949698 -0.8689101 0
vn 0.5050125 -0.8631121 0
vn 0.9999832 0.005796991 0
vn 0.4949707 0.8689097 0
vn -0.5050133 0.8631116 0
vn -0.9999832 -0.005799093 0
vn -0.4949698 -0.8689101 0
vn 0.5050125 -0.8631121 0
vn 0.9999832 0.005797304 0
vn 0.4949696 0.8689103 0
vn -0.5050127 0.8631119 0
vn -0.9999832 -0.005797846 0
vn -0.4949702 -0.86891 0
vn 0.5050116 -0.8631125 0
vn 0.9999832 0.005797304 0
vn 0.4949696 0.8689103 0
vn -0.5050127 0.8631119 0
vn -0.9999832 -0.005797846 0
vn -0.4949702 -0.86891 0
vn 0.5050116 -0.8631125 0
vn 0.9999832 0.00579704 0
vn 0.4949699 0.8689101 0
vn -0.5050129 0.8631119 0
vn -0.9999832 -0.005798108 0
vn -0.4949702 -0.86891 0
vn 0.5050116 -0.8631125 0
vn 0.9999832 0.00579704 0
vn 0.4949699 0.8689101 0
vn -0.5050129 0.8631119 0
vn -0.9999832 -0.005798108 0
vn -0.4949702 -0.86891 0
vn 0.5050116 -0.8631125 0
vn 0.9650431 0.005595075 -0.2620316
vn 0.6784321 0.6863449 -0.2620316
vn -0.005595151 0.9650431 -0.2620316
vn -0.6863449 0.6784321 -0.2620317
vn -0.9650429 -0.005595152 -0.2620317
vn -0.678432 -0.6863449 -0.2620317
vn 0.005595114 -0.9650431 -0.2620317
vn 0.6863447 -0.6784322 -0.2620316
vn 0.9734597 0.005643861 0.228789
vn 0.684349 0.6923308 0.228789
vn -0.005644016 0.9734597 0.228789
vn -0.6923308 0.6843491 0.228789
vn -0.9734597 -0.005643958 0.228789
vn -0.6843491 -0.6923308 0.228789
vn 0.00564388 -0.9734597 0.228789
vn 0.6923307 -0.6843492 0.228789
vn 0.6549742 0.6626132 0.3632526
vn 0.6549742 0.6626132 -0.3632527
vn 0.931675 0.005401649 -0.3632526
vn 0.931675 0.005401637 0.3632526
vn -0.005401654 0.931675 0.3632526
vn -0.005401671 0.931675 -0.3632527
vn -0.6626133 0.6549742 0.3632526
vn -0.6626133 0.654974 -0.3632526
vn -0.931675 -0.005401665 0.3632526
vn -0.931675 -0.005401704 -0.3632527
vn -0.6549741 -0.6626133 0.3632526
vn -0.6549742 -0.6626133 -0.3632527
vn 0.005401609 -0.931675 0.3632526
vn 0.005401621 -0.931675 -0.3632526
vn 0.6626133 -0.6549742 0.3632526
vn 0.6626132 -0.6549742 -0.3632526
vn 0.6518735 0.6594764 0.3743685
vn 0.6518735 0.6594764 -0.3743684
vn 0.9272645 0.005375987 -0.3743685
vn 0.9272645 0.005375987 0.3743685
vn -0.005376047 0.9272645 0.3743685
vn -0.005376067 0.9272645 -0.3743684
vn -0.6594764 0.6518735 0.3743684
vn -0.6594764 0.6518735 -0.3743683
vn -0.9272645 -0.005376126 0.3743685
vn -0.9272645 -0.005376136 -0.3743685
vn -0.6518735 -0.6594764 0.3743685
vn -0.6518735 -0.6594764 -0.3743683
vn 0.005375997 -0.9272645 0.3743686
vn 0.005375997 -0.9272645 -0.3743685
vn 0.6594763 -0.6518736 0.3743685
vn 0.6594764 -0.6518736 -0.3743684
vn 0.5549885 0.5614614 0.6137986
vn 0.7894493 0.004577054 -0.6137987
vn -0.004577054 0.7894493 0.6137986
vn -0.5614615 0.5549886 0.6137986
vn -0.7894494 -0.004577064 0.6137986
vn -0.5549885 -0.5614614 0.6137986
vn 0.004577023 -0.7894493 0.6137986
vn 0.5614613 -0.5549886 0.6137986
vn 0.5549885 0.5614614 -0.6137986
vn 0.7894493 0.004577054 0.6137987
vn -0.004577063 0.7894493 -0.6137986
vn -0.5614614 0.5549886 -0.6137986
vn -0.7894493 -0.004577074 -0.6137987
vn -0.5549885 -0.5614614 -0.6137986
vn 0.004577014 -0.7894493 -0.6137987
vn 0.5614613 -0.5549885 -0.6137986
vn 0.7020097 0.7101974 -0.05293456
vn 0.9993078 0.005793743 0.03674989
vn -0.00578959 0.9985812 -0.05293456
vn -0.7101974 0.7020097 -0.0529346
vn -0.9985812 -0.005789578 -0.05293459
vn -0.7020096 -0.7101974 -0.05293459
vn 0.005789557 -0.9985812 -0.05293457
vn 0.7101973 -0.7020097 -0.05293459
vn 0.7025204 0.7107142 0.03674986
vn 0.9985812 0.005789523 -0.05293458
vn -0.005793843 0.9993078 0.03674986
vn -0.7107142 0.7025204 0.03674988
vn -0.9993078 -0.005793832 0.03674988
vn -0.7025204 -0.7107142 0.03674989
vn 0.005793733 -0.9993078 0.03674987
vn 0.710714 -0.7025205 0.03674988
vn 0.005797628 -0.9999832 0
vn 0.005797628 -0.9999832 0
vn 0.005797628 -0.9999832 0
vn 0.005797628 -0.9999832 0
vn 0.9999832 0.005797628 0
vn 0.9999832 0.005797628 0
vn 0.9999832 0.005797628 0
vn 0.9999832 0.005797628 0
vn -0.005797628 0.9999832 0
vn -0.005797628 0.9999832 0
vn -0.005797628 0.9999832 0
vn -0.005797628 0.9999832 0
vn -0.9999832 -0.005797628 0
vn -0.9999832 -0.005797628 0
vn -0.9999832 -0.005797628 0
vn -0.9999832 -0.005797628 0
vn 0.005797628 -0.9999832 0
vn 0.005797628 -0.9999832 0
vn 0.005797628 -0.9999832 0
vn 0.005797628 -0.9999832 0
vn 0.9999832 0.005797628 0
vn 0.9999832 0.005797628 0
vn 0.9999832 0.005797628 0
vn 0.9999832 0.005797628 0
vn -0.005797628 0.9999832 0
vn -0.005797628 0.9999832 0
vn -0.005797628 0.9999832 0
vn -0.005797628 0.9999832 0
vn -0.9999832 -0.005797628 0
vn -0.9999832 -0.005797628 0
vn -0.9999832 -0.005797628 0
vn -0.9999832 -0.005797628 0
vn -0.505013 0.8631117 0
vn -0.505013 0.8631117 0
vn -0.5050133 0.8631116 0
vn -0.5050133 0.8631116 0
vn -0.5050127 0.8631119 0
vn -0.5050127 0.8631119 0
vn -0.5050129 0.8631119 0
vn -0.5050129 0.8631119 0
vn -0.6594764 0.6518735 -0.3743683
vn -0.6594764 0.6518735 0.3743684
vn -0.7107142 0.7025204 0.03674988
vn -0.6626133 0.654974 -0.3632526
vn -0.6626133 0.6549742 0.3632526
vn -0.7101974 0.7020097 -0.0529346
vn -0.5614614 0.5549886 -0.6137986
vn -0.5614615 0.5549886 0.6137986
vn -0.6923308 0.6843491 0.228789
vn -0.6863449 0.6784321 -0.2620317
g Puan_Kum_saati09_0
f 4/4/4 1/1/1 3/3/3
f 2/2/2 1/1/1 4/4/4
f 8/8/8 5/5/5 6/6/6
f 7/7/7 5/5/5 8/8/8
f 146/146/146 145/145/145 147/147/147
f 148/148/148 145/145/145 146/146/146
f 150/150/150 149/149/149 151/151/151
f 152/152/152 149/149/149 150/150/150
f 154/154/154 153/153/153 155/155/155
f 156/156/156 153/153/153 154/154/154
f 158/158/158 157/157/157 159/159/159
f 160/160/160 157/157/157 158/158/158
f 12/12/12 9/9/9 11/11/11
f 10/10/10 9/9/9 12/12/12
f 16/16/16 13/13/13 14/14/14
f 15/15/15 13/13/13 16/16/16
f 162/162/162 161/161/161 163/163/163
f 164/164/164 161/161/161 162/162/162
f 166/166/166 165/165/165 167/167/167
f 168/168/168 165/165/165 166/166/166
f 170/170/170 169/169/169 171/171/171
f 172/172/172 169/169/169 170/170/170
f 174/174/174 173/173/173 175/175/175
f 176/176/176 173/173/173 174/174/174
f 26/26/26 178/178/178 177/177/177
f 20/20/20 26/26/26 177/177/177
f 27/27/27 26/26/26 20/20/20
f 21/21/21 27/27/27 20/20/20
f 28/28/28 27/27/27 21/21/21
f 22/22/22 28/28/28 21/21/21
f 23/23/23 28/28/28 22/22/22
f 17/17/17 23/23/23 22/22/22
f 24/24/24 23/23/23 17/17/17
f 18/18/18 24/24/24 17/17/17
f 25/25/25 24/24/24 18/18/18
f 19/19/19 25/25/25 18/18/18
f 38/38/38 180/180/180 179/179/179
f 32/32/32 38/38/38 179/179/179
f 39/39/39 38/38/38 32/32/32
f 33/33/33 39/39/39 32/32/32
f 40/40/40 39/39/39 33/33/33
f 34/34/34 40/40/40 33/33/33
f 35/35/35 40/40/40 34/34/34
f 29/29/29 35/35/35 34/34/34
f 36/36/36 35/35/35 29/29/29
f 30/30/30 36/36/36 29/29/29
f 37/37/37 36/36/36 30/30/30
f 31/31/31 37/37/37 30/30/30
f 50/50/50 182/182/182 181/181/181
f 44/44/44 50/50/50 181/181/181
f 51/51/51 50/50/50 44/44/44
f 45/45/45 51/51/51 44/44/44
f 52/52/52 51/51/51 45/45/45
f 46/46/46 52/52/52 45/45/45
f 47/47/47 52/52/52 46/46/46
f 41/41/41 47/47/47 46/46/46
f 48/48/48 47/47/47 41/41/41
f 42/42/42 48/48/48 41/41/41
f 49/49/49 48/48/48 42/42/42
f 43/43/43 49/49/49 42/42/42
f 62/62/62 184/184/184 183/183/183
f 56/56/56 62/62/62 183/183/183
f 63/63/63 62/62/62 56/56/56
f 57/57/57 63/63/63 56/56/56
f 64/64/64 63/63/63 57/57/57
f 58/58/58 64/64/64 57/57/57
f 59/59/59 64/64/64 58/58/58
f 53/53/53 59/59/59 58/58/58
f 60/60/60 59/59/59 53/53/53
f 54/54/54 60/60/60 53/53/53
f 61/61/61 60/60/60 54/54/54
f 55/55/55 61/61/61 54/54/54
f 131/131/131 67/67/67 68/68/68
f 132/132/132 131/131/131 68/68/68
f 85/85/85 131/131/131 132/132/132
f 87/87/87 85/85/85 132/132/132
f 115/115/115 85/85/85 87/87/87
f 116/116/116 115/115/115 87/87/87
f 101/101/101 115/115/115 116/116/116
f 103/103/103 101/101/101 116/116/116
f 102/102/102 101/101/101 103/103/103
f 104/104/104 102/102/102 103/103/103
f 123/123/123 102/102/102 104/104/104
f 124/124/124 123/123/123 104/104/104
f 86/86/86 123/123/123 124/124/124
f 88/88/88 86/86/86 124/124/124
f 139/139/139 86/86/86 88/88/88
f 140/140/140 139/139/139 88/88/88
f 75/75/75 139/139/139 140/140/140
f 76/76/76 75/75/75 140/140/140
f 141/141/141 77/77/77 193/193/193
f 187/187/187 141/141/141 193/193/193
f 90/90/90 141/141/141 187/187/187
f 188/188/188 90/90/90 187/187/187
f 125/125/125 90/90/90 188/188/188
f 191/191/191 125/125/125 188/188/188
f 106/106/106 125/125/125 191/191/191
f 185/185/185 106/106/106 191/191/191
f 105/105/105 106/106/106 185/185/185
f 186/186/186 105/105/105 185/185/185
f 117/117/117 105/105/105 186/186/186
f 192/192/192 117/117/117 186/186/186
f 89/89/89 117/117/117 192/192/192
f 189/189/189 89/89/89 192/192/192
f 133/133/133 89/89/89 189/189/189
f 190/190/190 133/133/133 189/189/189
f 69/69/69 133/133/133 190/190/190
f 194/194/194 69/69/69 190/190/190
f 138/138/138 65/65/65 66/66/66
f 129/129/129 138/138/138 66/66/66
f 84/84/84 138/138/138 129/129/129
f 81/81/81 84/84/84 129/129/129
f 122/122/122 84/84/84 81/81/81
f 113/113/113 122/122/122 81/81/81
f 100/100/100 122/122/122 113/113/113
f 97/97/97 100/100/100 113/113/113
f 99/99/99 100/100/100 97/97/97
f 98/98/98 99/99/99 97/97/97
f 114/114/114 99/99/99 98/98/98
f 121/121/121 114/114/114 98/98/98
f 83/83/83 114/114/114 121/121/121
f 82/82/82 83/83/83 121/121/121
f 130/130/130 83/83/83 82/82/82
f 137/137/137 130/130/130 82/82/82
f 73/73/73 130/130/130 137/137/137
f 74/74/74 73/73/73 137/137/137
f 129/129/129 66/66/66 67/67/67
f 131/131/131 129/129/129 67/67/67
f 81/81/81 129/129/129 131/131/131
f 85/85/85 81/81/81 131/131/131
f 113/113/113 81/81/81 85/85/85
f 115/115/115 113/113/113 85/85/85
f 97/97/97 113/113/113 115/115/115
f 101/101/101 97/97/97 115/115/115
f 98/98/98 97/97/97 101/101/101
f 102/102/102 98/98/98 101/101/101
f 121/121/121 98/98/98 102/102/102
f 123/123/123 121/121/121 102/102/102
f 82/82/82 121/121/121 123/123/123
f 86/86/86 82/82/82 123/123/123
f 137/137/137 82/82/82 86/86/86
f 139/139/139 137/137/137 86/86/86
f 74/74/74 137/137/137 139/139/139
f 75/75/75 74/74/74 139/139/139
f 133/133/133 69/69/69 70/70/70
f 134/134/134 133/133/133 70/70/70
f 89/89/89 133/133/133 134/134/134
f 91/91/91 89/89/89 134/134/134
f 117/117/117 89/89/89 91/91/91
f 118/118/118 117/117/117 91/91/91
f 105/105/105 117/117/117 118/118/118
f 107/107/107 105/105/105 118/118/118
f 106/106/106 105/105/105 107/107/107
f 108/108/108 106/106/106 107/107/107
f 125/125/125 106/106/106 108/108/108
f 126/126/126 125/125/125 108/108/108
f 90/90/90 125/125/125 126/126/126
f 92/92/92 90/90/90 126/126/126
f 141/141/141 90/90/90 92/92/92
f 142/142/142 141/141/141 92/92/92
f 77/77/77 141/141/141 142/142/142
f 78/78/78 77/77/77 142/142/142
f 134/134/134 70/70/70 71/71/71
f 135/135/135 134/134/134 71/71/71
f 91/91/91 134/134/134 135/135/135
f 93/93/93 91/91/91 135/135/135
f 118/118/118 91/91/91 93/93/93
f 119/119/119 118/118/118 93/93/93
f 107/107/107 118/118/118 119/119/119
f 109/109/109 107/107/107 119/119/119
f 108/108/108 107/107/107 109/109/109
f 110/110/110 108/108/108 109/109/109
f 126/126/126 108/108/108 110/110/110
f 127/127/127 126/126/126 110/110/110
f 92/92/92 126/126/126 127/127/127
f 94/94/94 92/92/92 127/127/127
f 142/142/142 92/92/92 94/94/94
f 143/143/143 142/142/142 94/94/94
f 78/78/78 142/142/142 143/143/143
f 79/79/79 78/78/78 143/143/143
f 135/135/135 71/71/71 72/72/72
f 136/136/136 135/135/135 72/72/72
f 93/93/93 135/135/135 136/136/136
f 95/95/95 93/93/93 136/136/136
f 119/119/119 93/93/93 95/95/95
f 120/120/120 119/119/119 95/95/95
f 109/109/109 119/119/119 120/120/120
f 111/111/111 109/109/109 120/120/120
f 110/110/110 109/109/109 111/111/111
f 112/112/112 110/110/110 111/111/111
f 127/127/127 110/110/110 112/112/112
f 128/128/128 127/127/127 112/112/112
f 94/94/94 127/127/127 128/128/128
f 96/96/96 94/94/94 128/128/128
f 143/143/143 94/94/94 96/96/96
f 144/144/144 143/143/143 96/96/96
f 79/79/79 143/143/143 144/144/144
f 80/80/80 79/79/79 144/144/144
f 136/136/136 72/72/72 65/65/65
f 138/138/138 136/136/136 65/65/65
f 95/95/95 136/136/136 138/138/138
f 84/84/84 95/95/95 138/138/138
f 120/120/120 95/95/95 84/84/84
f 122/122/122 120/120/120 84/84/84
f 111/111/111 120/120/120 122/122/122
f 100/100/100 111/111/111 122/122/122
f 112/112/112 111/111/111 100/100/100
f 99/99/99 112/112/112 100/100/100
f 128/128/128 112/112/112 99/99/99
f 114/114/114 128/128/128 99/99/99
f 96/96/96 128/128/128 114/114/114
f 83/83/83 96/96/96 114/114/114
f 144/144/144 96/96/96 83/83/83
f 130/130/130 144/144/144 83/83/83
f 80/80/80 144/144/144 130/130/130
f 73/73/73 80/80/80 130/130/130
