g reflection
v 0.8370223 0.4239079 0.2493712
v -0.7778236 0.4239082 0.1943711
v 0.7797476 0.4239079 0.4925138
v -0.8350983 0.4239082 0.4375138
v 0.8064132 0.4239079 0.2049778
v -0.824053 0.4239082 0.2237646
v 0.8259771 0.4239079 0.4631204
v -0.8044893 0.4239082 0.4819072
v 0.8259771 0.4239079 0.2237646
v -0.8044893 0.4239082 0.2049778
v 0.8064132 0.4239079 0.4819072
v -0.824053 0.4239082 0.4631204
v 0.7797476 0.4239079 0.1943711
v -0.8350983 0.4239082 0.2493712
v 0.8370223 0.4239079 0.4375138
v -0.7778236 0.4239082 0.4925138
vt 0.722447 0.7660686
vt 0.9452113 0.7593756
vt 0.7303479 0.7956566
vt 0.9531122 0.7889636
vt 0.7266694 0.7606664
vt 0.9515886 0.7629525
vt 0.7239707 0.7920797
vt 0.9488897 0.7943659
vt 0.7239707 0.7629525
vt 0.9488897 0.7606664
vt 0.7266694 0.7943659
vt 0.9515886 0.7920797
vt 0.7303479 0.7593756
vt 0.9531122 0.7660686
vt 0.722447 0.7889636
vt 0.9452113 0.7956566
vn 0 1 0
vn 0 1 0
vn 0 1 0
vn 0 1 0
vn 0 1 0
vn 0 1 0
vn 0 1 0
vn 0 1 0
vn 0 1 0
vn 0 1 0
vn 0 1 0
vn 0 1 0
vn 0 1 0
vn 0 1 0
vn 0 1 0
vn 0 1 0
g reflection_0
f 6/6/6 14/14/14 4/4/4
f 12/12/12 6/6/6 4/4/4
f 10/10/10 6/6/6 12/12/12
f 8/8/8 10/10/10 12/12/12
f 2/2/2 10/10/10 8/8/8
f 16/16/16 2/2/2 8/8/8
f 13/13/13 2/2/2 16/16/16
f 3/3/3 13/13/13 16/16/16
f 5/5/5 13/13/13 3/3/3
f 11/11/11 5/5/5 3/3/3
f 9/9/9 5/5/5 11/11/11
f 7/7/7 9/9/9 11/11/11
f 1/1/1 9/9/9 7/7/7
f 15/15/15 1/1/1 7/7/7
