g sag_ayna01
v -0.1861804 -0.009824991 -0.05748218
v 0.0523777 -0.01506865 -0.05497378
v -0.1861804 -0.009824991 0.1117707
v 0.0523777 -0.009824991 0.1117707
v -0.2024271 0.06042111 -0.06766647
v 0.06215763 0.06042123 -0.06515813
v -0.2024271 0.06042111 0.1210015
v 0.06215763 0.06042123 0.1210015
v -0.06690145 -0.04895449 0.1179963
v -0.06690145 -0.04895449 -0.06310159
v -0.06690145 0.06042123 -0.07328594
v -0.06690145 0.06042123 0.1272271
v -0.1949103 -0.02887988 0.02265799
v 0.06416893 -0.02887988 0.02707219
v 0.0739491 0.06042123 0.02707219
v -0.2111571 0.06042111 0.02265799
v -0.06690145 -0.06042135 0.02492553
v -0.06690145 0.05635858 0.03439087
v 0.2111571 0.04109323 -0.08818203
v 0.06183267 0.02080929 0.008486211
v 0.2111571 -0.03182423 -0.08818197
v 0.06183267 -0.01154041 0.008486211
v 0.1092417 0.04109311 -0.1272272
v 0.05491805 0.02080929 -0.04081029
v 0.1092417 -0.03182423 -0.1272272
v 0.05491805 -0.01154041 -0.04081029
v -0.1861804 -0.009824991 -0.05748218
v -0.06690145 0.06042123 -0.07328594
v -0.2024271 0.06042111 -0.06766647
v -0.06690145 -0.04895449 -0.06310159
v -0.2111571 0.06042111 0.02265799
v -0.1949103 -0.02887988 0.02265799
v -0.06690145 -0.04895449 0.1179963
v 0.0523777 -0.009824991 0.1117707
v 0.06215763 0.06042123 -0.06515813
v -0.2024271 0.06042111 0.1210015
v -0.1861804 -0.009824991 0.1117707
v -0.1861804 -0.009824991 0.1117707
v -0.2024271 0.06042111 0.1210015
v -0.06690145 0.06042123 0.1272271
v 0.06416893 -0.02887988 0.02707219
v 0.06215763 0.06042123 0.1210015
v 0.0739491 0.06042123 0.02707219
v 0.0523777 -0.009824991 0.1117707
v -0.2024271 0.06042111 -0.06766647
v -0.1861804 -0.009824991 -0.05748218
v 0.0523777 -0.01506865 -0.05497378
v 0.06215763 0.06042123 0.1210015
v 0.06416893 -0.02887988 0.02707219
v 0.06215763 0.06042123 -0.06515813
v 0.0523777 -0.01506865 -0.05497378
v 0.0739491 0.06042123 0.02707219
v 0.2111571 0.04109323 -0.08818203
v 0.05491805 0.02080929 -0.04081029
v 0.1092417 0.04109311 -0.1272272
v 0.2111571 0.04109323 -0.08818203
v 0.06183267 0.02080929 0.008486211
v 0.06183267 -0.01154041 0.008486211
v 0.1092417 -0.03182423 -0.1272272
v 0.05491805 -0.01154041 -0.04081029
v 0.06183267 -0.01154041 0.008486211
v 0.2111571 -0.03182423 -0.08818197
vt 0.5241811 0.3710486
vt 0.4866247 0.3714291
vt 0.5241811 0.3977081
vt 0.4866096 0.3977015
vt 0.5503477 0.3680546
vt 0.5951127 0.368479
vt 0.5337252 0.4043647
vt 0.4778866 0.4043549
vt 0.5055081 0.3986261
vt 0.5055081 0.3701008
vt 0.5732773 0.3671038
vt 0.5051236 0.4056737
vt 0.5256109 0.383643
vt 0.4848076 0.3843311
vt 0.5971078 0.3840834
vt 0.5488708 0.3833365
vt 0.5055413 0.3839488
vt 0.573278 0.3853206
vt 0.5433072 0.3125507
vt 0.5484692 0.3578205
vt 0.5618641 0.3125508
vt 0.5567019 0.3578205
vt 0.5687552 0.3125507
vt 0.5597593 0.3578205
vt 0.536416 0.3125506
vt 0.5454119 0.3578205
vt 0.5241811 0.3710486
vt 0.5051236 0.3633519
vt 0.5337252 0.3645431
vt 0.5055081 0.3701008
vt 0.5355675 0.383608
vt 0.5256109 0.383643
vt 0.5055081 0.3986261
vt 0.4866096 0.3977015
vt 0.4778866 0.3650627
vt 0.5337252 0.4043647
vt 0.5241811 0.3977081
vt 0.5241811 0.3977081
vt 0.5503477 0.3999752
vt 0.5732773 0.4010286
vt 0.4848076 0.3843311
vt 0.4778866 0.4043549
vt 0.4753982 0.384529
vt 0.4866096 0.3977015
vt 0.5337252 0.3645431
vt 0.5241811 0.3710486
vt 0.4866247 0.3714291
vt 0.5951127 0.3999753
vt 0.4848076 0.3843311
vt 0.4778866 0.3650627
vt 0.4866247 0.3714291
vt 0.4753982 0.384529
vt 0.4975035 0.3102447
vt 0.5234315 0.3497724
vt 0.5270156 0.3202828
vt 0.4975035 0.3102447
vt 0.5128148 0.3593575
vt 0.512693 0.3590659
vt 0.5273732 0.3198809
vt 0.5232812 0.349544
vt 0.512693 0.3590659
vt 0.4976033 0.3097186
vn -0.2723381 -0.9441518 -0.1854978
vn 0.080291 -0.1133605 -0.9903044
vn -0.9725094 -0.2045061 0.1113685
vn 0.06638439 -0.1055924 0.9921911
vn 0.01405355 0.9996779 0.02113133
vn -0.01511037 0.9996608 0.02120709
vn -0.9725094 -0.2045061 0.1113685
vn 0.06638439 -0.1055924 0.9921911
vn 0.000674628 -0.1069499 0.9942642
vn -0.01085486 -0.9837985 -0.178949
vn -0.0004255313 0.9997758 0.0211712
vn 0.0006705749 -0.10695 0.9942642
vn -0.2787066 -0.9603364 -0.008750478
vn 0.2668422 -0.9636466 0.01343751
vn -0.01563425 0.9998778 0
vn 0.01494377 0.9998881 0.0007065427
vn -0.00600842 -0.9999799 0.002074724
vn -0.000314868 0.9999988 -0.001518326
vn 0.5434357 0 0.8394508
vn 0.5434357 0 0.8394508
vn 0.5434357 0 0.8394508
vn 0.5434357 0 0.8394508
vn -0.8466169 0 -0.5322029
vn -0.8466169 0 -0.5322029
vn -0.8466169 0 -0.5322029
vn -0.8466169 0 -0.5322029
vn -0.06183245 -0.1179796 -0.9910891
vn 0.009207527 -0.115965 -0.9932106
vn -0.06183246 -0.1179796 -0.9910891
vn 0.01042667 -0.1159253 -0.9932032
vn -0.9784418 -0.2064489 -0.005515387
vn -0.9784469 -0.2064452 -0.004704464
vn -0.003228134 -0.9831199 0.182934
vn 0.2699397 -0.9458459 0.1802999
vn 0.080291 -0.1133605 -0.9903044
vn -0.06503809 -0.107845 0.992038
vn -0.06503809 -0.107845 0.992038
vn -0.2761506 -0.9456601 0.171662
vn 0.0159248 0.9996318 -0.02196979
vn -0.0001197528 0.9997497 -0.0223706
vn 0.981294 -0.1285932 0.1432693
vn 0.981294 -0.1285932 0.1432693
vn 0.981294 -0.1285932 0.1432693
vn 0.981294 -0.1285932 0.1432693
vn -0.9709562 -0.2055613 -0.1224284
vn -0.9709562 -0.2055613 -0.1224284
vn 0.2557369 -0.9535062 -0.1594507
vn -0.01618845 0.9996098 -0.02276625
vn 0.9817826 -0.1253586 -0.1427873
vn 0.9817826 -0.1253586 -0.1427873
vn 0.9817826 -0.1253586 -0.1427873
vn 0.9817826 -0.1253586 -0.1427873
vn -0.09347583 0.9889398 0.1151535
vn -0.09347583 0.9889398 0.1151535
vn -0.09347583 0.9889398 0.1151535
vn -0.09347583 0.9889398 0.1151535
vn -0.09347583 0.9889398 0.1151535
vn -0.09347502 -0.9889398 0.1151538
vn -0.09347502 -0.9889398 0.1151538
vn -0.09347501 -0.9889398 0.1151538
vn -0.09347502 -0.9889398 0.1151538
vn -0.09347501 -0.9889398 0.1151538
g sag_ayna01_0
f 54/54/54 53/53/53 55/55/55
f 57/57/57 56/56/56 54/54/54
f 59/59/59 58/58/58 60/60/60
f 62/62/62 61/61/61 59/59/59
f 30/30/30 35/35/35 2/2/2
f 28/28/28 35/35/35 30/30/30
f 27/27/27 28/28/28 30/30/30
f 29/29/29 28/28/28 27/27/27
f 9/9/9 36/36/36 37/37/37
f 12/12/12 36/36/36 9/9/9
f 4/4/4 12/12/12 9/9/9
f 8/8/8 12/12/12 4/4/4
f 32/32/32 45/45/45 46/46/46
f 31/31/31 45/45/45 32/32/32
f 3/3/3 31/31/31 32/32/32
f 7/7/7 31/31/31 3/3/3
f 17/17/17 1/1/1 10/10/10
f 14/14/14 17/17/17 10/10/10
f 33/33/33 17/17/17 14/14/14
f 34/34/34 33/33/33 14/14/14
f 18/18/18 39/39/39 40/40/40
f 15/15/15 18/18/18 40/40/40
f 11/11/11 18/18/18 15/15/15
f 6/6/6 11/11/11 15/15/15
f 13/13/13 33/33/33 38/38/38
f 17/17/17 33/33/33 13/13/13
f 1/1/1 17/17/17 13/13/13
f 42/42/42 41/41/41 43/43/43
f 44/44/44 41/41/41 42/42/42
f 47/47/47 14/14/14 10/10/10
f 48/48/48 15/15/15 40/40/40
f 50/50/50 49/49/49 51/51/51
f 52/52/52 49/49/49 50/50/50
f 22/22/22 19/19/19 20/20/20
f 21/21/21 19/19/19 22/22/22
f 26/26/26 23/23/23 25/25/25
f 24/24/24 23/23/23 26/26/26
f 18/18/18 16/16/16 39/39/39
f 5/5/5 16/16/16 18/18/18
f 11/11/11 5/5/5 18/18/18
