g sag_ayna4
v -0.1861804 -0.05748219 0.009824977
v 0.0523777 -0.05497379 0.01506864
v -0.1861804 0.1117707 0.009824977
v 0.0523777 0.1117707 0.009824977
v -0.2024271 -0.06766648 -0.06042112
v 0.06215763 -0.06515814 -0.06042124
v -0.2024271 0.1210015 -0.06042112
v 0.06215763 0.1210015 -0.06042124
v -0.06690145 0.1179963 0.04895447
v -0.06690145 -0.0631016 0.04895447
v -0.06690145 -0.07328594 -0.06042124
v -0.06690145 0.1272271 -0.06042124
v -0.1949103 0.02265798 0.02887987
v 0.06416893 0.02707219 0.02887987
v 0.0739491 0.02707219 -0.06042124
v -0.2111571 0.02265798 -0.06042112
v -0.06690145 0.02492552 0.06042133
v -0.06690145 0.03439086 -0.05635859
v 0.2111571 -0.08818204 -0.04109325
v 0.06183267 0.008486205 -0.02080931
v 0.2111571 -0.08818198 0.03182422
v 0.06183267 0.008486205 0.0115404
v 0.1092417 -0.1272272 -0.04109313
v 0.05491805 -0.04081029 -0.02080931
v 0.1092417 -0.1272272 0.03182422
v 0.05491805 -0.04081029 0.0115404
v -0.06690145 -0.07328594 -0.06042124
v -0.2024271 -0.06766648 -0.06042112
v -0.2111571 0.02265798 -0.06042112
v -0.1949103 0.02265798 0.02887987
v -0.06690145 0.1179963 0.04895447
v 0.0523777 0.1117707 0.009824977
v 0.06215763 -0.06515814 -0.06042124
v -0.2024271 0.1210015 -0.06042112
v -0.1861804 0.1117707 0.009824977
v -0.06690145 0.1179963 0.04895447
v -0.1861804 0.1117707 0.009824977
v -0.2024271 0.1210015 -0.06042112
v -0.06690145 0.1272271 -0.06042124
v 0.06416893 0.02707219 0.02887987
v 0.06215763 0.1210015 -0.06042124
v 0.0739491 0.02707219 -0.06042124
v 0.0523777 0.1117707 0.009824977
v -0.2024271 -0.06766648 -0.06042112
v -0.1861804 -0.05748219 0.009824977
v 0.0523777 -0.05497379 0.01506864
v 0.06215763 0.1210015 -0.06042124
v 0.06416893 0.02707219 0.02887987
v 0.06215763 -0.06515814 -0.06042124
v 0.0523777 -0.05497379 0.01506864
v 0.0739491 0.02707219 -0.06042124
v 0.2111571 -0.08818204 -0.04109325
v 0.05491805 -0.04081029 -0.02080931
v 0.1092417 -0.1272272 -0.04109313
v 0.2111571 -0.08818204 -0.04109325
v 0.06183267 0.008486205 -0.02080931
v 0.06183267 0.008486205 0.0115404
v 0.1092417 -0.1272272 0.03182422
v 0.05491805 -0.04081029 0.0115404
v 0.06183267 0.008486205 0.0115404
v 0.2111571 -0.08818198 0.03182422
vt 0.5241811 0.3710486
vt 0.4866247 0.3714291
vt 0.5241811 0.3977081
vt 0.4866096 0.3977015
vt 0.5503477 0.3680546
vt 0.5951127 0.368479
vt 0.5337252 0.4043647
vt 0.4778866 0.4043549
vt 0.5055081 0.3986261
vt 0.5055081 0.3701008
vt 0.5732773 0.3671038
vt 0.5051236 0.4056737
vt 0.5256109 0.383643
vt 0.4848076 0.3843311
vt 0.5971078 0.3840834
vt 0.5488708 0.3833365
vt 0.5055413 0.3839488
vt 0.573278 0.3853206
vt 0.5433072 0.3125507
vt 0.5484692 0.3578205
vt 0.5618641 0.3125508
vt 0.5567019 0.3578205
vt 0.5687552 0.3125507
vt 0.5597593 0.3578205
vt 0.536416 0.3125506
vt 0.5454119 0.3578205
vt 0.5051236 0.3633519
vt 0.5337252 0.3645431
vt 0.5355675 0.383608
vt 0.5256109 0.383643
vt 0.5055081 0.3986261
vt 0.4866096 0.3977015
vt 0.4778866 0.3650627
vt 0.5337252 0.4043647
vt 0.5241811 0.3977081
vt 0.5055081 0.3986261
vt 0.5241811 0.3977081
vt 0.5503477 0.3999752
vt 0.5732773 0.4010286
vt 0.4848076 0.3843311
vt 0.4778866 0.4043549
vt 0.4753982 0.384529
vt 0.4866096 0.3977015
vt 0.5337252 0.3645431
vt 0.5241811 0.3710486
vt 0.4866247 0.3714291
vt 0.5951127 0.3999753
vt 0.4848076 0.3843311
vt 0.4778866 0.3650627
vt 0.4866247 0.3714291
vt 0.4753982 0.384529
vt 0.4975035 0.3102447
vt 0.5234315 0.3497724
vt 0.5270156 0.3202828
vt 0.4975035 0.3102447
vt 0.5128148 0.3593575
vt 0.512693 0.3590659
vt 0.5273732 0.3198809
vt 0.5232812 0.349544
vt 0.512693 0.3590659
vt 0.4976033 0.3097186
vn -0.2062878 -0.7263229 0.6556679
vn 0.08029104 -0.9903044 0.1133603
vn -0.9725094 0.1113678 0.2045061
vn 0.06638437 0.9921911 0.1055923
vn 0.01405311 0.02113135 -0.9996779
vn -0.01511005 0.02120709 -0.9996608
vn -0.9725094 0.1113678 0.2045061
vn 0.06638437 0.9921911 0.1055923
vn 0.0006745812 0.9942642 0.1069498
vn 0.0005891492 -0.7377038 0.6751242
vn -0.0005285254 0.02117147 -0.9997757
vn 0.0006745812 0.9942642 0.1069498
vn -0.2787248 -0.007031087 0.9603453
vn 0.2667237 0.01057873 0.963715
vn -0.01565297 -0.0007797698 -0.9998772
vn 0.01499253 -0.0004193212 -0.9998876
vn -0.006020003 0.001850805 0.9999802
vn -0.0003301883 -0.0005996151 -0.9999998
vn 0.5434362 0.8394505 0
vn 0.5434362 0.8394505 0
vn 0.5434362 0.8394505 0
vn 0.5434362 0.8394505 0
vn -0.8466168 -0.5322028 0
vn -0.8466168 -0.5322028 0
vn -0.8466168 -0.5322028 0
vn -0.8466168 -0.5322028 0
vn 0.009252721 -0.9932104 0.1159634
vn -0.06183243 -0.9910891 0.1179795
vn -0.9784414 -0.005568091 0.2064492
vn -0.9784414 -0.005568091 0.2064492
vn 0.2699393 0.1802998 0.945846
vn 0.2699393 0.1802998 0.945846
vn 0.08029104 -0.9903044 0.1133603
vn -0.06503813 0.992038 0.107845
vn -0.06503813 0.992038 0.107845
vn -0.2761499 0.1716618 0.9456604
vn -0.2761499 0.1716618 0.9456604
vn 0.01592496 -0.0219698 -0.9996318
vn -0.0001316902 -0.02237091 -0.9997497
vn 0.981294 0.1432686 0.1285933
vn 0.981294 0.1432686 0.1285933
vn 0.981294 0.1432686 0.1285933
vn 0.981294 0.1432686 0.1285933
vn -0.9709563 -0.1224276 0.2055613
vn -0.9709563 -0.1224276 0.2055613
vn 0.2557371 -0.1594506 0.9535062
vn -0.01618831 -0.02276626 -0.9996098
vn 0.9817826 -0.1427868 0.1253586
vn 0.9817826 -0.1427868 0.1253586
vn 0.9817826 -0.1427868 0.1253586
vn 0.9817826 -0.1427868 0.1253586
vn -0.09347663 0.1151536 -0.9889397
vn -0.09347663 0.1151536 -0.9889397
vn -0.09347663 0.1151536 -0.9889397
vn -0.09347663 0.1151536 -0.9889397
vn -0.09347663 0.1151536 -0.9889397
vn -0.09347513 0.1151538 0.9889398
vn -0.09347513 0.1151538 0.9889398
vn -0.09347513 0.1151538 0.9889398
vn -0.09347513 0.1151538 0.9889398
vn -0.09347513 0.1151538 0.9889398
g sag_ayna4_0
f 53/53/53 52/52/52 54/54/54
f 56/56/56 55/55/55 53/53/53
f 58/58/58 57/57/57 59/59/59
f 61/61/61 60/60/60 58/58/58
f 14/14/14 32/32/32 31/31/31
f 17/17/17 14/14/14 31/31/31
f 10/10/10 14/14/14 17/17/17
f 1/1/1 10/10/10 17/17/17
f 27/27/27 10/10/10 1/1/1
f 28/28/28 27/27/27 1/1/1
f 9/9/9 34/34/34 35/35/35
f 12/12/12 34/34/34 9/9/9
f 4/4/4 12/12/12 9/9/9
f 8/8/8 12/12/12 4/4/4
f 30/30/30 44/44/44 45/45/45
f 29/29/29 44/44/44 30/30/30
f 3/3/3 29/29/29 30/30/30
f 7/7/7 29/29/29 3/3/3
f 18/18/18 38/38/38 39/39/39
f 15/15/15 18/18/18 39/39/39
f 11/11/11 18/18/18 15/15/15
f 6/6/6 11/11/11 15/15/15
f 10/10/10 33/33/33 2/2/2
f 27/27/27 33/33/33 10/10/10
f 13/13/13 36/36/36 37/37/37
f 17/17/17 36/36/36 13/13/13
f 1/1/1 17/17/17 13/13/13
f 41/41/41 40/40/40 42/42/42
f 43/43/43 40/40/40 41/41/41
f 46/46/46 14/14/14 10/10/10
f 47/47/47 15/15/15 39/39/39
f 49/49/49 48/48/48 50/50/50
f 51/51/51 48/48/48 49/49/49
f 22/22/22 19/19/19 20/20/20
f 21/21/21 19/19/19 22/22/22
f 26/26/26 23/23/23 25/25/25
f 24/24/24 23/23/23 26/26/26
f 18/18/18 16/16/16 38/38/38
f 5/5/5 16/16/16 18/18/18
f 11/11/11 5/5/5 18/18/18
