g sag_ayna2
v -0.1861804 -0.05748219 0.009824858
v 0.05237746 -0.05497379 0.01506852
v -0.1861804 0.1117707 0.009824858
v 0.05237746 0.1117707 0.009824739
v -0.2024271 -0.06766651 -0.06042124
v 0.06215763 -0.06515814 -0.06042136
v -0.2024271 0.1210015 -0.06042124
v 0.06215763 0.1210015 -0.06042136
v -0.06690145 0.1179963 0.04895435
v -0.06690145 -0.0631016 0.04895435
v -0.06690145 -0.07328597 -0.06042136
v -0.06690145 0.1272271 -0.06042136
v -0.1949103 0.02265798 0.02887975
v 0.06416893 0.02707213 0.02887975
v 0.0739491 0.02707213 -0.06042136
v -0.2111571 0.02265798 -0.06042124
v -0.06690145 0.02492552 0.06042121
v -0.06690145 0.0343908 -0.05635871
v 0.2111571 -0.08818204 -0.04109325
v 0.06183267 0.008486205 -0.02080943
v 0.2111571 -0.08818198 0.0318241
v 0.06183267 0.008486205 0.01154028
v 0.1092417 -0.1272272 -0.04109325
v 0.05491805 -0.04081029 -0.02080943
v 0.1092417 -0.1272272 0.03182422
v 0.05491805 -0.04081029 0.01154028
v -0.06690145 -0.07328597 -0.06042136
v -0.2024271 -0.06766651 -0.06042124
v -0.2111571 0.02265798 -0.06042124
v -0.1949103 0.02265798 0.02887975
v -0.06690145 0.1179963 0.04895435
v 0.05237746 0.1117707 0.009824739
v 0.06215763 -0.06515814 -0.06042136
v -0.2024271 0.1210015 -0.06042124
v -0.1861804 0.1117707 0.009824858
v -0.06690145 0.1179963 0.04895435
v -0.1861804 0.1117707 0.009824858
v -0.2024271 0.1210015 -0.06042124
v -0.06690145 0.1272271 -0.06042136
v 0.06416893 0.02707213 0.02887975
v 0.06215763 0.1210015 -0.06042136
v 0.0739491 0.02707213 -0.06042136
v 0.05237746 0.1117707 0.009824739
v -0.2024271 -0.06766651 -0.06042124
v -0.1861804 -0.05748219 0.009824858
v 0.05237746 -0.05497379 0.01506852
v 0.06215763 0.1210015 -0.06042136
v 0.06416893 0.02707213 0.02887975
v 0.06215763 -0.06515814 -0.06042136
v 0.05237746 -0.05497379 0.01506852
v 0.0739491 0.02707213 -0.06042136
v 0.2111571 -0.08818204 -0.04109325
v 0.05491805 -0.04081029 -0.02080943
v 0.1092417 -0.1272272 -0.04109325
v 0.2111571 -0.08818204 -0.04109325
v 0.06183267 0.008486205 -0.02080943
v 0.06183267 0.008486205 0.01154028
v 0.1092417 -0.1272272 0.03182422
v 0.05491805 -0.04081029 0.01154028
v 0.06183267 0.008486205 0.01154028
v 0.2111571 -0.08818198 0.0318241
vt 0.8103564 0.04234416
vt 0.743257 0.04304972
vt 0.8103564 0.08995011
vt 0.743257 0.08995011
vt 0.9015375 0.03948047
vt 0.8271174 0.04018603
vt 0.8149262 0.09254657
vt 0.7405061 0.09254657
vt 0.7768067 0.09170125
vt 0.7768067 0.04076357
vt 0.863418 0.03789987
vt 0.7768067 0.09429762
vt 0.812812 0.0648853
vt 0.7399404 0.06612685
vt 0.8238008 0.06612775
vt 0.903993 0.06488619
vt 0.7768067 0.06552298
vt 0.8634185 0.06818455
vt 0.95066 0.02431776
vt 0.9415157 0.10451
vt 0.9177878 0.02431776
vt 0.926932 0.10451
vt 0.9055808 0.02431776
vt 0.9215164 0.1045098
vt 0.9628671 0.02431776
vt 0.9469314 0.1045098
vt 0.7768067 0.03789899
vt 0.8149262 0.03947958
vt 0.8173817 0.0648853
vt 0.812812 0.0648853
vt 0.7768067 0.09170125
vt 0.743257 0.08995011
vt 0.7405061 0.04018513
vt 0.8149262 0.09254657
vt 0.8103564 0.08995011
vt 0.7768067 0.09170125
vt 0.8103564 0.08995011
vt 0.9015375 0.09254737
vt 0.863418 0.09429841
vt 0.7399404 0.06612685
vt 0.7405061 0.09254657
vt 0.7371895 0.06612685
vt 0.743257 0.08995011
vt 0.8149262 0.03947958
vt 0.8103564 0.04234416
vt 0.743257 0.04304972
vt 0.8271174 0.09254737
vt 0.7399404 0.06612685
vt 0.7405061 0.04018513
vt 0.743257 0.04304972
vt 0.7371895 0.06612685
vt 0.9117945 0.01929469
vt 0.944514 0.09652309
vt 0.960623 0.04597177
vt 0.9117945 0.01929469
vt 0.9232993 0.1097347
vt 0.9231358 0.1100052
vt 0.9598353 0.04466581
vt 0.9448396 0.09625006
vt 0.9231358 0.1100052
vt 0.911585 0.0194703
vn -0.2062878 -0.7263228 0.655668
vn 0.08029127 -0.9903044 0.1133609
vn -0.9725094 0.1113678 0.204506
vn 0.06638478 0.9921913 0.105592
vn 0.0140536 0.02113132 -0.9996779
vn -0.01511071 0.0212071 -0.9996609
vn -0.9725094 0.1113678 0.204506
vn 0.06638478 0.9921913 0.105592
vn 0.0006747454 0.9942642 0.1069496
vn 0.0005891019 -0.7377037 0.6751243
vn -0.0005286153 0.02117146 -0.9997757
vn 0.0006747454 0.9942642 0.1069496
vn -0.2787251 -0.007030989 0.9603451
vn 0.2667242 0.01057908 0.9637148
vn -0.0156533 -0.0007797633 -0.9998772
vn 0.01499263 -0.0004193232 -0.9998876
vn -0.006019926 0.001851041 0.9999802
vn -0.0003303013 -0.0005996128 -0.9999998
vn 0.543435 0.8394512 0
vn 0.543435 0.8394512 0
vn 0.543435 0.8394512 0
vn 0.543435 0.8394512 0
vn -0.8466164 -0.5322036 0
vn -0.8466164 -0.5322036 0
vn -0.8466164 -0.5322036 0
vn -0.8466164 -0.5322036 0
vn 0.009252836 -0.9932104 0.1159639
vn -0.06183243 -0.9910891 0.11798
vn -0.9784414 -0.005568069 0.2064491
vn -0.9784414 -0.005568069 0.2064491
vn 0.2699406 0.1803011 0.9458455
vn 0.2699406 0.1803011 0.9458455
vn 0.08029126 -0.9903043 0.1133609
vn -0.0650382 0.992038 0.1078449
vn -0.0650382 0.992038 0.1078449
vn -0.2761504 0.1716621 0.9456602
vn -0.2761504 0.1716621 0.9456602
vn 0.01592469 -0.02196976 -0.9996318
vn -0.0001318261 -0.0223709 -0.9997497
vn 0.9812936 0.1432696 0.1285948
vn 0.9812936 0.1432696 0.1285948
vn 0.9812936 0.1432696 0.1285948
vn 0.9812936 0.1432696 0.1285948
vn -0.9709563 -0.1224276 0.2055613
vn -0.9709563 -0.1224276 0.2055613
vn 0.2557368 -0.1594511 0.9535062
vn -0.01618831 -0.02276626 -0.9996098
vn 0.9817822 -0.1427889 0.1253601
vn 0.9817822 -0.1427889 0.1253601
vn 0.9817822 -0.1427889 0.1253601
vn 0.9817822 -0.1427889 0.1253601
vn -0.09347436 0.1151538 -0.9889399
vn -0.09347436 0.1151538 -0.9889399
vn -0.09347436 0.1151538 -0.9889399
vn -0.09347436 0.1151538 -0.9889399
vn -0.09347436 0.1151538 -0.9889399
vn -0.09347585 0.1151547 0.9889397
vn -0.09347585 0.1151547 0.9889397
vn -0.09347585 0.1151547 0.9889397
vn -0.09347585 0.1151547 0.9889397
vn -0.09347585 0.1151547 0.9889397
g sag_ayna2_0
f 53/53/53 52/52/52 54/54/54
f 56/56/56 55/55/55 53/53/53
f 58/58/58 57/57/57 59/59/59
f 61/61/61 60/60/60 58/58/58
f 14/14/14 32/32/32 31/31/31
f 17/17/17 14/14/14 31/31/31
f 10/10/10 14/14/14 17/17/17
f 1/1/1 10/10/10 17/17/17
f 27/27/27 10/10/10 1/1/1
f 28/28/28 27/27/27 1/1/1
f 9/9/9 34/34/34 35/35/35
f 12/12/12 34/34/34 9/9/9
f 4/4/4 12/12/12 9/9/9
f 8/8/8 12/12/12 4/4/4
f 30/30/30 44/44/44 45/45/45
f 29/29/29 44/44/44 30/30/30
f 3/3/3 29/29/29 30/30/30
f 7/7/7 29/29/29 3/3/3
f 18/18/18 38/38/38 39/39/39
f 15/15/15 18/18/18 39/39/39
f 11/11/11 18/18/18 15/15/15
f 6/6/6 11/11/11 15/15/15
f 10/10/10 33/33/33 2/2/2
f 27/27/27 33/33/33 10/10/10
f 13/13/13 36/36/36 37/37/37
f 17/17/17 36/36/36 13/13/13
f 1/1/1 17/17/17 13/13/13
f 41/41/41 40/40/40 42/42/42
f 43/43/43 40/40/40 41/41/41
f 46/46/46 14/14/14 10/10/10
f 47/47/47 15/15/15 39/39/39
f 49/49/49 48/48/48 50/50/50
f 51/51/51 48/48/48 49/49/49
f 22/22/22 19/19/19 20/20/20
f 21/21/21 19/19/19 22/22/22
f 26/26/26 23/23/23 25/25/25
f 24/24/24 23/23/23 26/26/26
f 18/18/18 16/16/16 38/38/38
f 5/5/5 16/16/16 18/18/18
f 11/11/11 5/5/5 18/18/18
