g sol_ayna
v 0.1861804 -0.009824872 -0.05748218
v -0.05237752 -0.01506853 -0.05497378
v 0.1861804 -0.009824872 0.1117707
v -0.05237752 -0.009824872 0.1117707
v 0.2024272 0.06042123 -0.0676665
v -0.06215766 0.06042135 -0.06515813
v 0.2024272 0.06042123 0.1210015
v -0.06215766 0.06042135 0.1210015
v 0.06690145 -0.04895437 0.1179963
v 0.06690145 -0.04895437 -0.06310159
v 0.06690145 0.06042135 -0.07328597
v 0.06690145 0.06042135 0.1272271
v 0.1949103 -0.02887976 0.02265799
v -0.06416893 -0.02887976 0.02707213
v -0.0739491 0.06042135 0.02707213
v 0.2111571 0.06042123 0.02265799
v 0.06690145 -0.06042123 0.02492553
v 0.06690145 0.0563587 0.03439081
v -0.211157 0.04109335 -0.08818203
v -0.0618327 0.02080941 0.008486211
v -0.211157 -0.03182411 -0.08818197
v -0.06183267 -0.01154029 0.008486211
v -0.1092416 0.04109323 -0.1272272
v -0.05491802 0.02080941 -0.04081029
v -0.1092417 -0.03182411 -0.1272272
v -0.05491799 -0.01154029 -0.04081029
v 0.1861804 -0.009824872 -0.05748218
v 0.06690145 0.06042135 -0.07328597
v 0.06690145 -0.04895437 -0.06310159
v 0.2024272 0.06042123 -0.0676665
v 0.2111571 0.06042123 0.02265799
v 0.1949103 -0.02887976 0.02265799
v 0.06690145 -0.04895437 0.1179963
v -0.05237752 -0.009824872 0.1117707
v -0.06215766 0.06042135 -0.06515813
v 0.2024272 0.06042123 0.1210015
v 0.1861804 -0.009824872 0.1117707
v 0.1861804 -0.009824872 0.1117707
v 0.2024272 0.06042123 0.1210015
v 0.06690145 0.06042135 0.1272271
v -0.06416893 -0.02887976 0.02707213
v -0.06215766 0.06042135 0.1210015
v -0.05237752 -0.009824872 0.1117707
v -0.0739491 0.06042135 0.02707213
v 0.2024272 0.06042123 -0.0676665
v 0.1861804 -0.009824872 -0.05748218
v -0.05237752 -0.01506853 -0.05497378
v -0.06215766 0.06042135 0.1210015
v -0.06416893 -0.02887976 0.02707213
v -0.06215766 0.06042135 -0.06515813
v -0.0739491 0.06042135 0.02707213
v -0.05237752 -0.01506853 -0.05497378
v -0.211157 0.04109335 -0.08818203
v -0.05491802 0.02080941 -0.04081029
v -0.0618327 0.02080941 0.008486211
v -0.211157 0.04109335 -0.08818203
v -0.1092416 0.04109323 -0.1272272
v -0.06183267 -0.01154029 0.008486211
v -0.1092417 -0.03182411 -0.1272272
v -0.211157 -0.03182411 -0.08818197
v -0.06183267 -0.01154029 0.008486211
v -0.05491799 -0.01154029 -0.04081029
vt 0.8103564 0.04234416
vt 0.7432569 0.04304972
vt 0.8103564 0.08995011
vt 0.7432569 0.08995011
vt 0.9015372 0.03948038
vt 0.8271171 0.04018603
vt 0.8149262 0.09254657
vt 0.740506 0.09254657
vt 0.7768067 0.09170125
vt 0.7768067 0.04076357
vt 0.8634177 0.03789987
vt 0.7768067 0.09429762
vt 0.8128119 0.0648853
vt 0.7399403 0.06612685
vt 0.8238006 0.06612775
vt 0.9039927 0.06488601
vt 0.7768067 0.06552298
vt 0.8634167 0.06818447
vt 0.9177878 0.02431776
vt 0.926932 0.10451
vt 0.95066 0.02431785
vt 0.9415157 0.10451
vt 0.9628672 0.02431776
vt 0.9469314 0.10451
vt 0.9055808 0.02431767
vt 0.9215164 0.10451
vt 0.8103564 0.04234416
vt 0.7768067 0.03789899
vt 0.7768067 0.04076357
vt 0.8149262 0.03947958
vt 0.8173817 0.0648853
vt 0.8128119 0.0648853
vt 0.7768067 0.09170125
vt 0.7432569 0.08995011
vt 0.740506 0.04018513
vt 0.8149262 0.09254657
vt 0.8103564 0.08995011
vt 0.8103564 0.08995011
vt 0.9015372 0.09254719
vt 0.8634177 0.09429841
vt 0.7399403 0.06612685
vt 0.740506 0.09254657
vt 0.7432569 0.08995011
vt 0.7371895 0.06612685
vt 0.8149262 0.03947958
vt 0.8103564 0.04234416
vt 0.7432569 0.04304972
vt 0.8271171 0.09254737
vt 0.7399403 0.06612685
vt 0.740506 0.04018513
vt 0.7371895 0.06612685
vt 0.7432569 0.04304972
vt 0.9116491 0.01941657
vt 0.9447218 0.09634872
vt 0.9232523 0.1098044
vt 0.9116491 0.01941657
vt 0.9600455 0.04600628
vt 0.9230472 0.1099332
vt 0.9607105 0.04609009
vt 0.9119022 0.0192043
vt 0.9230472 0.1099332
vt 0.9444474 0.09657913
vn 0.2723381 -0.9441518 -0.1854977
vn -0.0802912 -0.1133607 -0.9903044
vn 0.9725094 -0.204506 0.1113679
vn -0.06638462 -0.1055922 0.9921911
vn -0.01405355 0.9996779 0.02113133
vn 0.01511037 0.9996608 0.0212071
vn 0.9725094 -0.204506 0.1113679
vn -0.06638463 -0.1055922 0.9921911
vn -0.0006746607 -0.1069497 0.9942642
vn 0.01085478 -0.9837985 -0.1789491
vn 0.0004255295 0.9997758 0.0211712
vn -0.0006706225 -0.1069497 0.9942642
vn 0.2787066 -0.9603364 -0.008750474
vn -0.2668424 -0.9636465 0.01343745
vn 0.01563426 0.9998778 0
vn -0.01494377 0.9998881 0.000706538
vn 0.006008317 -0.9999799 0.002074734
vn 0.0003148697 0.9999988 -0.001518319
vn -0.5434359 0 0.8394507
vn -0.5434359 0 0.8394507
vn -0.5434358 0 0.8394507
vn -0.5434359 0 0.8394507
vn 0.846617 0 -0.5322026
vn 0.846617 0 -0.5322025
vn 0.846617 0 -0.5322026
vn 0.846617 0 -0.5322026
vn 0.06183247 -0.1179799 -0.9910891
vn -0.009207617 -0.1159653 -0.9932106
vn -0.01042675 -0.1159256 -0.9932032
vn 0.06183247 -0.1179799 -0.9910891
vn 0.9784419 -0.2064489 -0.00551533
vn 0.9784469 -0.2064452 -0.004704404
vn 0.003228005 -0.9831199 0.1829341
vn -0.2699399 -0.9458458 0.1803002
vn -0.0802912 -0.1133607 -0.9903044
vn 0.06503825 -0.1078447 0.9920381
vn 0.06503825 -0.1078447 0.9920381
vn 0.2761506 -0.9456602 0.1716619
vn -0.0159248 0.9996318 -0.02196978
vn 0.0001197565 0.9997497 -0.0223706
vn -0.9812936 -0.1285945 0.1432701
vn -0.9812936 -0.1285945 0.1432701
vn -0.9812936 -0.1285945 0.1432701
vn -0.9812936 -0.1285945 0.1432701
vn 0.9709562 -0.2055612 -0.1224277
vn 0.9709562 -0.2055612 -0.1224277
vn -0.255737 -0.9535062 -0.159451
vn 0.01618846 0.9996098 -0.02276624
vn -0.9817823 -0.1253598 -0.1427883
vn -0.9817823 -0.1253598 -0.1427883
vn -0.9817823 -0.1253598 -0.1427883
vn -0.9817823 -0.1253598 -0.1427883
vn 0.09347581 0.9889398 0.1151536
vn 0.09347581 0.9889398 0.1151536
vn 0.09347581 0.9889398 0.1151536
vn 0.09347581 0.9889398 0.1151536
vn 0.09347581 0.9889398 0.1151536
vn 0.09347499 -0.9889398 0.1151539
vn 0.093475 -0.9889398 0.1151538
vn 0.09347499 -0.9889398 0.1151538
vn 0.09347499 -0.9889398 0.1151539
vn 0.09347499 -0.9889398 0.1151539
g sol_ayna_0
f 54/54/54 53/53/53 55/55/55
f 57/57/57 56/56/56 54/54/54
f 59/59/59 58/58/58 60/60/60
f 62/62/62 61/61/61 59/59/59
f 29/29/29 2/2/2 35/35/35
f 28/28/28 29/29/29 35/35/35
f 27/27/27 29/29/29 28/28/28
f 30/30/30 27/27/27 28/28/28
f 9/9/9 37/37/37 36/36/36
f 12/12/12 9/9/9 36/36/36
f 4/4/4 9/9/9 12/12/12
f 8/8/8 4/4/4 12/12/12
f 32/32/32 46/46/46 45/45/45
f 31/31/31 32/32/32 45/45/45
f 3/3/3 32/32/32 31/31/31
f 7/7/7 3/3/3 31/31/31
f 17/17/17 1/1/1 13/13/13
f 33/33/33 17/17/17 13/13/13
f 14/14/14 17/17/17 33/33/33
f 34/34/34 14/14/14 33/33/33
f 18/18/18 16/16/16 5/5/5
f 11/11/11 18/18/18 5/5/5
f 15/15/15 18/18/18 11/11/11
f 6/6/6 15/15/15 11/11/11
f 33/33/33 13/13/13 38/38/38
f 42/42/42 41/41/41 43/43/43
f 44/44/44 41/41/41 42/42/42
f 10/10/10 14/14/14 47/47/47
f 17/17/17 14/14/14 10/10/10
f 1/1/1 17/17/17 10/10/10
f 18/18/18 39/39/39 16/16/16
f 40/40/40 39/39/39 18/18/18
f 15/15/15 40/40/40 18/18/18
f 48/48/48 40/40/40 15/15/15
f 50/50/50 49/49/49 51/51/51
f 52/52/52 49/49/49 50/50/50
f 22/22/22 19/19/19 21/21/21
f 20/20/20 19/19/19 22/22/22
f 26/26/26 23/23/23 24/24/24
f 25/25/25 23/23/23 26/26/26
