g sol_ayna4
v -0.2111571 -0.08818198 -0.04109325
v -0.06183279 0.008486264 -0.02080931
v -0.2111571 -0.08818192 0.03182422
v -0.06183267 0.008486264 0.0115404
v -0.1092417 -0.1272272 -0.04109313
v -0.05491805 -0.04081023 -0.02080931
v -0.1092417 -0.1272271 0.03182422
v -0.05491805 -0.04081023 0.0115404
v 0.1861804 -0.05748213 0.009824977
v -0.05237758 -0.05497373 0.01506864
v 0.1861804 0.1117707 0.009824977
v -0.05237758 0.1117707 0.009824977
v 0.2024271 -0.06766642 -0.06042112
v -0.06215775 -0.06515808 -0.06042124
v 0.2024271 0.1210016 -0.06042112
v -0.06215775 0.1210016 -0.06042124
v 0.06690145 0.1179964 0.04895447
v 0.06690145 -0.06310154 0.04895447
v 0.06690145 -0.07328589 -0.06042124
v 0.06690145 0.1272272 -0.06042124
v 0.1949103 0.02265804 0.02887987
v -0.06416893 0.02707225 0.02887987
v -0.0739491 0.02707225 -0.06042124
v 0.2111571 0.02265804 -0.06042112
v 0.06690145 0.02492558 0.06042133
v 0.06690145 0.03439092 -0.05635859
v -0.2111571 -0.08818198 -0.04109325
v -0.05491805 -0.04081023 -0.02080931
v -0.06183279 0.008486264 -0.02080931
v -0.2111571 -0.08818198 -0.04109325
v -0.1092417 -0.1272272 -0.04109313
v -0.06183267 0.008486264 0.0115404
v -0.1092417 -0.1272271 0.03182422
v -0.2111571 -0.08818192 0.03182422
v -0.06183267 0.008486264 0.0115404
v -0.05491805 -0.04081023 0.0115404
v 0.1861804 -0.05748213 0.009824977
v 0.06690145 -0.07328589 -0.06042124
v 0.06690145 -0.06310154 0.04895447
v 0.2024271 -0.06766642 -0.06042112
v 0.2111571 0.02265804 -0.06042112
v 0.1949103 0.02265804 0.02887987
v 0.06690145 0.1179964 0.04895447
v -0.05237758 0.1117707 0.009824977
v -0.06215775 -0.06515808 -0.06042124
v 0.2024271 0.1210016 -0.06042112
v 0.1861804 0.1117707 0.009824977
v 0.06690145 0.1179964 0.04895447
v 0.1861804 0.1117707 0.009824977
v 0.2024271 0.1210016 -0.06042112
v 0.06690145 0.1272272 -0.06042124
v -0.06416893 0.02707225 0.02887987
v -0.06215775 0.1210016 -0.06042124
v -0.05237758 0.1117707 0.009824977
v -0.0739491 0.02707225 -0.06042124
v 0.2024271 -0.06766642 -0.06042112
v 0.1861804 -0.05748213 0.009824977
v -0.05237758 -0.05497373 0.01506864
v -0.06215775 0.1210016 -0.06042124
v -0.06416893 0.02707225 0.02887987
v -0.06215775 -0.06515808 -0.06042124
v -0.0739491 0.02707225 -0.06042124
v -0.05237758 -0.05497373 0.01506864
vt 0.5433072 0.3125507
vt 0.5484692 0.3578205
vt 0.5618641 0.3125508
vt 0.5567019 0.3578205
vt 0.5687552 0.3125507
vt 0.5597593 0.3578205
vt 0.536416 0.3125506
vt 0.5454119 0.3578205
vt 0.5241811 0.3710486
vt 0.4866247 0.3714291
vt 0.5241811 0.3977081
vt 0.4866096 0.3977015
vt 0.5503477 0.3680546
vt 0.5951127 0.368479
vt 0.5337252 0.4043647
vt 0.4778866 0.4043549
vt 0.5055081 0.3986261
vt 0.5055081 0.3701008
vt 0.5732773 0.3671038
vt 0.5051236 0.4056737
vt 0.5256109 0.383643
vt 0.4848076 0.3843311
vt 0.5971078 0.3840834
vt 0.5488708 0.3833365
vt 0.5055413 0.3839488
vt 0.573278 0.3853206
vt 0.4975035 0.3102447
vt 0.5234315 0.3497724
vt 0.5128148 0.3593575
vt 0.4975035 0.3102447
vt 0.5270156 0.3202828
vt 0.512693 0.3590659
vt 0.5273732 0.3198809
vt 0.4976033 0.3097186
vt 0.512693 0.3590659
vt 0.5232812 0.349544
vt 0.5241811 0.3710486
vt 0.5051236 0.3633519
vt 0.5055081 0.3701008
vt 0.5337252 0.3645431
vt 0.5355675 0.383608
vt 0.5256109 0.383643
vt 0.5055081 0.3986261
vt 0.4866096 0.3977015
vt 0.4778866 0.3650627
vt 0.5337252 0.4043647
vt 0.5241811 0.3977081
vt 0.5055081 0.3986261
vt 0.5241811 0.3977081
vt 0.5503477 0.3999752
vt 0.5732773 0.4010286
vt 0.4848076 0.3843311
vt 0.4778866 0.4043549
vt 0.4866096 0.3977015
vt 0.4753982 0.384529
vt 0.5337252 0.3645431
vt 0.5241811 0.3710486
vt 0.4866247 0.3714291
vt 0.5951127 0.3999753
vt 0.4848076 0.3843311
vt 0.4778866 0.3650627
vt 0.4753982 0.384529
vt 0.4866247 0.3714291
vn -0.5434363 0.8394504 0
vn -0.5434363 0.8394504 0
vn -0.5434363 0.8394504 0
vn -0.5434363 0.8394504 0
vn 0.8466165 -0.5322036 0
vn 0.8466165 -0.5322036 0
vn 0.8466165 -0.5322036 0
vn 0.8466165 -0.5322036 0
vn 0.2723381 -0.1854979 0.9441518
vn -0.08029109 -0.9903044 0.1133606
vn 0.9725093 0.1113692 0.204506
vn -0.0663844 0.9921911 0.1055928
vn -0.01405324 0.02113131 -0.9996779
vn 0.01511001 0.02120708 -0.9996608
vn 0.9725093 0.1113692 0.204506
vn -0.0663844 0.9921911 0.1055928
vn -0.000674611 0.9942642 0.10695
vn 0.00860705 -0.1788387 0.9838408
vn 0.0005284392 0.02117145 -0.9997757
vn -0.000674611 0.9942642 0.10695
vn 0.278725 -0.00703108 0.9603451
vn -0.2667234 0.01057873 0.963715
vn 0.01565303 -0.0007797661 -0.9998772
vn -0.01499253 -0.0004193241 -0.9998876
vn 0.00602024 0.001850809 0.9999802
vn 0.0003302221 -0.0005996142 -0.9999998
vn 0.0934762 0.1151535 -0.9889398
vn 0.0934762 0.1151535 -0.9889398
vn 0.0934762 0.1151535 -0.9889398
vn 0.0934762 0.1151535 -0.9889398
vn 0.0934762 0.1151535 -0.9889398
vn 0.0934759 0.1151538 0.9889397
vn 0.0934759 0.1151538 0.9889397
vn 0.0934759 0.1151538 0.9889397
vn 0.0934759 0.1151538 0.9889397
vn 0.0934759 0.1151538 0.9889397
vn 0.06183243 -0.9910891 0.1179796
vn -0.009252743 -0.9932104 0.1159635
vn -0.009252743 -0.9932104 0.1159635
vn 0.06183243 -0.9910891 0.1179796
vn 0.9784414 -0.00556816 0.2064491
vn 0.9784414 -0.00556816 0.2064491
vn -0.2699393 0.1803002 0.945846
vn -0.2699393 0.1803002 0.945846
vn -0.08029109 -0.9903044 0.1133606
vn 0.06503809 0.9920381 0.1078449
vn 0.06503809 0.9920381 0.1078449
vn 0.27615 0.1716618 0.9456604
vn 0.27615 0.1716618 0.9456604
vn -0.01592483 -0.02196976 -0.9996318
vn 0.0001318438 -0.02237089 -0.9997497
vn -0.9812939 0.1432686 0.1285947
vn -0.9812939 0.1432686 0.1285947
vn -0.9812939 0.1432686 0.1285947
vn -0.9812939 0.1432686 0.1285947
vn 0.9709561 -0.1224292 0.2055612
vn 0.9709561 -0.1224292 0.2055612
vn -0.2557366 -0.159451 0.9535062
vn 0.01618848 -0.02276624 -0.9996098
vn -0.9817825 -0.1427868 0.1253599
vn -0.9817825 -0.1427868 0.1253599
vn -0.9817825 -0.1427868 0.1253599
vn -0.9817825 -0.1427868 0.1253599
g sol_ayna4_0
f 28/28/28 27/27/27 29/29/29
f 31/31/31 30/30/30 28/28/28
f 33/33/33 32/32/32 34/34/34
f 36/36/36 35/35/35 33/33/33
f 4/4/4 1/1/1 3/3/3
f 2/2/2 1/1/1 4/4/4
f 8/8/8 5/5/5 6/6/6
f 7/7/7 5/5/5 8/8/8
f 39/39/39 10/10/10 45/45/45
f 38/38/38 39/39/39 45/45/45
f 37/37/37 39/39/39 38/38/38
f 40/40/40 37/37/37 38/38/38
f 17/17/17 47/47/47 46/46/46
f 20/20/20 17/17/17 46/46/46
f 12/12/12 17/17/17 20/20/20
f 16/16/16 12/12/12 20/20/20
f 42/42/42 57/57/57 56/56/56
f 41/41/41 42/42/42 56/56/56
f 11/11/11 42/42/42 41/41/41
f 15/15/15 11/11/11 41/41/41
f 25/25/25 18/18/18 9/9/9
f 22/22/22 18/18/18 25/25/25
f 43/43/43 22/22/22 25/25/25
f 44/44/44 22/22/22 43/43/43
f 26/26/26 24/24/24 13/13/13
f 19/19/19 26/26/26 13/13/13
f 23/23/23 26/26/26 19/19/19
f 14/14/14 23/23/23 19/19/19
f 21/21/21 25/25/25 9/9/9
f 48/48/48 25/25/25 21/21/21
f 49/49/49 48/48/48 21/21/21
f 53/53/53 52/52/52 54/54/54
f 55/55/55 52/52/52 53/53/53
f 18/18/18 22/22/22 58/58/58
f 26/26/26 50/50/50 24/24/24
f 51/51/51 50/50/50 26/26/26
f 23/23/23 51/51/51 26/26/26
f 59/59/59 51/51/51 23/23/23
f 61/61/61 60/60/60 62/62/62
f 63/63/63 60/60/60 61/61/61
