g sol_ayna01
v -0.2111571 0.04109323 -0.08818197
v -0.06183276 0.02080929 0.008486271
v -0.2111571 -0.03182423 -0.08818191
v -0.06183273 -0.01154041 0.008486271
v -0.1092417 0.04109311 -0.1272272
v -0.05491808 0.02080929 -0.04081023
v -0.1092417 -0.03182423 -0.1272271
v -0.05491805 -0.01154041 -0.04081023
v 0.1861804 -0.009824991 -0.05748212
v -0.05237758 -0.01506865 -0.05497372
v 0.1861804 -0.009824991 0.1117707
v -0.05237758 -0.009824991 0.1117707
v 0.2024271 0.06042111 -0.06766641
v -0.06215772 0.06042123 -0.06515807
v 0.2024271 0.06042111 0.1210016
v -0.06215772 0.06042123 0.1210016
v 0.06690139 -0.04895449 0.1179964
v 0.06690139 -0.04895449 -0.06310153
v 0.06690139 0.06042123 -0.07328588
v 0.06690139 0.06042123 0.1272272
v 0.1949103 -0.02887988 0.02265805
v -0.06416899 -0.02887988 0.02707225
v -0.07394916 0.06042123 0.02707225
v 0.2111571 0.06042111 0.02265805
v 0.06690139 -0.06042135 0.02492559
v 0.06690139 0.05635858 0.03439093
v -0.2111571 0.04109323 -0.08818197
v -0.05491808 0.02080929 -0.04081023
v -0.06183276 0.02080929 0.008486271
v -0.2111571 0.04109323 -0.08818197
v -0.1092417 0.04109311 -0.1272272
v -0.06183273 -0.01154041 0.008486271
v -0.1092417 -0.03182423 -0.1272271
v -0.2111571 -0.03182423 -0.08818191
v -0.06183273 -0.01154041 0.008486271
v -0.05491805 -0.01154041 -0.04081023
v 0.1861804 -0.009824991 -0.05748212
v 0.06690139 0.06042123 -0.07328588
v 0.06690139 -0.04895449 -0.06310153
v 0.2024271 0.06042111 -0.06766641
v 0.2111571 0.06042111 0.02265805
v 0.1949103 -0.02887988 0.02265805
v 0.06690139 -0.04895449 0.1179964
v -0.05237758 -0.009824991 0.1117707
v -0.06215772 0.06042123 -0.06515807
v 0.2024271 0.06042111 0.1210016
v 0.1861804 -0.009824991 0.1117707
v 0.1861804 -0.009824991 0.1117707
v 0.2024271 0.06042111 0.1210016
v 0.06690139 0.06042123 0.1272272
v -0.06416899 -0.02887988 0.02707225
v -0.06215772 0.06042123 0.1210016
v -0.05237758 -0.009824991 0.1117707
v -0.07394916 0.06042123 0.02707225
v 0.2024271 0.06042111 -0.06766641
v 0.1861804 -0.009824991 -0.05748212
v -0.05237758 -0.01506865 -0.05497372
v -0.06215772 0.06042123 0.1210016
v -0.06416899 -0.02887988 0.02707225
v -0.06215772 0.06042123 -0.06515807
v -0.07394916 0.06042123 0.02707225
v -0.05237758 -0.01506865 -0.05497372
vt 0.5433072 0.3125507
vt 0.5484692 0.3578205
vt 0.5618641 0.3125508
vt 0.5567019 0.3578205
vt 0.5687552 0.3125507
vt 0.5597593 0.3578205
vt 0.536416 0.3125506
vt 0.5454119 0.3578205
vt 0.5241811 0.3710486
vt 0.4866247 0.3714291
vt 0.5241811 0.3977081
vt 0.4866096 0.3977015
vt 0.5503477 0.3680546
vt 0.5951127 0.368479
vt 0.5337252 0.4043647
vt 0.4778866 0.4043549
vt 0.5055081 0.3986261
vt 0.5055081 0.3701008
vt 0.5732773 0.3671038
vt 0.5051236 0.4056737
vt 0.5256109 0.383643
vt 0.4848076 0.3843311
vt 0.5971078 0.3840834
vt 0.5488708 0.3833365
vt 0.5055413 0.3839488
vt 0.573278 0.3853206
vt 0.4975035 0.3102447
vt 0.5234315 0.3497724
vt 0.5128148 0.3593575
vt 0.4975035 0.3102447
vt 0.5270156 0.3202828
vt 0.512693 0.3590659
vt 0.5273732 0.3198809
vt 0.4976033 0.3097186
vt 0.512693 0.3590659
vt 0.5232812 0.349544
vt 0.5241811 0.3710486
vt 0.5051236 0.3633519
vt 0.5055081 0.3701008
vt 0.5337252 0.3645431
vt 0.5355675 0.383608
vt 0.5256109 0.383643
vt 0.5055081 0.3986261
vt 0.4866096 0.3977015
vt 0.4778866 0.3650627
vt 0.5337252 0.4043647
vt 0.5241811 0.3977081
vt 0.5241811 0.3977081
vt 0.5503477 0.3999752
vt 0.5732773 0.4010286
vt 0.4848076 0.3843311
vt 0.4778866 0.4043549
vt 0.4866096 0.3977015
vt 0.4753982 0.384529
vt 0.5337252 0.3645431
vt 0.5241811 0.3710486
vt 0.4866247 0.3714291
vt 0.5951127 0.3999753
vt 0.4848076 0.3843311
vt 0.4778866 0.3650627
vt 0.4753982 0.384529
vt 0.4866247 0.3714291
vn -0.5434358 0 0.8394507
vn -0.5434358 0 0.8394507
vn -0.5434358 0 0.8394507
vn -0.5434358 0 0.8394507
vn 0.846617 0 -0.5322025
vn 0.846617 0 -0.5322026
vn 0.846617 0 -0.5322026
vn 0.846617 0 -0.5322026
vn 0.272338 -0.9441519 -0.1854978
vn -0.08029106 -0.1133605 -0.9903044
vn 0.9725094 -0.2045061 0.1113685
vn -0.06638444 -0.1055925 0.9921911
vn -0.01405354 0.9996779 0.02113133
vn 0.01511037 0.9996608 0.02120708
vn 0.9725094 -0.2045061 0.1113685
vn -0.06638443 -0.1055925 0.9921911
vn -0.0006746548 -0.10695 0.9942642
vn 0.01085471 -0.9837985 -0.1789491
vn 0.0004255331 0.9997758 0.02117119
vn -0.0006706202 -0.1069501 0.9942642
vn 0.2787064 -0.9603364 -0.008750477
vn -0.2668424 -0.9636465 0.01343752
vn 0.01563425 0.9998778 0
vn -0.01494377 0.9998881 0.0007065433
vn 0.006008267 -0.9999799 0.002074719
vn 0.0003148704 0.9999988 -0.001518326
vn 0.09347583 0.9889398 0.1151536
vn 0.09347583 0.9889398 0.1151536
vn 0.09347583 0.9889398 0.1151536
vn 0.09347583 0.9889398 0.1151536
vn 0.09347583 0.9889398 0.1151536
vn 0.09347499 -0.9889398 0.1151539
vn 0.093475 -0.9889398 0.1151538
vn 0.09347499 -0.9889398 0.1151538
vn 0.09347499 -0.9889398 0.1151539
vn 0.09347499 -0.9889398 0.1151539
vn 0.06183241 -0.1179796 -0.9910891
vn -0.009207574 -0.115965 -0.9932106
vn -0.01042671 -0.1159253 -0.9932032
vn 0.06183242 -0.1179796 -0.9910891
vn 0.9784418 -0.206449 -0.005515388
vn 0.9784468 -0.2064452 -0.004704463
vn 0.003227985 -0.9831199 0.1829341
vn -0.2699399 -0.9458458 0.1803002
vn -0.08029106 -0.1133605 -0.9903044
vn 0.06503805 -0.107845 0.992038
vn 0.06503806 -0.107845 0.992038
vn 0.2761505 -0.9456602 0.171662
vn -0.01592479 0.9996318 -0.02196978
vn 0.0001197565 0.9997497 -0.0223706
vn -0.9812936 -0.1285945 0.1432702
vn -0.9812936 -0.1285945 0.1432702
vn -0.9812936 -0.1285945 0.1432702
vn -0.9812936 -0.1285945 0.1432702
vn 0.9709562 -0.2055613 -0.1224284
vn 0.9709562 -0.2055613 -0.1224284
vn -0.2557371 -0.9535062 -0.1594509
vn 0.01618845 0.9996098 -0.02276625
vn -0.9817823 -0.1253598 -0.1427882
vn -0.9817823 -0.1253598 -0.1427882
vn -0.9817823 -0.1253598 -0.1427882
vn -0.9817823 -0.1253598 -0.1427882
g sol_ayna01_0
f 28/28/28 27/27/27 29/29/29
f 31/31/31 30/30/30 28/28/28
f 33/33/33 32/32/32 34/34/34
f 36/36/36 35/35/35 33/33/33
f 4/4/4 1/1/1 3/3/3
f 2/2/2 1/1/1 4/4/4
f 8/8/8 5/5/5 6/6/6
f 7/7/7 5/5/5 8/8/8
f 39/39/39 10/10/10 45/45/45
f 38/38/38 39/39/39 45/45/45
f 37/37/37 39/39/39 38/38/38
f 40/40/40 37/37/37 38/38/38
f 17/17/17 47/47/47 46/46/46
f 20/20/20 17/17/17 46/46/46
f 12/12/12 17/17/17 20/20/20
f 16/16/16 12/12/12 20/20/20
f 42/42/42 56/56/56 55/55/55
f 41/41/41 42/42/42 55/55/55
f 11/11/11 42/42/42 41/41/41
f 15/15/15 11/11/11 41/41/41
f 25/25/25 9/9/9 21/21/21
f 43/43/43 25/25/25 21/21/21
f 22/22/22 25/25/25 43/43/43
f 44/44/44 22/22/22 43/43/43
f 26/26/26 24/24/24 13/13/13
f 19/19/19 26/26/26 13/13/13
f 23/23/23 26/26/26 19/19/19
f 14/14/14 23/23/23 19/19/19
f 43/43/43 21/21/21 48/48/48
f 52/52/52 51/51/51 53/53/53
f 54/54/54 51/51/51 52/52/52
f 18/18/18 22/22/22 57/57/57
f 25/25/25 22/22/22 18/18/18
f 9/9/9 25/25/25 18/18/18
f 26/26/26 49/49/49 24/24/24
f 50/50/50 49/49/49 26/26/26
f 23/23/23 50/50/50 26/26/26
f 58/58/58 50/50/50 23/23/23
f 60/60/60 59/59/59 61/61/61
f 62/62/62 59/59/59 60/60/60
