g tampon_arka
v 0 0.1564486 -0.06828481
v 0.5649089 0.165158 -0.005511165
v 0.5493193 0.1285183 -0.1010739
v 0.8355452 0.09334302 -0.1026406
v 0.8593725 0.1300199 -0.007077932
v 0.9953109 0.04854512 -0.004651785
v 0.946566 0.03190875 -0.09878707
v 0.8791145 0.09611678 0.08246505
v 0.9869019 0.02002883 0.07946217
v 1.040205 -0.1056759 -0.004713833
v 1.033475 -0.09347749 0.07749832
v 0.9915363 -0.1431339 0.1167636
v 0.9967505 -0.1930358 -0.004713833
v 0.9767448 -0.08625484 -0.09134156
v 0.9295541 -0.1333678 -0.1208332
v 0.543034 0.06317496 -0.137399
v 0 0.08265519 -0.1046097
v 0.8839077 -0.007664919 -0.1335139
v 0.8259608 0.03340554 -0.1389658
v 0.5778166 0.1312907 0.0840317
v 0.5833904 0.06407189 0.1283769
v 0.8876182 0.03371549 0.1268101
v 0.9485053 -0.01031327 0.1232791
v 0.919027 -0.03060365 -0.004651785
v 0.8456613 0.03284192 -0.008191288
v 0.5563369 0.06275678 -0.007942975
v 0 0.1930358 0.02727795
v 0 0.1592214 0.08609402
v -0.5649089 0.165158 0.02521563
v -0.5493193 0.1285183 -0.07034707
v -0.8355452 0.09334302 -0.1026406
v -0.8593725 0.1300199 -0.007077932
v -0.9953109 0.04854512 -0.004651785
v -0.946566 0.03190875 -0.09878707
v -0.8791145 0.09611678 0.08246505
v -0.9869019 0.02002883 0.07946217
v -1.040205 -0.1056759 -0.004713833
v -1.033475 -0.09347749 0.07749832
v -0.9915363 -0.1431339 0.1167636
v -0.9967505 -0.1930358 -0.004713833
v -0.9767448 -0.08625484 -0.09134156
v -0.9295541 -0.1333678 -0.1208332
v -0.543034 0.06317496 -0.1066722
v -0.8839077 -0.007664919 -0.1335139
v -0.8259608 0.03340554 -0.1389658
v -0.5778166 0.1312907 0.0840317
v -0.5833904 0.06407189 0.1283769
v -0.8876182 0.03371549 0.1268101
v -0.9485053 -0.01031327 0.1232791
v -0.919027 -0.03060365 -0.004651785
v -0.8456613 0.03284192 -0.008191288
v -0.5563369 0.06275678 0.02278382
v 0 0.04088378 0.0317573
v 0 0.07814336 0.1389658
v 0.9967505 -0.1930358 -0.004713833
v 1.040205 -0.1056759 -0.004713833
v 0.946566 0.03190875 -0.09878707
v 1.033475 -0.09347749 0.07749832
v 0.9915363 -0.1431339 0.1167636
v 0.9967505 -0.1930358 -0.004713833
v 0.9485053 -0.01031327 0.1232791
v 0.9915363 -0.1431339 0.1167636
v 0.9295541 -0.1333678 -0.1208332
v 0.8839077 -0.007664919 -0.1335139
v 0.5833904 0.06407189 0.1283769
v 0.8876182 0.03371549 0.1268101
v 0.8259608 0.03340554 -0.1389658
v 0.543034 0.06317496 -0.137399
v 0.946566 0.03190875 -0.09878707
v 0 0.07814336 0.1389658
v 0 0.08265519 -0.1046097
v 0 0.1564486 -0.06828481
v 0 0.1930358 0.02727795
v -0.9967505 -0.1930358 -0.004713833
v -1.040205 -0.1056759 -0.004713833
v 0 0.08265519 -0.1046097
v -0.946566 0.03190875 -0.09878707
v -1.033475 -0.09347749 0.07749832
v -0.9915363 -0.1431339 0.1167636
v -0.9967505 -0.1930358 -0.004713833
v -0.9485053 -0.01031327 0.1232791
v -0.9915363 -0.1431339 0.1167636
v -0.9295541 -0.1333678 -0.1208332
v -0.8839077 -0.007664919 -0.1335139
v -0.5833904 0.06407189 0.1283769
v -0.8876182 0.03371549 0.1268101
v -0.8259608 0.03340554 -0.1389658
v -0.543034 0.06317496 -0.1066722
v -0.946566 0.03190875 -0.09878707
v 0 0.1592214 0.08609402
v 0 0.07814336 0.1389658
v 0 0.04088378 0.0317573
v 0 0.07814336 0.1389658
v 0 0.08265519 -0.1046097
vt 0.1471661 0.1856521
vt 0.1569843 0.1190428
vt 0.1469496 0.1190963
vt 0.1467851 0.08436799
vt 0.1568198 0.08428001
vt 0.1570745 0.06831932
vt 0.1471897 0.06989992
vt 0.1662224 0.08419204
vt 0.1659071 0.07053542
vt 0.1570681 0.05689394
vt 0.1657009 0.06027257
vt 0.1698239 0.05566156
vt 0.1570681 0.05116844
vt 0.1479715 0.06176031
vt 0.1448746 0.0559541
vt 0.1431352 0.1190963
vt 0.1433517 0.1856521
vt 0.1435431 0.07090855
vt 0.1429706 0.08436799
vt 0.1663868 0.118989
vt 0.1710435 0.118989
vt 0.1708789 0.08419204
vt 0.1705081 0.07058823
vt 0.1842836 0.119945
vt 0.1840569 0.125162
vt 0.1840728 0.145981
vt 0.1572009 0.1856521
vt 0.1666034 0.1856521
vt 0.1569843 0.1190428
vt 0.1469496 0.1190963
vt 0.1467851 0.08436799
vt 0.1568198 0.08428001
vt 0.1570745 0.06831932
vt 0.1471897 0.06989992
vt 0.1662224 0.08419204
vt 0.1659071 0.07053542
vt 0.1570681 0.05689394
vt 0.1657009 0.06027257
vt 0.1698239 0.05566156
vt 0.1570681 0.05116844
vt 0.1479715 0.06176031
vt 0.1448746 0.0559541
vt 0.1431352 0.1190963
vt 0.1435431 0.07090855
vt 0.1429706 0.08436799
vt 0.1663868 0.118989
vt 0.1710435 0.118989
vt 0.1708789 0.08419204
vt 0.1705081 0.07058823
vt 0.1842836 0.119945
vt 0.1840569 0.125162
vt 0.1840728 0.145981
vt 0.1840728 0.1860058
vt 0.1712601 0.1856521
vt 0.1570681 0.05116844
vt 0.1570681 0.05689394
vt 0.1471897 0.06989992
vt 0.1657009 0.06027257
vt 0.1698239 0.05566156
vt 0.1842795 0.1143569
vt 0.1924748 0.1198475
vt 0.1920575 0.1167506
vt 0.1768447 0.1169065
vt 0.1760327 0.1200317
vt 0.1928012 0.1453576
vt 0.1927009 0.1241401
vt 0.1756837 0.1242472
vt 0.1757841 0.1454231
vt 0.1471897 0.06989992
vt 0.1929333 0.1860058
vt 0.175916 0.1860058
vt 0.1471661 0.1856521
vt 0.1572009 0.1856521
vt 0.1570681 0.05116844
vt 0.1570681 0.05689394
vt 0.1433517 0.1856521
vt 0.1471897 0.06989992
vt 0.1657009 0.06027257
vt 0.1698239 0.05566156
vt 0.1842795 0.1143569
vt 0.1924748 0.1198475
vt 0.1920575 0.1167506
vt 0.1768447 0.1169065
vt 0.1760327 0.1200317
vt 0.1928012 0.1453576
vt 0.1927009 0.1241401
vt 0.1756837 0.1242472
vt 0.1757841 0.1454231
vt 0.1471897 0.06989992
vt 0.1666034 0.1856521
vt 0.1712601 0.1856521
vt 0.1840728 0.1860058
vt 0.1929333 0.1860058
vt 0.175916 0.1860058
vn -0.01794744 0.7542675 -0.6563219
vn 0.08190944 0.9966372 -0.002260044
vn 0.0395941 0.7492111 -0.6611468
vn 0.2383059 0.7188348 -0.6530597
vn 0.3150009 0.9479933 -0.04564177
vn 0.7811055 0.6083961 -0.1404576
vn 0.5789502 0.4440376 -0.6838472
vn 0.3013453 0.7762567 0.5537297
vn 0.711933 0.5116739 0.4809793
vn 0.8564473 -0.4776427 0.1958454
vn 0.8564473 -0.4776427 0.1958454
vn 0.8564473 -0.4776427 0.1958454
vn 0.8564473 -0.4776428 0.1958454
vn 0.7083727 -0.03633108 -0.7049029
vn 0.6148752 -0.1463905 -0.7749183
vn 0.009244544 0.4803649 -0.87702
vn -0.02493068 0.4630034 -0.8860059
vn 0.3788124 0.2528878 -0.8902522
vn 0.1845446 0.4504598 -0.8735154
vn 0.06997275 0.7785273 0.6236979
vn 0.0486707 0.559387 0.8274764
vn 0.2854959 0.5667372 0.7728525
vn 0.5234202 0.3802934 0.7625012
vn -0.7957288 -0.5720135 0.1990383
vn -0.3652551 -0.9275317 0.07920601
vn -0.04840219 -0.9987368 0.01349183
vn -0.001669073 0.9983577 0.0572621
vn 0.003375242 0.7482476 0.6634109
vn -0.07762779 0.9953002 0.05789154
vn -0.02601751 0.7603386 -0.6490058
vn -0.202823 0.7221735 -0.6613079
vn -0.3124325 0.9491012 -0.03990998
vn -0.7811056 0.6083961 -0.1404577
vn -0.5789502 0.4440377 -0.6838473
vn -0.3042339 0.7674677 0.5643004
vn -0.711933 0.5116739 0.4809793
vn -0.8564473 -0.4776427 0.1958454
vn -0.8564473 -0.4776427 0.1958454
vn -0.8564473 -0.4776427 0.1958454
vn -0.8564473 -0.4776428 0.1958454
vn -0.7083727 -0.03633109 -0.7049029
vn -0.6148752 -0.1463905 -0.7749183
vn 0.01185791 0.4840442 -0.8749632
vn -0.3788124 0.2528878 -0.8902522
vn -0.1460325 0.4568753 -0.8774619
vn -0.07229923 0.7549289 0.6518093
vn -0.0486707 0.559387 0.8274764
vn -0.285496 0.5667372 0.7728525
vn -0.5234202 0.3802934 0.7625012
vn 0.7957288 -0.5720135 0.1990383
vn 0.364554 -0.9277517 0.07985771
vn 0.04553977 -0.9986524 0.02489363
vn -0.001030104 -0.9999591 0.008992334
vn 0 0.5490124 0.8358142
vn 0.7180454 -0.3523889 -0.600194
vn 0.9281937 0.05378202 -0.3681901
vn 0.5789502 0.4440376 -0.6838472
vn 0.8223119 0.2729762 0.4992865
vn 0.6054738 0.1936746 0.7719402
vn -0.9014619 -0.3738867 0.2181172
vn -0.7772424 -0.5905419 0.2171511
vn -0.9065218 -0.3750717 0.1937509
vn -0.8944255 -0.3720989 0.2480834
vn -0.7529726 -0.643479 0.1377207
vn -0.05045547 -0.9948794 0.08757397
vn -0.4134656 -0.8977079 0.1522064
vn -0.3489492 -0.9365317 0.03380601
vn -0.05402905 -0.9955229 -0.07755685
vn 0.5789502 0.4440376 -0.6838472
vn 0.001911284 -0.9861108 0.1660779
vn -0.004432006 -0.9876583 -0.1565609
vn -0.01794744 0.7542675 -0.6563219
vn -0.001669073 0.9983577 0.0572621
vn -0.7180454 -0.3523889 -0.600194
vn -0.9281937 0.053782 -0.3681901
vn -0.02493068 0.4630034 -0.8860059
vn -0.5789502 0.4440377 -0.6838473
vn -0.8223119 0.2729762 0.4992865
vn -0.6054738 0.1936746 0.7719402
vn 0.9014619 -0.3738867 0.2181172
vn 0.7772423 -0.5905419 0.2171511
vn 0.9065218 -0.3750717 0.1937509
vn 0.8944256 -0.3720989 0.2480834
vn 0.7529726 -0.643479 0.1377207
vn 0.05297322 -0.9938617 0.09712288
vn 0.4126444 -0.8978035 0.153862
vn 0.3572425 -0.9333699 0.034617
vn 0.04991458 -0.9958301 -0.07636093
vn -0.5789502 0.4440377 -0.6838473
vn 0.003375242 0.7482476 0.6634109
vn 0 0.5490124 0.8358142
vn -0.001030104 -0.9999591 0.008992334
vn 0.001911284 -0.9861108 0.1660779
vn -0.004432006 -0.9876583 -0.1565609
g tampon_arka_0
f 12/12/12 10/10/10 11/11/11
f 13/13/13 10/10/10 12/12/12
f 1/1/1 16/16/16 17/17/17
f 3/3/3 16/16/16 1/1/1
f 2/2/2 3/3/3 1/1/1
f 4/4/4 3/3/3 2/2/2
f 5/5/5 4/4/4 2/2/2
f 6/6/6 4/4/4 5/5/5
f 9/9/9 6/6/6 5/5/5
f 56/56/56 6/6/6 9/9/9
f 58/58/58 56/56/56 9/9/9
f 7/7/7 18/18/18 19/19/19
f 15/15/15 18/18/18 7/7/7
f 19/19/19 4/4/4 57/57/57
f 3/3/3 4/4/4 19/19/19
f 16/16/16 3/3/3 19/19/19
f 20/20/20 28/28/28 54/54/54
f 21/21/21 20/20/20 54/54/54
f 8/8/8 20/20/20 21/21/21
f 22/22/22 8/8/8 21/21/21
f 9/9/9 8/8/8 22/22/22
f 23/23/23 9/9/9 22/22/22
f 58/58/58 9/9/9 23/23/23
f 59/59/59 58/58/58 23/23/23
f 61/61/61 60/60/60 62/62/62
f 24/24/24 60/60/60 61/61/61
f 25/25/25 24/24/24 61/61/61
f 67/67/67 24/24/24 25/25/25
f 26/26/26 67/67/67 25/25/25
f 68/68/68 67/67/67 26/26/26
f 71/71/71 68/68/68 26/26/26
f 14/14/14 15/15/15 69/69/69
f 55/55/55 15/15/15 14/14/14
f 56/56/56 55/55/55 14/14/14
f 65/65/65 26/26/26 25/25/25
f 53/53/53 26/26/26 65/65/65
f 70/70/70 53/53/53 65/65/65
f 39/39/39 37/37/37 40/40/40
f 38/38/38 37/37/37 39/39/39
f 36/36/36 75/75/75 78/78/78
f 33/33/33 75/75/75 36/36/36
f 32/32/32 33/33/33 36/36/36
f 31/31/31 33/33/33 32/32/32
f 29/29/29 31/31/31 32/32/32
f 30/30/30 31/31/31 29/29/29
f 72/72/72 30/30/30 29/29/29
f 43/43/43 30/30/30 72/72/72
f 76/76/76 43/43/43 72/72/72
f 45/45/45 30/30/30 43/43/43
f 31/31/31 30/30/30 45/45/45
f 77/77/77 31/31/31 45/45/45
f 44/44/44 34/34/34 45/45/45
f 42/42/42 34/34/34 44/44/44
f 46/46/46 91/91/91 90/90/90
f 47/47/47 91/91/91 46/46/46
f 35/35/35 47/47/47 46/46/46
f 48/48/48 47/47/47 35/35/35
f 36/36/36 48/48/48 35/35/35
f 49/49/49 48/48/48 36/36/36
f 78/78/78 49/49/49 36/36/36
f 79/79/79 49/49/49 78/78/78
f 52/52/52 88/88/88 94/94/94
f 87/87/87 88/88/88 52/52/52
f 51/51/51 87/87/87 52/52/52
f 50/50/50 87/87/87 51/51/51
f 81/81/81 50/50/50 51/51/51
f 80/80/80 50/50/50 81/81/81
f 82/82/82 80/80/80 81/81/81
f 41/41/41 74/74/74 75/75/75
f 42/42/42 74/74/74 41/41/41
f 89/89/89 42/42/42 41/41/41
f 92/92/92 52/52/52 94/94/94
f 85/85/85 52/52/52 92/92/92
f 93/93/93 85/85/85 92/92/92
f 2/2/2 28/28/28 20/20/20
f 27/27/27 28/28/28 2/2/2
f 1/1/1 27/27/27 2/2/2
f 6/6/6 7/7/7 4/4/4
f 14/14/14 7/7/7 6/6/6
f 56/56/56 14/14/14 6/6/6
f 24/24/24 63/63/63 60/60/60
f 64/64/64 63/63/63 24/24/24
f 67/67/67 64/64/64 24/24/24
f 25/25/25 66/66/66 65/65/65
f 61/61/61 66/66/66 25/25/25
f 71/71/71 26/26/26 53/53/53
f 29/29/29 73/73/73 72/72/72
f 90/90/90 73/73/73 29/29/29
f 46/46/46 90/90/90 29/29/29
f 33/33/33 41/41/41 75/75/75
f 34/34/34 41/41/41 33/33/33
f 31/31/31 34/34/34 33/33/33
f 50/50/50 84/84/84 87/87/87
f 83/83/83 84/84/84 50/50/50
f 80/80/80 83/83/83 50/50/50
f 51/51/51 86/86/86 81/81/81
f 85/85/85 86/86/86 51/51/51
f 52/52/52 85/85/85 51/51/51
f 5/5/5 8/8/8 9/9/9
f 20/20/20 8/8/8 5/5/5
f 2/2/2 20/20/20 5/5/5
f 32/32/32 46/46/46 29/29/29
f 35/35/35 46/46/46 32/32/32
f 36/36/36 35/35/35 32/32/32
