g tampon_on
v 0.8959988 -0.09382622 0.1709689
v 0.9411224 0.09127946 0.1681945
v 0.9193271 -0.004283232 0.2048718
v 1.124336 -0.0578721 -0.2012127
v 1.166387 0.1247559 -0.1939908
v 1.182082 0.03812834 -0.2134121
v 1.138465 0.03812834 -0.300772
v 1.132955 0.1542476 -0.2411028
v 1.058134 -0.1112398 -0.2510513
v 0.9062334 -0.003169877 0.1076934
v 0.9488894 0.1276046 0.108257
v 0.8829767 -0.1381714 0.1085672
v 1.062299 -0.0669754 0.06048362
v 1.126276 0.1414523 0.07236329
v 1.122532 0.03806623 0.08900014
v 1.045967 0.03806629 0.009851616
v 1.076093 0.1669282 0.03279106
v 0.9998807 -0.1203431 0.03014199
v 0 -0.03304027 0.3007719
v 0.5704349 0.06458481 0.2315792
v 0.5488882 -0.02854614 0.1658189
v 0.5753661 0.1009098 0.1662378
v 0.5336118 -0.164866 0.1671342
v 0.5418315 -0.1205209 0.2343532
v 0.5566013 -0.03097801 0.2682213
v 0 -0.1225832 0.2669586
v 0 -0.1669282 0.1922044
v 0 0.06252237 0.2641861
v -0.5566013 -0.03097801 0.2682213
v -0.5704349 0.06458481 0.2315792
v -0.9411224 0.09127946 0.1681945
v -0.9193271 -0.004283232 0.2048718
v -1.122532 0.03806623 0.08900014
v -1.126276 0.1414523 0.07236329
v -0.8959988 -0.09382622 0.1709689
v -1.062299 -0.0669754 0.06048362
v -1.182082 0.03812834 -0.2134121
v -1.124336 -0.0578721 -0.2012127
v -1.058134 -0.1112398 -0.2510513
v -1.138465 0.03812834 -0.300772
v -1.166387 0.1247559 -0.1939908
v -1.132955 0.1542476 -0.2411028
v -0.5753661 0.1009098 0.1662378
v 0 0.0988474 0.1903915
v -1.076093 0.1669282 0.03279106
v -0.9488894 0.1276046 0.108257
v -0.5418315 -0.1205209 0.2343532
v -0.5336118 -0.164866 0.1671342
v -0.8829767 -0.1381714 0.1085672
v -0.9998807 -0.1203431 0.03014199
v -1.045967 0.03806629 0.009851616
v -0.9062334 -0.003169877 0.1076934
v -0.5488882 -0.02854614 0.1658189
v 0 -0.02824287 0.1703529
v 1.138465 0.03812834 -0.300772
v 1.182082 0.03812834 -0.2134121
v 1.166387 0.1247559 -0.1939908
v 1.126276 0.1414523 0.07236329
v 0.8959988 -0.09382622 0.1709689
v 1.124336 -0.0578721 -0.2012127
v 1.058134 -0.1112398 -0.2510513
v 1.138465 0.03812834 -0.300772
v 0.9998807 -0.1203431 0.03014199
v 1.058134 -0.1112398 -0.2510513
v 1.132955 0.1542476 -0.2411028
v 1.138465 0.03812834 -0.300772
v 1.132955 0.1542476 -0.2411028
v 1.076093 0.1669282 0.03279106
v 0.5336118 -0.164866 0.1671342
v 0.8829767 -0.1381714 0.1085672
v 0.9488894 0.1276046 0.108257
v 0.5488882 -0.02854614 0.1658189
v 0.5753661 0.1009098 0.1662378
v 1.182082 0.03812834 -0.2134121
v 1.124336 -0.0578721 -0.2012127
v 1.166387 0.1247559 -0.1939908
v 1.182082 0.03812834 -0.2134121
v 1.126276 0.1414523 0.07236329
v 1.132955 0.1542476 -0.2411028
v 1.166387 0.1247559 -0.1939908
v 1.132955 0.1542476 -0.2411028
v 0.8829767 -0.1381714 0.1085672
v 0.9062334 -0.003169877 0.1076934
v 0.8829767 -0.1381714 0.1085672
v 0.9488894 0.1276046 0.108257
v 0.9062334 -0.003169877 0.1076934
v 1.076093 0.1669282 0.03279106
v 0.9411224 0.09127946 0.1681945
v 0.9193271 -0.004283232 0.2048718
v 0 -0.1669282 0.1922044
v 0 0.0988474 0.1903915
v 0 -0.02824287 0.1703529
v 0.8959988 -0.09382622 0.1709689
v 0 0.06252237 0.2641861
v 0 -0.03304027 0.3007719
v -1.138465 0.03812834 -0.300772
v -1.166387 0.1247559 -0.1939908
v -1.182082 0.03812834 -0.2134121
v 0 0.0988474 0.1903915
v -1.126276 0.1414523 0.07236329
v -0.8959988 -0.09382622 0.1709689
v -1.124336 -0.0578721 -0.2012127
v -1.058134 -0.1112398 -0.2510513
v -1.138465 0.03812834 -0.300772
v -0.9998807 -0.1203431 0.03014199
v -1.058134 -0.1112398 -0.2510513
v -1.132955 0.1542476 -0.2411028
v -1.076093 0.1669282 0.03279106
v -1.132955 0.1542476 -0.2411028
v -1.138465 0.03812834 -0.300772
v -0.5336118 -0.164866 0.1671342
v -0.8829767 -0.1381714 0.1085672
v -0.9488894 0.1276046 0.108257
v -0.5488882 -0.02854614 0.1658189
v -0.5753661 0.1009098 0.1662378
v -1.182082 0.03812834 -0.2134121
v -1.124336 -0.0578721 -0.2012127
v -1.166387 0.1247559 -0.1939908
v -1.182082 0.03812834 -0.2134121
v -1.132955 0.1542476 -0.2411028
v -1.126276 0.1414523 0.07236329
v -1.166387 0.1247559 -0.1939908
v -1.132955 0.1542476 -0.2411028
v -0.8829767 -0.1381714 0.1085672
v -0.9062334 -0.003169877 0.1076934
v -0.8829767 -0.1381714 0.1085672
v -0.9488894 0.1276046 0.108257
v -1.076093 0.1669282 0.03279106
v -0.9062334 -0.003169877 0.1076934
v 0 -0.1225832 0.2669586
v -0.9411224 0.09127946 0.1681945
v -0.9193271 -0.004283232 0.2048718
v 0 -0.1669282 0.1922044
v 0 -0.02824287 0.1703529
v 0 -0.1669282 0.1922044
v 0 0.0988474 0.1903915
v 0 -0.02824287 0.1703529
v -0.8959988 -0.09382622 0.1709689
vt 0.1458719 0.3686869
vt 0.1653094 0.3688627
vt 0.1552747 0.3687748
vt 0.1496474 0.3369281
vt 0.1688247 0.3384017
vt 0.159728 0.3335818
vt 0.159728 0.3277843
vt 0.1719214 0.3324807
vt 0.1440435 0.3321937
vt 0.179311 0.4123564
vt 0.1691238 0.3688627
vt 0.1412154 0.3686869
vt 0.1486915 0.3481976
vt 0.1705778 0.3475624
vt 0.1597216 0.3461272
vt 0.1819511 0.4030616
vt 0.173253 0.3503168
vt 0.1430874 0.3500025
vt 0.1522549 0.4779707
vt 0.1625062 0.4114147
vt 0.1776862 0.4379458
vt 0.1663205 0.4114147
vt 0.1384123 0.4113074
vt 0.1430689 0.4113074
vt 0.1524715 0.4113612
vt 0.1428524 0.4779707
vt 0.1381958 0.4779707
vt 0.1622897 0.4779707
vt 0.1524715 0.4113612
vt 0.1625062 0.4114147
vt 0.1653094 0.3688627
vt 0.1552747 0.3687748
vt 0.1597216 0.3461272
vt 0.1705778 0.3475624
vt 0.1458719 0.3686869
vt 0.1486915 0.3481976
vt 0.159728 0.3335818
vt 0.1496474 0.3369281
vt 0.1440435 0.3321937
vt 0.159728 0.3277843
vt 0.1688247 0.3384017
vt 0.1719214 0.3324807
vt 0.1663205 0.4114147
vt 0.1661041 0.4779707
vt 0.173253 0.3503168
vt 0.1691238 0.3688627
vt 0.1430689 0.4113074
vt 0.1384123 0.4113074
vt 0.1412154 0.3686869
vt 0.1430874 0.3500025
vt 0.1819511 0.4030616
vt 0.179311 0.4123564
vt 0.1776862 0.4379458
vt 0.1776862 0.4779707
vt 0.159728 0.3277843
vt 0.159728 0.3335818
vt 0.1688247 0.3384017
vt 0.1705778 0.3475624
vt 0.1458719 0.3686869
vt 0.1496474 0.3369281
vt 0.1440435 0.3321937
vt 0.1819552 0.3964386
vt 0.1718085 0.4029641
vt 0.1723914 0.3988323
vt 0.1893901 0.3989878
vt 0.1819552 0.3964386
vt 0.1893901 0.3989878
vt 0.1902021 0.4031484
vt 0.1689578 0.4373224
vt 0.1706669 0.4113344
vt 0.1876842 0.4114414
vt 0.1776862 0.4379458
vt 0.185975 0.4373877
vt 0.159728 0.3335818
vt 0.1496474 0.3369281
vt 0.1688247 0.3384017
vt 0.159728 0.3335818
vt 0.1705778 0.3475624
vt 0.1719214 0.3324807
vt 0.1688247 0.3384017
vt 0.1719214 0.3324807
vt 0.1412154 0.3686869
vt 0.179311 0.4123564
vt 0.1706669 0.4113344
vt 0.1876842 0.4114414
vt 0.179311 0.4123564
vt 0.1902021 0.4031484
vt 0.1653094 0.3688627
vt 0.1552747 0.3687748
vt 0.1688257 0.4779707
vt 0.1858431 0.4779707
vt 0.1776862 0.4779707
vt 0.1458719 0.3686869
vt 0.1622897 0.4779707
vt 0.1522549 0.4779707
vt 0.159728 0.3277843
vt 0.1688247 0.3384017
vt 0.159728 0.3335818
vt 0.1661041 0.4779707
vt 0.1705778 0.3475624
vt 0.1458719 0.3686869
vt 0.1496474 0.3369281
vt 0.1440435 0.3321937
vt 0.1819552 0.3964386
vt 0.1718085 0.4029641
vt 0.1723914 0.3988323
vt 0.1893901 0.3989878
vt 0.1902021 0.4031484
vt 0.1893901 0.3989878
vt 0.1819552 0.3964386
vt 0.1689578 0.4373224
vt 0.1706669 0.4113344
vt 0.1876842 0.4114414
vt 0.1776862 0.4379458
vt 0.185975 0.4373877
vt 0.159728 0.3335818
vt 0.1496474 0.3369281
vt 0.1688247 0.3384017
vt 0.159728 0.3335818
vt 0.1719214 0.3324807
vt 0.1705778 0.3475624
vt 0.1688247 0.3384017
vt 0.1719214 0.3324807
vt 0.1412154 0.3686869
vt 0.179311 0.4123564
vt 0.1706669 0.4113344
vt 0.1876842 0.4114414
vt 0.1902021 0.4031484
vt 0.179311 0.4123564
vt 0.1428524 0.4779707
vt 0.1653094 0.3688627
vt 0.1552747 0.3687748
vt 0.1381958 0.4779707
vt 0.1776862 0.4779707
vt 0.1688257 0.4779707
vt 0.1858431 0.4779707
vt 0.1776862 0.4779707
vt 0.1458719 0.3686869
vn 0.4892725 -0.6286764 0.6044654
vn 0.2634635 0.5746841 0.7748066
vn 0.510218 -0.1463046 0.8475096
vn 0.7526324 -0.5241094 -0.3985645
vn 0.8612728 0.2603144 -0.4364007
vn 0.7526324 -0.5241094 -0.3985645
vn 0.7526324 -0.5241094 -0.3985645
vn 0.8612728 0.2603144 -0.4364007
vn 0.7526324 -0.5241094 -0.3985645
vn -0.1639953 0.01533235 -0.986342
vn 0.03751249 0.8559905 0.5156287
vn 0.1563852 -0.8269026 0.5401629
vn 0.6334968 -0.6703846 0.3863499
vn 0.614797 0.6078424 0.5025458
vn 0.8024377 -0.2087294 0.55904
vn -0.8009012 0.2157312 -0.558585
vn 0.293227 0.9084193 0.2979802
vn 0.5238003 -0.8008378 0.2903314
vn 0 -0.001653481 0.9999987
vn 0.06131598 0.6507698 0.7567952
vn -0.09589416 -0.03366249 -0.9948221
vn 0.0199149 0.8752171 0.4833203
vn 0.09417472 -0.839407 0.5352822
vn 0.1138698 -0.6350459 0.7640356
vn 0.1165717 -0.01422861 0.9930803
vn 0 -0.6365567 0.7712298
vn 0 -0.848935 0.5284972
vn 0 0.6637864 0.7479221
vn -0.1165717 -0.01422854 0.9930803
vn -0.06131598 0.6507699 0.7567952
vn -0.2634636 0.5746841 0.7748064
vn -0.5102181 -0.1463044 0.8475096
vn -0.8024377 -0.2087292 0.5590401
vn -0.6147971 0.6078424 0.5025457
vn -0.4892733 -0.6286759 0.6044652
vn -0.6334973 -0.6703842 0.3863499
vn -0.752633 -0.5241088 -0.3985642
vn -0.752633 -0.5241088 -0.3985642
vn -0.752633 -0.5241088 -0.3985642
vn -0.752633 -0.5241088 -0.3985642
vn -0.8612724 0.2603152 -0.4364009
vn -0.8612724 0.2603152 -0.4364009
vn -0.01991515 0.8752171 0.4833202
vn 0.01976229 0.8859742 0.4633133
vn -0.293227 0.9084194 0.2979801
vn -0.03751251 0.8559906 0.5156287
vn -0.1138697 -0.6350458 0.7640356
vn -0.09417435 -0.839407 0.5352823
vn -0.1563844 -0.8269027 0.5401628
vn -0.5238011 -0.8008372 0.2903313
vn 0.8009014 0.2157311 -0.5585849
vn 0.1639952 0.01533238 -0.986342
vn 0.09589411 -0.03366248 -0.9948221
vn 0 -0.0824483 -0.9965953
vn 0.8612728 0.2603144 -0.4364007
vn 0.8612728 0.2603144 -0.4364007
vn 0.8612728 0.2603144 -0.4364007
vn 0.614797 0.6078424 0.5025458
vn 0.1563852 -0.8269026 0.5401629
vn 0.5953977 -0.7965123 0.1052127
vn 0.5953977 -0.7965123 0.1052127
vn -0.9176747 0.324897 -0.2287252
vn -0.8009012 0.2157312 -0.558585
vn -0.9176747 0.324897 -0.2287252
vn -0.9522798 0.1790428 -0.2471979
vn -0.9522798 0.1790428 -0.2471979
vn -0.9522798 0.1790428 -0.2471979
vn -0.8098219 0.2179599 -0.5446853
vn -0.09589416 -0.03366249 -0.9948221
vn -0.1639953 0.01533235 -0.986342
vn -0.1599363 0.04621222 -0.9860451
vn -0.09297004 0.06430458 -0.9935902
vn -0.09297004 0.06430458 -0.9935902
vn 0.8431751 -0.5088859 0.1734673
vn 0.8431751 -0.5088859 0.1734673
vn 0.847006 0.5173059 0.1223736
vn 0.9835498 0.0593603 0.1706053
vn 0.614797 0.6078424 0.5025458
vn 0.515071 0.855917 0.04591218
vn 0.847006 0.5173059 0.1223736
vn 0.515071 0.855917 0.04591218
vn 0.4315578 -0.773599 0.4640069
vn -0.5765181 0.07757967 -0.8133931
vn -0.5765181 0.07757967 -0.8133931
vn -0.5780343 0.2328344 -0.7820898
vn -0.5780343 0.2328344 -0.7820898
vn -0.8098219 0.2179599 -0.5446853
vn 0.08375096 0.6378065 0.7656295
vn 0.1743137 -0.02677183 0.9843262
vn 0 -0.0824483 -0.9965953
vn -0.02555118 0.08208385 -0.9962978
vn -0.02555118 0.08208385 -0.9962978
vn 0.1883926 -0.3823987 0.9045881
vn 0 0.6637864 0.7479221
vn 0 -0.001653481 0.9999987
vn -0.8612724 0.2603152 -0.4364009
vn -0.8612724 0.2603152 -0.4364009
vn -0.8612724 0.2603152 -0.4364009
vn -0.01976224 0.8859742 0.4633133
vn -0.6147971 0.6078424 0.5025457
vn -0.1563844 -0.8269027 0.5401628
vn -0.5953982 -0.7965119 0.105213
vn -0.5953982 -0.7965119 0.105213
vn 0.9176747 0.3248968 -0.228725
vn 0.8009014 0.2157311 -0.5585849
vn 0.9176747 0.3248968 -0.228725
vn 0.9522799 0.1790427 -0.2471979
vn 0.809822 0.2179598 -0.5446851
vn 0.9522799 0.1790427 -0.2471979
vn 0.9522799 0.1790427 -0.2471979
vn 0.09589411 -0.03366248 -0.9948221
vn 0.1639952 0.01533238 -0.986342
vn 0.1599364 0.04621224 -0.9860451
vn 0.09297013 0.0643046 -0.9935902
vn 0.09297013 0.0643046 -0.9935902
vn -0.8431752 -0.5088857 0.1734675
vn -0.8431752 -0.5088857 0.1734675
vn -0.847006 0.5173061 0.1223735
vn -0.9835497 0.05936054 0.1706053
vn -0.515071 0.855917 0.04591205
vn -0.6147971 0.6078424 0.5025457
vn -0.847006 0.5173061 0.1223735
vn -0.515071 0.855917 0.04591205
vn -0.4315592 -0.7735985 0.4640066
vn 0.5765184 0.07757957 -0.8133928
vn 0.5765184 0.07757957 -0.8133928
vn 0.5780348 0.2328344 -0.7820894
vn 0.809822 0.2179598 -0.5446851
vn 0.5780348 0.2328344 -0.7820894
vn 0 -0.6365567 0.7712298
vn -0.08375108 0.6378067 0.7656294
vn -0.1743136 -0.02677171 0.9843262
vn 0 -0.848935 0.5284972
vn 0 -0.0824483 -0.9965953
vn 0 -0.0824483 -0.9965953
vn 0.02555121 0.08208385 -0.9962978
vn 0.02555121 0.08208385 -0.9962978
vn -0.1883927 -0.3823986 0.9045881
g tampon_on_0
f 55/55/55 5/5/5 56/56/56
f 8/8/8 57/57/57 55/55/55
f 16/16/16 65/65/65 66/66/66
f 68/68/68 67/67/67 16/16/16
f 79/79/79 78/78/78 80/80/80
f 96/96/96 41/41/41 42/42/42
f 98/98/98 97/97/97 96/96/96
f 51/51/51 107/107/107 108/108/108
f 110/110/110 109/109/109 51/51/51
f 122/122/122 121/121/121 123/123/123
f 13/13/13 1/1/1 82/82/82
f 3/3/3 1/1/1 13/13/13
f 15/15/15 3/3/3 13/13/13
f 2/2/2 3/3/3 15/15/15
f 14/14/14 2/2/2 15/15/15
f 9/9/9 6/6/6 4/4/4
f 7/7/7 6/6/6 9/9/9
f 28/28/28 22/22/22 44/44/44
f 20/20/20 22/22/22 28/28/28
f 25/25/25 20/20/20 28/28/28
f 88/88/88 20/20/20 25/25/25
f 89/89/89 88/88/88 25/25/25
f 58/58/58 11/11/11 2/2/2
f 17/17/17 11/11/11 58/58/58
f 81/81/81 17/17/17 58/58/58
f 24/24/24 26/26/26 27/27/27
f 23/23/23 24/24/24 27/27/27
f 59/59/59 24/24/24 23/23/23
f 12/12/12 59/59/59 23/23/23
f 18/18/18 13/13/13 82/82/82
f 60/60/60 13/13/13 18/18/18
f 61/61/61 60/60/60 18/18/18
f 63/63/63 62/62/62 64/64/64
f 16/16/16 62/62/62 63/63/63
f 83/83/83 16/16/16 63/63/63
f 69/69/69 10/10/10 70/70/70
f 21/21/21 10/10/10 69/69/69
f 54/54/54 21/21/21 69/69/69
f 72/72/72 71/71/71 10/10/10
f 73/73/73 71/71/71 72/72/72
f 91/91/91 73/73/73 72/72/72
f 74/74/74 13/13/13 75/75/75
f 15/15/15 13/13/13 74/74/74
f 76/76/76 15/15/15 77/77/77
f 58/58/58 15/15/15 76/76/76
f 83/83/83 63/63/63 84/84/84
f 85/85/85 16/16/16 86/86/86
f 87/87/87 16/16/16 85/85/85
f 54/54/54 69/69/69 90/90/90
f 91/91/91 72/72/72 92/92/92
f 25/25/25 19/19/19 26/26/26
f 24/24/24 25/25/25 26/26/26
f 89/89/89 25/25/25 24/24/24
f 93/93/93 89/89/89 24/24/24
f 33/33/33 31/31/31 34/34/34
f 32/32/32 31/31/31 33/33/33
f 36/36/36 32/32/32 33/33/33
f 35/35/35 32/32/32 36/36/36
f 124/124/124 35/35/35 36/36/36
f 39/39/39 37/37/37 40/40/40
f 38/38/38 37/37/37 39/39/39
f 29/29/29 131/131/131 132/132/132
f 30/30/30 131/131/131 29/29/29
f 94/94/94 30/30/30 29/29/29
f 43/43/43 30/30/30 94/94/94
f 99/99/99 43/43/43 94/94/94
f 100/100/100 45/45/45 120/120/120
f 46/46/46 45/45/45 100/100/100
f 31/31/31 46/46/46 100/100/100
f 47/47/47 133/133/133 130/130/130
f 48/48/48 133/133/133 47/47/47
f 101/101/101 48/48/48 47/47/47
f 49/49/49 48/48/48 101/101/101
f 50/50/50 102/102/102 103/103/103
f 36/36/36 102/102/102 50/50/50
f 124/124/124 36/36/36 50/50/50
f 105/105/105 51/51/51 125/125/125
f 104/104/104 51/51/51 105/105/105
f 106/106/106 104/104/104 105/105/105
f 111/111/111 53/53/53 134/134/134
f 52/52/52 53/53/53 111/111/111
f 112/112/112 52/52/52 111/111/111
f 114/114/114 115/115/115 136/136/136
f 113/113/113 115/115/115 114/114/114
f 52/52/52 113/113/113 114/114/114
f 36/36/36 116/116/116 117/117/117
f 33/33/33 116/116/116 36/36/36
f 118/118/118 33/33/33 100/100/100
f 119/119/119 33/33/33 118/118/118
f 126/126/126 105/105/105 125/125/125
f 127/127/127 51/51/51 128/128/128
f 129/129/129 51/51/51 127/127/127
f 135/135/135 111/111/111 134/134/134
f 137/137/137 114/114/114 136/136/136
f 29/29/29 130/130/130 95/95/95
f 47/47/47 130/130/130 29/29/29
f 132/132/132 47/47/47 29/29/29
f 138/138/138 47/47/47 132/132/132
f 25/25/25 28/28/28 19/19/19
f 11/11/11 20/20/20 88/88/88
f 22/22/22 20/20/20 11/11/11
f 95/95/95 94/94/94 29/29/29
f 46/46/46 30/30/30 43/43/43
f 131/131/131 30/30/30 46/46/46
