g tampon_arka
v 0 -0.06828485 -0.1564484
v 0.5649089 -0.005511147 -0.1651581
v 0.5493193 -0.1010738 -0.1285184
v 0.8355452 -0.1026406 -0.0933431
v 0.8593725 -0.007077915 -0.13002
v 0.9953109 -0.004651768 -0.0485452
v 0.946566 -0.09878705 -0.03190883
v 0.8791145 0.08246507 -0.09611686
v 0.9869019 0.07946219 -0.02002891
v 1.040205 -0.004713816 0.1056761
v 1.033475 0.07749833 0.09347741
v 0.9915363 0.1167636 0.1431338
v 0.9967505 -0.004713816 0.193036
v 0.9767448 -0.09134154 0.08625499
v 0.9295541 -0.1208332 0.1333679
v 0.543034 -0.1373989 -0.06317504
v 0 -0.1046097 -0.08265527
v 0.8839077 -0.1335139 0.00766484
v 0.8259608 -0.1389658 -0.03340562
v 0.5778166 0.08403172 -0.1312907
v 0.5833904 0.1283769 -0.06407174
v 0.8876182 0.1268101 -0.03371556
v 0.9485053 0.1232791 0.01031319
v 0.919027 -0.004651768 0.03060357
v 0.8456613 -0.00819127 -0.032842
v 0.5563369 -0.007942957 -0.06275662
v 0 0.02727796 -0.1930359
v 0 0.08609404 -0.1592215
v -0.5649089 0.02521564 -0.1651581
v -0.5493193 -0.07034706 -0.1285184
v -0.8355452 -0.1026406 -0.0933431
v -0.8593725 -0.007077915 -0.13002
v -0.9953109 -0.004651768 -0.0485452
v -0.946566 -0.09878705 -0.03190883
v -0.8791145 0.08246507 -0.09611686
v -0.9869019 0.07946219 -0.02002891
v -1.040205 -0.004713816 0.1056761
v -1.033475 0.07749833 0.09347741
v -0.9915363 0.1167636 0.1431338
v -0.9967505 -0.004713816 0.193036
v -0.9767448 -0.09134154 0.08625499
v -0.9295541 -0.1208332 0.1333679
v -0.543034 -0.1066722 -0.06317504
v -0.8839077 -0.1335139 0.00766484
v -0.8259608 -0.1389658 -0.03340562
v -0.5778166 0.08403172 -0.1312907
v -0.5833904 0.1283769 -0.06407174
v -0.8876182 0.1268101 -0.03371556
v -0.9485053 0.1232791 0.01031319
v -0.919027 -0.004651768 0.03060357
v -0.8456613 -0.00819127 -0.032842
v -0.5563369 0.02278383 -0.06275686
v 0 0.03175731 -0.04088362
v 0 0.1389659 -0.07814344
v 0.9967505 -0.004713816 0.193036
v 1.040205 -0.004713816 0.1056761
v 0.946566 -0.09878705 -0.03190883
v 0.8791145 0.08246507 -0.09611686
v 1.033475 0.07749833 0.09347741
v 0.9915363 0.1167636 0.1431338
v 0.9967505 -0.004713816 0.193036
v 0.9485053 0.1232791 0.01031319
v 0.9915363 0.1167636 0.1431338
v 0.9295541 -0.1208332 0.1333679
v 0.919027 -0.004651768 0.03060357
v 0.9967505 -0.004713816 0.193036
v 0.8839077 -0.1335139 0.00766484
v 0.5833904 0.1283769 -0.06407174
v 0.8876182 0.1268101 -0.03371556
v 0.8259608 -0.1389658 -0.03340562
v 0.5563369 -0.007942957 -0.06275662
v 0.543034 -0.1373989 -0.06317504
v 1.040205 -0.004713816 0.1056761
v 1.033475 0.07749833 0.09347741
v 0.9767448 -0.09134154 0.08625499
v 1.040205 -0.004713816 0.1056761
v 0.946566 -0.09878705 -0.03190883
v 0.9295541 -0.1208332 0.1333679
v 0.8876182 0.1268101 -0.03371556
v 0.8456613 -0.00819127 -0.032842
v 0.8876182 0.1268101 -0.03371556
v 0.8259608 -0.1389658 -0.03340562
v 0.8456613 -0.00819127 -0.032842
v 0.8355452 -0.1026406 -0.0933431
v 0.8593725 -0.007077915 -0.13002
v 0.8259608 -0.1389658 -0.03340562
v 0 0.1389659 -0.07814344
v 0 -0.1046097 -0.08265527
v 0 0.03175731 -0.04088362
v 0.8791145 0.08246507 -0.09611686
v 0 -0.06828485 -0.1564484
v 0 0.02727796 -0.1930359
v -0.9967505 -0.004713816 0.193036
v -1.040205 -0.004713816 0.1056761
v 0 -0.1046097 -0.08265527
v -0.946566 -0.09878705 -0.03190883
v -0.8791145 0.08246507 -0.09611686
v -1.033475 0.07749833 0.09347741
v -0.9915363 0.1167636 0.1431338
v -0.9967505 -0.004713816 0.193036
v -0.9485053 0.1232791 0.01031319
v -0.9915363 0.1167636 0.1431338
v -0.9295541 -0.1208332 0.1333679
v -0.919027 -0.004651768 0.03060357
v -0.8839077 -0.1335139 0.00766484
v -0.9967505 -0.004713816 0.193036
v -0.5833904 0.1283769 -0.06407174
v -0.8876182 0.1268101 -0.03371556
v -0.8259608 -0.1389658 -0.03340562
v -0.5563369 0.02278383 -0.06275686
v -0.543034 -0.1066722 -0.06317504
v -1.040205 -0.004713816 0.1056761
v -1.033475 0.07749833 0.09347741
v -0.9767448 -0.09134154 0.08625499
v -1.040205 -0.004713816 0.1056761
v -0.9295541 -0.1208332 0.1333679
v -0.946566 -0.09878705 -0.03190883
v -0.8876182 0.1268101 -0.03371556
v -0.8456613 -0.00819127 -0.032842
v -0.8876182 0.1268101 -0.03371556
v -0.8259608 -0.1389658 -0.03340562
v -0.8456613 -0.00819127 -0.032842
v 0 0.08609404 -0.1592215
v -0.8355452 -0.1026406 -0.0933431
v -0.8593725 -0.007077915 -0.13002
v -0.8259608 -0.1389658 -0.03340562
v 0 0.1389659 -0.07814344
v 0 0.03175731 -0.04088362
v 0 0.1389659 -0.07814344
v 0 -0.1046097 -0.08265527
v 0 0.03175731 -0.04088362
v -0.8791145 0.08246507 -0.09611686
vt 0.1471661 0.1856521
vt 0.1569843 0.1190428
vt 0.1469496 0.1190963
vt 0.1467851 0.08436799
vt 0.1568198 0.08428001
vt 0.1570745 0.06831932
vt 0.1471897 0.06989992
vt 0.1662224 0.08419204
vt 0.1659071 0.07053542
vt 0.1570681 0.05689394
vt 0.1657009 0.06027257
vt 0.1698239 0.05566156
vt 0.1570681 0.05116844
vt 0.1479715 0.06176031
vt 0.1448746 0.0559541
vt 0.1431352 0.1190963
vt 0.1433517 0.1856521
vt 0.1435431 0.07090855
vt 0.1429706 0.08436799
vt 0.1663868 0.118989
vt 0.1710435 0.118989
vt 0.1708789 0.08419204
vt 0.1705081 0.07058823
vt 0.1842836 0.119945
vt 0.1840569 0.125162
vt 0.1840728 0.145981
vt 0.1572009 0.1856521
vt 0.1666034 0.1856521
vt 0.1569843 0.1190428
vt 0.1469496 0.1190963
vt 0.1467851 0.08436799
vt 0.1568198 0.08428001
vt 0.1570745 0.06831932
vt 0.1471897 0.06989992
vt 0.1662224 0.08419204
vt 0.1659071 0.07053542
vt 0.1570681 0.05689394
vt 0.1657009 0.06027257
vt 0.1698239 0.05566156
vt 0.1570681 0.05116844
vt 0.1479715 0.06176031
vt 0.1448746 0.0559541
vt 0.1431352 0.1190963
vt 0.1435431 0.07090855
vt 0.1429706 0.08436799
vt 0.1663868 0.118989
vt 0.1710435 0.118989
vt 0.1708789 0.08419204
vt 0.1705081 0.07058823
vt 0.1842836 0.119945
vt 0.1840569 0.125162
vt 0.1840728 0.145981
vt 0.1840728 0.1860058
vt 0.1712601 0.1856521
vt 0.1570681 0.05116844
vt 0.1570681 0.05689394
vt 0.1471897 0.06989992
vt 0.1662224 0.08419204
vt 0.1657009 0.06027257
vt 0.1698239 0.05566156
vt 0.1842795 0.1143569
vt 0.1924748 0.1198475
vt 0.1920575 0.1167506
vt 0.1768447 0.1169065
vt 0.1842836 0.119945
vt 0.1842795 0.1143569
vt 0.1760327 0.1200317
vt 0.1928012 0.1453576
vt 0.1927009 0.1241401
vt 0.1756837 0.1242472
vt 0.1840728 0.145981
vt 0.1757841 0.1454231
vt 0.1570681 0.05689394
vt 0.1657009 0.06027257
vt 0.1479715 0.06176031
vt 0.1570681 0.05689394
vt 0.1471897 0.06989992
vt 0.1448746 0.0559541
vt 0.1708789 0.08419204
vt 0.1840569 0.125162
vt 0.1927009 0.1241401
vt 0.1756837 0.1242472
vt 0.1840569 0.125162
vt 0.1467851 0.08436799
vt 0.1568198 0.08428001
vt 0.1429706 0.08436799
vt 0.1929333 0.1860058
vt 0.175916 0.1860058
vt 0.1840728 0.1860058
vt 0.1662224 0.08419204
vt 0.1471661 0.1856521
vt 0.1572009 0.1856521
vt 0.1570681 0.05116844
vt 0.1570681 0.05689394
vt 0.1433517 0.1856521
vt 0.1471897 0.06989992
vt 0.1662224 0.08419204
vt 0.1657009 0.06027257
vt 0.1698239 0.05566156
vt 0.1842795 0.1143569
vt 0.1924748 0.1198475
vt 0.1920575 0.1167506
vt 0.1768447 0.1169065
vt 0.1842836 0.119945
vt 0.1760327 0.1200317
vt 0.1842795 0.1143569
vt 0.1928012 0.1453576
vt 0.1927009 0.1241401
vt 0.1756837 0.1242472
vt 0.1840728 0.145981
vt 0.1757841 0.1454231
vt 0.1570681 0.05689394
vt 0.1657009 0.06027257
vt 0.1479715 0.06176031
vt 0.1570681 0.05689394
vt 0.1448746 0.0559541
vt 0.1471897 0.06989992
vt 0.1708789 0.08419204
vt 0.1840569 0.125162
vt 0.1927009 0.1241401
vt 0.1756837 0.1242472
vt 0.1840569 0.125162
vt 0.1666034 0.1856521
vt 0.1467851 0.08436799
vt 0.1568198 0.08428001
vt 0.1429706 0.08436799
vt 0.1712601 0.1856521
vt 0.1840728 0.1860058
vt 0.1929333 0.1860058
vt 0.175916 0.1860058
vt 0.1840728 0.1860058
vt 0.1662224 0.08419204
vn -0.01857267 -0.6659993 -0.745721
vn 0.08194369 0.002406445 -0.9966341
vn 0.04092191 -0.661838 -0.7485291
vn 0.4002672 -0.6667013 -0.6287253
vn 0.5253024 -0.07567336 -0.8475441
vn 0.7819762 -0.1524093 -0.6043878
vn 0.5587834 -0.7249374 -0.4027739
vn 0.4909293 0.5084928 -0.7074063
vn 0.6852548 0.513896 -0.5160781
vn 0.8564475 0.1958472 0.4776418
vn 0.8564475 0.1958472 0.4776418
vn 0.8564475 0.1958472 0.4776418
vn 0.8564475 0.1958472 0.4776418
vn 0.7180454 -0.6001942 0.3523888
vn 0.7180454 -0.6001942 0.3523888
vn 0.009415251 -0.8769825 -0.48043
vn -0.02486796 -0.8860108 -0.4629973
vn 0.3842541 -0.8909149 -0.2421145
vn 0.2934816 -0.8658558 -0.4051695
vn 0.06904063 0.6278254 -0.7752861
vn 0.04736231 0.8280216 -0.5586923
vn 0.06574874 0.8201714 -0.5683275
vn 0.5235871 0.7625468 -0.3799722
vn -0.7812337 0.2167178 0.585412
vn -0.1008633 0.03367565 0.9943302
vn -0.04378467 0.09464853 0.9945475
vn -0.001912278 0.0506522 -0.9987146
vn 0.003312206 0.6671841 -0.7448855
vn -0.07945657 0.04166023 -0.9959674
vn -0.02469254 -0.6594121 -0.751376
vn -0.4002676 -0.6667014 -0.6287251
vn -0.5253024 -0.07567324 -0.8475441
vn -0.7819762 -0.152409 -0.6043878
vn -0.5587835 -0.7249374 -0.4027737
vn -0.4909295 0.5084928 -0.7074062
vn -0.6852548 0.5138963 -0.5160779
vn -0.8564475 0.1958467 0.4776421
vn -0.8564475 0.1958467 0.4776421
vn -0.8564475 0.1958467 0.4776421
vn -0.8564475 0.1958467 0.4776421
vn -0.7180453 -0.6001943 0.3523887
vn -0.7180453 -0.6001943 0.3523887
vn 0.01175498 -0.8750075 -0.4839666
vn -0.3842539 -0.890915 -0.2421142
vn -0.2934819 -0.8658559 -0.405169
vn -0.06956404 0.6573669 -0.750353
vn -0.04736228 0.8280215 -0.5586925
vn -0.06574877 0.8201712 -0.5683277
vn -0.5235873 0.762547 -0.3799717
vn 0.781234 0.2167176 0.5854118
vn 0.09892206 0.03741899 0.9943914
vn 0.04474825 0.1077096 0.9931749
vn 0.01359944 0.1549611 0.987827
vn 0 0.8358142 -0.5490122
vn 0.7180454 -0.6001942 0.3523888
vn 0.7180454 -0.6001942 0.3523888
vn 0.5587834 -0.7249374 -0.4027739
vn 0.06574874 0.8201714 -0.5683275
vn 0.6054742 0.7719398 -0.1936746
vn 0.6054742 0.7719398 -0.1936746
vn -0.9065217 0.1937516 0.3750718
vn -0.7812337 0.2167178 0.585412
vn -0.9065217 0.1937516 0.3750718
vn -0.8944253 0.248084 0.372099
vn -0.7866495 0.1602548 0.5962391
vn -0.8944253 0.248084 0.372099
vn -0.7866495 0.1602548 0.5962391
vn -0.04378467 0.09464853 0.9945475
vn -0.1008633 0.03367565 0.9943302
vn -0.1036999 0.009398368 0.9945642
vn -0.0561876 -0.07381439 0.9956879
vn -0.0561876 -0.07381439 0.9956879
vn 0.9400704 0.1169895 -0.3202831
vn 0.9400704 0.1169895 -0.3202831
vn 0.6716198 -0.7258754 -0.1484302
vn 0.8312007 -0.5126372 -0.2151942
vn 0.5587834 -0.7249374 -0.4027739
vn 0.461403 -0.884387 -0.07047541
vn 0.4199707 0.7215077 -0.5505008
vn -0.6087066 0.2265795 0.7603539
vn -0.6087066 0.2265795 0.7603539
vn -0.6241476 0.0612769 0.7788998
vn -0.6241476 0.0612769 0.7788998
vn 0.08527213 -0.6570109 -0.7490429
vn 0.1185219 -0.02238781 -0.992699
vn 0.05183207 -0.8667411 -0.4960578
vn 0.01359944 0.1549611 0.987827
vn -0.004367923 -0.1565658 0.9876579
vn -0.004367923 -0.1565658 0.9876579
vn 0.1122179 0.3337331 -0.9359644
vn -0.01857267 -0.6659993 -0.745721
vn -0.001912278 0.0506522 -0.9987146
vn -0.7180453 -0.6001943 0.3523887
vn -0.7180453 -0.6001943 0.3523887
vn -0.02486796 -0.8860108 -0.4629973
vn -0.5587835 -0.7249374 -0.4027737
vn -0.06574877 0.8201712 -0.5683277
vn -0.6054739 0.7719402 -0.193674
vn -0.6054739 0.7719402 -0.193674
vn 0.9065219 0.1937513 0.3750713
vn 0.781234 0.2167176 0.5854118
vn 0.9065219 0.1937513 0.3750713
vn 0.8944255 0.2480838 0.3720989
vn 0.7866496 0.1602545 0.5962389
vn 0.7866496 0.1602545 0.5962389
vn 0.8944255 0.2480838 0.3720989
vn 0.04474825 0.1077096 0.9931749
vn 0.09892206 0.03741899 0.9943914
vn 0.1027157 0.009274099 0.9946675
vn 0.05131587 -0.07410858 0.9959291
vn 0.05131587 -0.07410858 0.9959291
vn -0.9400703 0.11699 -0.3202832
vn -0.9400703 0.11699 -0.3202832
vn -0.6716198 -0.7258755 -0.1484302
vn -0.8312009 -0.5126369 -0.2151942
vn -0.4614025 -0.8843873 -0.07047541
vn -0.5587835 -0.7249374 -0.4027737
vn -0.4199716 0.7215075 -0.5505004
vn 0.6087068 0.2265795 0.7603537
vn 0.6087068 0.2265795 0.7603537
vn 0.6241479 0.06127671 0.7788996
vn 0.6241479 0.06127671 0.7788996
vn 0.003312206 0.6671841 -0.7448855
vn -0.01630889 -0.6523044 -0.7577816
vn -0.1085334 0.009860539 -0.9940439
vn 0.04020574 -0.8621513 -0.5050532
vn 0 0.8358142 -0.5490122
vn -0.009778046 0.1771518 0.984135
vn -0.009778046 0.1771518 0.984135
vn -0.004367923 -0.1565658 0.9876579
vn -0.004367923 -0.1565658 0.9876579
vn -0.129745 0.388225 -0.9123857
g tampon_arka_0
f 4/4/4 57/57/57 19/19/19
f 78/78/78 77/77/77 75/75/75
f 45/45/45 96/96/96 31/31/31
f 114/114/114 117/117/117 116/116/116
f 12/12/12 10/10/10 11/11/11
f 13/13/13 10/10/10 12/12/12
f 55/55/55 14/14/14 56/56/56
f 15/15/15 14/14/14 55/55/55
f 1/1/1 16/16/16 17/17/17
f 3/3/3 16/16/16 1/1/1
f 2/2/2 3/3/3 1/1/1
f 84/84/84 3/3/3 2/2/2
f 85/85/85 84/84/84 2/2/2
f 7/7/7 18/18/18 19/19/19
f 78/78/78 18/18/18 7/7/7
f 20/20/20 28/28/28 54/54/54
f 21/21/21 20/20/20 54/54/54
f 58/58/58 20/20/20 21/21/21
f 22/22/22 58/58/58 21/21/21
f 9/9/9 8/8/8 79/79/79
f 23/23/23 9/9/9 79/79/79
f 59/59/59 9/9/9 23/23/23
f 60/60/60 59/59/59 23/23/23
f 62/62/62 61/61/61 63/63/63
f 24/24/24 61/61/61 62/62/62
f 80/80/80 24/24/24 62/62/62
f 65/65/65 64/64/64 66/66/66
f 67/67/67 64/64/64 65/65/65
f 82/82/82 67/67/67 65/65/65
f 68/68/68 25/25/25 69/69/69
f 26/26/26 25/25/25 68/68/68
f 53/53/53 26/26/26 68/68/68
f 71/71/71 70/70/70 25/25/25
f 72/72/72 70/70/70 71/71/71
f 88/88/88 72/72/72 71/71/71
f 6/6/6 4/4/4 5/5/5
f 9/9/9 6/6/6 5/5/5
f 73/73/73 6/6/6 9/9/9
f 74/74/74 73/73/73 9/9/9
f 6/6/6 7/7/7 4/4/4
f 75/75/75 7/7/7 6/6/6
f 76/76/76 75/75/75 6/6/6
f 80/80/80 62/62/62 81/81/81
f 82/82/82 65/65/65 83/83/83
f 53/53/53 68/68/68 87/87/87
f 88/88/88 71/71/71 89/89/89
f 2/2/2 27/27/27 28/28/28
f 20/20/20 2/2/2 28/28/28
f 85/85/85 2/2/2 20/20/20
f 90/90/90 85/85/85 20/20/20
f 39/39/39 37/37/37 40/40/40
f 38/38/38 37/37/37 39/39/39
f 93/93/93 41/41/41 42/42/42
f 94/94/94 41/41/41 93/93/93
f 29/29/29 124/124/124 125/125/125
f 30/30/30 124/124/124 29/29/29
f 91/91/91 30/30/30 29/29/29
f 43/43/43 30/30/30 91/91/91
f 95/95/95 43/43/43 91/91/91
f 44/44/44 34/34/34 45/45/45
f 116/116/116 34/34/34 44/44/44
f 46/46/46 127/127/127 123/123/123
f 47/47/47 127/127/127 46/46/46
f 97/97/97 47/47/47 46/46/46
f 48/48/48 47/47/47 97/97/97
f 36/36/36 118/118/118 35/35/35
f 49/49/49 118/118/118 36/36/36
f 98/98/98 49/49/49 36/36/36
f 99/99/99 49/49/49 98/98/98
f 101/101/101 50/50/50 119/119/119
f 100/100/100 50/50/50 101/101/101
f 102/102/102 100/100/100 101/101/101
f 104/104/104 105/105/105 121/121/121
f 103/103/103 105/105/105 104/104/104
f 106/106/106 103/103/103 104/104/104
f 107/107/107 52/52/52 128/128/128
f 51/51/51 52/52/52 107/107/107
f 108/108/108 51/51/51 107/107/107
f 110/110/110 111/111/111 130/130/130
f 109/109/109 111/111/111 110/110/110
f 51/51/51 109/109/109 110/110/110
f 33/33/33 32/32/32 31/31/31
f 36/36/36 32/32/32 33/33/33
f 112/112/112 36/36/36 33/33/33
f 113/113/113 36/36/36 112/112/112
f 33/33/33 114/114/114 115/115/115
f 34/34/34 114/114/114 33/33/33
f 31/31/31 34/34/34 33/33/33
f 120/120/120 101/101/101 119/119/119
f 122/122/122 104/104/104 121/121/121
f 129/129/129 107/107/107 128/128/128
f 131/131/131 110/110/110 130/130/130
f 29/29/29 123/123/123 92/92/92
f 46/46/46 123/123/123 29/29/29
f 125/125/125 46/46/46 29/29/29
f 132/132/132 46/46/46 125/125/125
f 2/2/2 1/1/1 27/27/27
f 9/9/9 5/5/5 8/8/8
f 86/86/86 3/3/3 84/84/84
f 16/16/16 3/3/3 86/86/86
f 92/92/92 91/91/91 29/29/29
f 35/35/35 32/32/32 36/36/36
f 126/126/126 30/30/30 43/43/43
f 124/124/124 30/30/30 126/126/126
