g tampon_on
v 0.8959988 -0.170969 -0.09382623
v 0.9411224 -0.1681943 0.09127945
v 0.9193271 -0.2048717 -0.004283249
v 1.124336 0.2012129 -0.05787212
v 1.166387 0.1939907 0.1247559
v 1.182082 0.2134123 0.03812832
v 1.138465 0.3007722 0.03812832
v 1.132955 0.2411027 0.1542476
v 1.058134 0.2510514 -0.1112398
v 0.9062334 -0.1076934 -0.003169894
v 0.9488894 -0.1082571 0.1276046
v 0.8829767 -0.1085672 -0.1381714
v 1.062299 -0.06048346 -0.06697541
v 1.126276 -0.07236314 0.1414523
v 1.122532 -0.08900023 0.03806621
v 1.045967 -0.009851694 0.03806627
v 1.076093 -0.0327909 0.1669282
v 0.9998807 -0.03014207 -0.1203431
v 0 -0.300772 -0.03304029
v 0.5704349 -0.2315793 0.06458479
v 0.5488882 -0.1658187 -0.02854615
v 0.5753661 -0.1662378 0.1009098
v 0.5336118 -0.167134 -0.164866
v 0.5418315 -0.2343531 -0.1205209
v 0.5566013 -0.2682211 -0.03097802
v 0 -0.2669585 -0.1225832
v 0 -0.1922045 -0.1669282
v 0 -0.2641859 0.06252235
v -0.5566013 -0.2682211 -0.03097802
v -0.5704349 -0.2315793 0.06458479
v -0.9411224 -0.1681943 0.09127945
v -0.9193271 -0.2048717 -0.004283249
v -1.122532 -0.08900023 0.03806621
v -1.126276 -0.07236314 0.1414523
v -0.8959988 -0.170969 -0.09382623
v -1.062299 -0.06048346 -0.06697541
v -1.182082 0.2134123 0.03812832
v -1.124336 0.2012129 -0.05787212
v -1.058134 0.2510514 -0.1112398
v -1.138465 0.3007722 0.03812832
v -1.166387 0.1939907 0.1247559
v -1.132955 0.2411027 0.1542476
v -0.5753661 -0.1662378 0.1009098
v 0 -0.1903915 0.09884739
v -1.076093 -0.0327909 0.1669282
v -0.9488894 -0.1082571 0.1276046
v -0.5418315 -0.2343531 -0.1205209
v -0.5336118 -0.167134 -0.164866
v -0.8829767 -0.1085672 -0.1381714
v -0.9998807 -0.03014207 -0.1203431
v -1.045967 -0.009851694 0.03806627
v -0.9062334 -0.1076934 -0.003169894
v -0.5488882 -0.1658187 -0.02854615
v 0 -0.1703527 -0.02824289
v 1.166387 0.1939907 0.1247559
v 1.126276 -0.07236314 0.1414523
v 1.138465 0.3007722 0.03812832
v 0.9998807 -0.03014207 -0.1203431
v 1.058134 0.2510514 -0.1112398
v 1.132955 0.2411027 0.1542476
v 1.132955 0.2411027 0.1542476
v 1.076093 -0.0327909 0.1669282
v 0.5336118 -0.167134 -0.164866
v 0.8829767 -0.1085672 -0.1381714
v 0.9488894 -0.1082571 0.1276046
v 0.5753661 -0.1662378 0.1009098
v 1.126276 -0.07236314 0.1414523
v 1.132955 0.2411027 0.1542476
v 1.166387 0.1939907 0.1247559
v 1.132955 0.2411027 0.1542476
v 1.076093 -0.0327909 0.1669282
v 0 -0.1922045 -0.1669282
v 0 -0.1903915 0.09884739
v 0 -0.2641859 0.06252235
v 0 -0.300772 -0.03304029
v -1.166387 0.1939907 0.1247559
v 0 -0.1903915 0.09884739
v -1.126276 -0.07236314 0.1414523
v -1.138465 0.3007722 0.03812832
v -0.9998807 -0.03014207 -0.1203431
v -1.058134 0.2510514 -0.1112398
v -1.132955 0.2411027 0.1542476
v -1.076093 -0.0327909 0.1669282
v -1.132955 0.2411027 0.1542476
v -0.5336118 -0.167134 -0.164866
v -0.8829767 -0.1085672 -0.1381714
v -0.9488894 -0.1082571 0.1276046
v -0.5753661 -0.1662378 0.1009098
v -1.132955 0.2411027 0.1542476
v -1.126276 -0.07236314 0.1414523
v -1.166387 0.1939907 0.1247559
v -1.132955 0.2411027 0.1542476
v -1.076093 -0.0327909 0.1669282
v 0 -0.2669585 -0.1225832
v 0 -0.1922045 -0.1669282
v 0 -0.1703527 -0.02824289
v 0 -0.1922045 -0.1669282
v 0 -0.1903915 0.09884739
vt 0.1458719 0.3686869
vt 0.1653094 0.3688627
vt 0.1552747 0.3687748
vt 0.1496474 0.3369281
vt 0.1688247 0.3384017
vt 0.159728 0.3335818
vt 0.159728 0.3277843
vt 0.1719214 0.3324807
vt 0.1440435 0.3321937
vt 0.179311 0.4123564
vt 0.1691238 0.3688627
vt 0.1412154 0.3686869
vt 0.1486915 0.3481976
vt 0.1705778 0.3475624
vt 0.1597216 0.3461272
vt 0.1819511 0.4030616
vt 0.173253 0.3503168
vt 0.1430874 0.3500025
vt 0.1522549 0.4779707
vt 0.1625062 0.4114147
vt 0.1776862 0.4379458
vt 0.1663205 0.4114147
vt 0.1384123 0.4113074
vt 0.1430689 0.4113074
vt 0.1524715 0.4113612
vt 0.1428524 0.4779707
vt 0.1381958 0.4779707
vt 0.1622897 0.4779707
vt 0.1524715 0.4113612
vt 0.1625062 0.4114147
vt 0.1653094 0.3688627
vt 0.1552747 0.3687748
vt 0.1597216 0.3461272
vt 0.1705778 0.3475624
vt 0.1458719 0.3686869
vt 0.1486915 0.3481976
vt 0.159728 0.3335818
vt 0.1496474 0.3369281
vt 0.1440435 0.3321937
vt 0.159728 0.3277843
vt 0.1688247 0.3384017
vt 0.1719214 0.3324807
vt 0.1663205 0.4114147
vt 0.1661041 0.4779707
vt 0.173253 0.3503168
vt 0.1691238 0.3688627
vt 0.1430689 0.4113074
vt 0.1384123 0.4113074
vt 0.1412154 0.3686869
vt 0.1430874 0.3500025
vt 0.1819511 0.4030616
vt 0.179311 0.4123564
vt 0.1776862 0.4379458
vt 0.1776862 0.4779707
vt 0.1688247 0.3384017
vt 0.1705778 0.3475624
vt 0.1819552 0.3964386
vt 0.1718085 0.4029641
vt 0.1723914 0.3988323
vt 0.1893901 0.3989878
vt 0.1893901 0.3989878
vt 0.1902021 0.4031484
vt 0.1689578 0.4373224
vt 0.1706669 0.4113344
vt 0.1876842 0.4114414
vt 0.185975 0.4373877
vt 0.1705778 0.3475624
vt 0.1719214 0.3324807
vt 0.1688247 0.3384017
vt 0.1719214 0.3324807
vt 0.1902021 0.4031484
vt 0.1688257 0.4779707
vt 0.1858431 0.4779707
vt 0.1622897 0.4779707
vt 0.1522549 0.4779707
vt 0.1688247 0.3384017
vt 0.1661041 0.4779707
vt 0.1705778 0.3475624
vt 0.1819552 0.3964386
vt 0.1718085 0.4029641
vt 0.1723914 0.3988323
vt 0.1893901 0.3989878
vt 0.1902021 0.4031484
vt 0.1893901 0.3989878
vt 0.1689578 0.4373224
vt 0.1706669 0.4113344
vt 0.1876842 0.4114414
vt 0.185975 0.4373877
vt 0.1719214 0.3324807
vt 0.1705778 0.3475624
vt 0.1688247 0.3384017
vt 0.1719214 0.3324807
vt 0.1902021 0.4031484
vt 0.1428524 0.4779707
vt 0.1381958 0.4779707
vt 0.1776862 0.4779707
vt 0.1688257 0.4779707
vt 0.1858431 0.4779707
vn 0.3293705 -0.7074618 -0.6253101
vn 0.2103907 -0.7943165 0.5699098
vn 0.3428603 -0.9351072 -0.08956197
vn 0.7688131 0.07679483 -0.6348456
vn 0.8766449 0.08052654 0.4743515
vn 0.9696172 0.1646369 -0.1809342
vn 0.8698531 0.4513293 -0.1991422
vn 0.7961999 0.2720461 0.5404226
vn 0.6926438 0.1136032 -0.7122772
vn -0.3718778 0.9244889 0.0838275
vn 0.03118227 -0.5111063 0.8589517
vn 0.3035977 -0.5056584 -0.8075506
vn 0.6489614 -0.4076939 -0.6423666
vn 0.6643818 -0.4926909 0.5620076
vn 0.7963037 -0.5825181 -0.1630123
vn -0.8193763 0.5237917 0.2329477
vn 0.3052203 -0.2861016 0.9082877
vn 0.516802 -0.3054582 -0.7997568
vn 0 -0.9999968 -0.002534414
vn 0.06585474 -0.765043 0.6406032
vn -0.09273279 0.9955297 0.01792264
vn 0.01993055 -0.485379 0.8740767
vn 0.09283181 -0.5351537 -0.8396385
vn 0.1112217 -0.7661342 -0.6329834
vn 0.1172134 -0.9928666 -0.02184054
vn 0 -0.7758456 -0.6309228
vn 0 -0.5284977 -0.8489348
vn 0 -0.7540998 0.6567598
vn -0.1172134 -0.9928666 -0.02184058
vn -0.06585474 -0.765043 0.6406031
vn -0.2103907 -0.7943165 0.5699098
vn -0.3428603 -0.9351072 -0.08956198
vn -0.7963037 -0.5825181 -0.1630123
vn -0.6643818 -0.4926908 0.5620076
vn -0.3293705 -0.7074618 -0.6253101
vn -0.6489614 -0.4076939 -0.6423666
vn -0.9696172 0.1646369 -0.1809342
vn -0.7688131 0.07679486 -0.6348456
vn -0.6926438 0.1136033 -0.7122772
vn -0.8698531 0.4513293 -0.1991422
vn -0.8766449 0.08052652 0.4743515
vn -0.7961999 0.2720461 0.5404226
vn -0.01993055 -0.485379 0.8740767
vn 0 -0.4634038 0.8861472
vn -0.3052203 -0.2861016 0.9082877
vn -0.03118227 -0.5111063 0.8589517
vn -0.1112217 -0.7661342 -0.6329834
vn -0.09283182 -0.5351537 -0.8396385
vn -0.3035977 -0.5056584 -0.8075506
vn -0.516802 -0.3054582 -0.7997568
vn 0.8193764 0.5237917 0.2329476
vn 0.3718778 0.9244889 0.0838275
vn 0.09273279 0.9955297 0.01792264
vn 0 1 -0.0001384906
vn 0.8766449 0.08052654 0.4743515
vn 0.6643818 -0.4926909 0.5620076
vn -0.9372298 0.2384164 0.2544755
vn -0.764281 0.6162113 0.1901531
vn -0.9176748 0.2287249 0.3248968
vn -0.9522797 0.2471979 0.1790433
vn -0.9522797 0.2471979 0.1790433
vn -0.823963 0.5239335 0.215821
vn -0.08912081 0.9952766 -0.03849611
vn -0.3448235 0.9377106 0.04237572
vn -0.4395268 0.8819483 0.1702454
vn -0.1029297 0.9927768 0.06164248
vn 0.6643818 -0.4926909 0.5620076
vn 0.7961999 0.2720461 0.5404226
vn 0.8766449 0.08052654 0.4743515
vn 0.7961999 0.2720461 0.5404226
vn -0.823963 0.5239335 0.215821
vn 0 0.9965952 -0.08244913
vn 0 0.996623 0.08211253
vn 0 -0.7540998 0.6567598
vn 0 -0.9999968 -0.002534414
vn -0.8766449 0.08052652 0.4743515
vn 0 -0.4634038 0.8861472
vn -0.6643818 -0.4926908 0.5620076
vn 0.9372298 0.2384165 0.2544755
vn 0.764281 0.6162113 0.1901531
vn 0.9176748 0.2287249 0.3248967
vn 0.9522797 0.2471979 0.1790433
vn 0.823963 0.5239335 0.215821
vn 0.9522797 0.2471979 0.1790433
vn 0.08912081 0.9952766 -0.03849611
vn 0.3448235 0.9377106 0.04237572
vn 0.4395268 0.8819483 0.1702454
vn 0.1029297 0.9927768 0.06164248
vn -0.7961999 0.2720461 0.5404226
vn -0.6643818 -0.4926908 0.5620076
vn -0.8766449 0.08052652 0.4743515
vn -0.7961999 0.2720461 0.5404226
vn 0.823963 0.5239335 0.215821
vn 0 -0.7758456 -0.6309228
vn 0 -0.5284977 -0.8489348
vn 0 1 -0.0001384906
vn 0 0.9965952 -0.08244913
vn 0 0.996623 0.08211253
g tampon_on_0
f 8/8/8 55/55/55 7/7/7
f 62/62/62 61/61/61 16/16/16
f 68/68/68 67/67/67 69/69/69
f 40/40/40 41/41/41 42/42/42
f 51/51/51 82/82/82 83/83/83
f 91/91/91 90/90/90 92/92/92
f 1/1/1 23/23/23 12/12/12
f 13/13/13 1/1/1 12/12/12
f 3/3/3 1/1/1 13/13/13
f 15/15/15 3/3/3 13/13/13
f 2/2/2 3/3/3 15/15/15
f 14/14/14 2/2/2 15/15/15
f 11/11/11 2/2/2 56/56/56
f 20/20/20 2/2/2 11/11/11
f 22/22/22 20/20/20 11/11/11
f 28/28/28 20/20/20 22/22/22
f 44/44/44 28/28/28 22/22/22
f 58/58/58 57/57/57 59/59/59
f 16/16/16 57/57/57 58/58/58
f 10/10/10 16/16/16 58/58/58
f 65/65/65 16/16/16 10/10/10
f 21/21/21 65/65/65 10/10/10
f 66/66/66 65/65/65 21/21/21
f 73/73/73 66/66/66 21/21/21
f 16/16/16 60/60/60 57/57/57
f 4/4/4 18/18/18 9/9/9
f 13/13/13 18/18/18 4/4/4
f 6/6/6 13/13/13 4/4/4
f 15/15/15 13/13/13 6/6/6
f 5/5/5 15/15/15 6/6/6
f 56/56/56 15/15/15 5/5/5
f 17/17/17 56/56/56 70/70/70
f 11/11/11 56/56/56 17/17/17
f 71/71/71 16/16/16 65/65/65
f 63/63/63 21/21/21 10/10/10
f 54/54/54 21/21/21 63/63/63
f 72/72/72 54/54/54 63/63/63
f 47/47/47 95/95/95 94/94/94
f 29/29/29 47/47/47 94/94/94
f 32/32/32 47/47/47 29/29/29
f 31/31/31 32/32/32 29/29/29
f 33/33/33 32/32/32 31/31/31
f 34/34/34 33/33/33 31/31/31
f 43/43/43 74/74/74 77/77/77
f 30/30/30 74/74/74 43/43/43
f 46/46/46 30/30/30 43/43/43
f 31/31/31 30/30/30 46/46/46
f 78/78/78 31/31/31 46/46/46
f 53/53/53 88/88/88 98/98/98
f 87/87/87 88/88/88 53/53/53
f 52/52/52 87/87/87 53/53/53
f 51/51/51 87/87/87 52/52/52
f 80/80/80 51/51/51 52/52/52
f 79/79/79 51/51/51 80/80/80
f 81/81/81 79/79/79 80/80/80
f 79/79/79 84/84/84 51/51/51
f 38/38/38 39/39/39 50/50/50
f 36/36/36 38/38/38 50/50/50
f 37/37/37 38/38/38 36/36/36
f 33/33/33 37/37/37 36/36/36
f 76/76/76 37/37/37 33/33/33
f 78/78/78 76/76/76 33/33/33
f 78/78/78 45/45/45 89/89/89
f 46/46/46 45/45/45 78/78/78
f 87/87/87 51/51/51 93/93/93
f 96/96/96 53/53/53 98/98/98
f 85/85/85 53/53/53 96/96/96
f 97/97/97 85/85/85 96/96/96
f 24/24/24 27/27/27 23/23/23
f 26/26/26 27/27/27 24/24/24
f 25/25/25 26/26/26 24/24/24
f 19/19/19 26/26/26 25/25/25
f 28/28/28 19/19/19 25/25/25
f 6/6/6 7/7/7 5/5/5
f 9/9/9 7/7/7 6/6/6
f 4/4/4 9/9/9 6/6/6
f 10/10/10 64/64/64 63/63/63
f 58/58/58 64/64/64 10/10/10
f 18/18/18 13/13/13 12/12/12
f 73/73/73 21/21/21 54/54/54
f 29/29/29 30/30/30 31/31/31
f 74/74/74 30/30/30 29/29/29
f 75/75/75 74/74/74 29/29/29
f 37/37/37 39/39/39 38/38/38
f 40/40/40 39/39/39 37/37/37
f 76/76/76 40/40/40 37/37/37
f 49/49/49 36/36/36 50/50/50
f 35/35/35 36/36/36 49/49/49
f 48/48/48 35/35/35 49/49/49
f 47/47/47 35/35/35 48/48/48
f 95/95/95 47/47/47 48/48/48
f 52/52/52 86/86/86 80/80/80
f 85/85/85 86/86/86 52/52/52
f 53/53/53 85/85/85 52/52/52
f 29/29/29 94/94/94 75/75/75
f 25/25/25 20/20/20 28/28/28
f 2/2/2 20/20/20 25/25/25
f 3/3/3 2/2/2 25/25/25
f 24/24/24 3/3/3 25/25/25
f 1/1/1 3/3/3 24/24/24
f 23/23/23 1/1/1 24/24/24
f 32/32/32 35/35/35 47/47/47
f 36/36/36 35/35/35 32/32/32
f 33/33/33 36/36/36 32/32/32
