g tepelamba4_4
v 0 5.340576E-08 -0.09204221
v 0 -0.05347783 -0.06737971
v -0.02673894 -0.04631311 -0.06737971
v -0.04631323 -0.02673883 -0.06737971
v -0.05347788 5.340576E-08 -0.06737971
v -0.04631323 0.02673906 -0.06737971
v -0.02673894 0.04631334 -0.06737971
v 0 0.05347805 -0.06737971
v 0.02673888 0.04631334 -0.06737971
v 0.04631323 0.02673906 -0.06737971
v 0.05347788 1.72615E-07 -0.06737971
v 0.04631329 -0.02673883 -0.06737971
v 0.026739 -0.04631311 -0.06737971
v 0 -0.09262628 2.390146E-07
v -0.04631323 -0.08021671 2.390146E-07
v -0.08021683 -0.04631311 2.390146E-07
v -0.09262645 5.340576E-08 2.390146E-07
v -0.08021683 0.04631322 2.390146E-07
v -0.04631329 0.08021694 2.390146E-07
v -5.960464E-08 0.0926265 2.390146E-07
v 0.04631317 0.08021694 2.390146E-07
v 0.08021683 0.04631334 2.390146E-07
v 0.09262639 1.72615E-07 2.390146E-07
v 0.08021688 -0.04631311 2.390146E-07
v 0.04631329 -0.08021671 2.390146E-07
v 0 -0.1069557 0.09204221
v -0.05347794 -0.09262628 0.09204221
v -0.09262645 -0.05347783 0.09204221
v -0.1069558 5.340576E-08 0.09204221
v -0.09262645 0.05347805 0.09204221
v -0.05347794 0.0926265 0.09204221
v -5.960464E-08 0.1069559 0.09204221
v 0.05347788 0.0926265 0.09204221
v 0.09262633 0.05347805 0.09204221
v 0.1069558 1.72615E-07 0.09204221
v 0.09262645 -0.05347771 0.09204221
v 0.05347794 -0.09262628 0.09204221
v 0 5.340576E-08 0.09204221
v 0 -0.09262628 2.390146E-07
v -5.960464E-08 0.0926265 2.390146E-07
v -5.960464E-08 0.0926265 2.390146E-07
v -5.960464E-08 0.1069559 0.09204221
v 0 -0.1069557 0.09204221
v 0 -0.09262628 2.390146E-07
v -0.05347794 -0.09262628 0.09204221
v 0 -0.1069557 0.09204221
v 0.05347794 -0.09262628 0.09204221
v 0.09262645 -0.05347771 0.09204221
v 0.1069558 1.72615E-07 0.09204221
v 0.09262633 0.05347805 0.09204221
v 0.05347788 0.0926265 0.09204221
v -5.960464E-08 0.1069559 0.09204221
v -0.05347794 0.0926265 0.09204221
v -0.09262645 0.05347805 0.09204221
v -0.1069558 5.340576E-08 0.09204221
v -0.09262645 -0.05347783 0.09204221
vt 0.2196681 0.4575301
vt 0.2196681 0.4501752
vt 0.2159906 0.4511606
vt 0.2132985 0.4538527
vt 0.2123131 0.4575301
vt 0.2132985 0.4612076
vt 0.2159906 0.4638997
vt 0.2196681 0.4648851
vt 0.2233456 0.4638997
vt 0.2260377 0.4612076
vt 0.2270231 0.4575301
vt 0.2260377 0.4538527
vt 0.2233456 0.4511606
vt 0.2196681 0.4447909
vt 0.2132985 0.4464977
vt 0.2086356 0.4511606
vt 0.2069289 0.4575301
vt 0.2086356 0.4638997
vt 0.2132985 0.4685626
vt 0.2196681 0.4702694
vt 0.2260377 0.4685626
vt 0.2307006 0.4638997
vt 0.2324073 0.4575301
vt 0.2307006 0.4511606
vt 0.2260377 0.4464977
vt 0.2196681 0.4428202
vt 0.2123131 0.4447909
vt 0.2069289 0.4501752
vt 0.2049581 0.4575301
vt 0.2069289 0.4648851
vt 0.2123131 0.4702693
vt 0.2196681 0.4722401
vt 0.227023 0.4702694
vt 0.2324073 0.4648851
vt 0.2343781 0.4575302
vt 0.2324073 0.4501752
vt 0.2270231 0.4447909
vt 0.0551247 0.4419394
vt 0.2196681 0.4447909
vt 0.2196681 0.4702694
vt 0.2196681 0.4702694
vt 0.2196681 0.4722401
vt 0.2196681 0.4428202
vt 0.2196681 0.4447909
vt 0.04647889 0.4269644
vt 0.0551247 0.4246477
vt 0.06377054 0.4269644
vt 0.07009967 0.4332936
vt 0.07241634 0.4419394
vt 0.07009967 0.4505852
vt 0.0637705 0.4569143
vt 0.0551247 0.459231
vt 0.04647889 0.4569143
vt 0.04014972 0.4505852
vt 0.03783308 0.4419393
vt 0.04014972 0.4332935
vn 0 0 -1
vn 0 -0.6530273 -0.7573344
vn -0.372193 -0.6446573 -0.6677494
vn -0.5655373 -0.3265133 -0.7573352
vn -0.7443861 0 -0.6677494
vn -0.5655376 0.3265131 -0.7573349
vn -0.3721938 0.644657 -0.6677493
vn 0 0.6530266 -0.7573349
vn 0.3721933 0.6446581 -0.6677485
vn 0.5655376 0.3265138 -0.7573348
vn 0.7443863 0 -0.6677492
vn 0.5655376 -0.3265128 -0.7573352
vn 0.372193 -0.644658 -0.6677489
vn 0 -0.942381 -0.3345416
vn -0.4711903 -0.8161256 -0.3345424
vn -0.8161255 -0.4711907 -0.3345422
vn -0.9423808 0 -0.3345419
vn -0.8161259 0.4711901 -0.3345419
vn -0.4711912 0.8161253 -0.3345421
vn 0 0.9423808 -0.3345419
vn 0.4711903 0.8161262 -0.3345411
vn 0.8161256 0.4711908 -0.3345416
vn 0.9423808 0 -0.3345418
vn 0.8161263 -0.4711893 -0.3345418
vn 0.4711905 -0.8161258 -0.3345417
vn 0 -0.9880972 -0.1538311
vn -0.4940486 -0.8557173 -0.1538309
vn -0.8557171 -0.4940491 -0.1538303
vn -0.9880974 0 -0.1538298
vn -0.8557176 0.4940486 -0.1538296
vn -0.4940494 0.8557171 -0.1538298
vn 0 0.9880974 -0.1538296
vn 0.4940484 0.8557177 -0.1538293
vn 0.8557173 0.4940487 -0.1538298
vn 0.9880973 0 -0.15383
vn 0.8557181 -0.4940475 -0.1538294
vn 0.4940492 -0.8557171 -0.1538301
vn 0 0 1
vn 0 -0.942381 -0.3345416
vn 0 0.9423808 -0.3345419
vn 0 0.9423808 -0.3345419
vn 0 0.9880974 -0.1538296
vn 0 -0.9880972 -0.1538311
vn 0 -0.942381 -0.3345416
vn 0 0 1
vn 0 0 1
vn 0 0 1
vn 0 0 1
vn 0 0 1
vn 0 0 1
vn 0 0 1
vn 0 0 1
vn 0 0 1
vn 0 0 1
vn 0 0 1
vn 0 0 1
g tepelamba4_4_0
f 19/19/19 32/32/32 40/40/40
f 31/31/31 32/32/32 19/19/19
f 18/18/18 31/31/31 19/19/19
f 30/30/30 31/31/31 18/18/18
f 17/17/17 30/30/30 18/18/18
f 29/29/29 30/30/30 17/17/17
f 16/16/16 29/29/29 17/17/17
f 28/28/28 29/29/29 16/16/16
f 15/15/15 28/28/28 16/16/16
f 27/27/27 28/28/28 15/15/15
f 39/39/39 27/27/27 15/15/15
f 26/26/26 27/27/27 39/39/39
f 25/25/25 43/43/43 44/44/44
f 37/37/37 43/43/43 25/25/25
f 24/24/24 37/37/37 25/25/25
f 36/36/36 37/37/37 24/24/24
f 23/23/23 36/36/36 24/24/24
f 35/35/35 36/36/36 23/23/23
f 22/22/22 35/35/35 23/23/23
f 34/34/34 35/35/35 22/22/22
f 21/21/21 34/34/34 22/22/22
f 33/33/33 34/34/34 21/21/21
f 41/41/41 33/33/33 21/21/21
f 42/42/42 33/33/33 41/41/41
f 13/13/13 14/14/14 2/2/2
f 25/25/25 14/14/14 13/13/13
f 12/12/12 25/25/25 13/13/13
f 24/24/24 25/25/25 12/12/12
f 11/11/11 24/24/24 12/12/12
f 23/23/23 24/24/24 11/11/11
f 10/10/10 23/23/23 11/11/11
f 22/22/22 23/23/23 10/10/10
f 9/9/9 22/22/22 10/10/10
f 21/21/21 22/22/22 9/9/9
f 8/8/8 21/21/21 9/9/9
f 20/20/20 21/21/21 8/8/8
f 7/7/7 20/20/20 8/8/8
f 19/19/19 20/20/20 7/7/7
f 6/6/6 19/19/19 7/7/7
f 18/18/18 19/19/19 6/6/6
f 5/5/5 18/18/18 6/6/6
f 17/17/17 18/18/18 5/5/5
f 4/4/4 17/17/17 5/5/5
f 16/16/16 17/17/17 4/4/4
f 3/3/3 16/16/16 4/4/4
f 15/15/15 16/16/16 3/3/3
f 2/2/2 15/15/15 3/3/3
f 14/14/14 15/15/15 2/2/2
f 38/38/38 46/46/46 47/47/47
f 45/45/45 46/46/46 38/38/38
f 56/56/56 45/45/45 38/38/38
f 38/38/38 49/49/49 50/50/50
f 48/48/48 49/49/49 38/38/38
f 47/47/47 48/48/48 38/38/38
f 38/38/38 52/52/52 53/53/53
f 51/51/51 52/52/52 38/38/38
f 50/50/50 51/51/51 38/38/38
f 38/38/38 55/55/55 56/56/56
f 54/54/54 55/55/55 38/38/38
f 53/53/53 54/54/54 38/38/38
f 1/1/1 4/4/4 5/5/5
f 3/3/3 4/4/4 1/1/1
f 2/2/2 3/3/3 1/1/1
f 1/1/1 7/7/7 8/8/8
f 6/6/6 7/7/7 1/1/1
f 5/5/5 6/6/6 1/1/1
f 1/1/1 10/10/10 11/11/11
f 9/9/9 10/10/10 1/1/1
f 8/8/8 9/9/9 1/1/1
f 1/1/1 13/13/13 2/2/2
f 12/12/12 13/13/13 1/1/1
f 11/11/11 12/12/12 1/1/1
