g tepelambasol3
v 0 -1.254082E-07 -0.08148421
v 0 -0.08148444 -0.05965056
v -0.04074213 -0.07056762 -0.05965056
v -0.07056743 -0.04074229 -0.05965056
v -0.08148426 -1.254082E-07 -0.05965056
v -0.07056744 0.04074191 -0.05965056
v -0.04074216 0.07056736 -0.05965056
v -2.980232E-08 0.08148407 -0.05965056
v 0.0407421 0.07056736 -0.05965056
v 0.07056743 0.04074203 -0.05965056
v 0.08148423 -1.254082E-07 -0.05965056
v 0.07056749 -0.04074217 -0.05965056
v 0.04074222 -0.0705675 -0.05965056
v 0 -0.141135 1.049042E-07
v -0.07056744 -0.1222265 1.049042E-07
v -0.1222264 -0.07056762 1.049042E-07
v -0.1411349 -1.254082E-07 1.049042E-07
v -0.1222264 0.07056724 1.049042E-07
v -0.07056747 0.1222262 1.049042E-07
v -4.470348E-08 0.1411347 1.049042E-07
v 0.07056737 0.1222262 1.049042E-07
v 0.1222263 0.07056736 1.049042E-07
v 0.1411349 -6.198883E-09 1.049042E-07
v 0.1222264 -0.0705675 1.049042E-07
v 0.07056758 -0.1222265 1.049042E-07
v 1.490116E-08 -0.1629686 0.0814843
v -0.08148427 -0.141135 0.0814843
v -0.1411349 -0.08148444 0.0814843
v -0.1629685 -1.254082E-07 0.0814843
v -0.1411349 0.08148407 0.0814843
v -0.0814843 0.1411347 0.0814843
v -5.960464E-08 0.1629684 0.0814843
v 0.08148417 0.1411347 0.0814843
v 0.1411349 0.08148419 0.0814843
v 0.1629685 -6.198883E-09 0.0814843
v 0.141135 -0.08148433 0.0814843
v 0.08148441 -0.141135 0.0814843
v 1.490116E-08 -1.254082E-07 0.0814843
v -0.08148427 -0.141135 0.0814843
v 1.490116E-08 -0.1629686 0.0814843
v 0.08148441 -0.141135 0.0814843
v 0.141135 -0.08148433 0.0814843
v 0.1629685 -6.198883E-09 0.0814843
v 0.1411349 0.08148419 0.0814843
v 0.08148417 0.1411347 0.0814843
v -5.960464E-08 0.1629684 0.0814843
v -0.0814843 0.1411347 0.0814843
v -0.1411349 0.08148407 0.0814843
v -0.1629685 -1.254082E-07 0.0814843
v -0.1411349 -0.08148444 0.0814843
vt 0.6493559 0.3244492
vt 0.6493559 0.3052361
vt 0.6397493 0.3078102
vt 0.6327167 0.3148427
vt 0.6301427 0.3244492
vt 0.6327167 0.3340558
vt 0.6397493 0.3410883
vt 0.6493559 0.3436624
vt 0.6589625 0.3410884
vt 0.6659949 0.3340558
vt 0.6685691 0.3244492
vt 0.6659949 0.3148427
vt 0.6589625 0.3078102
vt 0.6493559 0.291171
vt 0.6327167 0.2956295
vt 0.6205361 0.3078102
vt 0.6160777 0.3244492
vt 0.6205361 0.3410883
vt 0.6327167 0.353269
vt 0.6493559 0.3577274
vt 0.6659949 0.353269
vt 0.6781757 0.3410884
vt 0.6826342 0.3244493
vt 0.6781757 0.3078102
vt 0.6659949 0.2956295
vt 0.6493559 0.2768006
vt 0.6255315 0.2831843
vt 0.6080909 0.300625
vt 0.6017073 0.3244493
vt 0.6080909 0.3482737
vt 0.6255315 0.3657143
vt 0.6493559 0.372098
vt 0.6731802 0.3657143
vt 0.6906208 0.3482737
vt 0.6970046 0.3244494
vt 0.6906208 0.300625
vt 0.6731802 0.2831843
vt 0.538513 0.3211561
vt 0.5126466 0.2763541
vt 0.538513 0.2694233
vt 0.5643794 0.2763542
vt 0.583315 0.2952897
vt 0.5902458 0.3211561
vt 0.5833148 0.3470226
vt 0.5643793 0.3659581
vt 0.538513 0.3728889
vt 0.5126466 0.3659581
vt 0.4937109 0.3470225
vt 0.4867802 0.3211561
vt 0.4937111 0.2952896
vn 0 0 -1
vn 0 -0.4982315 -0.8670441
vn -0.2491153 -0.4314812 -0.8670442
vn -0.4314808 -0.2491158 -0.8670443
vn -0.4982315 0 -0.867044
vn -0.431481 0.2491154 -0.8670442
vn -0.2491148 0.431481 -0.8670443
vn 0 0.4982318 -0.8670439
vn 0.2491141 0.4314813 -0.8670444
vn 0.4314806 0.2491158 -0.8670443
vn 0.4982316 0 -0.867044
vn 0.4314812 -0.2491153 -0.8670442
vn 0.2491162 -0.4314809 -0.8670441
vn 0 -0.8650333 -0.5017143
vn -0.4325165 -0.749141 -0.5017143
vn -0.7491409 -0.4325166 -0.5017144
vn -0.8650333 0 -0.5017144
vn -0.7491413 0.4325162 -0.5017143
vn -0.432517 0.7491407 -0.5017145
vn 0 0.8650335 -0.501714
vn 0.4325164 0.7491411 -0.5017142
vn 0.7491406 0.4325169 -0.5017146
vn 0.8650331 0 -0.5017146
vn 0.7491413 -0.4325156 -0.5017145
vn 0.4325169 -0.7491405 -0.5017146
vn 0 -0.9659257 -0.2588194
vn -0.482963 -0.8365161 -0.2588192
vn -0.8365164 -0.4829626 -0.2588191
vn -0.9659258 0 -0.2588191
vn -0.8365166 0.4829623 -0.258819
vn -0.4829634 0.836516 -0.2588191
vn 0 0.9659258 -0.2588189
vn 0.4829628 0.8365163 -0.258819
vn 0.8365162 0.4829629 -0.2588192
vn 0.9659257 0 -0.2588193
vn 0.836517 -0.4829615 -0.2588194
vn 0.4829633 -0.836516 -0.2588195
vn 0 0 1
vn 0 0 1
vn 0 0 1
vn 0 0 1
vn 0 0 1
vn 0 0 1
vn 0 0 1
vn 0 0 1
vn 0 0 1
vn 0 0 1
vn 0 0 1
vn 0 0 1
vn 0 0 1
g tepelambasol3_0
f 25/25/25 26/26/26 14/14/14
f 37/37/37 26/26/26 25/25/25
f 24/24/24 37/37/37 25/25/25
f 36/36/36 37/37/37 24/24/24
f 23/23/23 36/36/36 24/24/24
f 35/35/35 36/36/36 23/23/23
f 22/22/22 35/35/35 23/23/23
f 34/34/34 35/35/35 22/22/22
f 21/21/21 34/34/34 22/22/22
f 33/33/33 34/34/34 21/21/21
f 20/20/20 33/33/33 21/21/21
f 32/32/32 33/33/33 20/20/20
f 19/19/19 32/32/32 20/20/20
f 31/31/31 32/32/32 19/19/19
f 18/18/18 31/31/31 19/19/19
f 30/30/30 31/31/31 18/18/18
f 17/17/17 30/30/30 18/18/18
f 29/29/29 30/30/30 17/17/17
f 16/16/16 29/29/29 17/17/17
f 28/28/28 29/29/29 16/16/16
f 15/15/15 28/28/28 16/16/16
f 27/27/27 28/28/28 15/15/15
f 14/14/14 27/27/27 15/15/15
f 26/26/26 27/27/27 14/14/14
f 38/38/38 40/40/40 41/41/41
f 39/39/39 40/40/40 38/38/38
f 50/50/50 39/39/39 38/38/38
f 38/38/38 43/43/43 44/44/44
f 42/42/42 43/43/43 38/38/38
f 41/41/41 42/42/42 38/38/38
f 38/38/38 46/46/46 47/47/47
f 45/45/45 46/46/46 38/38/38
f 44/44/44 45/45/45 38/38/38
f 38/38/38 49/49/49 50/50/50
f 48/48/48 49/49/49 38/38/38
f 47/47/47 48/48/48 38/38/38
f 5/5/5 17/17/17 18/18/18
f 4/4/4 17/17/17 5/5/5
f 1/1/1 4/4/4 5/5/5
f 3/3/3 4/4/4 1/1/1
f 2/2/2 3/3/3 1/1/1
f 15/15/15 3/3/3 2/2/2
f 14/14/14 15/15/15 2/2/2
f 6/6/6 5/5/5 18/18/18
f 1/1/1 5/5/5 6/6/6
f 7/7/7 1/1/1 6/6/6
f 8/8/8 1/1/1 7/7/7
f 20/20/20 8/8/8 7/7/7
f 21/21/21 8/8/8 20/20/20
f 9/9/9 8/8/8 21/21/21
f 1/1/1 8/8/8 9/9/9
f 10/10/10 1/1/1 9/9/9
f 11/11/11 1/1/1 10/10/10
f 23/23/23 11/11/11 10/10/10
f 24/24/24 11/11/11 23/23/23
f 12/12/12 11/11/11 24/24/24
f 1/1/1 11/11/11 12/12/12
f 13/13/13 1/1/1 12/12/12
f 2/2/2 1/1/1 13/13/13
f 14/14/14 2/2/2 13/13/13
f 16/16/16 3/3/3 15/15/15
f 4/4/4 3/3/3 16/16/16
f 17/17/17 4/4/4 16/16/16
f 19/19/19 6/6/6 18/18/18
f 7/7/7 6/6/6 19/19/19
f 20/20/20 7/7/7 19/19/19
f 22/22/22 9/9/9 21/21/21
f 10/10/10 9/9/9 22/22/22
f 23/23/23 10/10/10 22/22/22
f 25/25/25 12/12/12 24/24/24
f 13/13/13 12/12/12 25/25/25
f 14/14/14 13/13/13 25/25/25
