g yan_duvarlar
v -21.16808 -22.03516 0
v 21.16808 -22.03516 0
v -21.16808 22.03516 0
v 21.16808 22.03516 0
v 21.16808 -22.03516 7.761455
v 21.16808 22.03516 7.761455
v -21.16808 -22.03516 7.761455
v -21.16808 22.03516 7.761455
vt -0.6524662 0.2536317
vt 1.652467 0.2536317
vt 1.652467 0.2536317
vt -0.6524662 0.2536317
vt 1.652467 1.221833
vt -0.6524662 1.221833
vt -0.6524662 1.221833
vt 1.652467 1.221833
vn 1 0 0
vn -1 0 0
vn 1 0 0
vn -1 0 0
vn -1 0 0
vn -1 0 0
vn 1 0 0
vn 1 0 0
g yan_duvarlar_0
f 5/5/5 4/4/4 2/2/2
f 6/6/6 4/4/4 5/5/5
f 8/8/8 1/1/1 3/3/3
f 7/7/7 1/1/1 8/8/8
